  0
SECTION
  2
HEADER
  9
$ANGBASE
  50
0.0
  9
$ANGDIR
  70
1
  9
$MEASUREMENT
  70
1
  9
$INSUNITS
  70
4
  0
ENDSEC
  0
SECTION
  2
TABLES
  0
TABLE
  2
LTYPE
  70
4
  0
LTYPE
  5
40F
  2
CONTINUOUS
  70
0
  3
Solid line
  72
65
  73
0
  40
0.0
  0
LTYPE
  5
410
  2
DASHDOT
 70
0
  3
Dash Dot ____ _ ____ _
 72
65
 73
4
 40
2.0
 49
1.25
 49
-0.25
 49
0.25
 49
-0.25
  0
LTYPE
  5
411
  2
DASHED
 70
0
  3
Dashed __ __ __ __ __
 72
65
 73
2
 40
0.75
 49
0.5
 49
-0.25
  0
LTYPE
  5
43B
  2
DOTTED
 70
0
  3
Dotted .  .  .  .
 72
65
 73
2
 40
0.2
 49
0.0
 49
-0.2
  0
ENDTAB
  0
TABLE
  2
STYLE
  70
4
  0
STYLE
  2
KICAD
  70
0
  40
0
  41
1
  42
1
  50
0
  71
0
  3
isocp.shx
  0
STYLE
  2
KICADB
  70
0
  40
0
  41
1
  42
1
  50
0
  71
0
  3
isocp.shx
  0
STYLE
  2
KICADI
  70
0
  40
0
  41
1
  42
1
  50
15
  71
0
  3
isocp.shx
  0
STYLE
  2
KICADBI
  70
0
  40
0
  41
1
  42
1
  50
15
  71
0
  3
isocp.shx
  0
ENDTAB
  0
TABLE
  2
LAYER
  70
9
  0
LAYER
  2
L1 (Sig, PWR)
  70
0
  62
13
  420
13120564
  6
CONTINUOUS
  0
LAYER
  2
L6 (Sig, PWR)
  70
0
  62
153
  420
5078980
  6
CONTINUOUS
  0
LAYER
  2
F.Paste
  70
0
  62
253
  420
11837594
  6
CONTINUOUS
  0
LAYER
  2
B.Paste
  70
0
  62
132
  420
49858
  6
CONTINUOUS
  0
LAYER
  2
F.Silkscreen
  70
0
  62
41
  420
15920545
  6
CONTINUOUS
  0
LAYER
  2
B.Silkscreen
  70
0
  62
31
  420
15250087
  6
CONTINUOUS
  0
LAYER
  2
F.Mask
  70
0
  62
201
  420
14181631
  6
CONTINUOUS
  0
LAYER
  2
B.Mask
  70
0
  62
4
  420
196590
  6
CONTINUOUS
  0
LAYER
  2
Edge.Cuts
  70
0
  62
254
  420
13685453
  6
CONTINUOUS
  0
ENDTAB
  0
ENDSEC
  0
SECTION
  2
ENTITIES
0
LINE
8
B.Silkscreen
6
CONTINUOUS
10
130.8343930000000057
20
-94.4249159999999961
11
130.8411130000000071
21
-94.4262599999999992
0
LINE
8
B.Silkscreen
6
CONTINUOUS
10
130.8411130000000071
20
-94.4262599999999992
11
130.8479649999999879
21
-94.4262599999999992
0
LINE
8
B.Silkscreen
6
CONTINUOUS
10
130.8479649999999879
20
-94.4262599999999992
11
130.8498779999999897
21
-94.4266399999999919
0
LINE
8
B.Silkscreen
6
CONTINUOUS
10
130.8498779999999897
20
-94.4266399999999919
11
130.8562869999999805
21
-94.4292939999999987
0
LINE
8
B.Silkscreen
6
CONTINUOUS
10
130.8562869999999805
20
-94.4292939999999987
11
130.8630870000000073
21
-94.4306550000000016
0
LINE
8
B.Silkscreen
6
CONTINUOUS
10
130.8630870000000073
20
-94.4306550000000016
11
130.8648880000000077
21
-94.4314029999999889
0
LINE
8
B.Silkscreen
6
CONTINUOUS
10
130.8648880000000077
20
-94.4314029999999889
11
130.870584000000008
21
-94.4352169999999944
0
LINE
8
B.Silkscreen
6
CONTINUOUS
10
130.870584000000008
20
-94.4352169999999944
11
130.8769149999999968
21
-94.4378399999999942
0
LINE
8
B.Silkscreen
6
CONTINUOUS
10
130.8769149999999968
20
-94.4378399999999942
11
130.8785369999999944
21
-94.4389230000000026
0
LINE
8
B.Silkscreen
6
CONTINUOUS
10
130.8785369999999944
20
-94.4389230000000026
11
130.8834439999999972
21
-94.4438299999999913
0
LINE
8
B.Silkscreen
6
CONTINUOUS
10
130.8834439999999972
20
-94.4438299999999913
11
130.8892029999999806
21
-94.4476870000000019
0
LINE
8
B.Silkscreen
6
CONTINUOUS
10
130.8892029999999806
20
-94.4476870000000019
11
130.8902889999999957
21
-94.4486729999999994
0
LINE
8
B.Silkscreen
6
CONTINUOUS
10
130.8902889999999957
20
-94.4486729999999994
11
130.8995089999999948
21
-94.4599309999999974
0
LINE
8
B.Silkscreen
6
CONTINUOUS
10
130.8995089999999948
20
-94.4599309999999974
11
130.8994629999999972
21
-94.4599679999999893
0
LINE
8
B.Silkscreen
6
CONTINUOUS
10
130.8994629999999972
20
-94.4599679999999893
11
130.8995249999999828
21
-94.4600609999999961
0
LINE
8
B.Silkscreen
6
CONTINUOUS
10
130.8995249999999828
20
-94.4600609999999961
11
130.8995799999999861
21
-94.4600169999999935
0
LINE
8
B.Silkscreen
6
CONTINUOUS
10
130.8995799999999861
20
-94.4600169999999935
11
130.899614999999983
21
-94.4600599999999986
0
LINE
8
B.Silkscreen
6
CONTINUOUS
10
130.899614999999983
20
-94.4600599999999986
11
130.8998969999999815
21
-94.4604429999999979
0
LINE
8
B.Silkscreen
6
CONTINUOUS
10
130.8998969999999815
20
-94.4604429999999979
11
130.9907369999999958
21
-94.5967040000000026
0
LINE
8
B.Silkscreen
6
CONTINUOUS
10
130.9907369999999958
20
-94.5967040000000026
11
131.0712000000000046
21
-94.6771669999999972
0
LINE
8
B.Silkscreen
6
CONTINUOUS
10
131.0712000000000046
20
-94.6771669999999972
11
131.1548239999999907
21
-94.7189789999999903
0
LINE
8
B.Silkscreen
6
CONTINUOUS
10
131.1548239999999907
20
-94.7189789999999903
11
131.1552509999999927
21
-94.7192189999999954
0
LINE
8
B.Silkscreen
6
CONTINUOUS
10
131.1552509999999927
20
-94.7192189999999954
11
131.1676939999999831
21
-94.7270509999999888
0
LINE
8
B.Silkscreen
6
CONTINUOUS
10
131.1676939999999831
20
-94.7270509999999888
11
131.1688079999999843
21
-94.728006999999991
0
LINE
8
B.Silkscreen
6
CONTINUOUS
10
131.1688079999999843
20
-94.728006999999991
11
131.1879810000000077
21
-94.7501149999999939
0
LINE
8
B.Silkscreen
6
CONTINUOUS
10
131.1879810000000077
20
-94.7501149999999939
11
131.1889469999999847
21
-94.7518099999999919
0
LINE
8
B.Silkscreen
6
CONTINUOUS
10
131.1889469999999847
20
-94.7518099999999919
11
131.1982009999999832
21
-94.77957099999999
0
LINE
8
B.Silkscreen
6
CONTINUOUS
10
131.1982009999999832
20
-94.77957099999999
11
131.1984449999999924
21
-94.7815059999999932
0
LINE
8
B.Silkscreen
6
CONTINUOUS
10
131.1984449999999924
20
-94.7815059999999932
11
131.1963709999999992
21
-94.810695999999993
0
LINE
8
B.Silkscreen
6
CONTINUOUS
10
131.1963709999999992
20
-94.810695999999993
11
131.195855999999992
21
-94.812578000000002
0
LINE
8
B.Silkscreen
6
CONTINUOUS
10
131.195855999999992
20
-94.812578000000002
11
131.1827679999999816
21
-94.838752999999997
0
LINE
8
B.Silkscreen
6
CONTINUOUS
10
131.1827679999999816
20
-94.838752999999997
11
131.1815719999999885
21
-94.8402940000000001
0
LINE
8
B.Silkscreen
6
CONTINUOUS
10
131.1815719999999885
20
-94.8402940000000001
11
131.1594649999999831
21
-94.8594669999999951
0
LINE
8
B.Silkscreen
6
CONTINUOUS
10
131.1594649999999831
20
-94.8594669999999951
11
131.1577699999999993
21
-94.8604330000000004
0
LINE
8
B.Silkscreen
6
CONTINUOUS
10
131.1577699999999993
20
-94.8604330000000004
11
131.1300080000000037
21
-94.869686999999999
0
LINE
8
B.Silkscreen
6
CONTINUOUS
10
131.1300080000000037
20
-94.869686999999999
11
131.1280730000000005
21
-94.869930999999994
0
LINE
8
B.Silkscreen
6
CONTINUOUS
10
131.1280730000000005
20
-94.869930999999994
11
131.0988830000000007
21
-94.8678570000000008
0
LINE
8
B.Silkscreen
6
CONTINUOUS
10
131.0988830000000007
20
-94.8678570000000008
11
131.0974499999999807
21
-94.8675399999999911
0
LINE
8
B.Silkscreen
6
CONTINUOUS
10
131.0974499999999807
20
-94.8675399999999911
11
131.0837190000000021
21
-94.862285
0
LINE
8
B.Silkscreen
6
CONTINUOUS
10
131.0837190000000021
20
-94.862285
11
131.0832699999999988
21
-94.8620870000000025
0
LINE
8
B.Silkscreen
6
CONTINUOUS
10
131.0832699999999988
20
-94.8620870000000025
11
130.988032000000004
21
-94.8144679999999909
0
LINE
8
B.Silkscreen
6
CONTINUOUS
10
130.988032000000004
20
-94.8144679999999909
11
130.9876040000000046
21
-94.8142270000000025
0
LINE
8
B.Silkscreen
6
CONTINUOUS
10
130.9876040000000046
20
-94.8142270000000025
11
130.9816689999999824
21
-94.810490999999999
0
LINE
8
B.Silkscreen
6
CONTINUOUS
10
130.9816689999999824
20
-94.810490999999999
11
130.98022899999998
21
-94.8098949999999974
0
LINE
8
B.Silkscreen
6
CONTINUOUS
10
130.98022899999998
20
-94.8098949999999974
11
130.9789690000000064
21
-94.8091399999999993
0
LINE
8
B.Silkscreen
6
CONTINUOUS
10
130.9789690000000064
20
-94.8091399999999993
11
130.9771479999999997
21
-94.8076459999999912
0
LINE
8
B.Silkscreen
6
CONTINUOUS
10
130.9771479999999997
20
-94.8076459999999912
11
130.9751609999999857
21
-94.8063949999999949
0
LINE
8
B.Silkscreen
6
CONTINUOUS
10
130.9751609999999857
20
-94.8063949999999949
11
130.9740490000000079
21
-94.8054410000000018
0
LINE
8
B.Silkscreen
6
CONTINUOUS
10
130.9740490000000079
20
-94.8054410000000018
11
130.9730279999999993
21
-94.8042639999999892
0
LINE
8
B.Silkscreen
6
CONTINUOUS
10
130.9730279999999993
20
-94.8042639999999892
11
130.9676039999999944
21
-94.7998119999999886
0
LINE
8
B.Silkscreen
6
CONTINUOUS
10
130.9676039999999944
20
-94.7998119999999886
11
130.9672400000000039
21
-94.7994829999999951
0
LINE
8
B.Silkscreen
6
CONTINUOUS
10
130.9672400000000039
20
-94.7994829999999951
11
130.9133329999999944
21
-94.7455759999999998
0
LINE
8
B.Silkscreen
6
CONTINUOUS
10
130.9133329999999944
20
-94.7455759999999998
11
130.9133329999999944
21
-95.4248189999999994
0
LINE
8
B.Silkscreen
6
CONTINUOUS
10
130.9133329999999944
20
-95.4248189999999994
11
131.1190469999999948
21
-95.4248189999999994
0
LINE
8
B.Silkscreen
6
CONTINUOUS
10
131.1190469999999948
20
-95.4248189999999994
11
131.1195370000000082
21
-95.4248429999999956
0
LINE
8
B.Silkscreen
6
CONTINUOUS
10
131.1195370000000082
20
-95.4248429999999956
11
131.1341689999999858
21
-95.4262839999999954
0
LINE
8
B.Silkscreen
6
CONTINUOUS
10
131.1341689999999858
20
-95.4262839999999954
11
131.1355920000000026
21
-95.4266409999999894
0
LINE
8
B.Silkscreen
6
CONTINUOUS
10
131.1355920000000026
20
-95.4266409999999894
11
131.1626279999999838
21
-95.4378399999999942
0
LINE
8
B.Silkscreen
6
CONTINUOUS
10
131.1626279999999838
20
-95.4378399999999942
11
131.1642510000000073
21
-95.4389230000000026
0
LINE
8
B.Silkscreen
6
CONTINUOUS
10
131.1642510000000073
20
-95.4389230000000026
11
131.1849430000000041
21
-95.4596149999999994
0
LINE
8
B.Silkscreen
6
CONTINUOUS
10
131.1849430000000041
20
-95.4596149999999994
11
131.1860259999999982
21
-95.4612379999999945
0
LINE
8
B.Silkscreen
6
CONTINUOUS
10
131.1860259999999982
20
-95.4612379999999945
11
131.1972250000000031
21
-95.4882739999999899
0
LINE
8
B.Silkscreen
6
CONTINUOUS
10
131.1972250000000031
20
-95.4882739999999899
11
131.1976060000000075
21
-95.4901869999999917
0
LINE
8
B.Silkscreen
6
CONTINUOUS
10
131.1976060000000075
20
-95.4901869999999917
11
131.1976060000000075
21
-95.5194509999999894
0
LINE
8
B.Silkscreen
6
CONTINUOUS
10
131.1976060000000075
20
-95.5194509999999894
11
131.1972250000000031
21
-95.5213639999999913
0
LINE
8
B.Silkscreen
6
CONTINUOUS
10
131.1972250000000031
20
-95.5213639999999913
11
131.1860259999999982
21
-95.5484000000000009
0
LINE
8
B.Silkscreen
6
CONTINUOUS
10
131.1860259999999982
20
-95.5484000000000009
11
131.1849430000000041
21
-95.5500229999999959
0
LINE
8
B.Silkscreen
6
CONTINUOUS
10
131.1849430000000041
20
-95.5500229999999959
11
131.1642510000000073
21
-95.5707149999999928
0
LINE
8
B.Silkscreen
6
CONTINUOUS
10
131.1642510000000073
20
-95.5707149999999928
11
131.1626279999999838
21
-95.5717980000000011
0
LINE
8
B.Silkscreen
6
CONTINUOUS
10
131.1626279999999838
20
-95.5717980000000011
11
131.1355920000000026
21
-95.5829969999999918
0
LINE
8
B.Silkscreen
6
CONTINUOUS
10
131.1355920000000026
20
-95.5829969999999918
11
131.1341689999999858
21
-95.5833539999999999
0
LINE
8
B.Silkscreen
6
CONTINUOUS
10
131.1341689999999858
20
-95.5833539999999999
11
131.1195370000000082
21
-95.5847949999999997
0
LINE
8
B.Silkscreen
6
CONTINUOUS
10
131.1195370000000082
20
-95.5847949999999997
11
131.1190469999999948
21
-95.584818999999996
0
LINE
8
B.Silkscreen
6
CONTINUOUS
10
131.1190469999999948
20
-95.584818999999996
11
130.5476189999999974
21
-95.584818999999996
0
LINE
8
B.Silkscreen
6
CONTINUOUS
10
130.5476189999999974
20
-95.584818999999996
11
130.547128999999984
21
-95.5847949999999997
0
LINE
8
B.Silkscreen
6
CONTINUOUS
10
130.547128999999984
20
-95.5847949999999997
11
130.5324970000000064
21
-95.5833539999999999
0
LINE
8
B.Silkscreen
6
CONTINUOUS
10
130.5324970000000064
20
-95.5833539999999999
11
130.5310739999999896
21
-95.5829969999999918
0
LINE
8
B.Silkscreen
6
CONTINUOUS
10
130.5310739999999896
20
-95.5829969999999918
11
130.50403799999998
21
-95.5717980000000011
0
LINE
8
B.Silkscreen
6
CONTINUOUS
10
130.50403799999998
20
-95.5717980000000011
11
130.502414999999985
21
-95.5707149999999928
0
LINE
8
B.Silkscreen
6
CONTINUOUS
10
130.502414999999985
20
-95.5707149999999928
11
130.4817229999999881
21
-95.5500229999999959
0
LINE
8
B.Silkscreen
6
CONTINUOUS
10
130.4817229999999881
20
-95.5500229999999959
11
130.480639999999994
21
-95.5484000000000009
0
LINE
8
B.Silkscreen
6
CONTINUOUS
10
130.480639999999994
20
-95.5484000000000009
11
130.4694409999999891
21
-95.5213639999999913
0
LINE
8
B.Silkscreen
6
CONTINUOUS
10
130.4694409999999891
20
-95.5213639999999913
11
130.4690599999999847
21
-95.5194509999999894
0
LINE
8
B.Silkscreen
6
CONTINUOUS
10
130.4690599999999847
20
-95.5194509999999894
11
130.4690599999999847
21
-95.4901869999999917
0
LINE
8
B.Silkscreen
6
CONTINUOUS
10
130.4690599999999847
20
-95.4901869999999917
11
130.4694409999999891
21
-95.4882739999999899
0
LINE
8
B.Silkscreen
6
CONTINUOUS
10
130.4694409999999891
20
-95.4882739999999899
11
130.480639999999994
21
-95.4612379999999945
0
LINE
8
B.Silkscreen
6
CONTINUOUS
10
130.480639999999994
20
-95.4612379999999945
11
130.4817229999999881
21
-95.4596149999999994
0
LINE
8
B.Silkscreen
6
CONTINUOUS
10
130.4817229999999881
20
-95.4596149999999994
11
130.502414999999985
21
-95.4389230000000026
0
LINE
8
B.Silkscreen
6
CONTINUOUS
10
130.502414999999985
20
-95.4389230000000026
11
130.50403799999998
21
-95.4378399999999942
0
LINE
8
B.Silkscreen
6
CONTINUOUS
10
130.50403799999998
20
-95.4378399999999942
11
130.5310739999999896
21
-95.4266409999999894
0
LINE
8
B.Silkscreen
6
CONTINUOUS
10
130.5310739999999896
20
-95.4266409999999894
11
130.5324970000000064
21
-95.4262839999999954
0
LINE
8
B.Silkscreen
6
CONTINUOUS
10
130.5324970000000064
20
-95.4262839999999954
11
130.547128999999984
21
-95.4248429999999956
0
LINE
8
B.Silkscreen
6
CONTINUOUS
10
130.547128999999984
20
-95.4248429999999956
11
130.5476189999999974
21
-95.4248189999999994
0
LINE
8
B.Silkscreen
6
CONTINUOUS
10
130.5476189999999974
20
-95.4248189999999994
11
130.7533329999999978
21
-95.4248189999999994
0
LINE
8
B.Silkscreen
6
CONTINUOUS
10
130.7533329999999978
20
-95.4248189999999994
11
130.7533329999999978
21
-94.5048189999999977
0
LINE
8
B.Silkscreen
6
CONTINUOUS
10
130.7533329999999978
20
-94.5048189999999977
11
130.7533549999999991
21
-94.5043489999999906
0
LINE
8
B.Silkscreen
6
CONTINUOUS
10
130.7533549999999991
20
-94.5043489999999906
11
130.7533599999999865
21
-94.5042959999999965
0
LINE
8
B.Silkscreen
6
CONTINUOUS
10
130.7533599999999865
20
-94.5042959999999965
11
130.7534239999999954
21
-94.5043019999999956
0
LINE
8
B.Silkscreen
6
CONTINUOUS
10
130.7534239999999954
20
-94.5043019999999956
11
130.7534239999999954
21
-94.504177999999996
0
LINE
8
B.Silkscreen
6
CONTINUOUS
10
130.7534239999999954
20
-94.504177999999996
11
130.7533719999999846
21
-94.5041729999999944
0
LINE
8
B.Silkscreen
6
CONTINUOUS
10
130.7533719999999846
20
-94.5041729999999944
11
130.7547979999999939
21
-94.4896969999999925
0
LINE
8
B.Silkscreen
6
CONTINUOUS
10
130.7547979999999939
20
-94.4896969999999925
11
130.7551540000000045
21
-94.4882739999999899
0
LINE
8
B.Silkscreen
6
CONTINUOUS
10
130.7551540000000045
20
-94.4882739999999899
11
130.7578079999999829
21
-94.4818629999999899
0
LINE
8
B.Silkscreen
6
CONTINUOUS
10
130.7578079999999829
20
-94.4818629999999899
11
130.7591689999999858
21
-94.4750650000000007
0
LINE
8
B.Silkscreen
6
CONTINUOUS
10
130.7591689999999858
20
-94.4750650000000007
11
130.7599170000000015
21
-94.4732640000000004
0
LINE
8
B.Silkscreen
6
CONTINUOUS
10
130.7599170000000015
20
-94.4732640000000004
11
130.763731000000007
21
-94.4675659999999908
0
LINE
8
B.Silkscreen
6
CONTINUOUS
10
130.763731000000007
20
-94.4675659999999908
11
130.7663540000000069
21
-94.461236999999997
0
LINE
8
B.Silkscreen
6
CONTINUOUS
10
130.7663540000000069
20
-94.461236999999997
11
130.767437000000001
21
-94.4596159999999969
0
LINE
8
B.Silkscreen
6
CONTINUOUS
10
130.767437000000001
20
-94.4596159999999969
11
130.7723399999999856
21
-94.454710999999989
0
LINE
8
B.Silkscreen
6
CONTINUOUS
10
130.7723399999999856
20
-94.454710999999989
11
130.7762009999999862
21
-94.4489480000000015
0
LINE
8
B.Silkscreen
6
CONTINUOUS
10
130.7762009999999862
20
-94.4489480000000015
11
130.7775809999999979
21
-94.4475709999999964
0
LINE
8
B.Silkscreen
6
CONTINUOUS
10
130.7775809999999979
20
-94.4475709999999964
11
130.7832839999999806
21
-94.4437679999999915
0
LINE
8
B.Silkscreen
6
CONTINUOUS
10
130.7832839999999806
20
-94.4437679999999915
11
130.7881299999999953
21
-94.4389230000000026
0
LINE
8
B.Silkscreen
6
CONTINUOUS
10
130.7881299999999953
20
-94.4389230000000026
11
130.7897509999999954
21
-94.4378399999999942
0
LINE
8
B.Silkscreen
6
CONTINUOUS
10
130.7897509999999954
20
-94.4378399999999942
11
130.7961599999999862
21
-94.4351839999999925
0
LINE
8
B.Silkscreen
6
CONTINUOUS
10
130.7961599999999862
20
-94.4351839999999925
11
130.8019309999999962
21
-94.4313379999999967
0
LINE
8
B.Silkscreen
6
CONTINUOUS
10
130.8019309999999962
20
-94.4313379999999967
11
130.8037339999999915
21
-94.4305930000000018
0
LINE
8
B.Silkscreen
6
CONTINUOUS
10
130.8037339999999915
20
-94.4305930000000018
11
130.8104579999999828
21
-94.4292619999999943
0
LINE
8
B.Silkscreen
6
CONTINUOUS
10
130.8104579999999828
20
-94.4292619999999943
11
130.8167880000000025
21
-94.4266409999999894
0
LINE
8
B.Silkscreen
6
CONTINUOUS
10
130.8167880000000025
20
-94.4266409999999894
11
130.8187010000000043
21
-94.4262599999999992
0
LINE
8
B.Silkscreen
6
CONTINUOUS
10
130.8187010000000043
20
-94.4262599999999992
11
130.8256379999999979
21
-94.4262599999999992
0
LINE
8
B.Silkscreen
6
CONTINUOUS
10
130.8256379999999979
20
-94.4262599999999992
11
130.8324419999999861
21
-94.4249140000000011
0
LINE
8
B.Silkscreen
6
CONTINUOUS
10
130.8324419999999861
20
-94.4249140000000011
11
130.8343930000000057
21
-94.4249159999999961
0
LINE
8
B.Silkscreen
6
CONTINUOUS
10
132.0719179999999824
20
-94.4248429999999956
11
132.0865499999999884
21
-94.4262839999999954
0
LINE
8
B.Silkscreen
6
CONTINUOUS
10
132.0865499999999884
20
-94.4262839999999954
11
132.0879730000000052
21
-94.4266409999999894
0
LINE
8
B.Silkscreen
6
CONTINUOUS
10
132.0879730000000052
20
-94.4266409999999894
11
132.1150089999999864
21
-94.4378399999999942
0
LINE
8
B.Silkscreen
6
CONTINUOUS
10
132.1150089999999864
20
-94.4378399999999942
11
132.1166319999999814
21
-94.4389230000000026
0
LINE
8
B.Silkscreen
6
CONTINUOUS
10
132.1166319999999814
20
-94.4389230000000026
11
132.1373240000000067
21
-94.4596149999999994
0
LINE
8
B.Silkscreen
6
CONTINUOUS
10
132.1373240000000067
20
-94.4596149999999994
11
132.1384070000000008
21
-94.4612379999999945
0
LINE
8
B.Silkscreen
6
CONTINUOUS
10
132.1384070000000008
20
-94.4612379999999945
11
132.1496060000000057
21
-94.4882739999999899
0
LINE
8
B.Silkscreen
6
CONTINUOUS
10
132.1496060000000057
20
-94.4882739999999899
11
132.1499629999999854
21
-94.4896969999999925
0
LINE
8
B.Silkscreen
6
CONTINUOUS
10
132.1499629999999854
20
-94.4896969999999925
11
132.1514039999999852
21
-94.5043289999999985
0
LINE
8
B.Silkscreen
6
CONTINUOUS
10
132.1514039999999852
20
-94.5043289999999985
11
132.1514279999999815
21
-94.5048189999999977
0
LINE
8
B.Silkscreen
6
CONTINUOUS
10
132.1514279999999815
20
-94.5048189999999977
11
132.1514279999999815
21
-95.5048189999999977
0
LINE
8
B.Silkscreen
6
CONTINUOUS
10
132.1514279999999815
20
-95.5048189999999977
11
132.1514039999999852
21
-95.5053089999999969
0
LINE
8
B.Silkscreen
6
CONTINUOUS
10
132.1514039999999852
20
-95.5053089999999969
11
132.1499629999999854
21
-95.5199409999999887
0
LINE
8
B.Silkscreen
6
CONTINUOUS
10
132.1499629999999854
20
-95.5199409999999887
11
132.1496060000000057
21
-95.5213639999999913
0
LINE
8
B.Silkscreen
6
CONTINUOUS
10
132.1496060000000057
20
-95.5213639999999913
11
132.1384070000000008
21
-95.5484000000000009
0
LINE
8
B.Silkscreen
6
CONTINUOUS
10
132.1384070000000008
20
-95.5484000000000009
11
132.1373240000000067
21
-95.5500229999999959
0
LINE
8
B.Silkscreen
6
CONTINUOUS
10
132.1373240000000067
20
-95.5500229999999959
11
132.1166319999999814
21
-95.5707149999999928
0
LINE
8
B.Silkscreen
6
CONTINUOUS
10
132.1166319999999814
20
-95.5707149999999928
11
132.1150089999999864
21
-95.5717980000000011
0
LINE
8
B.Silkscreen
6
CONTINUOUS
10
132.1150089999999864
20
-95.5717980000000011
11
132.0879730000000052
21
-95.5829969999999918
0
LINE
8
B.Silkscreen
6
CONTINUOUS
10
132.0879730000000052
20
-95.5829969999999918
11
132.0865499999999884
21
-95.5833539999999999
0
LINE
8
B.Silkscreen
6
CONTINUOUS
10
132.0865499999999884
20
-95.5833539999999999
11
132.0719179999999824
21
-95.5847949999999997
0
LINE
8
B.Silkscreen
6
CONTINUOUS
10
132.0719179999999824
20
-95.5847949999999997
11
132.0714279999999974
21
-95.584818999999996
0
LINE
8
B.Silkscreen
6
CONTINUOUS
10
132.0714279999999974
20
-95.584818999999996
11
131.8333329999999819
21
-95.584818999999996
0
LINE
8
B.Silkscreen
6
CONTINUOUS
10
131.8333329999999819
20
-95.584818999999996
11
131.8328429999999969
21
-95.5847949999999997
0
LINE
8
B.Silkscreen
6
CONTINUOUS
10
131.8328429999999969
20
-95.5847949999999997
11
131.8258559999999875
21
-95.5841059999999914
0
LINE
8
B.Silkscreen
6
CONTINUOUS
10
131.8258559999999875
20
-95.5841059999999914
11
131.824308000000002
21
-95.5842169999999953
0
LINE
8
B.Silkscreen
6
CONTINUOUS
10
131.824308000000002
20
-95.5842169999999953
11
131.822843000000006
21
-95.5841049999999939
0
LINE
8
B.Silkscreen
6
CONTINUOUS
10
131.822843000000006
20
-95.5841049999999939
11
131.8205549999999846
21
-95.5835840000000019
0
LINE
8
B.Silkscreen
6
CONTINUOUS
10
131.8205549999999846
20
-95.5835840000000019
11
131.8182109999999909
21
-95.5833539999999999
0
LINE
8
B.Silkscreen
6
CONTINUOUS
10
131.8182109999999909
20
-95.5833539999999999
11
131.8167860000000076
21
-95.5829969999999918
0
LINE
8
B.Silkscreen
6
CONTINUOUS
10
131.8167860000000076
20
-95.5829969999999918
11
131.8153470000000027
21
-95.5823999999999927
0
LINE
8
B.Silkscreen
6
CONTINUOUS
10
131.8153470000000027
20
-95.5823999999999927
11
131.8085069999999916
21
-95.580845999999994
0
LINE
8
B.Silkscreen
6
CONTINUOUS
10
131.8085069999999916
20
-95.580845999999994
11
131.8080339999999921
21
-95.5807129999999887
0
LINE
8
B.Silkscreen
6
CONTINUOUS
10
131.8080339999999921
20
-95.5807129999999887
11
131.6651779999999974
21
-95.5330939999999913
0
LINE
8
B.Silkscreen
6
CONTINUOUS
10
131.6651779999999974
20
-95.5330939999999913
11
131.6647209999999859
21
-95.5329169999999976
0
LINE
8
B.Silkscreen
6
CONTINUOUS
10
131.6647209999999859
20
-95.5329169999999976
11
131.6512950000000046
21
-95.5269229999999965
0
LINE
8
B.Silkscreen
6
CONTINUOUS
10
131.6512950000000046
20
-95.5269229999999965
11
131.6500570000000039
21
-95.526133999999999
0
LINE
8
B.Silkscreen
6
CONTINUOUS
10
131.6500570000000039
20
-95.526133999999999
11
131.648635999999982
21
-95.5249019999999973
0
LINE
8
B.Silkscreen
6
CONTINUOUS
10
131.648635999999982
20
-95.5249019999999973
11
131.6468950000000007
21
-95.5241809999999987
0
LINE
8
B.Silkscreen
6
CONTINUOUS
10
131.6468950000000007
20
-95.5241809999999987
11
131.6456359999999961
21
-95.5234260000000006
0
LINE
8
B.Silkscreen
6
CONTINUOUS
10
131.6456359999999961
20
-95.5234260000000006
11
131.634270999999984
21
-95.51409799999999
0
LINE
8
B.Silkscreen
6
CONTINUOUS
10
131.634270999999984
20
-95.51409799999999
11
131.6339069999999936
21
-95.5137689999999964
0
LINE
8
B.Silkscreen
6
CONTINUOUS
10
131.6339069999999936
20
-95.5137689999999964
11
131.5386689999999987
21
-95.4185299999999899
0
LINE
8
B.Silkscreen
6
CONTINUOUS
10
131.5386689999999987
20
-95.4185299999999899
11
131.5383400000000051
21
-95.4181659999999994
0
LINE
8
B.Silkscreen
6
CONTINUOUS
10
131.5383400000000051
20
-95.4181659999999994
11
131.5338919999999803
21
-95.4127459999999985
0
LINE
8
B.Silkscreen
6
CONTINUOUS
10
131.5338919999999803
20
-95.4127459999999985
11
131.5327120000000036
21
-95.411722999999995
0
LINE
8
B.Silkscreen
6
CONTINUOUS
10
131.5327120000000036
20
-95.411722999999995
11
131.5317569999999989
21
-95.4106089999999938
0
LINE
8
B.Silkscreen
6
CONTINUOUS
10
131.5317569999999989
20
-95.4106089999999938
11
131.5305019999999843
21
-95.408615999999995
0
LINE
8
B.Silkscreen
6
CONTINUOUS
10
131.5305019999999843
20
-95.408615999999995
11
131.5290119999999945
21
-95.4067999999999898
0
LINE
8
B.Silkscreen
6
CONTINUOUS
10
131.5290119999999945
20
-95.4067999999999898
11
131.5282579999999939
21
-95.4055409999999995
0
LINE
8
B.Silkscreen
6
CONTINUOUS
10
131.5282579999999939
20
-95.4055409999999995
11
131.5276639999999873
21
-95.4041089999999912
0
LINE
8
B.Silkscreen
6
CONTINUOUS
10
131.5276639999999873
20
-95.4041089999999912
11
131.5239239999999938
21
-95.3981659999999891
0
LINE
8
B.Silkscreen
6
CONTINUOUS
10
131.5239239999999938
20
-95.3981659999999891
11
131.5236840000000029
21
-95.3977379999999897
0
LINE
8
B.Silkscreen
6
CONTINUOUS
10
131.5236840000000029
20
-95.3977379999999897
11
131.4760650000000055
21
-95.3024999999999949
0
LINE
8
B.Silkscreen
6
CONTINUOUS
10
131.4760650000000055
20
-95.3024999999999949
11
131.4758679999999913
21
-95.3020530000000008
0
LINE
8
B.Silkscreen
6
CONTINUOUS
10
131.4758679999999913
20
-95.3020530000000008
11
131.4756419999999935
21
-95.3014649999999932
0
LINE
8
B.Silkscreen
6
CONTINUOUS
10
131.4756419999999935
20
-95.3014649999999932
11
131.4750970000000052
21
-95.3004409999999922
0
LINE
8
B.Silkscreen
6
CONTINUOUS
10
131.4750970000000052
20
-95.3004409999999922
11
131.4729389999999967
21
-95.294399999999996
0
LINE
8
B.Silkscreen
6
CONTINUOUS
10
131.4729389999999967
20
-95.294399999999996
11
131.4706119999999885
21
-95.2883190000000013
0
LINE
8
B.Silkscreen
6
CONTINUOUS
10
131.4706119999999885
20
-95.2883190000000013
11
131.470359000000002
21
-95.2871829999999989
0
LINE
8
B.Silkscreen
6
CONTINUOUS
10
131.470359000000002
20
-95.2871829999999989
11
131.4701489999999922
21
-95.2865929999999963
0
LINE
8
B.Silkscreen
6
CONTINUOUS
10
131.4701489999999922
20
-95.2865929999999963
11
131.4700069999999812
21
-95.2861259999999959
0
LINE
8
B.Silkscreen
6
CONTINUOUS
10
131.4700069999999812
20
-95.2861259999999959
11
131.4223879999999838
21
-95.095649999999992
0
LINE
8
B.Silkscreen
6
CONTINUOUS
10
131.4223879999999838
20
-95.095649999999992
11
131.4222929999999963
21
-95.095169999999996
0
LINE
8
B.Silkscreen
6
CONTINUOUS
10
131.4222929999999963
20
-95.095169999999996
11
131.4220070000000078
21
-95.0932419999999894
0
LINE
8
B.Silkscreen
6
CONTINUOUS
10
131.4220070000000078
20
-95.0932419999999894
11
131.4218199999999968
21
-95.0927889999999962
0
LINE
8
B.Silkscreen
6
CONTINUOUS
10
131.4218199999999968
20
-95.0927889999999962
11
131.4214649999999835
21
-95.0913690000000003
0
LINE
8
B.Silkscreen
6
CONTINUOUS
10
131.4214649999999835
20
-95.0913690000000003
11
131.4209329999999909
21
-95.085969999999989
0
LINE
8
B.Silkscreen
6
CONTINUOUS
10
131.4209329999999909
20
-95.085969999999989
11
131.4201429999999959
21
-95.0806240000000003
0
LINE
8
B.Silkscreen
6
CONTINUOUS
10
131.4201429999999959
20
-95.0806240000000003
11
131.4201429999999959
21
-95.0791600000000017
0
LINE
8
B.Silkscreen
6
CONTINUOUS
10
131.4201429999999959
20
-95.0791600000000017
11
131.4202139999999872
21
-95.0786760000000015
0
LINE
8
B.Silkscreen
6
CONTINUOUS
10
131.4202139999999872
20
-95.0786760000000015
11
131.4200239999999837
21
-95.0767359999999968
0
LINE
8
B.Silkscreen
6
CONTINUOUS
10
131.4200239999999837
20
-95.0767359999999968
11
131.4199999999999875
21
-95.0762469999999951
0
LINE
8
B.Silkscreen
6
CONTINUOUS
10
131.4199999999999875
20
-95.0762469999999951
11
131.4199999999999875
21
-94.9432399999999888
0
LINE
8
B.Silkscreen
6
CONTINUOUS
10
131.4199999999999875
20
-94.9432399999999888
11
131.5799999999999841
21
-94.9432399999999888
0
LINE
8
B.Silkscreen
6
CONTINUOUS
10
131.5799999999999841
20
-94.9432399999999888
11
131.5799999999999841
21
-95.0663959999999975
0
LINE
8
B.Silkscreen
6
CONTINUOUS
10
131.5799999999999841
20
-95.0663959999999975
11
131.6231009999999912
21
-95.2388029999999901
0
LINE
8
B.Silkscreen
6
CONTINUOUS
10
131.6231009999999912
20
-95.2388029999999901
11
131.6609839999999849
21
-95.3145699999999891
0
LINE
8
B.Silkscreen
6
CONTINUOUS
10
131.6609839999999849
20
-95.3145699999999891
11
131.7336929999999882
21
-95.3872789999999924
0
LINE
8
B.Silkscreen
6
CONTINUOUS
10
131.7336929999999882
20
-95.3872789999999924
11
131.8463129999999808
21
-95.4248189999999994
0
LINE
8
B.Silkscreen
6
CONTINUOUS
10
131.8463129999999808
20
-95.4248189999999994
11
131.9914279999999849
21
-95.4248189999999994
0
LINE
8
B.Silkscreen
6
CONTINUOUS
10
131.9914279999999849
20
-95.4248189999999994
11
131.9914279999999849
21
-94.584818999999996
0
LINE
8
B.Silkscreen
6
CONTINUOUS
10
131.9914279999999849
20
-94.584818999999996
11
131.8463129999999808
21
-94.584818999999996
0
LINE
8
B.Silkscreen
6
CONTINUOUS
10
131.8463129999999808
20
-94.584818999999996
11
131.7336929999999882
21
-94.6223589999999888
0
LINE
8
B.Silkscreen
6
CONTINUOUS
10
131.7336929999999882
20
-94.6223589999999888
11
131.6609839999999849
21
-94.6950669999999946
0
LINE
8
B.Silkscreen
6
CONTINUOUS
10
131.6609839999999849
20
-94.6950669999999946
11
131.6231009999999912
21
-94.7708329999999961
0
LINE
8
B.Silkscreen
6
CONTINUOUS
10
131.6231009999999912
20
-94.7708329999999961
11
131.5799999999999841
21
-94.9432399999999888
0
LINE
8
B.Silkscreen
6
CONTINUOUS
10
131.5799999999999841
20
-94.9432399999999888
11
131.4199999999999875
21
-94.9432399999999888
0
LINE
8
B.Silkscreen
6
CONTINUOUS
10
131.4199999999999875
20
-94.9432399999999888
11
131.4199999999999875
21
-94.9333899999999886
0
LINE
8
B.Silkscreen
6
CONTINUOUS
10
131.4199999999999875
20
-94.9333899999999886
11
131.4200239999999837
21
-94.9329010000000011
0
LINE
8
B.Silkscreen
6
CONTINUOUS
10
131.4200239999999837
20
-94.9329010000000011
11
131.4202139999999872
21
-94.9309609999999964
0
LINE
8
B.Silkscreen
6
CONTINUOUS
10
131.4202139999999872
20
-94.9309609999999964
11
131.4201429999999959
21
-94.9304779999999937
0
LINE
8
B.Silkscreen
6
CONTINUOUS
10
131.4201429999999959
20
-94.9304779999999937
11
131.4201429999999959
21
-94.9290129999999976
0
LINE
8
B.Silkscreen
6
CONTINUOUS
10
131.4201429999999959
20
-94.9290129999999976
11
131.4209329999999909
21
-94.9236659999999972
0
LINE
8
B.Silkscreen
6
CONTINUOUS
10
131.4209329999999909
20
-94.9236659999999972
11
131.4214649999999835
21
-94.9182679999999976
0
LINE
8
B.Silkscreen
6
CONTINUOUS
10
131.4214649999999835
20
-94.9182679999999976
11
131.4218189999999993
21
-94.9168499999999966
0
LINE
8
B.Silkscreen
6
CONTINUOUS
10
131.4218189999999993
20
-94.9168499999999966
11
131.4220070000000078
21
-94.9163929999999993
0
LINE
8
B.Silkscreen
6
CONTINUOUS
10
131.4220070000000078
20
-94.9163929999999993
11
131.4222929999999963
21
-94.9144670000000019
0
LINE
8
B.Silkscreen
6
CONTINUOUS
10
131.4222929999999963
20
-94.9144670000000019
11
131.4223879999999838
21
-94.9139869999999917
0
LINE
8
B.Silkscreen
6
CONTINUOUS
10
131.4223879999999838
20
-94.9139869999999917
11
131.4700069999999812
21
-94.723511000000002
0
LINE
8
B.Silkscreen
6
CONTINUOUS
10
131.4700069999999812
20
-94.723511000000002
11
131.4701479999999947
21
-94.723044999999999
0
LINE
8
B.Silkscreen
6
CONTINUOUS
10
131.4701479999999947
20
-94.723044999999999
11
131.4703599999999994
21
-94.722448
0
LINE
8
B.Silkscreen
6
CONTINUOUS
10
131.4703599999999994
20
-94.722448
11
131.4706119999999885
21
-94.7213179999999966
0
LINE
8
B.Silkscreen
6
CONTINUOUS
10
131.4706119999999885
20
-94.7213179999999966
11
131.4729260000000011
21
-94.7152679999999947
0
LINE
8
B.Silkscreen
6
CONTINUOUS
10
131.4729260000000011
20
-94.7152679999999947
11
131.4750960000000077
21
-94.7091959999999915
0
LINE
8
B.Silkscreen
6
CONTINUOUS
10
131.4750960000000077
20
-94.7091959999999915
11
131.4756439999999884
21
-94.7081680000000006
0
LINE
8
B.Silkscreen
6
CONTINUOUS
10
131.4756439999999884
20
-94.7081680000000006
11
131.4758689999999888
21
-94.7075820000000022
0
LINE
8
B.Silkscreen
6
CONTINUOUS
10
131.4758689999999888
20
-94.7075820000000022
11
131.4760650000000055
21
-94.7071369999999888
0
LINE
8
B.Silkscreen
6
CONTINUOUS
10
131.4760650000000055
20
-94.7071369999999888
11
131.5236840000000029
21
-94.611898999999994
0
LINE
8
B.Silkscreen
6
CONTINUOUS
10
131.5236840000000029
20
-94.611898999999994
11
131.5239239999999938
21
-94.611471999999992
0
LINE
8
B.Silkscreen
6
CONTINUOUS
10
131.5239239999999938
20
-94.611471999999992
11
131.5276639999999873
21
-94.6055259999999976
0
LINE
8
B.Silkscreen
6
CONTINUOUS
10
131.5276639999999873
20
-94.6055259999999976
11
131.5282599999999888
21
-94.6040919999999943
0
LINE
8
B.Silkscreen
6
CONTINUOUS
10
131.5282599999999888
20
-94.6040919999999943
11
131.529012999999992
21
-94.6028359999999964
0
LINE
8
B.Silkscreen
6
CONTINUOUS
10
131.529012999999992
20
-94.6028359999999964
11
131.5305019999999843
21
-94.6010199999999912
0
LINE
8
B.Silkscreen
6
CONTINUOUS
10
131.5305019999999843
20
-94.6010199999999912
11
131.5317569999999989
21
-94.5990279999999899
0
LINE
8
B.Silkscreen
6
CONTINUOUS
10
131.5317569999999989
20
-94.5990279999999899
11
131.5327110000000062
21
-94.5979159999999979
0
LINE
8
B.Silkscreen
6
CONTINUOUS
10
131.5327110000000062
20
-94.5979159999999979
11
131.5338879999999904
21
-94.5968939999999918
0
LINE
8
B.Silkscreen
6
CONTINUOUS
10
131.5338879999999904
20
-94.5968939999999918
11
131.5383400000000051
21
-94.5914709999999985
0
LINE
8
B.Silkscreen
6
CONTINUOUS
10
131.5383400000000051
20
-94.5914709999999985
11
131.5386689999999987
21
-94.5911069999999938
0
LINE
8
B.Silkscreen
6
CONTINUOUS
10
131.5386689999999987
20
-94.5911069999999938
11
131.6339069999999936
21
-94.495868999999999
0
LINE
8
B.Silkscreen
6
CONTINUOUS
10
131.6339069999999936
20
-94.495868999999999
11
131.634270999999984
21
-94.4955399999999912
0
LINE
8
B.Silkscreen
6
CONTINUOUS
10
131.634270999999984
20
-94.4955399999999912
11
131.6456359999999961
21
-94.4862119999999948
0
LINE
8
B.Silkscreen
6
CONTINUOUS
10
131.6456359999999961
20
-94.4862119999999948
11
131.6468940000000032
21
-94.4854579999999942
0
LINE
8
B.Silkscreen
6
CONTINUOUS
10
131.6468940000000032
20
-94.4854579999999942
11
131.6486349999999845
21
-94.4847359999999981
0
LINE
8
B.Silkscreen
6
CONTINUOUS
10
131.6486349999999845
20
-94.4847359999999981
11
131.6500580000000014
21
-94.4835029999999989
0
LINE
8
B.Silkscreen
6
CONTINUOUS
10
131.6500580000000014
20
-94.4835029999999989
11
131.6512950000000046
21
-94.4827149999999989
0
LINE
8
B.Silkscreen
6
CONTINUOUS
10
131.6512950000000046
20
-94.4827149999999989
11
131.6647209999999859
21
-94.4767209999999977
0
LINE
8
B.Silkscreen
6
CONTINUOUS
10
131.6647209999999859
20
-94.4767209999999977
11
131.6651779999999974
21
-94.4765439999999899
0
LINE
8
B.Silkscreen
6
CONTINUOUS
10
131.6651779999999974
20
-94.4765439999999899
11
131.8080339999999921
21
-94.4289249999999925
0
LINE
8
B.Silkscreen
6
CONTINUOUS
10
131.8080339999999921
20
-94.4289249999999925
11
131.8085059999999942
21
-94.4287929999999989
0
LINE
8
B.Silkscreen
6
CONTINUOUS
10
131.8085059999999942
20
-94.4287929999999989
11
131.8153429999999844
21
-94.427236999999991
0
LINE
8
B.Silkscreen
6
CONTINUOUS
10
131.8153429999999844
20
-94.427236999999991
11
131.8167880000000025
21
-94.4266399999999919
0
LINE
8
B.Silkscreen
6
CONTINUOUS
10
131.8167880000000025
20
-94.4266399999999919
11
131.8182099999999934
21
-94.4262839999999954
0
LINE
8
B.Silkscreen
6
CONTINUOUS
10
131.8182099999999934
20
-94.4262839999999954
11
131.8205519999999922
21
-94.4260519999999985
0
LINE
8
B.Silkscreen
6
CONTINUOUS
10
131.8205519999999922
20
-94.4260519999999985
11
131.8228450000000009
21
-94.4255319999999898
0
LINE
8
B.Silkscreen
6
CONTINUOUS
10
131.8228450000000009
20
-94.4255319999999898
11
131.8243060000000071
21
-94.425421
0
LINE
8
B.Silkscreen
6
CONTINUOUS
10
131.8243060000000071
20
-94.425421
11
131.8258539999999925
21
-94.4255299999999949
0
LINE
8
B.Silkscreen
6
CONTINUOUS
10
131.8258539999999925
20
-94.4255299999999949
11
131.8328429999999969
21
-94.4248429999999956
0
LINE
8
B.Silkscreen
6
CONTINUOUS
10
131.8328429999999969
20
-94.4248429999999956
11
131.8333329999999819
21
-94.4248189999999994
0
LINE
8
B.Silkscreen
6
CONTINUOUS
10
131.8333329999999819
20
-94.4248189999999994
11
132.0714279999999974
21
-94.4248189999999994
0
LINE
8
B.Silkscreen
6
CONTINUOUS
10
132.0714279999999974
20
-94.4248189999999994
11
132.0719179999999824
21
-94.4248429999999956
0
LINE
8
B.Silkscreen
6
CONTINUOUS
10
132.5641630000000077
20
-94.4266409999999894
11
132.5911989999999889
21
-94.4378399999999942
0
LINE
8
B.Silkscreen
6
CONTINUOUS
10
132.5911989999999889
20
-94.4378399999999942
11
132.592821999999984
21
-94.4389230000000026
0
LINE
8
B.Silkscreen
6
CONTINUOUS
10
132.592821999999984
20
-94.4389230000000026
11
132.6135139999999808
21
-94.4596149999999994
0
LINE
8
B.Silkscreen
6
CONTINUOUS
10
132.6135139999999808
20
-94.4596149999999994
11
132.6145970000000034
21
-94.4612379999999945
0
LINE
8
B.Silkscreen
6
CONTINUOUS
10
132.6145970000000034
20
-94.4612379999999945
11
132.6257959999999798
21
-94.4882739999999899
0
LINE
8
B.Silkscreen
6
CONTINUOUS
10
132.6257959999999798
20
-94.4882739999999899
11
132.626152999999988
21
-94.4896969999999925
0
LINE
8
B.Silkscreen
6
CONTINUOUS
10
132.626152999999988
20
-94.4896969999999925
11
132.6275939999999878
21
-94.5043289999999985
0
LINE
8
B.Silkscreen
6
CONTINUOUS
10
132.6275939999999878
20
-94.5043289999999985
11
132.627617999999984
21
-94.5048189999999977
0
LINE
8
B.Silkscreen
6
CONTINUOUS
10
132.627617999999984
20
-94.5048189999999977
11
132.627617999999984
21
-95.5048189999999977
0
LINE
8
B.Silkscreen
6
CONTINUOUS
10
132.627617999999984
20
-95.5048189999999977
11
132.6275939999999878
21
-95.5053089999999969
0
LINE
8
B.Silkscreen
6
CONTINUOUS
10
132.6275939999999878
20
-95.5053089999999969
11
132.626152999999988
21
-95.5199409999999887
0
LINE
8
B.Silkscreen
6
CONTINUOUS
10
132.626152999999988
20
-95.5199409999999887
11
132.6257959999999798
21
-95.5213639999999913
0
LINE
8
B.Silkscreen
6
CONTINUOUS
10
132.6257959999999798
20
-95.5213639999999913
11
132.6145970000000034
21
-95.5484000000000009
0
LINE
8
B.Silkscreen
6
CONTINUOUS
10
132.6145970000000034
20
-95.5484000000000009
11
132.6135139999999808
21
-95.5500229999999959
0
LINE
8
B.Silkscreen
6
CONTINUOUS
10
132.6135139999999808
20
-95.5500229999999959
11
132.592821999999984
21
-95.5707149999999928
0
LINE
8
B.Silkscreen
6
CONTINUOUS
10
132.592821999999984
20
-95.5707149999999928
11
132.5911989999999889
21
-95.5717980000000011
0
LINE
8
B.Silkscreen
6
CONTINUOUS
10
132.5911989999999889
20
-95.5717980000000011
11
132.5641630000000077
21
-95.5829969999999918
0
LINE
8
B.Silkscreen
6
CONTINUOUS
10
132.5641630000000077
20
-95.5829969999999918
11
132.5622500000000059
21
-95.5833779999999962
0
LINE
8
B.Silkscreen
6
CONTINUOUS
10
132.5622500000000059
20
-95.5833779999999962
11
132.532985999999994
21
-95.5833779999999962
0
LINE
8
B.Silkscreen
6
CONTINUOUS
10
132.532985999999994
20
-95.5833779999999962
11
132.5310729999999921
21
-95.5829969999999918
0
LINE
8
B.Silkscreen
6
CONTINUOUS
10
132.5310729999999921
20
-95.5829969999999918
11
132.5040369999999825
21
-95.5717980000000011
0
LINE
8
B.Silkscreen
6
CONTINUOUS
10
132.5040369999999825
20
-95.5717980000000011
11
132.5024139999999875
21
-95.5707149999999928
0
LINE
8
B.Silkscreen
6
CONTINUOUS
10
132.5024139999999875
20
-95.5707149999999928
11
132.4817219999999907
21
-95.5500229999999959
0
LINE
8
B.Silkscreen
6
CONTINUOUS
10
132.4817219999999907
20
-95.5500229999999959
11
132.4806389999999965
21
-95.5484000000000009
0
LINE
8
B.Silkscreen
6
CONTINUOUS
10
132.4806389999999965
20
-95.5484000000000009
11
132.4694399999999916
21
-95.5213639999999913
0
LINE
8
B.Silkscreen
6
CONTINUOUS
10
132.4694399999999916
20
-95.5213639999999913
11
132.4690829999999835
21
-95.5199409999999887
0
LINE
8
B.Silkscreen
6
CONTINUOUS
10
132.4690829999999835
20
-95.5199409999999887
11
132.4676419999999837
21
-95.5053089999999969
0
LINE
8
B.Silkscreen
6
CONTINUOUS
10
132.4676419999999837
20
-95.5053089999999969
11
132.4676179999999874
21
-95.5048189999999977
0
LINE
8
B.Silkscreen
6
CONTINUOUS
10
132.4676179999999874
20
-95.5048189999999977
11
132.4676179999999874
21
-94.5048189999999977
0
LINE
8
B.Silkscreen
6
CONTINUOUS
10
132.4676179999999874
20
-94.5048189999999977
11
132.4676419999999837
21
-94.5043289999999985
0
LINE
8
B.Silkscreen
6
CONTINUOUS
10
132.4676419999999837
20
-94.5043289999999985
11
132.4690829999999835
21
-94.4896969999999925
0
LINE
8
B.Silkscreen
6
CONTINUOUS
10
132.4690829999999835
20
-94.4896969999999925
11
132.4694399999999916
21
-94.4882739999999899
0
LINE
8
B.Silkscreen
6
CONTINUOUS
10
132.4694399999999916
20
-94.4882739999999899
11
132.4806389999999965
21
-94.4612379999999945
0
LINE
8
B.Silkscreen
6
CONTINUOUS
10
132.4806389999999965
20
-94.4612379999999945
11
132.4817219999999907
21
-94.4596149999999994
0
LINE
8
B.Silkscreen
6
CONTINUOUS
10
132.4817219999999907
20
-94.4596149999999994
11
132.5024139999999875
21
-94.4389230000000026
0
LINE
8
B.Silkscreen
6
CONTINUOUS
10
132.5024139999999875
20
-94.4389230000000026
11
132.5040369999999825
21
-94.4378399999999942
0
LINE
8
B.Silkscreen
6
CONTINUOUS
10
132.5040369999999825
20
-94.4378399999999942
11
132.5310729999999921
21
-94.4266409999999894
0
LINE
8
B.Silkscreen
6
CONTINUOUS
10
132.5310729999999921
20
-94.4266409999999894
11
132.532985999999994
21
-94.4262599999999992
0
LINE
8
B.Silkscreen
6
CONTINUOUS
10
132.532985999999994
20
-94.4262599999999992
11
132.5622500000000059
21
-94.4262599999999992
0
LINE
8
B.Silkscreen
6
CONTINUOUS
10
132.5622500000000059
20
-94.4262599999999992
11
132.5641630000000077
21
-94.4266409999999894
0
LINE
8
B.Silkscreen
6
CONTINUOUS
10
133.4052509999999927
20
-94.4248429999999956
11
133.4198829999999987
21
-94.4262839999999954
0
LINE
8
B.Silkscreen
6
CONTINUOUS
10
133.4198829999999987
20
-94.4262839999999954
11
133.4213059999999871
21
-94.4266409999999894
0
LINE
8
B.Silkscreen
6
CONTINUOUS
10
133.4213059999999871
20
-94.4266409999999894
11
133.4483419999999967
21
-94.4378399999999942
0
LINE
8
B.Silkscreen
6
CONTINUOUS
10
133.4483419999999967
20
-94.4378399999999942
11
133.4499649999999917
21
-94.4389230000000026
0
LINE
8
B.Silkscreen
6
CONTINUOUS
10
133.4499649999999917
20
-94.4389230000000026
11
133.4706569999999886
21
-94.4596149999999994
0
LINE
8
B.Silkscreen
6
CONTINUOUS
10
133.4706569999999886
20
-94.4596149999999994
11
133.4717399999999827
21
-94.4612379999999945
0
LINE
8
B.Silkscreen
6
CONTINUOUS
10
133.4717399999999827
20
-94.4612379999999945
11
133.4829389999999876
21
-94.4882739999999899
0
LINE
8
B.Silkscreen
6
CONTINUOUS
10
133.4829389999999876
20
-94.4882739999999899
11
133.4832959999999957
21
-94.4896969999999925
0
LINE
8
B.Silkscreen
6
CONTINUOUS
10
133.4832959999999957
20
-94.4896969999999925
11
133.4847369999999955
21
-94.5043289999999985
0
LINE
8
B.Silkscreen
6
CONTINUOUS
10
133.4847369999999955
20
-94.5043289999999985
11
133.4847609999999918
21
-94.5048189999999977
0
LINE
8
B.Silkscreen
6
CONTINUOUS
10
133.4847609999999918
20
-94.5048189999999977
11
133.4847609999999918
21
-95.5048189999999977
0
LINE
8
B.Silkscreen
6
CONTINUOUS
10
133.4847609999999918
20
-95.5048189999999977
11
133.4847369999999955
21
-95.5053089999999969
0
LINE
8
B.Silkscreen
6
CONTINUOUS
10
133.4847369999999955
20
-95.5053089999999969
11
133.4832959999999957
21
-95.5199409999999887
0
LINE
8
B.Silkscreen
6
CONTINUOUS
10
133.4832959999999957
20
-95.5199409999999887
11
133.4829389999999876
21
-95.5213639999999913
0
LINE
8
B.Silkscreen
6
CONTINUOUS
10
133.4829389999999876
20
-95.5213639999999913
11
133.4717399999999827
21
-95.5484000000000009
0
LINE
8
B.Silkscreen
6
CONTINUOUS
10
133.4717399999999827
20
-95.5484000000000009
11
133.4706569999999886
21
-95.5500229999999959
0
LINE
8
B.Silkscreen
6
CONTINUOUS
10
133.4706569999999886
20
-95.5500229999999959
11
133.4499649999999917
21
-95.5707149999999928
0
LINE
8
B.Silkscreen
6
CONTINUOUS
10
133.4499649999999917
20
-95.5707149999999928
11
133.4483419999999967
21
-95.5717980000000011
0
LINE
8
B.Silkscreen
6
CONTINUOUS
10
133.4483419999999967
20
-95.5717980000000011
11
133.4213059999999871
21
-95.5829969999999918
0
LINE
8
B.Silkscreen
6
CONTINUOUS
10
133.4213059999999871
20
-95.5829969999999918
11
133.4193929999999852
21
-95.5833779999999962
0
LINE
8
B.Silkscreen
6
CONTINUOUS
10
133.4193929999999852
20
-95.5833779999999962
11
133.3901290000000017
21
-95.5833779999999962
0
LINE
8
B.Silkscreen
6
CONTINUOUS
10
133.3901290000000017
20
-95.5833779999999962
11
133.3882159999999999
21
-95.5829969999999918
0
LINE
8
B.Silkscreen
6
CONTINUOUS
10
133.3882159999999999
20
-95.5829969999999918
11
133.3611799999999903
21
-95.5717980000000011
0
LINE
8
B.Silkscreen
6
CONTINUOUS
10
133.3611799999999903
20
-95.5717980000000011
11
133.3595569999999952
21
-95.5707149999999928
0
LINE
8
B.Silkscreen
6
CONTINUOUS
10
133.3595569999999952
20
-95.5707149999999928
11
133.3388649999999984
21
-95.5500229999999959
0
LINE
8
B.Silkscreen
6
CONTINUOUS
10
133.3388649999999984
20
-95.5500229999999959
11
133.3377820000000042
21
-95.5484000000000009
0
LINE
8
B.Silkscreen
6
CONTINUOUS
10
133.3377820000000042
20
-95.5484000000000009
11
133.3265829999999994
21
-95.5213639999999913
0
LINE
8
B.Silkscreen
6
CONTINUOUS
10
133.3265829999999994
20
-95.5213639999999913
11
133.3262259999999912
21
-95.5199409999999887
0
LINE
8
B.Silkscreen
6
CONTINUOUS
10
133.3262259999999912
20
-95.5199409999999887
11
133.3247849999999914
21
-95.5053089999999969
0
LINE
8
B.Silkscreen
6
CONTINUOUS
10
133.3247849999999914
20
-95.5053089999999969
11
133.3247609999999952
21
-95.5048189999999977
0
LINE
8
B.Silkscreen
6
CONTINUOUS
10
133.3247609999999952
20
-95.5048189999999977
11
133.3247609999999952
21
-95.0610089999999985
0
LINE
8
B.Silkscreen
6
CONTINUOUS
10
133.3247609999999952
20
-95.0610089999999985
11
133.0714279999999974
21
-95.0610089999999985
0
LINE
8
B.Silkscreen
6
CONTINUOUS
10
133.0714279999999974
20
-95.0610089999999985
11
133.070937999999984
21
-95.0609850000000023
0
LINE
8
B.Silkscreen
6
CONTINUOUS
10
133.070937999999984
20
-95.0609850000000023
11
133.0563060000000064
21
-95.0595440000000025
0
LINE
8
B.Silkscreen
6
CONTINUOUS
10
133.0563060000000064
20
-95.0595440000000025
11
133.0548829999999896
21
-95.0591869999999943
0
LINE
8
B.Silkscreen
6
CONTINUOUS
10
133.0548829999999896
20
-95.0591869999999943
11
133.02784699999998
21
-95.0479879999999895
0
LINE
8
B.Silkscreen
6
CONTINUOUS
10
133.02784699999998
20
-95.0479879999999895
11
133.0262239999999849
21
-95.0469049999999953
0
LINE
8
B.Silkscreen
6
CONTINUOUS
10
133.0262239999999849
20
-95.0469049999999953
11
133.0055319999999881
21
-95.0262129999999985
0
LINE
8
B.Silkscreen
6
CONTINUOUS
10
133.0055319999999881
20
-95.0262129999999985
11
133.0044489999999939
21
-95.0245899999999892
0
LINE
8
B.Silkscreen
6
CONTINUOUS
10
133.0044489999999939
20
-95.0245899999999892
11
132.9932499999999891
21
-94.9975539999999938
0
LINE
8
B.Silkscreen
6
CONTINUOUS
10
132.9932499999999891
20
-94.9975539999999938
11
132.9928689999999847
21
-94.995640999999992
0
LINE
8
B.Silkscreen
6
CONTINUOUS
10
132.9928689999999847
20
-94.995640999999992
11
132.9928689999999847
21
-94.9663769999999943
0
LINE
8
B.Silkscreen
6
CONTINUOUS
10
132.9928689999999847
20
-94.9663769999999943
11
132.9932499999999891
21
-94.9644639999999924
0
LINE
8
B.Silkscreen
6
CONTINUOUS
10
132.9932499999999891
20
-94.9644639999999924
11
133.0044489999999939
21
-94.937427999999997
0
LINE
8
B.Silkscreen
6
CONTINUOUS
10
133.0044489999999939
20
-94.937427999999997
11
133.0055319999999881
21
-94.935805000000002
0
LINE
8
B.Silkscreen
6
CONTINUOUS
10
133.0055319999999881
20
-94.935805000000002
11
133.0262239999999849
21
-94.915112999999991
0
LINE
8
B.Silkscreen
6
CONTINUOUS
10
133.0262239999999849
20
-94.915112999999991
11
133.02784699999998
21
-94.9140299999999968
0
LINE
8
B.Silkscreen
6
CONTINUOUS
10
133.02784699999998
20
-94.9140299999999968
11
133.0548829999999896
21
-94.9028309999999919
0
LINE
8
B.Silkscreen
6
CONTINUOUS
10
133.0548829999999896
20
-94.9028309999999919
11
133.0563060000000064
21
-94.902473999999998
0
LINE
8
B.Silkscreen
6
CONTINUOUS
10
133.0563060000000064
20
-94.902473999999998
11
133.070937999999984
21
-94.9010329999999982
0
LINE
8
B.Silkscreen
6
CONTINUOUS
10
133.070937999999984
20
-94.9010329999999982
11
133.0714279999999974
21
-94.9010090000000019
0
LINE
8
B.Silkscreen
6
CONTINUOUS
10
133.0714279999999974
20
-94.9010090000000019
11
133.3247609999999952
21
-94.9010090000000019
0
LINE
8
B.Silkscreen
6
CONTINUOUS
10
133.3247609999999952
20
-94.9010090000000019
11
133.3247609999999952
21
-94.584818999999996
0
LINE
8
B.Silkscreen
6
CONTINUOUS
10
133.3247609999999952
20
-94.584818999999996
11
132.9285710000000051
21
-94.584818999999996
0
LINE
8
B.Silkscreen
6
CONTINUOUS
10
132.9285710000000051
20
-94.584818999999996
11
132.9280809999999917
21
-94.5847949999999997
0
LINE
8
B.Silkscreen
6
CONTINUOUS
10
132.9280809999999917
20
-94.5847949999999997
11
132.9134489999999857
21
-94.5833539999999999
0
LINE
8
B.Silkscreen
6
CONTINUOUS
10
132.9134489999999857
20
-94.5833539999999999
11
132.9120259999999973
21
-94.5829969999999918
0
LINE
8
B.Silkscreen
6
CONTINUOUS
10
132.9120259999999973
20
-94.5829969999999918
11
132.8849899999999877
21
-94.5717980000000011
0
LINE
8
B.Silkscreen
6
CONTINUOUS
10
132.8849899999999877
20
-94.5717980000000011
11
132.8833669999999927
21
-94.5707149999999928
0
LINE
8
B.Silkscreen
6
CONTINUOUS
10
132.8833669999999927
20
-94.5707149999999928
11
132.8626749999999959
21
-94.5500229999999959
0
LINE
8
B.Silkscreen
6
CONTINUOUS
10
132.8626749999999959
20
-94.5500229999999959
11
132.8615920000000017
21
-94.5484000000000009
0
LINE
8
B.Silkscreen
6
CONTINUOUS
10
132.8615920000000017
20
-94.5484000000000009
11
132.8503929999999968
21
-94.5213639999999913
0
LINE
8
B.Silkscreen
6
CONTINUOUS
10
132.8503929999999968
20
-94.5213639999999913
11
132.8500119999999924
21
-94.5194509999999894
0
LINE
8
B.Silkscreen
6
CONTINUOUS
10
132.8500119999999924
20
-94.5194509999999894
11
132.8500119999999924
21
-94.4901869999999917
0
LINE
8
B.Silkscreen
6
CONTINUOUS
10
132.8500119999999924
20
-94.4901869999999917
11
132.8503929999999968
21
-94.4882739999999899
0
LINE
8
B.Silkscreen
6
CONTINUOUS
10
132.8503929999999968
20
-94.4882739999999899
11
132.8615920000000017
21
-94.4612379999999945
0
LINE
8
B.Silkscreen
6
CONTINUOUS
10
132.8615920000000017
20
-94.4612379999999945
11
132.8626749999999959
21
-94.4596149999999994
0
LINE
8
B.Silkscreen
6
CONTINUOUS
10
132.8626749999999959
20
-94.4596149999999994
11
132.8833669999999927
21
-94.4389230000000026
0
LINE
8
B.Silkscreen
6
CONTINUOUS
10
132.8833669999999927
20
-94.4389230000000026
11
132.8849899999999877
21
-94.4378399999999942
0
LINE
8
B.Silkscreen
6
CONTINUOUS
10
132.8849899999999877
20
-94.4378399999999942
11
132.9120259999999973
21
-94.4266409999999894
0
LINE
8
B.Silkscreen
6
CONTINUOUS
10
132.9120259999999973
20
-94.4266409999999894
11
132.9134489999999857
21
-94.4262839999999954
0
LINE
8
B.Silkscreen
6
CONTINUOUS
10
132.9134489999999857
20
-94.4262839999999954
11
132.9280809999999917
21
-94.4248429999999956
0
LINE
8
B.Silkscreen
6
CONTINUOUS
10
132.9280809999999917
20
-94.4248429999999956
11
132.9285710000000051
21
-94.4248189999999994
0
LINE
8
B.Silkscreen
6
CONTINUOUS
10
132.9285710000000051
20
-94.4248189999999994
11
133.4047610000000077
21
-94.4248189999999994
0
LINE
8
B.Silkscreen
6
CONTINUOUS
10
133.4047610000000077
20
-94.4248189999999994
11
133.4052509999999927
21
-94.4248429999999956
0
CIRCLE
8
B.Silkscreen
10
155.4599999999999795
20
-93.9599999999999937
40
0.175
0
CIRCLE
8
B.Silkscreen
10
158.
20
-93.9599999999999937
40
0.175
0
CIRCLE
8
B.Silkscreen
10
155.4599999999999795
20
-96.5
40
0.175
0
CIRCLE
8
B.Silkscreen
10
158.
20
-96.5
40
0.175
0
CIRCLE
8
B.Silkscreen
10
155.4599999999999795
20
-99.039999999999992
40
0.175
0
CIRCLE
8
B.Silkscreen
10
158.
20
-99.039999999999992
40
0.175
0
CIRCLE
8
B.Silkscreen
10
155.4599999999999795
20
-101.5799999999999983
40
0.175
0
CIRCLE
8
B.Silkscreen
10
158.
20
-101.5799999999999983
40
0.175
0
LINE
8
B.Silkscreen
6
CONTINUOUS
10
136.2999999999999829
20
-92.8799999999999955
11
135.6999999999999886
21
-92.8799999999999955
0
ARC
8
B.Silkscreen
10
135.6999999999999886
20
-93.1799999999999926
40
0.3
50
90.00000000
51
270.00000000
0
LINE
8
B.Silkscreen
6
CONTINUOUS
10
135.6999999999999886
20
-93.4799999999999898
11
136.2999999999999829
21
-93.4799999999999898
0
ARC
8
B.Silkscreen
10
136.2999999999999829
20
-93.1799999999999926
40
0.3
50
270.00000000
51
450.00000000
0
LINE
8
B.Silkscreen
6
CONTINUOUS
10
132.5
20
-92.8799999999999955
11
131.9000000000000057
21
-92.8799999999999955
0
ARC
8
B.Silkscreen
10
131.9000000000000057
20
-93.1799999999999926
40
0.3
50
90.00000000
51
270.00000000
0
LINE
8
B.Silkscreen
6
CONTINUOUS
10
131.9000000000000057
20
-93.4799999999999898
11
132.5
21
-93.4799999999999898
0
ARC
8
B.Silkscreen
10
132.5
20
-93.1799999999999926
40
0.3
50
270.00000000
51
450.00000000
0
LINE
8
B.Silkscreen
6
CONTINUOUS
10
136.2999999999999829
20
-101.519999999999996
11
135.6999999999999886
21
-101.519999999999996
0
ARC
8
B.Silkscreen
10
135.6999999999999886
20
-101.8199999999999932
40
0.3
50
90.00000000
51
270.00000000
0
LINE
8
B.Silkscreen
6
CONTINUOUS
10
135.6999999999999886
20
-102.1199999999999903
11
136.2999999999999829
21
-102.1199999999999903
0
ARC
8
B.Silkscreen
10
136.2999999999999829
20
-101.8199999999999932
40
0.3
50
270.00000000
51
450.00000000
0
LINE
8
B.Silkscreen
6
CONTINUOUS
10
132.5
20
-101.519999999999996
11
131.9000000000000057
21
-101.519999999999996
0
ARC
8
B.Silkscreen
10
131.9000000000000057
20
-101.8199999999999932
40
0.3
50
90.00000000
51
270.00000000
0
LINE
8
B.Silkscreen
6
CONTINUOUS
10
131.9000000000000057
20
-102.1199999999999903
11
132.5
21
-102.1199999999999903
0
ARC
8
B.Silkscreen
10
132.5
20
-101.8199999999999932
40
0.3
50
270.00000000
51
450.00000000
  0
ENDSEC
  0
EOF
