  0
SECTION
  2
HEADER
  9
$ANGBASE
  50
0.0
  9
$ANGDIR
  70
1
  9
$MEASUREMENT
  70
1
  9
$INSUNITS
  70
4
  0
ENDSEC
  0
SECTION
  2
TABLES
  0
TABLE
  2
LTYPE
  70
4
  0
LTYPE
  5
40F
  2
CONTINUOUS
  70
0
  3
Solid line
  72
65
  73
0
  40
0.0
  0
LTYPE
  5
410
  2
DASHDOT
 70
0
  3
Dash Dot ____ _ ____ _
 72
65
 73
4
 40
2.0
 49
1.25
 49
-0.25
 49
0.25
 49
-0.25
  0
LTYPE
  5
411
  2
DASHED
 70
0
  3
Dashed __ __ __ __ __
 72
65
 73
2
 40
0.75
 49
0.5
 49
-0.25
  0
LTYPE
  5
43B
  2
DOTTED
 70
0
  3
Dotted .  .  .  .
 72
65
 73
2
 40
0.2
 49
0.0
 49
-0.2
  0
ENDTAB
  0
TABLE
  2
STYLE
  70
4
  0
STYLE
  2
KICAD
  70
0
  40
0
  41
1
  42
1
  50
0
  71
0
  3
isocp.shx
  0
STYLE
  2
KICADB
  70
0
  40
0
  41
1
  42
1
  50
0
  71
0
  3
isocp.shx
  0
STYLE
  2
KICADI
  70
0
  40
0
  41
1
  42
1
  50
15
  71
0
  3
isocp.shx
  0
STYLE
  2
KICADBI
  70
0
  40
0
  41
1
  42
1
  50
15
  71
0
  3
isocp.shx
  0
ENDTAB
  0
TABLE
  2
LAYER
  70
9
  0
LAYER
  2
L1 (Sig, PWR)
  70
0
  62
13
  420
13120564
  6
CONTINUOUS
  0
LAYER
  2
L6 (Sig, PWR)
  70
0
  62
153
  420
5078980
  6
CONTINUOUS
  0
LAYER
  2
F.Paste
  70
0
  62
253
  420
11837594
  6
CONTINUOUS
  0
LAYER
  2
B.Paste
  70
0
  62
132
  420
49858
  6
CONTINUOUS
  0
LAYER
  2
F.Silkscreen
  70
0
  62
41
  420
15920545
  6
CONTINUOUS
  0
LAYER
  2
B.Silkscreen
  70
0
  62
31
  420
15250087
  6
CONTINUOUS
  0
LAYER
  2
F.Mask
  70
0
  62
201
  420
14181631
  6
CONTINUOUS
  0
LAYER
  2
B.Mask
  70
0
  62
4
  420
196590
  6
CONTINUOUS
  0
LAYER
  2
Edge.Cuts
  70
0
  62
254
  420
13685453
  6
CONTINUOUS
  0
ENDTAB
  0
ENDSEC
  0
SECTION
  2
ENTITIES
0
LINE
8
F.Mask
6
CONTINUOUS
10
139.8501679999999965
20
-100.541444999999996
11
140.074025000000006
21
-100.6141810000000021
0
LINE
8
F.Mask
6
CONTINUOUS
10
140.074025000000006
20
-100.6141810000000021
11
140.2837480000000028
21
-100.7210400000000021
0
LINE
8
F.Mask
6
CONTINUOUS
10
140.2837480000000028
20
-100.7210400000000021
11
140.4741719999999816
21
-100.8593910000000022
0
LINE
8
F.Mask
6
CONTINUOUS
10
140.4741719999999816
20
-100.8593910000000022
11
140.6406089999999836
21
-101.02582799999999
0
LINE
8
F.Mask
6
CONTINUOUS
10
140.6406089999999836
20
-101.02582799999999
11
140.7789599999999837
21
-101.2162519999999972
0
LINE
8
F.Mask
6
CONTINUOUS
10
140.7789599999999837
20
-101.2162519999999972
11
140.8858189999999979
21
-101.425974999999994
0
LINE
8
F.Mask
6
CONTINUOUS
10
140.8858189999999979
20
-101.425974999999994
11
140.9585549999999898
21
-101.6498319999999893
0
LINE
8
F.Mask
6
CONTINUOUS
10
140.9585549999999898
20
-101.6498319999999893
11
140.9953759999999932
21
-101.8823110000000014
0
LINE
8
F.Mask
6
CONTINUOUS
10
140.9953759999999932
20
-101.8823110000000014
11
140.9953759999999932
21
-102.1176889999999986
0
LINE
8
F.Mask
6
CONTINUOUS
10
140.9953759999999932
20
-102.1176889999999986
11
140.9585549999999898
21
-102.3501679999999965
0
LINE
8
F.Mask
6
CONTINUOUS
10
140.9585549999999898
20
-102.3501679999999965
11
140.8858189999999979
21
-102.5740249999999918
0
LINE
8
F.Mask
6
CONTINUOUS
10
140.8858189999999979
20
-102.5740249999999918
11
140.7789599999999837
21
-102.7837479999999886
0
LINE
8
F.Mask
6
CONTINUOUS
10
140.7789599999999837
20
-102.7837479999999886
11
140.6406089999999836
21
-102.9741719999999958
0
LINE
8
F.Mask
6
CONTINUOUS
10
140.6406089999999836
20
-102.9741719999999958
11
140.4741719999999816
21
-103.1406089999999978
0
LINE
8
F.Mask
6
CONTINUOUS
10
140.4741719999999816
20
-103.1406089999999978
11
140.2837480000000028
21
-103.2789599999999979
0
LINE
8
F.Mask
6
CONTINUOUS
10
140.2837480000000028
20
-103.2789599999999979
11
140.074025000000006
21
-103.3858189999999979
0
LINE
8
F.Mask
6
CONTINUOUS
10
140.074025000000006
20
-103.3858189999999979
11
139.8501679999999965
21
-103.4585549999999898
0
LINE
8
F.Mask
6
CONTINUOUS
10
139.8501679999999965
20
-103.4585549999999898
11
139.6176889999999844
21
-103.4953759999999932
0
LINE
8
F.Mask
6
CONTINUOUS
10
139.6176889999999844
20
-103.4953759999999932
11
139.3823109999999872
21
-103.4953759999999932
0
LINE
8
F.Mask
6
CONTINUOUS
10
139.3823109999999872
20
-103.4953759999999932
11
139.1498320000000035
21
-103.4585549999999898
0
LINE
8
F.Mask
6
CONTINUOUS
10
139.1498320000000035
20
-103.4585549999999898
11
138.925974999999994
21
-103.3858189999999979
0
LINE
8
F.Mask
6
CONTINUOUS
10
138.925974999999994
20
-103.3858189999999979
11
138.7162519999999972
21
-103.2789599999999979
0
LINE
8
F.Mask
6
CONTINUOUS
10
138.7162519999999972
20
-103.2789599999999979
11
138.52582799999999
21
-103.1406089999999978
0
LINE
8
F.Mask
6
CONTINUOUS
10
138.52582799999999
20
-103.1406089999999978
11
138.359390999999988
21
-102.9741719999999958
0
LINE
8
F.Mask
6
CONTINUOUS
10
138.359390999999988
20
-102.9741719999999958
11
138.2210399999999879
21
-102.7837479999999886
0
LINE
8
F.Mask
6
CONTINUOUS
10
138.2210399999999879
20
-102.7837479999999886
11
138.1141810000000021
21
-102.5740249999999918
0
LINE
8
F.Mask
6
CONTINUOUS
10
138.1141810000000021
20
-102.5740249999999918
11
138.0414449999999817
21
-102.3501679999999965
0
LINE
8
F.Mask
6
CONTINUOUS
10
138.0414449999999817
20
-102.3501679999999965
11
138.0046240000000068
21
-102.1176889999999986
0
LINE
8
F.Mask
6
CONTINUOUS
10
138.0046240000000068
20
-102.1176889999999986
11
138.0046240000000068
21
-101.8823110000000014
0
LINE
8
F.Mask
6
CONTINUOUS
10
138.0046240000000068
20
-101.8823110000000014
11
138.0414449999999817
21
-101.6498319999999893
0
LINE
8
F.Mask
6
CONTINUOUS
10
138.0414449999999817
20
-101.6498319999999893
11
138.1141810000000021
21
-101.425974999999994
0
LINE
8
F.Mask
6
CONTINUOUS
10
138.1141810000000021
20
-101.425974999999994
11
138.2210399999999879
21
-101.2162519999999972
0
LINE
8
F.Mask
6
CONTINUOUS
10
138.2210399999999879
20
-101.2162519999999972
11
138.359390999999988
21
-101.02582799999999
0
LINE
8
F.Mask
6
CONTINUOUS
10
138.359390999999988
20
-101.02582799999999
11
138.52582799999999
21
-100.8593910000000022
0
LINE
8
F.Mask
6
CONTINUOUS
10
138.52582799999999
20
-100.8593910000000022
11
138.7162519999999972
21
-100.7210400000000021
0
LINE
8
F.Mask
6
CONTINUOUS
10
138.7162519999999972
20
-100.7210400000000021
11
138.925974999999994
21
-100.6141810000000021
0
LINE
8
F.Mask
6
CONTINUOUS
10
138.925974999999994
20
-100.6141810000000021
11
139.1498320000000035
21
-100.541444999999996
0
LINE
8
F.Mask
6
CONTINUOUS
10
139.1498320000000035
20
-100.541444999999996
11
139.3823109999999872
21
-100.5046239999999926
0
LINE
8
F.Mask
6
CONTINUOUS
10
139.3823109999999872
20
-100.5046239999999926
11
139.6176889999999844
21
-100.5046239999999926
0
LINE
8
F.Mask
6
CONTINUOUS
10
139.6176889999999844
20
-100.5046239999999926
11
139.8501679999999965
21
-100.541444999999996
0
LINE
8
F.Mask
6
CONTINUOUS
10
151.2322279999999921
20
-101.2344480000000004
11
151.3771169999999984
21
-101.2944629999999933
0
LINE
8
F.Mask
6
CONTINUOUS
10
151.3771169999999984
20
-101.2944629999999933
11
151.5075149999999837
21
-101.3815919999999977
0
LINE
8
F.Mask
6
CONTINUOUS
10
151.5075149999999837
20
-101.3815919999999977
11
151.6184079999999881
21
-101.4924850000000021
0
LINE
8
F.Mask
6
CONTINUOUS
10
151.6184079999999881
20
-101.4924850000000021
11
151.7055369999999925
21
-101.6228830000000016
0
LINE
8
F.Mask
6
CONTINUOUS
10
151.7055369999999925
20
-101.6228830000000016
11
151.7655519999999854
21
-101.7677719999999937
0
LINE
8
F.Mask
6
CONTINUOUS
10
151.7655519999999854
20
-101.7677719999999937
11
151.7961479999999881
21
-101.9215859999999907
0
LINE
8
F.Mask
6
CONTINUOUS
10
151.7961479999999881
20
-101.9215859999999907
11
151.7961479999999881
21
-102.0784139999999951
0
LINE
8
F.Mask
6
CONTINUOUS
10
151.7961479999999881
20
-102.0784139999999951
11
151.7655519999999854
21
-102.2322279999999921
0
LINE
8
F.Mask
6
CONTINUOUS
10
151.7655519999999854
20
-102.2322279999999921
11
151.7055369999999925
21
-102.3771169999999984
0
LINE
8
F.Mask
6
CONTINUOUS
10
151.7055369999999925
20
-102.3771169999999984
11
151.6184079999999881
21
-102.5075149999999979
0
LINE
8
F.Mask
6
CONTINUOUS
10
151.6184079999999881
20
-102.5075149999999979
11
151.5075149999999837
21
-102.6184080000000023
0
LINE
8
F.Mask
6
CONTINUOUS
10
151.5075149999999837
20
-102.6184080000000023
11
151.3771169999999984
21
-102.7055369999999925
0
LINE
8
F.Mask
6
CONTINUOUS
10
151.3771169999999984
20
-102.7055369999999925
11
151.2322279999999921
21
-102.7655519999999996
0
LINE
8
F.Mask
6
CONTINUOUS
10
151.2322279999999921
20
-102.7655519999999996
11
151.0784139999999809
21
-102.7961480000000023
0
LINE
8
F.Mask
6
CONTINUOUS
10
151.0784139999999809
20
-102.7961480000000023
11
150.9215859999999907
21
-102.7961480000000023
0
LINE
8
F.Mask
6
CONTINUOUS
10
150.9215859999999907
20
-102.7961480000000023
11
150.7677719999999795
21
-102.7655519999999996
0
LINE
8
F.Mask
6
CONTINUOUS
10
150.7677719999999795
20
-102.7655519999999996
11
150.6228830000000016
21
-102.7055369999999925
0
LINE
8
F.Mask
6
CONTINUOUS
10
150.6228830000000016
20
-102.7055369999999925
11
150.4924849999999878
21
-102.6184080000000023
0
LINE
8
F.Mask
6
CONTINUOUS
10
150.4924849999999878
20
-102.6184080000000023
11
150.3815919999999835
21
-102.5075149999999979
0
LINE
8
F.Mask
6
CONTINUOUS
10
150.3815919999999835
20
-102.5075149999999979
11
150.294462999999979
21
-102.3771169999999984
0
LINE
8
F.Mask
6
CONTINUOUS
10
150.294462999999979
20
-102.3771169999999984
11
150.2344479999999862
21
-102.2322279999999921
0
LINE
8
F.Mask
6
CONTINUOUS
10
150.2344479999999862
20
-102.2322279999999921
11
150.2038519999999835
21
-102.0784139999999951
0
LINE
8
F.Mask
6
CONTINUOUS
10
150.2038519999999835
20
-102.0784139999999951
11
150.2038519999999835
21
-101.9215859999999907
0
LINE
8
F.Mask
6
CONTINUOUS
10
150.2038519999999835
20
-101.9215859999999907
11
150.2344479999999862
21
-101.7677719999999937
0
LINE
8
F.Mask
6
CONTINUOUS
10
150.2344479999999862
20
-101.7677719999999937
11
150.294462999999979
21
-101.6228830000000016
0
LINE
8
F.Mask
6
CONTINUOUS
10
150.294462999999979
20
-101.6228830000000016
11
150.3815919999999835
21
-101.4924850000000021
0
LINE
8
F.Mask
6
CONTINUOUS
10
150.3815919999999835
20
-101.4924850000000021
11
150.4924849999999878
21
-101.3815919999999977
0
LINE
8
F.Mask
6
CONTINUOUS
10
150.4924849999999878
20
-101.3815919999999977
11
150.6228830000000016
21
-101.2944629999999933
0
LINE
8
F.Mask
6
CONTINUOUS
10
150.6228830000000016
20
-101.2944629999999933
11
150.7677719999999795
21
-101.2344480000000004
0
LINE
8
F.Mask
6
CONTINUOUS
10
150.7677719999999795
20
-101.2344480000000004
11
150.9215859999999907
21
-101.2038519999999977
0
LINE
8
F.Mask
6
CONTINUOUS
10
150.9215859999999907
20
-101.2038519999999977
11
151.0784139999999809
21
-101.2038519999999977
0
LINE
8
F.Mask
6
CONTINUOUS
10
151.0784139999999809
20
-101.2038519999999977
11
151.2322279999999921
21
-101.2344480000000004
0
LINE
8
F.Mask
6
CONTINUOUS
10
155.7212559999999826
20
-100.7187539999999899
11
155.884256999999991
21
-100.7862709999999993
0
LINE
8
F.Mask
6
CONTINUOUS
10
155.884256999999991
20
-100.7862709999999993
11
156.0309539999999799
21
-100.8842909999999904
0
LINE
8
F.Mask
6
CONTINUOUS
10
156.0309539999999799
20
-100.8842909999999904
11
156.1557090000000017
21
-101.0090459999999979
0
LINE
8
F.Mask
6
CONTINUOUS
10
156.1557090000000017
20
-101.0090459999999979
11
156.2537289999999928
21
-101.1557430000000011
0
LINE
8
F.Mask
6
CONTINUOUS
10
156.2537289999999928
20
-101.1557430000000011
11
156.3212460000000021
21
-101.3187439999999953
0
LINE
8
F.Mask
6
CONTINUOUS
10
156.3212460000000021
20
-101.3187439999999953
11
156.3556659999999852
21
-101.491784999999993
0
LINE
8
F.Mask
6
CONTINUOUS
10
156.3556659999999852
20
-101.491784999999993
11
156.3556659999999852
21
-101.6682149999999893
0
LINE
8
F.Mask
6
CONTINUOUS
10
156.3556659999999852
20
-101.6682149999999893
11
156.3212460000000021
21
-101.8412560000000013
0
LINE
8
F.Mask
6
CONTINUOUS
10
156.3212460000000021
20
-101.8412560000000013
11
156.2537289999999928
21
-102.0042569999999955
0
LINE
8
F.Mask
6
CONTINUOUS
10
156.2537289999999928
20
-102.0042569999999955
11
156.1557090000000017
21
-102.1509539999999987
0
LINE
8
F.Mask
6
CONTINUOUS
10
156.1557090000000017
20
-102.1509539999999987
11
156.0309539999999799
21
-102.275708999999992
0
LINE
8
F.Mask
6
CONTINUOUS
10
156.0309539999999799
20
-102.275708999999992
11
155.884256999999991
21
-102.3737289999999973
0
LINE
8
F.Mask
6
CONTINUOUS
10
155.884256999999991
20
-102.3737289999999973
11
155.7212559999999826
21
-102.4412459999999925
0
LINE
8
F.Mask
6
CONTINUOUS
10
155.7212559999999826
20
-102.4412459999999925
11
155.548214999999999
21
-102.4756659999999897
0
LINE
8
F.Mask
6
CONTINUOUS
10
155.548214999999999
20
-102.4756659999999897
11
155.3717849999999885
21
-102.4756659999999897
0
LINE
8
F.Mask
6
CONTINUOUS
10
155.3717849999999885
20
-102.4756659999999897
11
155.1987440000000049
21
-102.4412459999999925
0
LINE
8
F.Mask
6
CONTINUOUS
10
155.1987440000000049
20
-102.4412459999999925
11
155.0357429999999965
21
-102.3737289999999973
0
LINE
8
F.Mask
6
CONTINUOUS
10
155.0357429999999965
20
-102.3737289999999973
11
154.8890459999999791
21
-102.275708999999992
0
LINE
8
F.Mask
6
CONTINUOUS
10
154.8890459999999791
20
-102.275708999999992
11
154.7642909999999858
21
-102.1509539999999987
0
LINE
8
F.Mask
6
CONTINUOUS
10
154.7642909999999858
20
-102.1509539999999987
11
154.6662709999999947
21
-102.0042569999999955
0
LINE
8
F.Mask
6
CONTINUOUS
10
154.6662709999999947
20
-102.0042569999999955
11
154.5987539999999854
21
-101.8412560000000013
0
LINE
8
F.Mask
6
CONTINUOUS
10
154.5987539999999854
20
-101.8412560000000013
11
154.5643340000000023
21
-101.6682149999999893
0
LINE
8
F.Mask
6
CONTINUOUS
10
154.5643340000000023
20
-101.6682149999999893
11
154.5643340000000023
21
-101.491784999999993
0
LINE
8
F.Mask
6
CONTINUOUS
10
154.5643340000000023
20
-101.491784999999993
11
154.5987539999999854
21
-101.3187439999999953
0
LINE
8
F.Mask
6
CONTINUOUS
10
154.5987539999999854
20
-101.3187439999999953
11
154.6662709999999947
21
-101.1557430000000011
0
LINE
8
F.Mask
6
CONTINUOUS
10
154.6662709999999947
20
-101.1557430000000011
11
154.7642909999999858
21
-101.0090459999999979
0
LINE
8
F.Mask
6
CONTINUOUS
10
154.7642909999999858
20
-101.0090459999999979
11
154.8890459999999791
21
-100.8842909999999904
0
LINE
8
F.Mask
6
CONTINUOUS
10
154.8890459999999791
20
-100.8842909999999904
11
155.0357429999999965
21
-100.7862709999999993
0
LINE
8
F.Mask
6
CONTINUOUS
10
155.0357429999999965
20
-100.7862709999999993
11
155.1987440000000049
21
-100.7187539999999899
0
LINE
8
F.Mask
6
CONTINUOUS
10
155.1987440000000049
20
-100.7187539999999899
11
155.3717849999999885
21
-100.6843339999999927
0
LINE
8
F.Mask
6
CONTINUOUS
10
155.3717849999999885
20
-100.6843339999999927
11
155.548214999999999
21
-100.6843339999999927
0
LINE
8
F.Mask
6
CONTINUOUS
10
155.548214999999999
20
-100.6843339999999927
11
155.7212559999999826
21
-100.7187539999999899
0
LINE
8
F.Mask
6
CONTINUOUS
10
158.261256000000003
20
-100.7187539999999899
11
158.424256999999983
21
-100.7862709999999993
0
LINE
8
F.Mask
6
CONTINUOUS
10
158.424256999999983
20
-100.7862709999999993
11
158.5709540000000004
21
-100.8842909999999904
0
LINE
8
F.Mask
6
CONTINUOUS
10
158.5709540000000004
20
-100.8842909999999904
11
158.6957089999999937
21
-101.0090459999999979
0
LINE
8
F.Mask
6
CONTINUOUS
10
158.6957089999999937
20
-101.0090459999999979
11
158.7937289999999848
21
-101.1557430000000011
0
LINE
8
F.Mask
6
CONTINUOUS
10
158.7937289999999848
20
-101.1557430000000011
11
158.8612459999999942
21
-101.3187439999999953
0
LINE
8
F.Mask
6
CONTINUOUS
10
158.8612459999999942
20
-101.3187439999999953
11
158.8956660000000056
21
-101.491784999999993
0
LINE
8
F.Mask
6
CONTINUOUS
10
158.8956660000000056
20
-101.491784999999993
11
158.8956660000000056
21
-101.6682149999999893
0
LINE
8
F.Mask
6
CONTINUOUS
10
158.8956660000000056
20
-101.6682149999999893
11
158.8612459999999942
21
-101.8412560000000013
0
LINE
8
F.Mask
6
CONTINUOUS
10
158.8612459999999942
20
-101.8412560000000013
11
158.7937289999999848
21
-102.0042569999999955
0
LINE
8
F.Mask
6
CONTINUOUS
10
158.7937289999999848
20
-102.0042569999999955
11
158.6957089999999937
21
-102.1509539999999987
0
LINE
8
F.Mask
6
CONTINUOUS
10
158.6957089999999937
20
-102.1509539999999987
11
158.5709540000000004
21
-102.275708999999992
0
LINE
8
F.Mask
6
CONTINUOUS
10
158.5709540000000004
20
-102.275708999999992
11
158.424256999999983
21
-102.3737289999999973
0
LINE
8
F.Mask
6
CONTINUOUS
10
158.424256999999983
20
-102.3737289999999973
11
158.261256000000003
21
-102.4412459999999925
0
LINE
8
F.Mask
6
CONTINUOUS
10
158.261256000000003
20
-102.4412459999999925
11
158.0882149999999911
21
-102.4756659999999897
0
LINE
8
F.Mask
6
CONTINUOUS
10
158.0882149999999911
20
-102.4756659999999897
11
157.9117849999999805
21
-102.4756659999999897
0
LINE
8
F.Mask
6
CONTINUOUS
10
157.9117849999999805
20
-102.4756659999999897
11
157.738743999999997
21
-102.4412459999999925
0
LINE
8
F.Mask
6
CONTINUOUS
10
157.738743999999997
20
-102.4412459999999925
11
157.5757429999999886
21
-102.3737289999999973
0
LINE
8
F.Mask
6
CONTINUOUS
10
157.5757429999999886
20
-102.3737289999999973
11
157.4290459999999996
21
-102.275708999999992
0
LINE
8
F.Mask
6
CONTINUOUS
10
157.4290459999999996
20
-102.275708999999992
11
157.3042910000000063
21
-102.1509539999999987
0
LINE
8
F.Mask
6
CONTINUOUS
10
157.3042910000000063
20
-102.1509539999999987
11
157.2062709999999868
21
-102.0042569999999955
0
LINE
8
F.Mask
6
CONTINUOUS
10
157.2062709999999868
20
-102.0042569999999955
11
157.1387540000000058
21
-101.8412560000000013
0
LINE
8
F.Mask
6
CONTINUOUS
10
157.1387540000000058
20
-101.8412560000000013
11
157.1043339999999944
21
-101.6682149999999893
0
LINE
8
F.Mask
6
CONTINUOUS
10
157.1043339999999944
20
-101.6682149999999893
11
157.1043339999999944
21
-101.491784999999993
0
LINE
8
F.Mask
6
CONTINUOUS
10
157.1043339999999944
20
-101.491784999999993
11
157.1387540000000058
21
-101.3187439999999953
0
LINE
8
F.Mask
6
CONTINUOUS
10
157.1387540000000058
20
-101.3187439999999953
11
157.2062709999999868
21
-101.1557430000000011
0
LINE
8
F.Mask
6
CONTINUOUS
10
157.2062709999999868
20
-101.1557430000000011
11
157.3042910000000063
21
-101.0090459999999979
0
LINE
8
F.Mask
6
CONTINUOUS
10
157.3042910000000063
20
-101.0090459999999979
11
157.4290459999999996
21
-100.8842909999999904
0
LINE
8
F.Mask
6
CONTINUOUS
10
157.4290459999999996
20
-100.8842909999999904
11
157.5757429999999886
21
-100.7862709999999993
0
LINE
8
F.Mask
6
CONTINUOUS
10
157.5757429999999886
20
-100.7862709999999993
11
157.738743999999997
21
-100.7187539999999899
0
LINE
8
F.Mask
6
CONTINUOUS
10
157.738743999999997
20
-100.7187539999999899
11
157.9117849999999805
21
-100.6843339999999927
0
LINE
8
F.Mask
6
CONTINUOUS
10
157.9117849999999805
20
-100.6843339999999927
11
158.0882149999999911
21
-100.6843339999999927
0
LINE
8
F.Mask
6
CONTINUOUS
10
158.0882149999999911
20
-100.6843339999999927
11
158.261256000000003
21
-100.7187539999999899
0
LINE
8
F.Mask
6
CONTINUOUS
10
132.5783160000000009
20
-101.2251329999999996
11
132.7296100000000081
21
-101.265671999999995
0
LINE
8
F.Mask
6
CONTINUOUS
10
132.7296100000000081
20
-101.265671999999995
11
132.8652569999999855
21
-101.343987999999996
0
LINE
8
F.Mask
6
CONTINUOUS
10
132.8652569999999855
20
-101.343987999999996
11
132.9760119999999972
21
-101.4547429999999935
0
LINE
8
F.Mask
6
CONTINUOUS
10
132.9760119999999972
20
-101.4547429999999935
11
133.0543279999999982
21
-101.5903899999999993
0
LINE
8
F.Mask
6
CONTINUOUS
10
133.0543279999999982
20
-101.5903899999999993
11
133.0948669999999936
21
-101.7416839999999922
0
LINE
8
F.Mask
6
CONTINUOUS
10
133.0948669999999936
20
-101.7416839999999922
11
133.0948669999999936
21
-101.8983159999999941
0
LINE
8
F.Mask
6
CONTINUOUS
10
133.0948669999999936
20
-101.8983159999999941
11
133.0543279999999982
21
-102.0496100000000013
0
LINE
8
F.Mask
6
CONTINUOUS
10
133.0543279999999982
20
-102.0496100000000013
11
132.9760119999999972
21
-102.1852569999999929
0
LINE
8
F.Mask
6
CONTINUOUS
10
132.9760119999999972
20
-102.1852569999999929
11
132.8652569999999855
21
-102.2960119999999904
0
LINE
8
F.Mask
6
CONTINUOUS
10
132.8652569999999855
20
-102.2960119999999904
11
132.7296100000000081
21
-102.3743279999999913
0
LINE
8
F.Mask
6
CONTINUOUS
10
132.7296100000000081
20
-102.3743279999999913
11
132.5783160000000009
21
-102.414867000000001
0
LINE
8
F.Mask
6
CONTINUOUS
10
132.5783160000000009
20
-102.414867000000001
11
132.5
21
-102.4200000000000017
0
LINE
8
F.Mask
6
CONTINUOUS
10
132.5
20
-102.4200000000000017
11
131.9000000000000057
21
-102.4200000000000017
0
LINE
8
F.Mask
6
CONTINUOUS
10
131.9000000000000057
20
-102.4200000000000017
11
131.8216840000000047
21
-102.414867000000001
0
LINE
8
F.Mask
6
CONTINUOUS
10
131.8216840000000047
20
-102.414867000000001
11
131.6703899999999976
21
-102.3743279999999913
0
LINE
8
F.Mask
6
CONTINUOUS
10
131.6703899999999976
20
-102.3743279999999913
11
131.5347429999999918
21
-102.2960119999999904
0
LINE
8
F.Mask
6
CONTINUOUS
10
131.5347429999999918
20
-102.2960119999999904
11
131.42398799999998
21
-102.1852569999999929
0
LINE
8
F.Mask
6
CONTINUOUS
10
131.42398799999998
20
-102.1852569999999929
11
131.3456720000000075
21
-102.0496100000000013
0
LINE
8
F.Mask
6
CONTINUOUS
10
131.3456720000000075
20
-102.0496100000000013
11
131.3051329999999837
21
-101.8983159999999941
0
LINE
8
F.Mask
6
CONTINUOUS
10
131.3051329999999837
20
-101.8983159999999941
11
131.3051329999999837
21
-101.7416839999999922
0
LINE
8
F.Mask
6
CONTINUOUS
10
131.3051329999999837
20
-101.7416839999999922
11
131.3456720000000075
21
-101.5903899999999993
0
LINE
8
F.Mask
6
CONTINUOUS
10
131.3456720000000075
20
-101.5903899999999993
11
131.42398799999998
21
-101.4547429999999935
0
LINE
8
F.Mask
6
CONTINUOUS
10
131.42398799999998
20
-101.4547429999999935
11
131.5347429999999918
21
-101.343987999999996
0
LINE
8
F.Mask
6
CONTINUOUS
10
131.5347429999999918
20
-101.343987999999996
11
131.6703899999999976
21
-101.265671999999995
0
LINE
8
F.Mask
6
CONTINUOUS
10
131.6703899999999976
20
-101.265671999999995
11
131.8216840000000047
21
-101.2251329999999996
0
LINE
8
F.Mask
6
CONTINUOUS
10
131.8216840000000047
20
-101.2251329999999996
11
131.9000000000000057
21
-101.2199999999999989
0
LINE
8
F.Mask
6
CONTINUOUS
10
131.9000000000000057
20
-101.2199999999999989
11
132.5
21
-101.2199999999999989
0
LINE
8
F.Mask
6
CONTINUOUS
10
132.5
20
-101.2199999999999989
11
132.5783160000000009
21
-101.2251329999999996
0
LINE
8
F.Mask
6
CONTINUOUS
10
136.3783159999999839
20
-101.2251329999999996
11
136.529609999999991
21
-101.265671999999995
0
LINE
8
F.Mask
6
CONTINUOUS
10
136.529609999999991
20
-101.265671999999995
11
136.6652569999999969
21
-101.343987999999996
0
LINE
8
F.Mask
6
CONTINUOUS
10
136.6652569999999969
20
-101.343987999999996
11
136.7760119999999802
21
-101.4547429999999935
0
LINE
8
F.Mask
6
CONTINUOUS
10
136.7760119999999802
20
-101.4547429999999935
11
136.8543279999999811
21
-101.5903899999999993
0
LINE
8
F.Mask
6
CONTINUOUS
10
136.8543279999999811
20
-101.5903899999999993
11
136.894867000000005
21
-101.7416839999999922
0
LINE
8
F.Mask
6
CONTINUOUS
10
136.894867000000005
20
-101.7416839999999922
11
136.894867000000005
21
-101.8983159999999941
0
LINE
8
F.Mask
6
CONTINUOUS
10
136.894867000000005
20
-101.8983159999999941
11
136.8543279999999811
21
-102.0496100000000013
0
LINE
8
F.Mask
6
CONTINUOUS
10
136.8543279999999811
20
-102.0496100000000013
11
136.7760119999999802
21
-102.1852569999999929
0
LINE
8
F.Mask
6
CONTINUOUS
10
136.7760119999999802
20
-102.1852569999999929
11
136.6652569999999969
21
-102.2960119999999904
0
LINE
8
F.Mask
6
CONTINUOUS
10
136.6652569999999969
20
-102.2960119999999904
11
136.529609999999991
21
-102.3743279999999913
0
LINE
8
F.Mask
6
CONTINUOUS
10
136.529609999999991
20
-102.3743279999999913
11
136.3783159999999839
21
-102.414867000000001
0
LINE
8
F.Mask
6
CONTINUOUS
10
136.3783159999999839
20
-102.414867000000001
11
136.2999999999999829
21
-102.4200000000000017
0
LINE
8
F.Mask
6
CONTINUOUS
10
136.2999999999999829
20
-102.4200000000000017
11
135.6999999999999886
21
-102.4200000000000017
0
LINE
8
F.Mask
6
CONTINUOUS
10
135.6999999999999886
20
-102.4200000000000017
11
135.6216839999999877
21
-102.414867000000001
0
LINE
8
F.Mask
6
CONTINUOUS
10
135.6216839999999877
20
-102.414867000000001
11
135.4703899999999805
21
-102.3743279999999913
0
LINE
8
F.Mask
6
CONTINUOUS
10
135.4703899999999805
20
-102.3743279999999913
11
135.3347430000000031
21
-102.2960119999999904
0
LINE
8
F.Mask
6
CONTINUOUS
10
135.3347430000000031
20
-102.2960119999999904
11
135.2239879999999914
21
-102.1852569999999929
0
LINE
8
F.Mask
6
CONTINUOUS
10
135.2239879999999914
20
-102.1852569999999929
11
135.1456719999999905
21
-102.0496100000000013
0
LINE
8
F.Mask
6
CONTINUOUS
10
135.1456719999999905
20
-102.0496100000000013
11
135.105132999999995
21
-101.8983159999999941
0
LINE
8
F.Mask
6
CONTINUOUS
10
135.105132999999995
20
-101.8983159999999941
11
135.105132999999995
21
-101.7416839999999922
0
LINE
8
F.Mask
6
CONTINUOUS
10
135.105132999999995
20
-101.7416839999999922
11
135.1456719999999905
21
-101.5903899999999993
0
LINE
8
F.Mask
6
CONTINUOUS
10
135.1456719999999905
20
-101.5903899999999993
11
135.2239879999999914
21
-101.4547429999999935
0
LINE
8
F.Mask
6
CONTINUOUS
10
135.2239879999999914
20
-101.4547429999999935
11
135.3347430000000031
21
-101.343987999999996
0
LINE
8
F.Mask
6
CONTINUOUS
10
135.3347430000000031
20
-101.343987999999996
11
135.4703899999999805
21
-101.265671999999995
0
LINE
8
F.Mask
6
CONTINUOUS
10
135.4703899999999805
20
-101.265671999999995
11
135.6216839999999877
21
-101.2251329999999996
0
LINE
8
F.Mask
6
CONTINUOUS
10
135.6216839999999877
20
-101.2251329999999996
11
135.6999999999999886
21
-101.2199999999999989
0
LINE
8
F.Mask
6
CONTINUOUS
10
135.6999999999999886
20
-101.2199999999999989
11
136.2999999999999829
21
-101.2199999999999989
0
LINE
8
F.Mask
6
CONTINUOUS
10
136.2999999999999829
20
-101.2199999999999989
11
136.3783159999999839
21
-101.2251329999999996
0
LINE
8
F.Mask
6
CONTINUOUS
10
147.7403639999999996
20
-101.083484999999996
11
147.8084920000000011
21
-101.1290079999999989
0
LINE
8
F.Mask
6
CONTINUOUS
10
147.8084920000000011
20
-101.1290079999999989
11
147.854015000000004
21
-101.1971360000000004
0
LINE
8
F.Mask
6
CONTINUOUS
10
147.854015000000004
20
-101.1971360000000004
11
147.8700000000000045
21
-101.2774999999999892
0
LINE
8
F.Mask
6
CONTINUOUS
10
147.8700000000000045
20
-101.2774999999999892
11
147.8700000000000045
21
-101.7224999999999966
0
LINE
8
F.Mask
6
CONTINUOUS
10
147.8700000000000045
20
-101.7224999999999966
11
147.854015000000004
21
-101.8028639999999996
0
LINE
8
F.Mask
6
CONTINUOUS
10
147.854015000000004
20
-101.8028639999999996
11
147.8084920000000011
21
-101.8709920000000011
0
LINE
8
F.Mask
6
CONTINUOUS
10
147.8084920000000011
20
-101.8709920000000011
11
147.7403639999999996
21
-101.9165149999999898
0
LINE
8
F.Mask
6
CONTINUOUS
10
147.7403639999999996
20
-101.9165149999999898
11
147.6599999999999966
21
-101.9324999999999903
0
LINE
8
F.Mask
6
CONTINUOUS
10
147.6599999999999966
20
-101.9324999999999903
11
147.3400000000000034
21
-101.9324999999999903
0
LINE
8
F.Mask
6
CONTINUOUS
10
147.3400000000000034
20
-101.9324999999999903
11
147.2596360000000004
21
-101.9165149999999898
0
LINE
8
F.Mask
6
CONTINUOUS
10
147.2596360000000004
20
-101.9165149999999898
11
147.1915079999999989
21
-101.8709920000000011
0
LINE
8
F.Mask
6
CONTINUOUS
10
147.1915079999999989
20
-101.8709920000000011
11
147.145984999999996
21
-101.8028639999999996
0
LINE
8
F.Mask
6
CONTINUOUS
10
147.145984999999996
20
-101.8028639999999996
11
147.1299999999999955
21
-101.7224999999999966
0
LINE
8
F.Mask
6
CONTINUOUS
10
147.1299999999999955
20
-101.7224999999999966
11
147.1299999999999955
21
-101.2774999999999892
0
LINE
8
F.Mask
6
CONTINUOUS
10
147.1299999999999955
20
-101.2774999999999892
11
147.145984999999996
21
-101.1971360000000004
0
LINE
8
F.Mask
6
CONTINUOUS
10
147.145984999999996
20
-101.1971360000000004
11
147.1915079999999989
21
-101.1290079999999989
0
LINE
8
F.Mask
6
CONTINUOUS
10
147.1915079999999989
20
-101.1290079999999989
11
147.2596360000000004
21
-101.083484999999996
0
LINE
8
F.Mask
6
CONTINUOUS
10
147.2596360000000004
20
-101.083484999999996
11
147.3400000000000034
21
-101.0674999999999955
0
LINE
8
F.Mask
6
CONTINUOUS
10
147.3400000000000034
20
-101.0674999999999955
11
147.6599999999999966
21
-101.0674999999999955
0
LINE
8
F.Mask
6
CONTINUOUS
10
147.6599999999999966
20
-101.0674999999999955
11
147.7403639999999996
21
-101.083484999999996
0
LINE
8
F.Mask
6
CONTINUOUS
10
147.7403639999999996
20
-99.938485
11
147.8084920000000011
21
-99.9840079999999887
0
LINE
8
F.Mask
6
CONTINUOUS
10
147.8084920000000011
20
-99.9840079999999887
11
147.854015000000004
21
-100.0521359999999902
0
LINE
8
F.Mask
6
CONTINUOUS
10
147.854015000000004
20
-100.0521359999999902
11
147.8700000000000045
21
-100.1324999999999932
0
LINE
8
F.Mask
6
CONTINUOUS
10
147.8700000000000045
20
-100.1324999999999932
11
147.8700000000000045
21
-100.5775000000000006
0
LINE
8
F.Mask
6
CONTINUOUS
10
147.8700000000000045
20
-100.5775000000000006
11
147.854015000000004
21
-100.6578639999999893
0
LINE
8
F.Mask
6
CONTINUOUS
10
147.854015000000004
20
-100.6578639999999893
11
147.8084920000000011
21
-100.7259919999999909
0
LINE
8
F.Mask
6
CONTINUOUS
10
147.8084920000000011
20
-100.7259919999999909
11
147.7403639999999996
21
-100.7715149999999937
0
LINE
8
F.Mask
6
CONTINUOUS
10
147.7403639999999996
20
-100.7715149999999937
11
147.6599999999999966
21
-100.7874999999999943
0
LINE
8
F.Mask
6
CONTINUOUS
10
147.6599999999999966
20
-100.7874999999999943
11
147.3400000000000034
21
-100.7874999999999943
0
LINE
8
F.Mask
6
CONTINUOUS
10
147.3400000000000034
20
-100.7874999999999943
11
147.2596360000000004
21
-100.7715149999999937
0
LINE
8
F.Mask
6
CONTINUOUS
10
147.2596360000000004
20
-100.7715149999999937
11
147.1915079999999989
21
-100.7259919999999909
0
LINE
8
F.Mask
6
CONTINUOUS
10
147.1915079999999989
20
-100.7259919999999909
11
147.145984999999996
21
-100.6578639999999893
0
LINE
8
F.Mask
6
CONTINUOUS
10
147.145984999999996
20
-100.6578639999999893
11
147.1299999999999955
21
-100.5775000000000006
0
LINE
8
F.Mask
6
CONTINUOUS
10
147.1299999999999955
20
-100.5775000000000006
11
147.1299999999999955
21
-100.1324999999999932
0
LINE
8
F.Mask
6
CONTINUOUS
10
147.1299999999999955
20
-100.1324999999999932
11
147.145984999999996
21
-100.0521359999999902
0
LINE
8
F.Mask
6
CONTINUOUS
10
147.145984999999996
20
-100.0521359999999902
11
147.1915079999999989
21
-99.9840079999999887
0
LINE
8
F.Mask
6
CONTINUOUS
10
147.1915079999999989
20
-99.9840079999999887
11
147.2596360000000004
21
-99.938485
0
LINE
8
F.Mask
6
CONTINUOUS
10
147.2596360000000004
20
-99.938485
11
147.3400000000000034
21
-99.9224999999999994
0
LINE
8
F.Mask
6
CONTINUOUS
10
147.3400000000000034
20
-99.9224999999999994
11
147.6599999999999966
21
-99.9224999999999994
0
LINE
8
F.Mask
6
CONTINUOUS
10
147.6599999999999966
20
-99.9224999999999994
11
147.7403639999999996
21
-99.938485
0
LINE
8
F.Mask
6
CONTINUOUS
10
136.5756709999999998
20
-99.8190299999999979
11
136.6567770000000053
21
-99.8732229999999959
0
LINE
8
F.Mask
6
CONTINUOUS
10
136.6567770000000053
20
-99.8732229999999959
11
136.7109700000000032
21
-99.9543290000000013
0
LINE
8
F.Mask
6
CONTINUOUS
10
136.7109700000000032
20
-99.9543290000000013
11
136.7299999999999898
21
-100.0499999999999972
0
LINE
8
F.Mask
6
CONTINUOUS
10
136.7299999999999898
20
-100.0499999999999972
11
136.7299999999999898
21
-100.4499999999999886
0
LINE
8
F.Mask
6
CONTINUOUS
10
136.7299999999999898
20
-100.4499999999999886
11
136.7109700000000032
21
-100.5456709999999987
0
LINE
8
F.Mask
6
CONTINUOUS
10
136.7109700000000032
20
-100.5456709999999987
11
136.6567770000000053
21
-100.6267769999999899
0
LINE
8
F.Mask
6
CONTINUOUS
10
136.6567770000000053
20
-100.6267769999999899
11
136.5756709999999998
21
-100.6809700000000021
0
LINE
8
F.Mask
6
CONTINUOUS
10
136.5756709999999998
20
-100.6809700000000021
11
136.4799999999999898
21
-100.6999999999999886
0
LINE
8
F.Mask
6
CONTINUOUS
10
136.4799999999999898
20
-100.6999999999999886
11
135.6800000000000068
21
-100.6999999999999886
0
LINE
8
F.Mask
6
CONTINUOUS
10
135.6800000000000068
20
-100.6999999999999886
11
135.5843289999999968
21
-100.6809700000000021
0
LINE
8
F.Mask
6
CONTINUOUS
10
135.5843289999999968
20
-100.6809700000000021
11
135.5032229999999913
21
-100.6267769999999899
0
LINE
8
F.Mask
6
CONTINUOUS
10
135.5032229999999913
20
-100.6267769999999899
11
135.4490299999999934
21
-100.5456709999999987
0
LINE
8
F.Mask
6
CONTINUOUS
10
135.4490299999999934
20
-100.5456709999999987
11
135.4300000000000068
21
-100.4499999999999886
0
LINE
8
F.Mask
6
CONTINUOUS
10
135.4300000000000068
20
-100.4499999999999886
11
135.4300000000000068
21
-100.0499999999999972
0
LINE
8
F.Mask
6
CONTINUOUS
10
135.4300000000000068
20
-100.0499999999999972
11
135.4490299999999934
21
-99.9543290000000013
0
LINE
8
F.Mask
6
CONTINUOUS
10
135.4490299999999934
20
-99.9543290000000013
11
135.5032229999999913
21
-99.8732229999999959
0
LINE
8
F.Mask
6
CONTINUOUS
10
135.5032229999999913
20
-99.8732229999999959
11
135.5843289999999968
21
-99.8190299999999979
0
LINE
8
F.Mask
6
CONTINUOUS
10
135.5843289999999968
20
-99.8190299999999979
11
135.6800000000000068
21
-99.7999999999999972
0
LINE
8
F.Mask
6
CONTINUOUS
10
135.6800000000000068
20
-99.7999999999999972
11
136.4799999999999898
21
-99.7999999999999972
0
LINE
8
F.Mask
6
CONTINUOUS
10
136.4799999999999898
20
-99.7999999999999972
11
136.5756709999999998
21
-99.8190299999999979
0
LINE
8
F.Mask
6
CONTINUOUS
10
155.7212559999999826
20
-98.1787539999999979
11
155.884256999999991
21
-98.246270999999993
0
LINE
8
F.Mask
6
CONTINUOUS
10
155.884256999999991
20
-98.246270999999993
11
156.0309539999999799
21
-98.3442909999999983
0
LINE
8
F.Mask
6
CONTINUOUS
10
156.0309539999999799
20
-98.3442909999999983
11
156.1557090000000017
21
-98.4690459999999916
0
LINE
8
F.Mask
6
CONTINUOUS
10
156.1557090000000017
20
-98.4690459999999916
11
156.2537289999999928
21
-98.6157429999999948
0
LINE
8
F.Mask
6
CONTINUOUS
10
156.2537289999999928
20
-98.6157429999999948
11
156.3212460000000021
21
-98.778743999999989
0
LINE
8
F.Mask
6
CONTINUOUS
10
156.3212460000000021
20
-98.778743999999989
11
156.3556659999999852
21
-98.951785000000001
0
LINE
8
F.Mask
6
CONTINUOUS
10
156.3556659999999852
20
-98.951785000000001
11
156.3556659999999852
21
-99.1282149999999973
0
LINE
8
F.Mask
6
CONTINUOUS
10
156.3556659999999852
20
-99.1282149999999973
11
156.3212460000000021
21
-99.3012559999999951
0
LINE
8
F.Mask
6
CONTINUOUS
10
156.3212460000000021
20
-99.3012559999999951
11
156.2537289999999928
21
-99.4642569999999893
0
LINE
8
F.Mask
6
CONTINUOUS
10
156.2537289999999928
20
-99.4642569999999893
11
156.1557090000000017
21
-99.6109539999999924
0
LINE
8
F.Mask
6
CONTINUOUS
10
156.1557090000000017
20
-99.6109539999999924
11
156.0309539999999799
21
-99.7357089999999999
0
LINE
8
F.Mask
6
CONTINUOUS
10
156.0309539999999799
20
-99.7357089999999999
11
155.884256999999991
21
-99.8337289999999911
0
LINE
8
F.Mask
6
CONTINUOUS
10
155.884256999999991
20
-99.8337289999999911
11
155.7212559999999826
21
-99.9012460000000004
0
LINE
8
F.Mask
6
CONTINUOUS
10
155.7212559999999826
20
-99.9012460000000004
11
155.548214999999999
21
-99.9356659999999977
0
LINE
8
F.Mask
6
CONTINUOUS
10
155.548214999999999
20
-99.9356659999999977
11
155.3717849999999885
21
-99.9356659999999977
0
LINE
8
F.Mask
6
CONTINUOUS
10
155.3717849999999885
20
-99.9356659999999977
11
155.1987440000000049
21
-99.9012460000000004
0
LINE
8
F.Mask
6
CONTINUOUS
10
155.1987440000000049
20
-99.9012460000000004
11
155.0357429999999965
21
-99.8337289999999911
0
LINE
8
F.Mask
6
CONTINUOUS
10
155.0357429999999965
20
-99.8337289999999911
11
154.8890459999999791
21
-99.7357089999999999
0
LINE
8
F.Mask
6
CONTINUOUS
10
154.8890459999999791
20
-99.7357089999999999
11
154.7642909999999858
21
-99.6109539999999924
0
LINE
8
F.Mask
6
CONTINUOUS
10
154.7642909999999858
20
-99.6109539999999924
11
154.6662709999999947
21
-99.4642569999999893
0
LINE
8
F.Mask
6
CONTINUOUS
10
154.6662709999999947
20
-99.4642569999999893
11
154.5987539999999854
21
-99.3012559999999951
0
LINE
8
F.Mask
6
CONTINUOUS
10
154.5987539999999854
20
-99.3012559999999951
11
154.5643340000000023
21
-99.1282149999999973
0
LINE
8
F.Mask
6
CONTINUOUS
10
154.5643340000000023
20
-99.1282149999999973
11
154.5643340000000023
21
-98.951785000000001
0
LINE
8
F.Mask
6
CONTINUOUS
10
154.5643340000000023
20
-98.951785000000001
11
154.5987539999999854
21
-98.778743999999989
0
LINE
8
F.Mask
6
CONTINUOUS
10
154.5987539999999854
20
-98.778743999999989
11
154.6662709999999947
21
-98.6157429999999948
0
LINE
8
F.Mask
6
CONTINUOUS
10
154.6662709999999947
20
-98.6157429999999948
11
154.7642909999999858
21
-98.4690459999999916
0
LINE
8
F.Mask
6
CONTINUOUS
10
154.7642909999999858
20
-98.4690459999999916
11
154.8890459999999791
21
-98.3442909999999983
0
LINE
8
F.Mask
6
CONTINUOUS
10
154.8890459999999791
20
-98.3442909999999983
11
155.0357429999999965
21
-98.246270999999993
0
LINE
8
F.Mask
6
CONTINUOUS
10
155.0357429999999965
20
-98.246270999999993
11
155.1987440000000049
21
-98.1787539999999979
0
LINE
8
F.Mask
6
CONTINUOUS
10
155.1987440000000049
20
-98.1787539999999979
11
155.3717849999999885
21
-98.1443340000000006
0
LINE
8
F.Mask
6
CONTINUOUS
10
155.3717849999999885
20
-98.1443340000000006
11
155.548214999999999
21
-98.1443340000000006
0
LINE
8
F.Mask
6
CONTINUOUS
10
155.548214999999999
20
-98.1443340000000006
11
155.7212559999999826
21
-98.1787539999999979
0
LINE
8
F.Mask
6
CONTINUOUS
10
158.261256000000003
20
-98.1787539999999979
11
158.424256999999983
21
-98.246270999999993
0
LINE
8
F.Mask
6
CONTINUOUS
10
158.424256999999983
20
-98.246270999999993
11
158.5709540000000004
21
-98.3442909999999983
0
LINE
8
F.Mask
6
CONTINUOUS
10
158.5709540000000004
20
-98.3442909999999983
11
158.6957089999999937
21
-98.4690459999999916
0
LINE
8
F.Mask
6
CONTINUOUS
10
158.6957089999999937
20
-98.4690459999999916
11
158.7937289999999848
21
-98.6157429999999948
0
LINE
8
F.Mask
6
CONTINUOUS
10
158.7937289999999848
20
-98.6157429999999948
11
158.8612459999999942
21
-98.778743999999989
0
LINE
8
F.Mask
6
CONTINUOUS
10
158.8612459999999942
20
-98.778743999999989
11
158.8956660000000056
21
-98.951785000000001
0
LINE
8
F.Mask
6
CONTINUOUS
10
158.8956660000000056
20
-98.951785000000001
11
158.8956660000000056
21
-99.1282149999999973
0
LINE
8
F.Mask
6
CONTINUOUS
10
158.8956660000000056
20
-99.1282149999999973
11
158.8612459999999942
21
-99.3012559999999951
0
LINE
8
F.Mask
6
CONTINUOUS
10
158.8612459999999942
20
-99.3012559999999951
11
158.7937289999999848
21
-99.4642569999999893
0
LINE
8
F.Mask
6
CONTINUOUS
10
158.7937289999999848
20
-99.4642569999999893
11
158.6957089999999937
21
-99.6109539999999924
0
LINE
8
F.Mask
6
CONTINUOUS
10
158.6957089999999937
20
-99.6109539999999924
11
158.5709540000000004
21
-99.7357089999999999
0
LINE
8
F.Mask
6
CONTINUOUS
10
158.5709540000000004
20
-99.7357089999999999
11
158.424256999999983
21
-99.8337289999999911
0
LINE
8
F.Mask
6
CONTINUOUS
10
158.424256999999983
20
-99.8337289999999911
11
158.261256000000003
21
-99.9012460000000004
0
LINE
8
F.Mask
6
CONTINUOUS
10
158.261256000000003
20
-99.9012460000000004
11
158.0882149999999911
21
-99.9356659999999977
0
LINE
8
F.Mask
6
CONTINUOUS
10
158.0882149999999911
20
-99.9356659999999977
11
157.9117849999999805
21
-99.9356659999999977
0
LINE
8
F.Mask
6
CONTINUOUS
10
157.9117849999999805
20
-99.9356659999999977
11
157.738743999999997
21
-99.9012460000000004
0
LINE
8
F.Mask
6
CONTINUOUS
10
157.738743999999997
20
-99.9012460000000004
11
157.5757429999999886
21
-99.8337289999999911
0
LINE
8
F.Mask
6
CONTINUOUS
10
157.5757429999999886
20
-99.8337289999999911
11
157.4290459999999996
21
-99.7357089999999999
0
LINE
8
F.Mask
6
CONTINUOUS
10
157.4290459999999996
20
-99.7357089999999999
11
157.3042910000000063
21
-99.6109539999999924
0
LINE
8
F.Mask
6
CONTINUOUS
10
157.3042910000000063
20
-99.6109539999999924
11
157.2062709999999868
21
-99.4642569999999893
0
LINE
8
F.Mask
6
CONTINUOUS
10
157.2062709999999868
20
-99.4642569999999893
11
157.1387540000000058
21
-99.3012559999999951
0
LINE
8
F.Mask
6
CONTINUOUS
10
157.1387540000000058
20
-99.3012559999999951
11
157.1043339999999944
21
-99.1282149999999973
0
LINE
8
F.Mask
6
CONTINUOUS
10
157.1043339999999944
20
-99.1282149999999973
11
157.1043339999999944
21
-98.951785000000001
0
LINE
8
F.Mask
6
CONTINUOUS
10
157.1043339999999944
20
-98.951785000000001
11
157.1387540000000058
21
-98.778743999999989
0
LINE
8
F.Mask
6
CONTINUOUS
10
157.1387540000000058
20
-98.778743999999989
11
157.2062709999999868
21
-98.6157429999999948
0
LINE
8
F.Mask
6
CONTINUOUS
10
157.2062709999999868
20
-98.6157429999999948
11
157.3042910000000063
21
-98.4690459999999916
0
LINE
8
F.Mask
6
CONTINUOUS
10
157.3042910000000063
20
-98.4690459999999916
11
157.4290459999999996
21
-98.3442909999999983
0
LINE
8
F.Mask
6
CONTINUOUS
10
157.4290459999999996
20
-98.3442909999999983
11
157.5757429999999886
21
-98.246270999999993
0
LINE
8
F.Mask
6
CONTINUOUS
10
157.5757429999999886
20
-98.246270999999993
11
157.738743999999997
21
-98.1787539999999979
0
LINE
8
F.Mask
6
CONTINUOUS
10
157.738743999999997
20
-98.1787539999999979
11
157.9117849999999805
21
-98.1443340000000006
0
LINE
8
F.Mask
6
CONTINUOUS
10
157.9117849999999805
20
-98.1443340000000006
11
158.0882149999999911
21
-98.1443340000000006
0
LINE
8
F.Mask
6
CONTINUOUS
10
158.0882149999999911
20
-98.1443340000000006
11
158.261256000000003
21
-98.1787539999999979
0
LINE
8
F.Mask
6
CONTINUOUS
10
141.5186850000000049
20
-98.3579689999999971
11
141.6195409999999981
21
-98.4025010000000009
0
LINE
8
F.Mask
6
CONTINUOUS
10
141.6195409999999981
20
-98.4025010000000009
11
141.6974989999999934
21
-98.4804589999999962
0
LINE
8
F.Mask
6
CONTINUOUS
10
141.6974989999999934
20
-98.4804589999999962
11
141.7420309999999972
21
-98.5813149999999894
0
LINE
8
F.Mask
6
CONTINUOUS
10
141.7420309999999972
20
-98.5813149999999894
11
141.75
21
-98.6499999999999915
0
LINE
8
F.Mask
6
CONTINUOUS
10
141.75
20
-98.6499999999999915
11
141.75
21
-99.3499999999999943
0
LINE
8
F.Mask
6
CONTINUOUS
10
141.75
20
-99.3499999999999943
11
141.7420309999999972
21
-99.4186849999999964
0
LINE
8
F.Mask
6
CONTINUOUS
10
141.7420309999999972
20
-99.4186849999999964
11
141.6974989999999934
21
-99.5195409999999896
0
LINE
8
F.Mask
6
CONTINUOUS
10
141.6974989999999934
20
-99.5195409999999896
11
141.6195409999999981
21
-99.5974989999999991
0
LINE
8
F.Mask
6
CONTINUOUS
10
141.6195409999999981
20
-99.5974989999999991
11
141.5186850000000049
21
-99.6420309999999887
0
LINE
8
F.Mask
6
CONTINUOUS
10
141.5186850000000049
20
-99.6420309999999887
11
141.4499999999999886
21
-99.6499999999999915
0
LINE
8
F.Mask
6
CONTINUOUS
10
141.4499999999999886
20
-99.6499999999999915
11
140.5499999999999829
21
-99.6499999999999915
0
LINE
8
F.Mask
6
CONTINUOUS
10
140.5499999999999829
20
-99.6499999999999915
11
140.4813149999999951
21
-99.6420309999999887
0
LINE
8
F.Mask
6
CONTINUOUS
10
140.4813149999999951
20
-99.6420309999999887
11
140.3804590000000019
21
-99.5974989999999991
0
LINE
8
F.Mask
6
CONTINUOUS
10
140.3804590000000019
20
-99.5974989999999991
11
140.3025010000000066
21
-99.5195409999999896
0
LINE
8
F.Mask
6
CONTINUOUS
10
140.3025010000000066
20
-99.5195409999999896
11
140.2579690000000028
21
-99.4186849999999964
0
LINE
8
F.Mask
6
CONTINUOUS
10
140.2579690000000028
20
-99.4186849999999964
11
140.25
21
-99.3499999999999943
0
LINE
8
F.Mask
6
CONTINUOUS
10
140.25
20
-99.3499999999999943
11
140.25
21
-98.6499999999999915
0
LINE
8
F.Mask
6
CONTINUOUS
10
140.25
20
-98.6499999999999915
11
140.2579690000000028
21
-98.5813149999999894
0
LINE
8
F.Mask
6
CONTINUOUS
10
140.2579690000000028
20
-98.5813149999999894
11
140.3025010000000066
21
-98.4804589999999962
0
LINE
8
F.Mask
6
CONTINUOUS
10
140.3025010000000066
20
-98.4804589999999962
11
140.3804590000000019
21
-98.4025010000000009
0
LINE
8
F.Mask
6
CONTINUOUS
10
140.3804590000000019
20
-98.4025010000000009
11
140.4813149999999951
21
-98.3579689999999971
0
LINE
8
F.Mask
6
CONTINUOUS
10
140.4813149999999951
20
-98.3579689999999971
11
140.5499999999999829
21
-98.3499999999999943
0
LINE
8
F.Mask
6
CONTINUOUS
10
140.5499999999999829
20
-98.3499999999999943
11
141.4499999999999886
21
-98.3499999999999943
0
LINE
8
F.Mask
6
CONTINUOUS
10
141.4499999999999886
20
-98.3499999999999943
11
141.5186850000000049
21
-98.3579689999999971
0
LINE
8
F.Mask
6
CONTINUOUS
10
146.0186850000000049
20
-98.3579689999999971
11
146.1195409999999981
21
-98.4025010000000009
0
LINE
8
F.Mask
6
CONTINUOUS
10
146.1195409999999981
20
-98.4025010000000009
11
146.1974989999999934
21
-98.4804589999999962
0
LINE
8
F.Mask
6
CONTINUOUS
10
146.1974989999999934
20
-98.4804589999999962
11
146.2420309999999972
21
-98.5813149999999894
0
LINE
8
F.Mask
6
CONTINUOUS
10
146.2420309999999972
20
-98.5813149999999894
11
146.25
21
-98.6499999999999915
0
LINE
8
F.Mask
6
CONTINUOUS
10
146.25
20
-98.6499999999999915
11
146.25
21
-99.3499999999999943
0
LINE
8
F.Mask
6
CONTINUOUS
10
146.25
20
-99.3499999999999943
11
146.2420309999999972
21
-99.4186849999999964
0
LINE
8
F.Mask
6
CONTINUOUS
10
146.2420309999999972
20
-99.4186849999999964
11
146.1974989999999934
21
-99.5195409999999896
0
LINE
8
F.Mask
6
CONTINUOUS
10
146.1974989999999934
20
-99.5195409999999896
11
146.1195409999999981
21
-99.5974989999999991
0
LINE
8
F.Mask
6
CONTINUOUS
10
146.1195409999999981
20
-99.5974989999999991
11
146.0186850000000049
21
-99.6420309999999887
0
LINE
8
F.Mask
6
CONTINUOUS
10
146.0186850000000049
20
-99.6420309999999887
11
145.9499999999999886
21
-99.6499999999999915
0
LINE
8
F.Mask
6
CONTINUOUS
10
145.9499999999999886
20
-99.6499999999999915
11
145.0499999999999829
21
-99.6499999999999915
0
LINE
8
F.Mask
6
CONTINUOUS
10
145.0499999999999829
20
-99.6499999999999915
11
144.9813149999999951
21
-99.6420309999999887
0
LINE
8
F.Mask
6
CONTINUOUS
10
144.9813149999999951
20
-99.6420309999999887
11
144.8804590000000019
21
-99.5974989999999991
0
LINE
8
F.Mask
6
CONTINUOUS
10
144.8804590000000019
20
-99.5974989999999991
11
144.8025010000000066
21
-99.5195409999999896
0
LINE
8
F.Mask
6
CONTINUOUS
10
144.8025010000000066
20
-99.5195409999999896
11
144.7579690000000028
21
-99.4186849999999964
0
LINE
8
F.Mask
6
CONTINUOUS
10
144.7579690000000028
20
-99.4186849999999964
11
144.75
21
-99.3499999999999943
0
LINE
8
F.Mask
6
CONTINUOUS
10
144.75
20
-99.3499999999999943
11
144.75
21
-98.6499999999999915
0
LINE
8
F.Mask
6
CONTINUOUS
10
144.75
20
-98.6499999999999915
11
144.7579690000000028
21
-98.5813149999999894
0
LINE
8
F.Mask
6
CONTINUOUS
10
144.7579690000000028
20
-98.5813149999999894
11
144.8025010000000066
21
-98.4804589999999962
0
LINE
8
F.Mask
6
CONTINUOUS
10
144.8025010000000066
20
-98.4804589999999962
11
144.8804590000000019
21
-98.4025010000000009
0
LINE
8
F.Mask
6
CONTINUOUS
10
144.8804590000000019
20
-98.4025010000000009
11
144.9813149999999951
21
-98.3579689999999971
0
LINE
8
F.Mask
6
CONTINUOUS
10
144.9813149999999951
20
-98.3579689999999971
11
145.0499999999999829
21
-98.3499999999999943
0
LINE
8
F.Mask
6
CONTINUOUS
10
145.0499999999999829
20
-98.3499999999999943
11
145.9499999999999886
21
-98.3499999999999943
0
LINE
8
F.Mask
6
CONTINUOUS
10
145.9499999999999886
20
-98.3499999999999943
11
146.0186850000000049
21
-98.3579689999999971
0
LINE
8
F.Mask
6
CONTINUOUS
10
136.5818439999999896
20
-98.6082689999999928
11
136.6597059999999999
21
-98.6602939999999933
0
LINE
8
F.Mask
6
CONTINUOUS
10
136.6597059999999999
20
-98.6602939999999933
11
136.7117309999999861
21
-98.7381559999999894
0
LINE
8
F.Mask
6
CONTINUOUS
10
136.7117309999999861
20
-98.7381559999999894
11
136.7299999999999898
21
-98.8299999999999983
0
LINE
8
F.Mask
6
CONTINUOUS
10
136.7299999999999898
20
-98.8299999999999983
11
136.7299999999999898
21
-99.2099999999999937
0
LINE
8
F.Mask
6
CONTINUOUS
10
136.7299999999999898
20
-99.2099999999999937
11
136.7117309999999861
21
-99.3018439999999885
0
LINE
8
F.Mask
6
CONTINUOUS
10
136.7117309999999861
20
-99.3018439999999885
11
136.6597059999999999
21
-99.3797059999999988
0
LINE
8
F.Mask
6
CONTINUOUS
10
136.6597059999999999
20
-99.3797059999999988
11
136.5818439999999896
21
-99.4317309999999992
0
LINE
8
F.Mask
6
CONTINUOUS
10
136.5818439999999896
20
-99.4317309999999992
11
136.4899999999999807
21
-99.4499999999999886
0
LINE
8
F.Mask
6
CONTINUOUS
10
136.4899999999999807
20
-99.4499999999999886
11
135.6699999999999875
21
-99.4499999999999886
0
LINE
8
F.Mask
6
CONTINUOUS
10
135.6699999999999875
20
-99.4499999999999886
11
135.578156000000007
21
-99.4317309999999992
0
LINE
8
F.Mask
6
CONTINUOUS
10
135.578156000000007
20
-99.4317309999999992
11
135.5002939999999967
21
-99.3797059999999988
0
LINE
8
F.Mask
6
CONTINUOUS
10
135.5002939999999967
20
-99.3797059999999988
11
135.448268999999982
21
-99.3018439999999885
0
LINE
8
F.Mask
6
CONTINUOUS
10
135.448268999999982
20
-99.3018439999999885
11
135.4300000000000068
21
-99.2099999999999937
0
LINE
8
F.Mask
6
CONTINUOUS
10
135.4300000000000068
20
-99.2099999999999937
11
135.4300000000000068
21
-98.8299999999999983
0
LINE
8
F.Mask
6
CONTINUOUS
10
135.4300000000000068
20
-98.8299999999999983
11
135.448268999999982
21
-98.7381559999999894
0
LINE
8
F.Mask
6
CONTINUOUS
10
135.448268999999982
20
-98.7381559999999894
11
135.5002939999999967
21
-98.6602939999999933
0
LINE
8
F.Mask
6
CONTINUOUS
10
135.5002939999999967
20
-98.6602939999999933
11
135.578156000000007
21
-98.6082689999999928
0
LINE
8
F.Mask
6
CONTINUOUS
10
135.578156000000007
20
-98.6082689999999928
11
135.6699999999999875
21
-98.5899999999999892
0
LINE
8
F.Mask
6
CONTINUOUS
10
135.6699999999999875
20
-98.5899999999999892
11
136.4899999999999807
21
-98.5899999999999892
0
LINE
8
F.Mask
6
CONTINUOUS
10
136.4899999999999807
20
-98.5899999999999892
11
136.5818439999999896
21
-98.6082689999999928
0
LINE
8
F.Mask
6
CONTINUOUS
10
152.2322279999999921
20
-97.7344480000000004
11
152.3771169999999984
21
-97.7944629999999933
0
LINE
8
F.Mask
6
CONTINUOUS
10
152.3771169999999984
20
-97.7944629999999933
11
152.5075149999999837
21
-97.8815919999999977
0
LINE
8
F.Mask
6
CONTINUOUS
10
152.5075149999999837
20
-97.8815919999999977
11
152.6184079999999881
21
-97.9924850000000021
0
LINE
8
F.Mask
6
CONTINUOUS
10
152.6184079999999881
20
-97.9924850000000021
11
152.7055369999999925
21
-98.1228830000000016
0
LINE
8
F.Mask
6
CONTINUOUS
10
152.7055369999999925
20
-98.1228830000000016
11
152.7655519999999854
21
-98.2677719999999937
0
LINE
8
F.Mask
6
CONTINUOUS
10
152.7655519999999854
20
-98.2677719999999937
11
152.7961479999999881
21
-98.4215859999999907
0
LINE
8
F.Mask
6
CONTINUOUS
10
152.7961479999999881
20
-98.4215859999999907
11
152.7961479999999881
21
-98.5784139999999951
0
LINE
8
F.Mask
6
CONTINUOUS
10
152.7961479999999881
20
-98.5784139999999951
11
152.7655519999999854
21
-98.7322279999999921
0
LINE
8
F.Mask
6
CONTINUOUS
10
152.7655519999999854
20
-98.7322279999999921
11
152.7055369999999925
21
-98.8771169999999984
0
LINE
8
F.Mask
6
CONTINUOUS
10
152.7055369999999925
20
-98.8771169999999984
11
152.6184079999999881
21
-99.0075149999999979
0
LINE
8
F.Mask
6
CONTINUOUS
10
152.6184079999999881
20
-99.0075149999999979
11
152.5075149999999837
21
-99.1184080000000023
0
LINE
8
F.Mask
6
CONTINUOUS
10
152.5075149999999837
20
-99.1184080000000023
11
152.3771169999999984
21
-99.2055369999999925
0
LINE
8
F.Mask
6
CONTINUOUS
10
152.3771169999999984
20
-99.2055369999999925
11
152.2322279999999921
21
-99.2655519999999996
0
LINE
8
F.Mask
6
CONTINUOUS
10
152.2322279999999921
20
-99.2655519999999996
11
152.0784139999999809
21
-99.2961480000000023
0
LINE
8
F.Mask
6
CONTINUOUS
10
152.0784139999999809
20
-99.2961480000000023
11
151.9215859999999907
21
-99.2961480000000023
0
LINE
8
F.Mask
6
CONTINUOUS
10
151.9215859999999907
20
-99.2961480000000023
11
151.7677719999999795
21
-99.2655519999999996
0
LINE
8
F.Mask
6
CONTINUOUS
10
151.7677719999999795
20
-99.2655519999999996
11
151.6228830000000016
21
-99.2055369999999925
0
LINE
8
F.Mask
6
CONTINUOUS
10
151.6228830000000016
20
-99.2055369999999925
11
151.4924849999999878
21
-99.1184080000000023
0
LINE
8
F.Mask
6
CONTINUOUS
10
151.4924849999999878
20
-99.1184080000000023
11
151.3815919999999835
21
-99.0075149999999979
0
LINE
8
F.Mask
6
CONTINUOUS
10
151.3815919999999835
20
-99.0075149999999979
11
151.294462999999979
21
-98.8771169999999984
0
LINE
8
F.Mask
6
CONTINUOUS
10
151.294462999999979
20
-98.8771169999999984
11
151.2344479999999862
21
-98.7322279999999921
0
LINE
8
F.Mask
6
CONTINUOUS
10
151.2344479999999862
20
-98.7322279999999921
11
151.2038519999999835
21
-98.5784139999999951
0
LINE
8
F.Mask
6
CONTINUOUS
10
151.2038519999999835
20
-98.5784139999999951
11
151.2038519999999835
21
-98.4215859999999907
0
LINE
8
F.Mask
6
CONTINUOUS
10
151.2038519999999835
20
-98.4215859999999907
11
151.2344479999999862
21
-98.2677719999999937
0
LINE
8
F.Mask
6
CONTINUOUS
10
151.2344479999999862
20
-98.2677719999999937
11
151.294462999999979
21
-98.1228830000000016
0
LINE
8
F.Mask
6
CONTINUOUS
10
151.294462999999979
20
-98.1228830000000016
11
151.3815919999999835
21
-97.9924850000000021
0
LINE
8
F.Mask
6
CONTINUOUS
10
151.3815919999999835
20
-97.9924850000000021
11
151.4924849999999878
21
-97.8815919999999977
0
LINE
8
F.Mask
6
CONTINUOUS
10
151.4924849999999878
20
-97.8815919999999977
11
151.6228830000000016
21
-97.7944629999999933
0
LINE
8
F.Mask
6
CONTINUOUS
10
151.6228830000000016
20
-97.7944629999999933
11
151.7677719999999795
21
-97.7344480000000004
0
LINE
8
F.Mask
6
CONTINUOUS
10
151.7677719999999795
20
-97.7344480000000004
11
151.9215859999999907
21
-97.7038519999999977
0
LINE
8
F.Mask
6
CONTINUOUS
10
151.9215859999999907
20
-97.7038519999999977
11
152.0784139999999809
21
-97.7038519999999977
0
LINE
8
F.Mask
6
CONTINUOUS
10
152.0784139999999809
20
-97.7038519999999977
11
152.2322279999999921
21
-97.7344480000000004
0
LINE
8
F.Mask
6
CONTINUOUS
10
149.0186850000000049
20
-97.3579689999999971
11
149.1195409999999981
21
-97.4025010000000009
0
LINE
8
F.Mask
6
CONTINUOUS
10
149.1195409999999981
20
-97.4025010000000009
11
149.1974989999999934
21
-97.4804589999999962
0
LINE
8
F.Mask
6
CONTINUOUS
10
149.1974989999999934
20
-97.4804589999999962
11
149.2420309999999972
21
-97.5813149999999894
0
LINE
8
F.Mask
6
CONTINUOUS
10
149.2420309999999972
20
-97.5813149999999894
11
149.25
21
-97.6499999999999915
0
LINE
8
F.Mask
6
CONTINUOUS
10
149.25
20
-97.6499999999999915
11
149.25
21
-98.3499999999999943
0
LINE
8
F.Mask
6
CONTINUOUS
10
149.25
20
-98.3499999999999943
11
149.2420309999999972
21
-98.4186849999999964
0
LINE
8
F.Mask
6
CONTINUOUS
10
149.2420309999999972
20
-98.4186849999999964
11
149.1974989999999934
21
-98.5195409999999896
0
LINE
8
F.Mask
6
CONTINUOUS
10
149.1974989999999934
20
-98.5195409999999896
11
149.1195409999999981
21
-98.5974989999999991
0
LINE
8
F.Mask
6
CONTINUOUS
10
149.1195409999999981
20
-98.5974989999999991
11
149.0186850000000049
21
-98.6420309999999887
0
LINE
8
F.Mask
6
CONTINUOUS
10
149.0186850000000049
20
-98.6420309999999887
11
148.9499999999999886
21
-98.6499999999999915
0
LINE
8
F.Mask
6
CONTINUOUS
10
148.9499999999999886
20
-98.6499999999999915
11
148.0499999999999829
21
-98.6499999999999915
0
LINE
8
F.Mask
6
CONTINUOUS
10
148.0499999999999829
20
-98.6499999999999915
11
147.9813149999999951
21
-98.6420309999999887
0
LINE
8
F.Mask
6
CONTINUOUS
10
147.9813149999999951
20
-98.6420309999999887
11
147.8804590000000019
21
-98.5974989999999991
0
LINE
8
F.Mask
6
CONTINUOUS
10
147.8804590000000019
20
-98.5974989999999991
11
147.8025010000000066
21
-98.5195409999999896
0
LINE
8
F.Mask
6
CONTINUOUS
10
147.8025010000000066
20
-98.5195409999999896
11
147.7579690000000028
21
-98.4186849999999964
0
LINE
8
F.Mask
6
CONTINUOUS
10
147.7579690000000028
20
-98.4186849999999964
11
147.75
21
-98.3499999999999943
0
LINE
8
F.Mask
6
CONTINUOUS
10
147.75
20
-98.3499999999999943
11
147.75
21
-97.6499999999999915
0
LINE
8
F.Mask
6
CONTINUOUS
10
147.75
20
-97.6499999999999915
11
147.7579690000000028
21
-97.5813149999999894
0
LINE
8
F.Mask
6
CONTINUOUS
10
147.7579690000000028
20
-97.5813149999999894
11
147.8025010000000066
21
-97.4804589999999962
0
LINE
8
F.Mask
6
CONTINUOUS
10
147.8025010000000066
20
-97.4804589999999962
11
147.8804590000000019
21
-97.4025010000000009
0
LINE
8
F.Mask
6
CONTINUOUS
10
147.8804590000000019
20
-97.4025010000000009
11
147.9813149999999951
21
-97.3579689999999971
0
LINE
8
F.Mask
6
CONTINUOUS
10
147.9813149999999951
20
-97.3579689999999971
11
148.0499999999999829
21
-97.3499999999999943
0
LINE
8
F.Mask
6
CONTINUOUS
10
148.0499999999999829
20
-97.3499999999999943
11
148.9499999999999886
21
-97.3499999999999943
0
LINE
8
F.Mask
6
CONTINUOUS
10
148.9499999999999886
20
-97.3499999999999943
11
149.0186850000000049
21
-97.3579689999999971
0
LINE
8
F.Mask
6
CONTINUOUS
10
136.5911040000000014
20
-97.6171269999999964
11
136.6640989999999931
21
-97.665900999999991
0
LINE
8
F.Mask
6
CONTINUOUS
10
136.6640989999999931
20
-97.665900999999991
11
136.7128730000000019
21
-97.7388959999999969
0
LINE
8
F.Mask
6
CONTINUOUS
10
136.7128730000000019
20
-97.7388959999999969
11
136.7299999999999898
21
-97.8249999999999886
0
LINE
8
F.Mask
6
CONTINUOUS
10
136.7299999999999898
20
-97.8249999999999886
11
136.7299999999999898
21
-98.1749999999999972
0
LINE
8
F.Mask
6
CONTINUOUS
10
136.7299999999999898
20
-98.1749999999999972
11
136.7128730000000019
21
-98.2611039999999889
0
LINE
8
F.Mask
6
CONTINUOUS
10
136.7128730000000019
20
-98.2611039999999889
11
136.6640989999999931
21
-98.3340989999999948
0
LINE
8
F.Mask
6
CONTINUOUS
10
136.6640989999999931
20
-98.3340989999999948
11
136.5911040000000014
21
-98.3828729999999894
0
LINE
8
F.Mask
6
CONTINUOUS
10
136.5911040000000014
20
-98.3828729999999894
11
136.5049999999999955
21
-98.3999999999999915
0
LINE
8
F.Mask
6
CONTINUOUS
10
136.5049999999999955
20
-98.3999999999999915
11
135.6550000000000011
21
-98.3999999999999915
0
LINE
8
F.Mask
6
CONTINUOUS
10
135.6550000000000011
20
-98.3999999999999915
11
135.5688959999999952
21
-98.3828729999999894
0
LINE
8
F.Mask
6
CONTINUOUS
10
135.5688959999999952
20
-98.3828729999999894
11
135.4959010000000035
21
-98.3340989999999948
0
LINE
8
F.Mask
6
CONTINUOUS
10
135.4959010000000035
20
-98.3340989999999948
11
135.4471269999999947
21
-98.2611039999999889
0
LINE
8
F.Mask
6
CONTINUOUS
10
135.4471269999999947
20
-98.2611039999999889
11
135.4300000000000068
21
-98.1749999999999972
0
LINE
8
F.Mask
6
CONTINUOUS
10
135.4300000000000068
20
-98.1749999999999972
11
135.4300000000000068
21
-97.8249999999999886
0
LINE
8
F.Mask
6
CONTINUOUS
10
135.4300000000000068
20
-97.8249999999999886
11
135.4471269999999947
21
-97.7388959999999969
0
LINE
8
F.Mask
6
CONTINUOUS
10
135.4471269999999947
20
-97.7388959999999969
11
135.4959010000000035
21
-97.665900999999991
0
LINE
8
F.Mask
6
CONTINUOUS
10
135.4959010000000035
20
-97.665900999999991
11
135.5688959999999952
21
-97.6171269999999964
0
LINE
8
F.Mask
6
CONTINUOUS
10
135.5688959999999952
20
-97.6171269999999964
11
135.6550000000000011
21
-97.5999999999999943
0
LINE
8
F.Mask
6
CONTINUOUS
10
135.6550000000000011
20
-97.5999999999999943
11
136.5049999999999955
21
-97.5999999999999943
0
LINE
8
F.Mask
6
CONTINUOUS
10
136.5049999999999955
20
-97.5999999999999943
11
136.5911040000000014
21
-97.6171269999999964
0
LINE
8
F.Mask
6
CONTINUOUS
10
141.5186850000000049
20
-96.3579689999999971
11
141.6195409999999981
21
-96.4025010000000009
0
LINE
8
F.Mask
6
CONTINUOUS
10
141.6195409999999981
20
-96.4025010000000009
11
141.6974989999999934
21
-96.4804589999999962
0
LINE
8
F.Mask
6
CONTINUOUS
10
141.6974989999999934
20
-96.4804589999999962
11
141.7420309999999972
21
-96.5813149999999894
0
LINE
8
F.Mask
6
CONTINUOUS
10
141.7420309999999972
20
-96.5813149999999894
11
141.75
21
-96.6499999999999915
0
LINE
8
F.Mask
6
CONTINUOUS
10
141.75
20
-96.6499999999999915
11
141.75
21
-97.3499999999999943
0
LINE
8
F.Mask
6
CONTINUOUS
10
141.75
20
-97.3499999999999943
11
141.7420309999999972
21
-97.4186849999999964
0
LINE
8
F.Mask
6
CONTINUOUS
10
141.7420309999999972
20
-97.4186849999999964
11
141.6974989999999934
21
-97.5195409999999896
0
LINE
8
F.Mask
6
CONTINUOUS
10
141.6974989999999934
20
-97.5195409999999896
11
141.6195409999999981
21
-97.5974989999999991
0
LINE
8
F.Mask
6
CONTINUOUS
10
141.6195409999999981
20
-97.5974989999999991
11
141.5186850000000049
21
-97.6420309999999887
0
LINE
8
F.Mask
6
CONTINUOUS
10
141.5186850000000049
20
-97.6420309999999887
11
141.4499999999999886
21
-97.6499999999999915
0
LINE
8
F.Mask
6
CONTINUOUS
10
141.4499999999999886
20
-97.6499999999999915
11
140.5499999999999829
21
-97.6499999999999915
0
LINE
8
F.Mask
6
CONTINUOUS
10
140.5499999999999829
20
-97.6499999999999915
11
140.4813149999999951
21
-97.6420309999999887
0
LINE
8
F.Mask
6
CONTINUOUS
10
140.4813149999999951
20
-97.6420309999999887
11
140.3804590000000019
21
-97.5974989999999991
0
LINE
8
F.Mask
6
CONTINUOUS
10
140.3804590000000019
20
-97.5974989999999991
11
140.3025010000000066
21
-97.5195409999999896
0
LINE
8
F.Mask
6
CONTINUOUS
10
140.3025010000000066
20
-97.5195409999999896
11
140.2579690000000028
21
-97.4186849999999964
0
LINE
8
F.Mask
6
CONTINUOUS
10
140.2579690000000028
20
-97.4186849999999964
11
140.25
21
-97.3499999999999943
0
LINE
8
F.Mask
6
CONTINUOUS
10
140.25
20
-97.3499999999999943
11
140.25
21
-96.6499999999999915
0
LINE
8
F.Mask
6
CONTINUOUS
10
140.25
20
-96.6499999999999915
11
140.2579690000000028
21
-96.5813149999999894
0
LINE
8
F.Mask
6
CONTINUOUS
10
140.2579690000000028
20
-96.5813149999999894
11
140.3025010000000066
21
-96.4804589999999962
0
LINE
8
F.Mask
6
CONTINUOUS
10
140.3025010000000066
20
-96.4804589999999962
11
140.3804590000000019
21
-96.4025010000000009
0
LINE
8
F.Mask
6
CONTINUOUS
10
140.3804590000000019
20
-96.4025010000000009
11
140.4813149999999951
21
-96.3579689999999971
0
LINE
8
F.Mask
6
CONTINUOUS
10
140.4813149999999951
20
-96.3579689999999971
11
140.5499999999999829
21
-96.3499999999999943
0
LINE
8
F.Mask
6
CONTINUOUS
10
140.5499999999999829
20
-96.3499999999999943
11
141.4499999999999886
21
-96.3499999999999943
0
LINE
8
F.Mask
6
CONTINUOUS
10
141.4499999999999886
20
-96.3499999999999943
11
141.5186850000000049
21
-96.3579689999999971
0
LINE
8
F.Mask
6
CONTINUOUS
10
146.0186850000000049
20
-96.3579689999999971
11
146.1195409999999981
21
-96.4025010000000009
0
LINE
8
F.Mask
6
CONTINUOUS
10
146.1195409999999981
20
-96.4025010000000009
11
146.1974989999999934
21
-96.4804589999999962
0
LINE
8
F.Mask
6
CONTINUOUS
10
146.1974989999999934
20
-96.4804589999999962
11
146.2420309999999972
21
-96.5813149999999894
0
LINE
8
F.Mask
6
CONTINUOUS
10
146.2420309999999972
20
-96.5813149999999894
11
146.25
21
-96.6499999999999915
0
LINE
8
F.Mask
6
CONTINUOUS
10
146.25
20
-96.6499999999999915
11
146.25
21
-97.3499999999999943
0
LINE
8
F.Mask
6
CONTINUOUS
10
146.25
20
-97.3499999999999943
11
146.2420309999999972
21
-97.4186849999999964
0
LINE
8
F.Mask
6
CONTINUOUS
10
146.2420309999999972
20
-97.4186849999999964
11
146.1974989999999934
21
-97.5195409999999896
0
LINE
8
F.Mask
6
CONTINUOUS
10
146.1974989999999934
20
-97.5195409999999896
11
146.1195409999999981
21
-97.5974989999999991
0
LINE
8
F.Mask
6
CONTINUOUS
10
146.1195409999999981
20
-97.5974989999999991
11
146.0186850000000049
21
-97.6420309999999887
0
LINE
8
F.Mask
6
CONTINUOUS
10
146.0186850000000049
20
-97.6420309999999887
11
145.9499999999999886
21
-97.6499999999999915
0
LINE
8
F.Mask
6
CONTINUOUS
10
145.9499999999999886
20
-97.6499999999999915
11
145.0499999999999829
21
-97.6499999999999915
0
LINE
8
F.Mask
6
CONTINUOUS
10
145.0499999999999829
20
-97.6499999999999915
11
144.9813149999999951
21
-97.6420309999999887
0
LINE
8
F.Mask
6
CONTINUOUS
10
144.9813149999999951
20
-97.6420309999999887
11
144.8804590000000019
21
-97.5974989999999991
0
LINE
8
F.Mask
6
CONTINUOUS
10
144.8804590000000019
20
-97.5974989999999991
11
144.8025010000000066
21
-97.5195409999999896
0
LINE
8
F.Mask
6
CONTINUOUS
10
144.8025010000000066
20
-97.5195409999999896
11
144.7579690000000028
21
-97.4186849999999964
0
LINE
8
F.Mask
6
CONTINUOUS
10
144.7579690000000028
20
-97.4186849999999964
11
144.75
21
-97.3499999999999943
0
LINE
8
F.Mask
6
CONTINUOUS
10
144.75
20
-97.3499999999999943
11
144.75
21
-96.6499999999999915
0
LINE
8
F.Mask
6
CONTINUOUS
10
144.75
20
-96.6499999999999915
11
144.7579690000000028
21
-96.5813149999999894
0
LINE
8
F.Mask
6
CONTINUOUS
10
144.7579690000000028
20
-96.5813149999999894
11
144.8025010000000066
21
-96.4804589999999962
0
LINE
8
F.Mask
6
CONTINUOUS
10
144.8025010000000066
20
-96.4804589999999962
11
144.8804590000000019
21
-96.4025010000000009
0
LINE
8
F.Mask
6
CONTINUOUS
10
144.8804590000000019
20
-96.4025010000000009
11
144.9813149999999951
21
-96.3579689999999971
0
LINE
8
F.Mask
6
CONTINUOUS
10
144.9813149999999951
20
-96.3579689999999971
11
145.0499999999999829
21
-96.3499999999999943
0
LINE
8
F.Mask
6
CONTINUOUS
10
145.0499999999999829
20
-96.3499999999999943
11
145.9499999999999886
21
-96.3499999999999943
0
LINE
8
F.Mask
6
CONTINUOUS
10
145.9499999999999886
20
-96.3499999999999943
11
146.0186850000000049
21
-96.3579689999999971
0
LINE
8
F.Mask
6
CONTINUOUS
10
136.5911040000000014
20
-96.6171269999999964
11
136.6640989999999931
21
-96.665900999999991
0
LINE
8
F.Mask
6
CONTINUOUS
10
136.6640989999999931
20
-96.665900999999991
11
136.7128730000000019
21
-96.7388959999999969
0
LINE
8
F.Mask
6
CONTINUOUS
10
136.7128730000000019
20
-96.7388959999999969
11
136.7299999999999898
21
-96.8249999999999886
0
LINE
8
F.Mask
6
CONTINUOUS
10
136.7299999999999898
20
-96.8249999999999886
11
136.7299999999999898
21
-97.1749999999999972
0
LINE
8
F.Mask
6
CONTINUOUS
10
136.7299999999999898
20
-97.1749999999999972
11
136.7128730000000019
21
-97.2611039999999889
0
LINE
8
F.Mask
6
CONTINUOUS
10
136.7128730000000019
20
-97.2611039999999889
11
136.6640989999999931
21
-97.3340989999999948
0
LINE
8
F.Mask
6
CONTINUOUS
10
136.6640989999999931
20
-97.3340989999999948
11
136.5911040000000014
21
-97.3828729999999894
0
LINE
8
F.Mask
6
CONTINUOUS
10
136.5911040000000014
20
-97.3828729999999894
11
136.5049999999999955
21
-97.3999999999999915
0
LINE
8
F.Mask
6
CONTINUOUS
10
136.5049999999999955
20
-97.3999999999999915
11
135.6550000000000011
21
-97.3999999999999915
0
LINE
8
F.Mask
6
CONTINUOUS
10
135.6550000000000011
20
-97.3999999999999915
11
135.5688959999999952
21
-97.3828729999999894
0
LINE
8
F.Mask
6
CONTINUOUS
10
135.5688959999999952
20
-97.3828729999999894
11
135.4959010000000035
21
-97.3340989999999948
0
LINE
8
F.Mask
6
CONTINUOUS
10
135.4959010000000035
20
-97.3340989999999948
11
135.4471269999999947
21
-97.2611039999999889
0
LINE
8
F.Mask
6
CONTINUOUS
10
135.4471269999999947
20
-97.2611039999999889
11
135.4300000000000068
21
-97.1749999999999972
0
LINE
8
F.Mask
6
CONTINUOUS
10
135.4300000000000068
20
-97.1749999999999972
11
135.4300000000000068
21
-96.8249999999999886
0
LINE
8
F.Mask
6
CONTINUOUS
10
135.4300000000000068
20
-96.8249999999999886
11
135.4471269999999947
21
-96.7388959999999969
0
LINE
8
F.Mask
6
CONTINUOUS
10
135.4471269999999947
20
-96.7388959999999969
11
135.4959010000000035
21
-96.665900999999991
0
LINE
8
F.Mask
6
CONTINUOUS
10
135.4959010000000035
20
-96.665900999999991
11
135.5688959999999952
21
-96.6171269999999964
0
LINE
8
F.Mask
6
CONTINUOUS
10
135.5688959999999952
20
-96.6171269999999964
11
135.6550000000000011
21
-96.5999999999999943
0
LINE
8
F.Mask
6
CONTINUOUS
10
135.6550000000000011
20
-96.5999999999999943
11
136.5049999999999955
21
-96.5999999999999943
0
LINE
8
F.Mask
6
CONTINUOUS
10
136.5049999999999955
20
-96.5999999999999943
11
136.5911040000000014
21
-96.6171269999999964
0
LINE
8
F.Mask
6
CONTINUOUS
10
155.7212559999999826
20
-95.6387539999999916
11
155.884256999999991
21
-95.706271000000001
0
LINE
8
F.Mask
6
CONTINUOUS
10
155.884256999999991
20
-95.706271000000001
11
156.0309539999999799
21
-95.8042909999999921
0
LINE
8
F.Mask
6
CONTINUOUS
10
156.0309539999999799
20
-95.8042909999999921
11
156.1557090000000017
21
-95.9290459999999996
0
LINE
8
F.Mask
6
CONTINUOUS
10
156.1557090000000017
20
-95.9290459999999996
11
156.2537289999999928
21
-96.0757429999999886
0
LINE
8
F.Mask
6
CONTINUOUS
10
156.2537289999999928
20
-96.0757429999999886
11
156.3212460000000021
21
-96.238743999999997
0
LINE
8
F.Mask
6
CONTINUOUS
10
156.3212460000000021
20
-96.238743999999997
11
156.3556659999999852
21
-96.4117849999999947
0
LINE
8
F.Mask
6
CONTINUOUS
10
156.3556659999999852
20
-96.4117849999999947
11
156.3556659999999852
21
-96.5882149999999911
0
LINE
8
F.Mask
6
CONTINUOUS
10
156.3556659999999852
20
-96.5882149999999911
11
156.3212460000000021
21
-96.7612559999999888
0
LINE
8
F.Mask
6
CONTINUOUS
10
156.3212460000000021
20
-96.7612559999999888
11
156.2537289999999928
21
-96.9242569999999972
0
LINE
8
F.Mask
6
CONTINUOUS
10
156.2537289999999928
20
-96.9242569999999972
11
156.1557090000000017
21
-97.0709540000000004
0
LINE
8
F.Mask
6
CONTINUOUS
10
156.1557090000000017
20
-97.0709540000000004
11
156.0309539999999799
21
-97.1957089999999937
0
LINE
8
F.Mask
6
CONTINUOUS
10
156.0309539999999799
20
-97.1957089999999937
11
155.884256999999991
21
-97.293728999999999
0
LINE
8
F.Mask
6
CONTINUOUS
10
155.884256999999991
20
-97.293728999999999
11
155.7212559999999826
21
-97.3612459999999942
0
LINE
8
F.Mask
6
CONTINUOUS
10
155.7212559999999826
20
-97.3612459999999942
11
155.548214999999999
21
-97.3956659999999914
0
LINE
8
F.Mask
6
CONTINUOUS
10
155.548214999999999
20
-97.3956659999999914
11
155.3717849999999885
21
-97.3956659999999914
0
LINE
8
F.Mask
6
CONTINUOUS
10
155.3717849999999885
20
-97.3956659999999914
11
155.1987440000000049
21
-97.3612459999999942
0
LINE
8
F.Mask
6
CONTINUOUS
10
155.1987440000000049
20
-97.3612459999999942
11
155.0357429999999965
21
-97.293728999999999
0
LINE
8
F.Mask
6
CONTINUOUS
10
155.0357429999999965
20
-97.293728999999999
11
154.8890459999999791
21
-97.1957089999999937
0
LINE
8
F.Mask
6
CONTINUOUS
10
154.8890459999999791
20
-97.1957089999999937
11
154.7642909999999858
21
-97.0709540000000004
0
LINE
8
F.Mask
6
CONTINUOUS
10
154.7642909999999858
20
-97.0709540000000004
11
154.6662709999999947
21
-96.9242569999999972
0
LINE
8
F.Mask
6
CONTINUOUS
10
154.6662709999999947
20
-96.9242569999999972
11
154.5987539999999854
21
-96.7612559999999888
0
LINE
8
F.Mask
6
CONTINUOUS
10
154.5987539999999854
20
-96.7612559999999888
11
154.5643340000000023
21
-96.5882149999999911
0
LINE
8
F.Mask
6
CONTINUOUS
10
154.5643340000000023
20
-96.5882149999999911
11
154.5643340000000023
21
-96.4117849999999947
0
LINE
8
F.Mask
6
CONTINUOUS
10
154.5643340000000023
20
-96.4117849999999947
11
154.5987539999999854
21
-96.238743999999997
0
LINE
8
F.Mask
6
CONTINUOUS
10
154.5987539999999854
20
-96.238743999999997
11
154.6662709999999947
21
-96.0757429999999886
0
LINE
8
F.Mask
6
CONTINUOUS
10
154.6662709999999947
20
-96.0757429999999886
11
154.7642909999999858
21
-95.9290459999999996
0
LINE
8
F.Mask
6
CONTINUOUS
10
154.7642909999999858
20
-95.9290459999999996
11
154.8890459999999791
21
-95.8042909999999921
0
LINE
8
F.Mask
6
CONTINUOUS
10
154.8890459999999791
20
-95.8042909999999921
11
155.0357429999999965
21
-95.706271000000001
0
LINE
8
F.Mask
6
CONTINUOUS
10
155.0357429999999965
20
-95.706271000000001
11
155.1987440000000049
21
-95.6387539999999916
0
LINE
8
F.Mask
6
CONTINUOUS
10
155.1987440000000049
20
-95.6387539999999916
11
155.3717849999999885
21
-95.6043339999999944
0
LINE
8
F.Mask
6
CONTINUOUS
10
155.3717849999999885
20
-95.6043339999999944
11
155.548214999999999
21
-95.6043339999999944
0
LINE
8
F.Mask
6
CONTINUOUS
10
155.548214999999999
20
-95.6043339999999944
11
155.7212559999999826
21
-95.6387539999999916
0
LINE
8
F.Mask
6
CONTINUOUS
10
158.261256000000003
20
-95.6387539999999916
11
158.424256999999983
21
-95.706271000000001
0
LINE
8
F.Mask
6
CONTINUOUS
10
158.424256999999983
20
-95.706271000000001
11
158.5709540000000004
21
-95.8042909999999921
0
LINE
8
F.Mask
6
CONTINUOUS
10
158.5709540000000004
20
-95.8042909999999921
11
158.6957089999999937
21
-95.9290459999999996
0
LINE
8
F.Mask
6
CONTINUOUS
10
158.6957089999999937
20
-95.9290459999999996
11
158.7937289999999848
21
-96.0757429999999886
0
LINE
8
F.Mask
6
CONTINUOUS
10
158.7937289999999848
20
-96.0757429999999886
11
158.8612459999999942
21
-96.238743999999997
0
LINE
8
F.Mask
6
CONTINUOUS
10
158.8612459999999942
20
-96.238743999999997
11
158.8956660000000056
21
-96.4117849999999947
0
LINE
8
F.Mask
6
CONTINUOUS
10
158.8956660000000056
20
-96.4117849999999947
11
158.8956660000000056
21
-96.5882149999999911
0
LINE
8
F.Mask
6
CONTINUOUS
10
158.8956660000000056
20
-96.5882149999999911
11
158.8612459999999942
21
-96.7612559999999888
0
LINE
8
F.Mask
6
CONTINUOUS
10
158.8612459999999942
20
-96.7612559999999888
11
158.7937289999999848
21
-96.9242569999999972
0
LINE
8
F.Mask
6
CONTINUOUS
10
158.7937289999999848
20
-96.9242569999999972
11
158.6957089999999937
21
-97.0709540000000004
0
LINE
8
F.Mask
6
CONTINUOUS
10
158.6957089999999937
20
-97.0709540000000004
11
158.5709540000000004
21
-97.1957089999999937
0
LINE
8
F.Mask
6
CONTINUOUS
10
158.5709540000000004
20
-97.1957089999999937
11
158.424256999999983
21
-97.293728999999999
0
LINE
8
F.Mask
6
CONTINUOUS
10
158.424256999999983
20
-97.293728999999999
11
158.261256000000003
21
-97.3612459999999942
0
LINE
8
F.Mask
6
CONTINUOUS
10
158.261256000000003
20
-97.3612459999999942
11
158.0882149999999911
21
-97.3956659999999914
0
LINE
8
F.Mask
6
CONTINUOUS
10
158.0882149999999911
20
-97.3956659999999914
11
157.9117849999999805
21
-97.3956659999999914
0
LINE
8
F.Mask
6
CONTINUOUS
10
157.9117849999999805
20
-97.3956659999999914
11
157.738743999999997
21
-97.3612459999999942
0
LINE
8
F.Mask
6
CONTINUOUS
10
157.738743999999997
20
-97.3612459999999942
11
157.5757429999999886
21
-97.293728999999999
0
LINE
8
F.Mask
6
CONTINUOUS
10
157.5757429999999886
20
-97.293728999999999
11
157.4290459999999996
21
-97.1957089999999937
0
LINE
8
F.Mask
6
CONTINUOUS
10
157.4290459999999996
20
-97.1957089999999937
11
157.3042910000000063
21
-97.0709540000000004
0
LINE
8
F.Mask
6
CONTINUOUS
10
157.3042910000000063
20
-97.0709540000000004
11
157.2062709999999868
21
-96.9242569999999972
0
LINE
8
F.Mask
6
CONTINUOUS
10
157.2062709999999868
20
-96.9242569999999972
11
157.1387540000000058
21
-96.7612559999999888
0
LINE
8
F.Mask
6
CONTINUOUS
10
157.1387540000000058
20
-96.7612559999999888
11
157.1043339999999944
21
-96.5882149999999911
0
LINE
8
F.Mask
6
CONTINUOUS
10
157.1043339999999944
20
-96.5882149999999911
11
157.1043339999999944
21
-96.4117849999999947
0
LINE
8
F.Mask
6
CONTINUOUS
10
157.1043339999999944
20
-96.4117849999999947
11
157.1387540000000058
21
-96.238743999999997
0
LINE
8
F.Mask
6
CONTINUOUS
10
157.1387540000000058
20
-96.238743999999997
11
157.2062709999999868
21
-96.0757429999999886
0
LINE
8
F.Mask
6
CONTINUOUS
10
157.2062709999999868
20
-96.0757429999999886
11
157.3042910000000063
21
-95.9290459999999996
0
LINE
8
F.Mask
6
CONTINUOUS
10
157.3042910000000063
20
-95.9290459999999996
11
157.4290459999999996
21
-95.8042909999999921
0
LINE
8
F.Mask
6
CONTINUOUS
10
157.4290459999999996
20
-95.8042909999999921
11
157.5757429999999886
21
-95.706271000000001
0
LINE
8
F.Mask
6
CONTINUOUS
10
157.5757429999999886
20
-95.706271000000001
11
157.738743999999997
21
-95.6387539999999916
0
LINE
8
F.Mask
6
CONTINUOUS
10
157.738743999999997
20
-95.6387539999999916
11
157.9117849999999805
21
-95.6043339999999944
0
LINE
8
F.Mask
6
CONTINUOUS
10
157.9117849999999805
20
-95.6043339999999944
11
158.0882149999999911
21
-95.6043339999999944
0
LINE
8
F.Mask
6
CONTINUOUS
10
158.0882149999999911
20
-95.6043339999999944
11
158.261256000000003
21
-95.6387539999999916
0
LINE
8
F.Mask
6
CONTINUOUS
10
149.0186850000000049
20
-95.3579689999999971
11
149.1195409999999981
21
-95.4025010000000009
0
LINE
8
F.Mask
6
CONTINUOUS
10
149.1195409999999981
20
-95.4025010000000009
11
149.1974989999999934
21
-95.4804589999999962
0
LINE
8
F.Mask
6
CONTINUOUS
10
149.1974989999999934
20
-95.4804589999999962
11
149.2420309999999972
21
-95.5813149999999894
0
LINE
8
F.Mask
6
CONTINUOUS
10
149.2420309999999972
20
-95.5813149999999894
11
149.25
21
-95.6499999999999915
0
LINE
8
F.Mask
6
CONTINUOUS
10
149.25
20
-95.6499999999999915
11
149.25
21
-96.3499999999999943
0
LINE
8
F.Mask
6
CONTINUOUS
10
149.25
20
-96.3499999999999943
11
149.2420309999999972
21
-96.4186849999999964
0
LINE
8
F.Mask
6
CONTINUOUS
10
149.2420309999999972
20
-96.4186849999999964
11
149.1974989999999934
21
-96.5195409999999896
0
LINE
8
F.Mask
6
CONTINUOUS
10
149.1974989999999934
20
-96.5195409999999896
11
149.1195409999999981
21
-96.5974989999999991
0
LINE
8
F.Mask
6
CONTINUOUS
10
149.1195409999999981
20
-96.5974989999999991
11
149.0186850000000049
21
-96.6420309999999887
0
LINE
8
F.Mask
6
CONTINUOUS
10
149.0186850000000049
20
-96.6420309999999887
11
148.9499999999999886
21
-96.6499999999999915
0
LINE
8
F.Mask
6
CONTINUOUS
10
148.9499999999999886
20
-96.6499999999999915
11
148.0499999999999829
21
-96.6499999999999915
0
LINE
8
F.Mask
6
CONTINUOUS
10
148.0499999999999829
20
-96.6499999999999915
11
147.9813149999999951
21
-96.6420309999999887
0
LINE
8
F.Mask
6
CONTINUOUS
10
147.9813149999999951
20
-96.6420309999999887
11
147.8804590000000019
21
-96.5974989999999991
0
LINE
8
F.Mask
6
CONTINUOUS
10
147.8804590000000019
20
-96.5974989999999991
11
147.8025010000000066
21
-96.5195409999999896
0
LINE
8
F.Mask
6
CONTINUOUS
10
147.8025010000000066
20
-96.5195409999999896
11
147.7579690000000028
21
-96.4186849999999964
0
LINE
8
F.Mask
6
CONTINUOUS
10
147.7579690000000028
20
-96.4186849999999964
11
147.75
21
-96.3499999999999943
0
LINE
8
F.Mask
6
CONTINUOUS
10
147.75
20
-96.3499999999999943
11
147.75
21
-95.6499999999999915
0
LINE
8
F.Mask
6
CONTINUOUS
10
147.75
20
-95.6499999999999915
11
147.7579690000000028
21
-95.5813149999999894
0
LINE
8
F.Mask
6
CONTINUOUS
10
147.7579690000000028
20
-95.5813149999999894
11
147.8025010000000066
21
-95.4804589999999962
0
LINE
8
F.Mask
6
CONTINUOUS
10
147.8025010000000066
20
-95.4804589999999962
11
147.8804590000000019
21
-95.4025010000000009
0
LINE
8
F.Mask
6
CONTINUOUS
10
147.8804590000000019
20
-95.4025010000000009
11
147.9813149999999951
21
-95.3579689999999971
0
LINE
8
F.Mask
6
CONTINUOUS
10
147.9813149999999951
20
-95.3579689999999971
11
148.0499999999999829
21
-95.3499999999999943
0
LINE
8
F.Mask
6
CONTINUOUS
10
148.0499999999999829
20
-95.3499999999999943
11
148.9499999999999886
21
-95.3499999999999943
0
LINE
8
F.Mask
6
CONTINUOUS
10
148.9499999999999886
20
-95.3499999999999943
11
149.0186850000000049
21
-95.3579689999999971
0
LINE
8
F.Mask
6
CONTINUOUS
10
136.5818439999999896
20
-95.5682690000000008
11
136.6597059999999999
21
-95.6202940000000012
0
LINE
8
F.Mask
6
CONTINUOUS
10
136.6597059999999999
20
-95.6202940000000012
11
136.7117309999999861
21
-95.6981559999999973
0
LINE
8
F.Mask
6
CONTINUOUS
10
136.7117309999999861
20
-95.6981559999999973
11
136.7299999999999898
21
-95.789999999999992
0
LINE
8
F.Mask
6
CONTINUOUS
10
136.7299999999999898
20
-95.789999999999992
11
136.7299999999999898
21
-96.1700000000000017
0
LINE
8
F.Mask
6
CONTINUOUS
10
136.7299999999999898
20
-96.1700000000000017
11
136.7117309999999861
21
-96.2618439999999964
0
LINE
8
F.Mask
6
CONTINUOUS
10
136.7117309999999861
20
-96.2618439999999964
11
136.6597059999999999
21
-96.3397059999999925
0
LINE
8
F.Mask
6
CONTINUOUS
10
136.6597059999999999
20
-96.3397059999999925
11
136.5818439999999896
21
-96.3917309999999929
0
LINE
8
F.Mask
6
CONTINUOUS
10
136.5818439999999896
20
-96.3917309999999929
11
136.4899999999999807
21
-96.4099999999999966
0
LINE
8
F.Mask
6
CONTINUOUS
10
136.4899999999999807
20
-96.4099999999999966
11
135.6699999999999875
21
-96.4099999999999966
0
LINE
8
F.Mask
6
CONTINUOUS
10
135.6699999999999875
20
-96.4099999999999966
11
135.578156000000007
21
-96.3917309999999929
0
LINE
8
F.Mask
6
CONTINUOUS
10
135.578156000000007
20
-96.3917309999999929
11
135.5002939999999967
21
-96.3397059999999925
0
LINE
8
F.Mask
6
CONTINUOUS
10
135.5002939999999967
20
-96.3397059999999925
11
135.448268999999982
21
-96.2618439999999964
0
LINE
8
F.Mask
6
CONTINUOUS
10
135.448268999999982
20
-96.2618439999999964
11
135.4300000000000068
21
-96.1700000000000017
0
LINE
8
F.Mask
6
CONTINUOUS
10
135.4300000000000068
20
-96.1700000000000017
11
135.4300000000000068
21
-95.789999999999992
0
LINE
8
F.Mask
6
CONTINUOUS
10
135.4300000000000068
20
-95.789999999999992
11
135.448268999999982
21
-95.6981559999999973
0
LINE
8
F.Mask
6
CONTINUOUS
10
135.448268999999982
20
-95.6981559999999973
11
135.5002939999999967
21
-95.6202940000000012
0
LINE
8
F.Mask
6
CONTINUOUS
10
135.5002939999999967
20
-95.6202940000000012
11
135.578156000000007
21
-95.5682690000000008
0
LINE
8
F.Mask
6
CONTINUOUS
10
135.578156000000007
20
-95.5682690000000008
11
135.6699999999999875
21
-95.5499999999999972
0
LINE
8
F.Mask
6
CONTINUOUS
10
135.6699999999999875
20
-95.5499999999999972
11
136.4899999999999807
21
-95.5499999999999972
0
LINE
8
F.Mask
6
CONTINUOUS
10
136.4899999999999807
20
-95.5499999999999972
11
136.5818439999999896
21
-95.5682690000000008
0
LINE
8
F.Mask
6
CONTINUOUS
10
139.2322279999999921
20
-93.7344480000000004
11
139.3771169999999984
21
-93.7944629999999933
0
LINE
8
F.Mask
6
CONTINUOUS
10
139.3771169999999984
20
-93.7944629999999933
11
139.5075149999999837
21
-93.8815919999999977
0
LINE
8
F.Mask
6
CONTINUOUS
10
139.5075149999999837
20
-93.8815919999999977
11
139.6184079999999881
21
-93.9924850000000021
0
LINE
8
F.Mask
6
CONTINUOUS
10
139.6184079999999881
20
-93.9924850000000021
11
139.7055369999999925
21
-94.1228830000000016
0
LINE
8
F.Mask
6
CONTINUOUS
10
139.7055369999999925
20
-94.1228830000000016
11
139.7655519999999854
21
-94.2677719999999937
0
LINE
8
F.Mask
6
CONTINUOUS
10
139.7655519999999854
20
-94.2677719999999937
11
139.7961479999999881
21
-94.4215859999999907
0
LINE
8
F.Mask
6
CONTINUOUS
10
139.7961479999999881
20
-94.4215859999999907
11
139.7961479999999881
21
-94.5784139999999951
0
LINE
8
F.Mask
6
CONTINUOUS
10
139.7961479999999881
20
-94.5784139999999951
11
139.7655519999999854
21
-94.7322279999999921
0
LINE
8
F.Mask
6
CONTINUOUS
10
139.7655519999999854
20
-94.7322279999999921
11
139.7055369999999925
21
-94.8771169999999984
0
LINE
8
F.Mask
6
CONTINUOUS
10
139.7055369999999925
20
-94.8771169999999984
11
139.6184079999999881
21
-95.0075149999999979
0
LINE
8
F.Mask
6
CONTINUOUS
10
139.6184079999999881
20
-95.0075149999999979
11
139.5075149999999837
21
-95.1184080000000023
0
LINE
8
F.Mask
6
CONTINUOUS
10
139.5075149999999837
20
-95.1184080000000023
11
139.3771169999999984
21
-95.2055369999999925
0
LINE
8
F.Mask
6
CONTINUOUS
10
139.3771169999999984
20
-95.2055369999999925
11
139.2322279999999921
21
-95.2655519999999996
0
LINE
8
F.Mask
6
CONTINUOUS
10
139.2322279999999921
20
-95.2655519999999996
11
139.0784139999999809
21
-95.2961480000000023
0
LINE
8
F.Mask
6
CONTINUOUS
10
139.0784139999999809
20
-95.2961480000000023
11
138.9215859999999907
21
-95.2961480000000023
0
LINE
8
F.Mask
6
CONTINUOUS
10
138.9215859999999907
20
-95.2961480000000023
11
138.7677720000000079
21
-95.2655519999999996
0
LINE
8
F.Mask
6
CONTINUOUS
10
138.7677720000000079
20
-95.2655519999999996
11
138.6228830000000016
21
-95.2055369999999925
0
LINE
8
F.Mask
6
CONTINUOUS
10
138.6228830000000016
20
-95.2055369999999925
11
138.4924849999999878
21
-95.1184080000000023
0
LINE
8
F.Mask
6
CONTINUOUS
10
138.4924849999999878
20
-95.1184080000000023
11
138.3815919999999835
21
-95.0075149999999979
0
LINE
8
F.Mask
6
CONTINUOUS
10
138.3815919999999835
20
-95.0075149999999979
11
138.2944630000000075
21
-94.8771169999999984
0
LINE
8
F.Mask
6
CONTINUOUS
10
138.2944630000000075
20
-94.8771169999999984
11
138.2344479999999862
21
-94.7322279999999921
0
LINE
8
F.Mask
6
CONTINUOUS
10
138.2344479999999862
20
-94.7322279999999921
11
138.2038519999999835
21
-94.5784139999999951
0
LINE
8
F.Mask
6
CONTINUOUS
10
138.2038519999999835
20
-94.5784139999999951
11
138.2038519999999835
21
-94.4215859999999907
0
LINE
8
F.Mask
6
CONTINUOUS
10
138.2038519999999835
20
-94.4215859999999907
11
138.2344479999999862
21
-94.2677719999999937
0
LINE
8
F.Mask
6
CONTINUOUS
10
138.2344479999999862
20
-94.2677719999999937
11
138.2944630000000075
21
-94.1228830000000016
0
LINE
8
F.Mask
6
CONTINUOUS
10
138.2944630000000075
20
-94.1228830000000016
11
138.3815919999999835
21
-93.9924850000000021
0
LINE
8
F.Mask
6
CONTINUOUS
10
138.3815919999999835
20
-93.9924850000000021
11
138.4924849999999878
21
-93.8815919999999977
0
LINE
8
F.Mask
6
CONTINUOUS
10
138.4924849999999878
20
-93.8815919999999977
11
138.6228830000000016
21
-93.7944629999999933
0
LINE
8
F.Mask
6
CONTINUOUS
10
138.6228830000000016
20
-93.7944629999999933
11
138.7677720000000079
21
-93.7344480000000004
0
LINE
8
F.Mask
6
CONTINUOUS
10
138.7677720000000079
20
-93.7344480000000004
11
138.9215859999999907
21
-93.7038519999999977
0
LINE
8
F.Mask
6
CONTINUOUS
10
138.9215859999999907
20
-93.7038519999999977
11
139.0784139999999809
21
-93.7038519999999977
0
LINE
8
F.Mask
6
CONTINUOUS
10
139.0784139999999809
20
-93.7038519999999977
11
139.2322279999999921
21
-93.7344480000000004
0
LINE
8
F.Mask
6
CONTINUOUS
10
136.5756709999999998
20
-94.3190299999999979
11
136.6567770000000053
21
-94.3732229999999959
0
LINE
8
F.Mask
6
CONTINUOUS
10
136.6567770000000053
20
-94.3732229999999959
11
136.7109700000000032
21
-94.4543290000000013
0
LINE
8
F.Mask
6
CONTINUOUS
10
136.7109700000000032
20
-94.4543290000000013
11
136.7299999999999898
21
-94.5499999999999972
0
LINE
8
F.Mask
6
CONTINUOUS
10
136.7299999999999898
20
-94.5499999999999972
11
136.7299999999999898
21
-94.9499999999999886
0
LINE
8
F.Mask
6
CONTINUOUS
10
136.7299999999999898
20
-94.9499999999999886
11
136.7109700000000032
21
-95.0456709999999987
0
LINE
8
F.Mask
6
CONTINUOUS
10
136.7109700000000032
20
-95.0456709999999987
11
136.6567770000000053
21
-95.1267769999999899
0
LINE
8
F.Mask
6
CONTINUOUS
10
136.6567770000000053
20
-95.1267769999999899
11
136.5756709999999998
21
-95.1809700000000021
0
LINE
8
F.Mask
6
CONTINUOUS
10
136.5756709999999998
20
-95.1809700000000021
11
136.4799999999999898
21
-95.1999999999999886
0
LINE
8
F.Mask
6
CONTINUOUS
10
136.4799999999999898
20
-95.1999999999999886
11
135.6800000000000068
21
-95.1999999999999886
0
LINE
8
F.Mask
6
CONTINUOUS
10
135.6800000000000068
20
-95.1999999999999886
11
135.5843289999999968
21
-95.1809700000000021
0
LINE
8
F.Mask
6
CONTINUOUS
10
135.5843289999999968
20
-95.1809700000000021
11
135.5032229999999913
21
-95.1267769999999899
0
LINE
8
F.Mask
6
CONTINUOUS
10
135.5032229999999913
20
-95.1267769999999899
11
135.4490299999999934
21
-95.0456709999999987
0
LINE
8
F.Mask
6
CONTINUOUS
10
135.4490299999999934
20
-95.0456709999999987
11
135.4300000000000068
21
-94.9499999999999886
0
LINE
8
F.Mask
6
CONTINUOUS
10
135.4300000000000068
20
-94.9499999999999886
11
135.4300000000000068
21
-94.5499999999999972
0
LINE
8
F.Mask
6
CONTINUOUS
10
135.4300000000000068
20
-94.5499999999999972
11
135.4490299999999934
21
-94.4543290000000013
0
LINE
8
F.Mask
6
CONTINUOUS
10
135.4490299999999934
20
-94.4543290000000013
11
135.5032229999999913
21
-94.3732229999999959
0
LINE
8
F.Mask
6
CONTINUOUS
10
135.5032229999999913
20
-94.3732229999999959
11
135.5843289999999968
21
-94.3190299999999979
0
LINE
8
F.Mask
6
CONTINUOUS
10
135.5843289999999968
20
-94.3190299999999979
11
135.6800000000000068
21
-94.2999999999999972
0
LINE
8
F.Mask
6
CONTINUOUS
10
135.6800000000000068
20
-94.2999999999999972
11
136.4799999999999898
21
-94.2999999999999972
0
LINE
8
F.Mask
6
CONTINUOUS
10
136.4799999999999898
20
-94.2999999999999972
11
136.5756709999999998
21
-94.3190299999999979
0
LINE
8
F.Mask
6
CONTINUOUS
10
156.3291339999999821
20
-93.0638059999999996
11
156.3453549999999836
21
-93.0746449999999896
0
LINE
8
F.Mask
6
CONTINUOUS
10
156.3453549999999836
20
-93.0746449999999896
11
156.3561939999999879
21
-93.0908659999999912
0
LINE
8
F.Mask
6
CONTINUOUS
10
156.3561939999999879
20
-93.0908659999999912
11
156.3599999999999852
21
-93.1099999999999994
0
LINE
8
F.Mask
6
CONTINUOUS
10
156.3599999999999852
20
-93.1099999999999994
11
156.3599999999999852
21
-94.8100000000000023
0
LINE
8
F.Mask
6
CONTINUOUS
10
156.3599999999999852
20
-94.8100000000000023
11
156.3561939999999879
21
-94.8291339999999963
0
LINE
8
F.Mask
6
CONTINUOUS
10
156.3561939999999879
20
-94.8291339999999963
11
156.3453549999999836
21
-94.8453549999999979
0
LINE
8
F.Mask
6
CONTINUOUS
10
156.3453549999999836
20
-94.8453549999999979
11
156.3291339999999821
21
-94.8561940000000021
0
LINE
8
F.Mask
6
CONTINUOUS
10
156.3291339999999821
20
-94.8561940000000021
11
156.3100000000000023
21
-94.8599999999999994
0
LINE
8
F.Mask
6
CONTINUOUS
10
156.3100000000000023
20
-94.8599999999999994
11
154.6099999999999852
21
-94.8599999999999994
0
LINE
8
F.Mask
6
CONTINUOUS
10
154.6099999999999852
20
-94.8599999999999994
11
154.5908660000000054
21
-94.8561940000000021
0
LINE
8
F.Mask
6
CONTINUOUS
10
154.5908660000000054
20
-94.8561940000000021
11
154.5746450000000038
21
-94.8453549999999979
0
LINE
8
F.Mask
6
CONTINUOUS
10
154.5746450000000038
20
-94.8453549999999979
11
154.5638059999999996
21
-94.8291339999999963
0
LINE
8
F.Mask
6
CONTINUOUS
10
154.5638059999999996
20
-94.8291339999999963
11
154.5600000000000023
21
-94.8100000000000023
0
LINE
8
F.Mask
6
CONTINUOUS
10
154.5600000000000023
20
-94.8100000000000023
11
154.5600000000000023
21
-93.1099999999999994
0
LINE
8
F.Mask
6
CONTINUOUS
10
154.5600000000000023
20
-93.1099999999999994
11
154.5638059999999996
21
-93.0908659999999912
0
LINE
8
F.Mask
6
CONTINUOUS
10
154.5638059999999996
20
-93.0908659999999912
11
154.5746450000000038
21
-93.0746449999999896
0
LINE
8
F.Mask
6
CONTINUOUS
10
154.5746450000000038
20
-93.0746449999999896
11
154.5908660000000054
21
-93.0638059999999996
0
LINE
8
F.Mask
6
CONTINUOUS
10
154.5908660000000054
20
-93.0638059999999996
11
154.6099999999999852
21
-93.0600000000000023
0
LINE
8
F.Mask
6
CONTINUOUS
10
154.6099999999999852
20
-93.0600000000000023
11
156.3100000000000023
21
-93.0600000000000023
0
LINE
8
F.Mask
6
CONTINUOUS
10
156.3100000000000023
20
-93.0600000000000023
11
156.3291339999999821
21
-93.0638059999999996
0
LINE
8
F.Mask
6
CONTINUOUS
10
158.261256000000003
20
-93.0987539999999996
11
158.424256999999983
21
-93.1662709999999947
0
LINE
8
F.Mask
6
CONTINUOUS
10
158.424256999999983
20
-93.1662709999999947
11
158.5709540000000004
21
-93.2642910000000001
0
LINE
8
F.Mask
6
CONTINUOUS
10
158.5709540000000004
20
-93.2642910000000001
11
158.6957089999999937
21
-93.3890459999999933
0
LINE
8
F.Mask
6
CONTINUOUS
10
158.6957089999999937
20
-93.3890459999999933
11
158.7937289999999848
21
-93.5357429999999965
0
LINE
8
F.Mask
6
CONTINUOUS
10
158.7937289999999848
20
-93.5357429999999965
11
158.8612459999999942
21
-93.6987439999999907
0
LINE
8
F.Mask
6
CONTINUOUS
10
158.8612459999999942
20
-93.6987439999999907
11
158.8956660000000056
21
-93.8717850000000027
0
LINE
8
F.Mask
6
CONTINUOUS
10
158.8956660000000056
20
-93.8717850000000027
11
158.8956660000000056
21
-94.048214999999999
0
LINE
8
F.Mask
6
CONTINUOUS
10
158.8956660000000056
20
-94.048214999999999
11
158.8612459999999942
21
-94.2212559999999968
0
LINE
8
F.Mask
6
CONTINUOUS
10
158.8612459999999942
20
-94.2212559999999968
11
158.7937289999999848
21
-94.384256999999991
0
LINE
8
F.Mask
6
CONTINUOUS
10
158.7937289999999848
20
-94.384256999999991
11
158.6957089999999937
21
-94.5309539999999942
0
LINE
8
F.Mask
6
CONTINUOUS
10
158.6957089999999937
20
-94.5309539999999942
11
158.5709540000000004
21
-94.6557090000000017
0
LINE
8
F.Mask
6
CONTINUOUS
10
158.5709540000000004
20
-94.6557090000000017
11
158.424256999999983
21
-94.7537289999999928
0
LINE
8
F.Mask
6
CONTINUOUS
10
158.424256999999983
20
-94.7537289999999928
11
158.261256000000003
21
-94.8212460000000021
0
LINE
8
F.Mask
6
CONTINUOUS
10
158.261256000000003
20
-94.8212460000000021
11
158.0882149999999911
21
-94.8556659999999994
0
LINE
8
F.Mask
6
CONTINUOUS
10
158.0882149999999911
20
-94.8556659999999994
11
157.9117849999999805
21
-94.8556659999999994
0
LINE
8
F.Mask
6
CONTINUOUS
10
157.9117849999999805
20
-94.8556659999999994
11
157.738743999999997
21
-94.8212460000000021
0
LINE
8
F.Mask
6
CONTINUOUS
10
157.738743999999997
20
-94.8212460000000021
11
157.5757429999999886
21
-94.7537289999999928
0
LINE
8
F.Mask
6
CONTINUOUS
10
157.5757429999999886
20
-94.7537289999999928
11
157.4290459999999996
21
-94.6557090000000017
0
LINE
8
F.Mask
6
CONTINUOUS
10
157.4290459999999996
20
-94.6557090000000017
11
157.3042910000000063
21
-94.5309539999999942
0
LINE
8
F.Mask
6
CONTINUOUS
10
157.3042910000000063
20
-94.5309539999999942
11
157.2062709999999868
21
-94.384256999999991
0
LINE
8
F.Mask
6
CONTINUOUS
10
157.2062709999999868
20
-94.384256999999991
11
157.1387540000000058
21
-94.2212559999999968
0
LINE
8
F.Mask
6
CONTINUOUS
10
157.1387540000000058
20
-94.2212559999999968
11
157.1043339999999944
21
-94.048214999999999
0
LINE
8
F.Mask
6
CONTINUOUS
10
157.1043339999999944
20
-94.048214999999999
11
157.1043339999999944
21
-93.8717850000000027
0
LINE
8
F.Mask
6
CONTINUOUS
10
157.1043339999999944
20
-93.8717850000000027
11
157.1387540000000058
21
-93.6987439999999907
0
LINE
8
F.Mask
6
CONTINUOUS
10
157.1387540000000058
20
-93.6987439999999907
11
157.2062709999999868
21
-93.5357429999999965
0
LINE
8
F.Mask
6
CONTINUOUS
10
157.2062709999999868
20
-93.5357429999999965
11
157.3042910000000063
21
-93.3890459999999933
0
LINE
8
F.Mask
6
CONTINUOUS
10
157.3042910000000063
20
-93.3890459999999933
11
157.4290459999999996
21
-93.2642910000000001
0
LINE
8
F.Mask
6
CONTINUOUS
10
157.4290459999999996
20
-93.2642910000000001
11
157.5757429999999886
21
-93.1662709999999947
0
LINE
8
F.Mask
6
CONTINUOUS
10
157.5757429999999886
20
-93.1662709999999947
11
157.738743999999997
21
-93.0987539999999996
0
LINE
8
F.Mask
6
CONTINUOUS
10
157.738743999999997
20
-93.0987539999999996
11
157.9117849999999805
21
-93.0643340000000023
0
LINE
8
F.Mask
6
CONTINUOUS
10
157.9117849999999805
20
-93.0643340000000023
11
158.0882149999999911
21
-93.0643340000000023
0
LINE
8
F.Mask
6
CONTINUOUS
10
158.0882149999999911
20
-93.0643340000000023
11
158.261256000000003
21
-93.0987539999999996
0
LINE
8
F.Mask
6
CONTINUOUS
10
151.8501679999999965
20
-91.541444999999996
11
152.074025000000006
21
-91.6141810000000021
0
LINE
8
F.Mask
6
CONTINUOUS
10
152.074025000000006
20
-91.6141810000000021
11
152.2837480000000028
21
-91.7210400000000021
0
LINE
8
F.Mask
6
CONTINUOUS
10
152.2837480000000028
20
-91.7210400000000021
11
152.4741719999999816
21
-91.8593910000000022
0
LINE
8
F.Mask
6
CONTINUOUS
10
152.4741719999999816
20
-91.8593910000000022
11
152.6406089999999836
21
-92.02582799999999
0
LINE
8
F.Mask
6
CONTINUOUS
10
152.6406089999999836
20
-92.02582799999999
11
152.7789599999999837
21
-92.2162519999999972
0
LINE
8
F.Mask
6
CONTINUOUS
10
152.7789599999999837
20
-92.2162519999999972
11
152.8858189999999979
21
-92.425974999999994
0
LINE
8
F.Mask
6
CONTINUOUS
10
152.8858189999999979
20
-92.425974999999994
11
152.9585549999999898
21
-92.6498319999999893
0
LINE
8
F.Mask
6
CONTINUOUS
10
152.9585549999999898
20
-92.6498319999999893
11
152.9953759999999932
21
-92.8823110000000014
0
LINE
8
F.Mask
6
CONTINUOUS
10
152.9953759999999932
20
-92.8823110000000014
11
152.9953759999999932
21
-93.1176889999999986
0
LINE
8
F.Mask
6
CONTINUOUS
10
152.9953759999999932
20
-93.1176889999999986
11
152.9585549999999898
21
-93.3501679999999965
0
LINE
8
F.Mask
6
CONTINUOUS
10
152.9585549999999898
20
-93.3501679999999965
11
152.8858189999999979
21
-93.5740249999999918
0
LINE
8
F.Mask
6
CONTINUOUS
10
152.8858189999999979
20
-93.5740249999999918
11
152.7789599999999837
21
-93.7837480000000028
0
LINE
8
F.Mask
6
CONTINUOUS
10
152.7789599999999837
20
-93.7837480000000028
11
152.6406089999999836
21
-93.9741719999999958
0
LINE
8
F.Mask
6
CONTINUOUS
10
152.6406089999999836
20
-93.9741719999999958
11
152.4741719999999816
21
-94.1406089999999978
0
LINE
8
F.Mask
6
CONTINUOUS
10
152.4741719999999816
20
-94.1406089999999978
11
152.2837480000000028
21
-94.2789599999999979
0
LINE
8
F.Mask
6
CONTINUOUS
10
152.2837480000000028
20
-94.2789599999999979
11
152.074025000000006
21
-94.3858189999999979
0
LINE
8
F.Mask
6
CONTINUOUS
10
152.074025000000006
20
-94.3858189999999979
11
151.8501679999999965
21
-94.4585549999999898
0
LINE
8
F.Mask
6
CONTINUOUS
10
151.8501679999999965
20
-94.4585549999999898
11
151.6176889999999844
21
-94.4953759999999932
0
LINE
8
F.Mask
6
CONTINUOUS
10
151.6176889999999844
20
-94.4953759999999932
11
151.3823109999999872
21
-94.4953759999999932
0
LINE
8
F.Mask
6
CONTINUOUS
10
151.3823109999999872
20
-94.4953759999999932
11
151.1498320000000035
21
-94.4585549999999898
0
LINE
8
F.Mask
6
CONTINUOUS
10
151.1498320000000035
20
-94.4585549999999898
11
150.925974999999994
21
-94.3858189999999979
0
LINE
8
F.Mask
6
CONTINUOUS
10
150.925974999999994
20
-94.3858189999999979
11
150.7162519999999972
21
-94.2789599999999979
0
LINE
8
F.Mask
6
CONTINUOUS
10
150.7162519999999972
20
-94.2789599999999979
11
150.52582799999999
21
-94.1406089999999978
0
LINE
8
F.Mask
6
CONTINUOUS
10
150.52582799999999
20
-94.1406089999999978
11
150.359390999999988
21
-93.9741719999999958
0
LINE
8
F.Mask
6
CONTINUOUS
10
150.359390999999988
20
-93.9741719999999958
11
150.2210399999999879
21
-93.7837480000000028
0
LINE
8
F.Mask
6
CONTINUOUS
10
150.2210399999999879
20
-93.7837480000000028
11
150.1141810000000021
21
-93.5740249999999918
0
LINE
8
F.Mask
6
CONTINUOUS
10
150.1141810000000021
20
-93.5740249999999918
11
150.0414449999999817
21
-93.3501679999999965
0
LINE
8
F.Mask
6
CONTINUOUS
10
150.0414449999999817
20
-93.3501679999999965
11
150.0046240000000068
21
-93.1176889999999986
0
LINE
8
F.Mask
6
CONTINUOUS
10
150.0046240000000068
20
-93.1176889999999986
11
150.0046240000000068
21
-92.8823110000000014
0
LINE
8
F.Mask
6
CONTINUOUS
10
150.0046240000000068
20
-92.8823110000000014
11
150.0414449999999817
21
-92.6498319999999893
0
LINE
8
F.Mask
6
CONTINUOUS
10
150.0414449999999817
20
-92.6498319999999893
11
150.1141810000000021
21
-92.425974999999994
0
LINE
8
F.Mask
6
CONTINUOUS
10
150.1141810000000021
20
-92.425974999999994
11
150.2210399999999879
21
-92.2162519999999972
0
LINE
8
F.Mask
6
CONTINUOUS
10
150.2210399999999879
20
-92.2162519999999972
11
150.359390999999988
21
-92.02582799999999
0
LINE
8
F.Mask
6
CONTINUOUS
10
150.359390999999988
20
-92.02582799999999
11
150.52582799999999
21
-91.8593910000000022
0
LINE
8
F.Mask
6
CONTINUOUS
10
150.52582799999999
20
-91.8593910000000022
11
150.7162519999999972
21
-91.7210400000000021
0
LINE
8
F.Mask
6
CONTINUOUS
10
150.7162519999999972
20
-91.7210400000000021
11
150.925974999999994
21
-91.6141810000000021
0
LINE
8
F.Mask
6
CONTINUOUS
10
150.925974999999994
20
-91.6141810000000021
11
151.1498320000000035
21
-91.541444999999996
0
LINE
8
F.Mask
6
CONTINUOUS
10
151.1498320000000035
20
-91.541444999999996
11
151.3823109999999872
21
-91.5046239999999926
0
LINE
8
F.Mask
6
CONTINUOUS
10
151.3823109999999872
20
-91.5046239999999926
11
151.6176889999999844
21
-91.5046239999999926
0
LINE
8
F.Mask
6
CONTINUOUS
10
151.6176889999999844
20
-91.5046239999999926
11
151.8501679999999965
21
-91.541444999999996
0
LINE
8
F.Mask
6
CONTINUOUS
10
132.5783160000000009
20
-92.585132999999999
11
132.7296100000000081
21
-92.6256719999999945
0
LINE
8
F.Mask
6
CONTINUOUS
10
132.7296100000000081
20
-92.6256719999999945
11
132.8652569999999855
21
-92.7039879999999954
0
LINE
8
F.Mask
6
CONTINUOUS
10
132.8652569999999855
20
-92.7039879999999954
11
132.9760119999999972
21
-92.8147429999999929
0
LINE
8
F.Mask
6
CONTINUOUS
10
132.9760119999999972
20
-92.8147429999999929
11
133.0543279999999982
21
-92.9503899999999987
0
LINE
8
F.Mask
6
CONTINUOUS
10
133.0543279999999982
20
-92.9503899999999987
11
133.0948669999999936
21
-93.1016839999999917
0
LINE
8
F.Mask
6
CONTINUOUS
10
133.0948669999999936
20
-93.1016839999999917
11
133.0948669999999936
21
-93.2583159999999936
0
LINE
8
F.Mask
6
CONTINUOUS
10
133.0948669999999936
20
-93.2583159999999936
11
133.0543279999999982
21
-93.4096100000000007
0
LINE
8
F.Mask
6
CONTINUOUS
10
133.0543279999999982
20
-93.4096100000000007
11
132.9760119999999972
21
-93.5452569999999923
0
LINE
8
F.Mask
6
CONTINUOUS
10
132.9760119999999972
20
-93.5452569999999923
11
132.8652569999999855
21
-93.6560119999999898
0
LINE
8
F.Mask
6
CONTINUOUS
10
132.8652569999999855
20
-93.6560119999999898
11
132.7296100000000081
21
-93.7343279999999908
0
LINE
8
F.Mask
6
CONTINUOUS
10
132.7296100000000081
20
-93.7343279999999908
11
132.5783160000000009
21
-93.7748670000000004
0
LINE
8
F.Mask
6
CONTINUOUS
10
132.5783160000000009
20
-93.7748670000000004
11
132.5
21
-93.7800000000000011
0
LINE
8
F.Mask
6
CONTINUOUS
10
132.5
20
-93.7800000000000011
11
131.9000000000000057
21
-93.7800000000000011
0
LINE
8
F.Mask
6
CONTINUOUS
10
131.9000000000000057
20
-93.7800000000000011
11
131.8216840000000047
21
-93.7748670000000004
0
LINE
8
F.Mask
6
CONTINUOUS
10
131.8216840000000047
20
-93.7748670000000004
11
131.6703899999999976
21
-93.7343279999999908
0
LINE
8
F.Mask
6
CONTINUOUS
10
131.6703899999999976
20
-93.7343279999999908
11
131.5347429999999918
21
-93.6560119999999898
0
LINE
8
F.Mask
6
CONTINUOUS
10
131.5347429999999918
20
-93.6560119999999898
11
131.42398799999998
21
-93.5452569999999923
0
LINE
8
F.Mask
6
CONTINUOUS
10
131.42398799999998
20
-93.5452569999999923
11
131.3456720000000075
21
-93.4096100000000007
0
LINE
8
F.Mask
6
CONTINUOUS
10
131.3456720000000075
20
-93.4096100000000007
11
131.3051329999999837
21
-93.2583159999999936
0
LINE
8
F.Mask
6
CONTINUOUS
10
131.3051329999999837
20
-93.2583159999999936
11
131.3051329999999837
21
-93.1016839999999917
0
LINE
8
F.Mask
6
CONTINUOUS
10
131.3051329999999837
20
-93.1016839999999917
11
131.3456720000000075
21
-92.9503899999999987
0
LINE
8
F.Mask
6
CONTINUOUS
10
131.3456720000000075
20
-92.9503899999999987
11
131.42398799999998
21
-92.8147429999999929
0
LINE
8
F.Mask
6
CONTINUOUS
10
131.42398799999998
20
-92.8147429999999929
11
131.5347429999999918
21
-92.7039879999999954
0
LINE
8
F.Mask
6
CONTINUOUS
10
131.5347429999999918
20
-92.7039879999999954
11
131.6703899999999976
21
-92.6256719999999945
0
LINE
8
F.Mask
6
CONTINUOUS
10
131.6703899999999976
20
-92.6256719999999945
11
131.8216840000000047
21
-92.585132999999999
0
LINE
8
F.Mask
6
CONTINUOUS
10
131.8216840000000047
20
-92.585132999999999
11
131.9000000000000057
21
-92.5799999999999983
0
LINE
8
F.Mask
6
CONTINUOUS
10
131.9000000000000057
20
-92.5799999999999983
11
132.5
21
-92.5799999999999983
0
LINE
8
F.Mask
6
CONTINUOUS
10
132.5
20
-92.5799999999999983
11
132.5783160000000009
21
-92.585132999999999
0
LINE
8
F.Mask
6
CONTINUOUS
10
136.3783159999999839
20
-92.585132999999999
11
136.529609999999991
21
-92.6256719999999945
0
LINE
8
F.Mask
6
CONTINUOUS
10
136.529609999999991
20
-92.6256719999999945
11
136.6652569999999969
21
-92.7039879999999954
0
LINE
8
F.Mask
6
CONTINUOUS
10
136.6652569999999969
20
-92.7039879999999954
11
136.7760119999999802
21
-92.8147429999999929
0
LINE
8
F.Mask
6
CONTINUOUS
10
136.7760119999999802
20
-92.8147429999999929
11
136.8543279999999811
21
-92.9503899999999987
0
LINE
8
F.Mask
6
CONTINUOUS
10
136.8543279999999811
20
-92.9503899999999987
11
136.894867000000005
21
-93.1016839999999917
0
LINE
8
F.Mask
6
CONTINUOUS
10
136.894867000000005
20
-93.1016839999999917
11
136.894867000000005
21
-93.2583159999999936
0
LINE
8
F.Mask
6
CONTINUOUS
10
136.894867000000005
20
-93.2583159999999936
11
136.8543279999999811
21
-93.4096100000000007
0
LINE
8
F.Mask
6
CONTINUOUS
10
136.8543279999999811
20
-93.4096100000000007
11
136.7760119999999802
21
-93.5452569999999923
0
LINE
8
F.Mask
6
CONTINUOUS
10
136.7760119999999802
20
-93.5452569999999923
11
136.6652569999999969
21
-93.6560119999999898
0
LINE
8
F.Mask
6
CONTINUOUS
10
136.6652569999999969
20
-93.6560119999999898
11
136.529609999999991
21
-93.7343279999999908
0
LINE
8
F.Mask
6
CONTINUOUS
10
136.529609999999991
20
-93.7343279999999908
11
136.3783159999999839
21
-93.7748670000000004
0
LINE
8
F.Mask
6
CONTINUOUS
10
136.3783159999999839
20
-93.7748670000000004
11
136.2999999999999829
21
-93.7800000000000011
0
LINE
8
F.Mask
6
CONTINUOUS
10
136.2999999999999829
20
-93.7800000000000011
11
135.6999999999999886
21
-93.7800000000000011
0
LINE
8
F.Mask
6
CONTINUOUS
10
135.6999999999999886
20
-93.7800000000000011
11
135.6216839999999877
21
-93.7748670000000004
0
LINE
8
F.Mask
6
CONTINUOUS
10
135.6216839999999877
20
-93.7748670000000004
11
135.4703899999999805
21
-93.7343279999999908
0
LINE
8
F.Mask
6
CONTINUOUS
10
135.4703899999999805
20
-93.7343279999999908
11
135.3347430000000031
21
-93.6560119999999898
0
LINE
8
F.Mask
6
CONTINUOUS
10
135.3347430000000031
20
-93.6560119999999898
11
135.2239879999999914
21
-93.5452569999999923
0
LINE
8
F.Mask
6
CONTINUOUS
10
135.2239879999999914
20
-93.5452569999999923
11
135.1456719999999905
21
-93.4096100000000007
0
LINE
8
F.Mask
6
CONTINUOUS
10
135.1456719999999905
20
-93.4096100000000007
11
135.105132999999995
21
-93.2583159999999936
0
LINE
8
F.Mask
6
CONTINUOUS
10
135.105132999999995
20
-93.2583159999999936
11
135.105132999999995
21
-93.1016839999999917
0
LINE
8
F.Mask
6
CONTINUOUS
10
135.105132999999995
20
-93.1016839999999917
11
135.1456719999999905
21
-92.9503899999999987
0
LINE
8
F.Mask
6
CONTINUOUS
10
135.1456719999999905
20
-92.9503899999999987
11
135.2239879999999914
21
-92.8147429999999929
0
LINE
8
F.Mask
6
CONTINUOUS
10
135.2239879999999914
20
-92.8147429999999929
11
135.3347430000000031
21
-92.7039879999999954
0
LINE
8
F.Mask
6
CONTINUOUS
10
135.3347430000000031
20
-92.7039879999999954
11
135.4703899999999805
21
-92.6256719999999945
0
LINE
8
F.Mask
6
CONTINUOUS
10
135.4703899999999805
20
-92.6256719999999945
11
135.6216839999999877
21
-92.585132999999999
0
LINE
8
F.Mask
6
CONTINUOUS
10
135.6216839999999877
20
-92.585132999999999
11
135.6999999999999886
21
-92.5799999999999983
0
LINE
8
F.Mask
6
CONTINUOUS
10
135.6999999999999886
20
-92.5799999999999983
11
136.2999999999999829
21
-92.5799999999999983
0
LINE
8
F.Mask
6
CONTINUOUS
10
136.2999999999999829
20
-92.5799999999999983
11
136.3783159999999839
21
-92.585132999999999
0
CIRCLE
8
F.Mask
10
155.4599999999999795
20
-93.9599999999999937
40
0.175
0
CIRCLE
8
F.Mask
10
158.
20
-93.9599999999999937
40
0.175
0
CIRCLE
8
F.Mask
10
155.4599999999999795
20
-96.5
40
0.175
0
CIRCLE
8
F.Mask
10
158.
20
-96.5
40
0.175
0
CIRCLE
8
F.Mask
10
155.4599999999999795
20
-99.039999999999992
40
0.175
0
CIRCLE
8
F.Mask
10
158.
20
-99.039999999999992
40
0.175
0
CIRCLE
8
F.Mask
10
155.4599999999999795
20
-101.5799999999999983
40
0.175
0
CIRCLE
8
F.Mask
10
158.
20
-101.5799999999999983
40
0.175
0
LINE
8
F.Mask
6
CONTINUOUS
10
136.2999999999999829
20
-92.6299999999999955
11
135.6999999999999886
21
-92.6299999999999955
0
ARC
8
F.Mask
10
135.6999999999999886
20
-93.1799999999999926
40
0.5499999999999999
50
90.00000000
51
270.00000000
0
LINE
8
F.Mask
6
CONTINUOUS
10
135.6999999999999886
20
-93.7299999999999898
11
136.2999999999999829
21
-93.7299999999999898
0
ARC
8
F.Mask
10
136.2999999999999829
20
-93.1799999999999926
40
0.5499999999999999
50
270.00000000
51
450.00000000
0
LINE
8
F.Mask
6
CONTINUOUS
10
132.5
20
-92.6299999999999955
11
131.9000000000000057
21
-92.6299999999999955
0
ARC
8
F.Mask
10
131.9000000000000057
20
-93.1799999999999926
40
0.5499999999999999
50
90.00000000
51
270.00000000
0
LINE
8
F.Mask
6
CONTINUOUS
10
131.9000000000000057
20
-93.7299999999999898
11
132.5
21
-93.7299999999999898
0
ARC
8
F.Mask
10
132.5
20
-93.1799999999999926
40
0.5499999999999999
50
270.00000000
51
450.00000000
0
LINE
8
F.Mask
6
CONTINUOUS
10
136.2999999999999829
20
-101.269999999999996
11
135.6999999999999886
21
-101.269999999999996
0
ARC
8
F.Mask
10
135.6999999999999886
20
-101.8199999999999932
40
0.5499999999999999
50
90.00000000
51
270.00000000
0
LINE
8
F.Mask
6
CONTINUOUS
10
135.6999999999999886
20
-102.3699999999999903
11
136.2999999999999829
21
-102.3699999999999903
0
ARC
8
F.Mask
10
136.2999999999999829
20
-101.8199999999999932
40
0.5499999999999999
50
270.00000000
51
450.00000000
0
LINE
8
F.Mask
6
CONTINUOUS
10
132.5
20
-101.269999999999996
11
131.9000000000000057
21
-101.269999999999996
0
ARC
8
F.Mask
10
131.9000000000000057
20
-101.8199999999999932
40
0.5499999999999999
50
90.00000000
51
270.00000000
0
LINE
8
F.Mask
6
CONTINUOUS
10
131.9000000000000057
20
-102.3699999999999903
11
132.5
21
-102.3699999999999903
0
ARC
8
F.Mask
10
132.5
20
-101.8199999999999932
40
0.5499999999999999
50
270.00000000
51
450.00000000
0
CIRCLE
8
F.Mask
10
155.4599999999999795
20
-93.9599999999999937
40
0.175
0
CIRCLE
8
F.Mask
10
158.
20
-93.9599999999999937
40
0.175
0
CIRCLE
8
F.Mask
10
155.4599999999999795
20
-96.5
40
0.175
0
CIRCLE
8
F.Mask
10
158.
20
-96.5
40
0.175
0
CIRCLE
8
F.Mask
10
155.4599999999999795
20
-99.039999999999992
40
0.175
0
CIRCLE
8
F.Mask
10
158.
20
-99.039999999999992
40
0.175
0
CIRCLE
8
F.Mask
10
155.4599999999999795
20
-101.5799999999999983
40
0.175
0
CIRCLE
8
F.Mask
10
158.
20
-101.5799999999999983
40
0.175
0
LINE
8
F.Mask
6
CONTINUOUS
10
136.2999999999999829
20
-92.8799999999999955
11
135.6999999999999886
21
-92.8799999999999955
0
ARC
8
F.Mask
10
135.6999999999999886
20
-93.1799999999999926
40
0.3
50
90.00000000
51
270.00000000
0
LINE
8
F.Mask
6
CONTINUOUS
10
135.6999999999999886
20
-93.4799999999999898
11
136.2999999999999829
21
-93.4799999999999898
0
ARC
8
F.Mask
10
136.2999999999999829
20
-93.1799999999999926
40
0.3
50
270.00000000
51
450.00000000
0
LINE
8
F.Mask
6
CONTINUOUS
10
132.5
20
-92.8799999999999955
11
131.9000000000000057
21
-92.8799999999999955
0
ARC
8
F.Mask
10
131.9000000000000057
20
-93.1799999999999926
40
0.3
50
90.00000000
51
270.00000000
0
LINE
8
F.Mask
6
CONTINUOUS
10
131.9000000000000057
20
-93.4799999999999898
11
132.5
21
-93.4799999999999898
0
ARC
8
F.Mask
10
132.5
20
-93.1799999999999926
40
0.3
50
270.00000000
51
450.00000000
0
LINE
8
F.Mask
6
CONTINUOUS
10
136.2999999999999829
20
-101.519999999999996
11
135.6999999999999886
21
-101.519999999999996
0
ARC
8
F.Mask
10
135.6999999999999886
20
-101.8199999999999932
40
0.3
50
90.00000000
51
270.00000000
0
LINE
8
F.Mask
6
CONTINUOUS
10
135.6999999999999886
20
-102.1199999999999903
11
136.2999999999999829
21
-102.1199999999999903
0
ARC
8
F.Mask
10
136.2999999999999829
20
-101.8199999999999932
40
0.3
50
270.00000000
51
450.00000000
0
LINE
8
F.Mask
6
CONTINUOUS
10
132.5
20
-101.519999999999996
11
131.9000000000000057
21
-101.519999999999996
0
ARC
8
F.Mask
10
131.9000000000000057
20
-101.8199999999999932
40
0.3
50
90.00000000
51
270.00000000
0
LINE
8
F.Mask
6
CONTINUOUS
10
131.9000000000000057
20
-102.1199999999999903
11
132.5
21
-102.1199999999999903
0
ARC
8
F.Mask
10
132.5
20
-101.8199999999999932
40
0.3
50
270.00000000
51
450.00000000
  0
ENDSEC
  0
EOF
