  0
SECTION
  2
HEADER
  9
$ANGBASE
  50
0.0
  9
$ANGDIR
  70
1
  9
$MEASUREMENT
  70
1
  9
$INSUNITS
  70
4
  0
ENDSEC
  0
SECTION
  2
TABLES
  0
TABLE
  2
LTYPE
  70
4
  0
LTYPE
  5
40F
  2
CONTINUOUS
  70
0
  3
Solid line
  72
65
  73
0
  40
0.0
  0
LTYPE
  5
410
  2
DASHDOT
 70
0
  3
Dash Dot ____ _ ____ _
 72
65
 73
4
 40
2.0
 49
1.25
 49
-0.25
 49
0.25
 49
-0.25
  0
LTYPE
  5
411
  2
DASHED
 70
0
  3
Dashed __ __ __ __ __
 72
65
 73
2
 40
0.75
 49
0.5
 49
-0.25
  0
LTYPE
  5
43B
  2
DOTTED
 70
0
  3
Dotted .  .  .  .
 72
65
 73
2
 40
0.2
 49
0.0
 49
-0.2
  0
ENDTAB
  0
TABLE
  2
STYLE
  70
4
  0
STYLE
  2
KICAD
  70
0
  40
0
  41
1
  42
1
  50
0
  71
0
  3
isocp.shx
  0
STYLE
  2
KICADB
  70
0
  40
0
  41
1
  42
1
  50
0
  71
0
  3
isocp.shx
  0
STYLE
  2
KICADI
  70
0
  40
0
  41
1
  42
1
  50
15
  71
0
  3
isocp.shx
  0
STYLE
  2
KICADBI
  70
0
  40
0
  41
1
  42
1
  50
15
  71
0
  3
isocp.shx
  0
ENDTAB
  0
TABLE
  2
LAYER
  70
9
  0
LAYER
  2
L1 (Sig, PWR)
  70
0
  62
13
  420
13120564
  6
CONTINUOUS
  0
LAYER
  2
L6 (Sig, PWR)
  70
0
  62
153
  420
5078980
  6
CONTINUOUS
  0
LAYER
  2
F.Paste
  70
0
  62
253
  420
11837594
  6
CONTINUOUS
  0
LAYER
  2
B.Paste
  70
0
  62
132
  420
49858
  6
CONTINUOUS
  0
LAYER
  2
F.Silkscreen
  70
0
  62
41
  420
15920545
  6
CONTINUOUS
  0
LAYER
  2
B.Silkscreen
  70
0
  62
31
  420
15250087
  6
CONTINUOUS
  0
LAYER
  2
F.Mask
  70
0
  62
201
  420
14181631
  6
CONTINUOUS
  0
LAYER
  2
B.Mask
  70
0
  62
4
  420
196590
  6
CONTINUOUS
  0
LAYER
  2
Edge.Cuts
  70
0
  62
254
  420
13685453
  6
CONTINUOUS
  0
ENDTAB
  0
ENDSEC
  0
SECTION
  2
ENTITIES
0
LINE
8
F.Paste
6
CONTINUOUS
10
132.5717889999999954
20
-101.2747049999999973
11
132.7104759999999999
21
-101.3118659999999949
0
LINE
8
F.Paste
6
CONTINUOUS
10
132.7104759999999999
20
-101.3118659999999949
11
132.8348189999999818
21
-101.383656000000002
0
LINE
8
F.Paste
6
CONTINUOUS
10
132.8348189999999818
20
-101.383656000000002
11
132.9363439999999912
21
-101.4851809999999972
0
LINE
8
F.Paste
6
CONTINUOUS
10
132.9363439999999912
20
-101.4851809999999972
11
133.0081339999999841
21
-101.6095239999999933
0
LINE
8
F.Paste
6
CONTINUOUS
10
133.0081339999999841
20
-101.6095239999999933
11
133.0452949999999817
21
-101.7482109999999977
0
LINE
8
F.Paste
6
CONTINUOUS
10
133.0452949999999817
20
-101.7482109999999977
11
133.0452949999999817
21
-101.8917889999999886
0
LINE
8
F.Paste
6
CONTINUOUS
10
133.0452949999999817
20
-101.8917889999999886
11
133.0081339999999841
21
-102.0304759999999931
0
LINE
8
F.Paste
6
CONTINUOUS
10
133.0081339999999841
20
-102.0304759999999931
11
132.9363439999999912
21
-102.1548189999999892
0
LINE
8
F.Paste
6
CONTINUOUS
10
132.9363439999999912
20
-102.1548189999999892
11
132.8348189999999818
21
-102.2563439999999986
0
LINE
8
F.Paste
6
CONTINUOUS
10
132.8348189999999818
20
-102.2563439999999986
11
132.7104759999999999
21
-102.3281339999999915
0
LINE
8
F.Paste
6
CONTINUOUS
10
132.7104759999999999
20
-102.3281339999999915
11
132.5717889999999954
21
-102.365294999999989
0
LINE
8
F.Paste
6
CONTINUOUS
10
132.5717889999999954
20
-102.365294999999989
11
132.5
21
-102.3699999999999903
0
LINE
8
F.Paste
6
CONTINUOUS
10
132.5
20
-102.3699999999999903
11
131.9000000000000057
21
-102.3699999999999903
0
LINE
8
F.Paste
6
CONTINUOUS
10
131.9000000000000057
20
-102.3699999999999903
11
131.8282109999999818
21
-102.365294999999989
0
LINE
8
F.Paste
6
CONTINUOUS
10
131.8282109999999818
20
-102.365294999999989
11
131.6895240000000058
21
-102.3281339999999915
0
LINE
8
F.Paste
6
CONTINUOUS
10
131.6895240000000058
20
-102.3281339999999915
11
131.5651809999999955
21
-102.2563439999999986
0
LINE
8
F.Paste
6
CONTINUOUS
10
131.5651809999999955
20
-102.2563439999999986
11
131.4636559999999861
21
-102.1548189999999892
0
LINE
8
F.Paste
6
CONTINUOUS
10
131.4636559999999861
20
-102.1548189999999892
11
131.3918659999999932
21
-102.0304759999999931
0
LINE
8
F.Paste
6
CONTINUOUS
10
131.3918659999999932
20
-102.0304759999999931
11
131.3547049999999956
21
-101.8917889999999886
0
LINE
8
F.Paste
6
CONTINUOUS
10
131.3547049999999956
20
-101.8917889999999886
11
131.3547049999999956
21
-101.7482109999999977
0
LINE
8
F.Paste
6
CONTINUOUS
10
131.3547049999999956
20
-101.7482109999999977
11
131.3918659999999932
21
-101.6095239999999933
0
LINE
8
F.Paste
6
CONTINUOUS
10
131.3918659999999932
20
-101.6095239999999933
11
131.4636559999999861
21
-101.4851809999999972
0
LINE
8
F.Paste
6
CONTINUOUS
10
131.4636559999999861
20
-101.4851809999999972
11
131.5651809999999955
21
-101.383656000000002
0
LINE
8
F.Paste
6
CONTINUOUS
10
131.5651809999999955
20
-101.383656000000002
11
131.6895240000000058
21
-101.3118659999999949
0
LINE
8
F.Paste
6
CONTINUOUS
10
131.6895240000000058
20
-101.3118659999999949
11
131.8282109999999818
21
-101.2747049999999973
0
LINE
8
F.Paste
6
CONTINUOUS
10
131.8282109999999818
20
-101.2747049999999973
11
131.9000000000000057
21
-101.269999999999996
0
LINE
8
F.Paste
6
CONTINUOUS
10
131.9000000000000057
20
-101.269999999999996
11
132.5
21
-101.269999999999996
0
LINE
8
F.Paste
6
CONTINUOUS
10
132.5
20
-101.269999999999996
11
132.5717889999999954
21
-101.2747049999999973
0
LINE
8
F.Paste
6
CONTINUOUS
10
136.3717890000000068
20
-101.2747049999999973
11
136.5104759999999828
21
-101.3118659999999949
0
LINE
8
F.Paste
6
CONTINUOUS
10
136.5104759999999828
20
-101.3118659999999949
11
136.6348189999999931
21
-101.383656000000002
0
LINE
8
F.Paste
6
CONTINUOUS
10
136.6348189999999931
20
-101.383656000000002
11
136.7363440000000026
21
-101.4851809999999972
0
LINE
8
F.Paste
6
CONTINUOUS
10
136.7363440000000026
20
-101.4851809999999972
11
136.8081339999999955
21
-101.6095239999999933
0
LINE
8
F.Paste
6
CONTINUOUS
10
136.8081339999999955
20
-101.6095239999999933
11
136.845294999999993
21
-101.7482109999999977
0
LINE
8
F.Paste
6
CONTINUOUS
10
136.845294999999993
20
-101.7482109999999977
11
136.845294999999993
21
-101.8917889999999886
0
LINE
8
F.Paste
6
CONTINUOUS
10
136.845294999999993
20
-101.8917889999999886
11
136.8081339999999955
21
-102.0304759999999931
0
LINE
8
F.Paste
6
CONTINUOUS
10
136.8081339999999955
20
-102.0304759999999931
11
136.7363440000000026
21
-102.1548189999999892
0
LINE
8
F.Paste
6
CONTINUOUS
10
136.7363440000000026
20
-102.1548189999999892
11
136.6348189999999931
21
-102.2563439999999986
0
LINE
8
F.Paste
6
CONTINUOUS
10
136.6348189999999931
20
-102.2563439999999986
11
136.5104759999999828
21
-102.3281339999999915
0
LINE
8
F.Paste
6
CONTINUOUS
10
136.5104759999999828
20
-102.3281339999999915
11
136.3717890000000068
21
-102.365294999999989
0
LINE
8
F.Paste
6
CONTINUOUS
10
136.3717890000000068
20
-102.365294999999989
11
136.2999999999999829
21
-102.3699999999999903
0
LINE
8
F.Paste
6
CONTINUOUS
10
136.2999999999999829
20
-102.3699999999999903
11
135.6999999999999886
21
-102.3699999999999903
0
LINE
8
F.Paste
6
CONTINUOUS
10
135.6999999999999886
20
-102.3699999999999903
11
135.6282109999999932
21
-102.365294999999989
0
LINE
8
F.Paste
6
CONTINUOUS
10
135.6282109999999932
20
-102.365294999999989
11
135.4895239999999887
21
-102.3281339999999915
0
LINE
8
F.Paste
6
CONTINUOUS
10
135.4895239999999887
20
-102.3281339999999915
11
135.3651810000000069
21
-102.2563439999999986
0
LINE
8
F.Paste
6
CONTINUOUS
10
135.3651810000000069
20
-102.2563439999999986
11
135.2636559999999974
21
-102.1548189999999892
0
LINE
8
F.Paste
6
CONTINUOUS
10
135.2636559999999974
20
-102.1548189999999892
11
135.1918660000000045
21
-102.0304759999999931
0
LINE
8
F.Paste
6
CONTINUOUS
10
135.1918660000000045
20
-102.0304759999999931
11
135.154705000000007
21
-101.8917889999999886
0
LINE
8
F.Paste
6
CONTINUOUS
10
135.154705000000007
20
-101.8917889999999886
11
135.154705000000007
21
-101.7482109999999977
0
LINE
8
F.Paste
6
CONTINUOUS
10
135.154705000000007
20
-101.7482109999999977
11
135.1918660000000045
21
-101.6095239999999933
0
LINE
8
F.Paste
6
CONTINUOUS
10
135.1918660000000045
20
-101.6095239999999933
11
135.2636559999999974
21
-101.4851809999999972
0
LINE
8
F.Paste
6
CONTINUOUS
10
135.2636559999999974
20
-101.4851809999999972
11
135.3651810000000069
21
-101.383656000000002
0
LINE
8
F.Paste
6
CONTINUOUS
10
135.3651810000000069
20
-101.383656000000002
11
135.4895239999999887
21
-101.3118659999999949
0
LINE
8
F.Paste
6
CONTINUOUS
10
135.4895239999999887
20
-101.3118659999999949
11
135.6282109999999932
21
-101.2747049999999973
0
LINE
8
F.Paste
6
CONTINUOUS
10
135.6282109999999932
20
-101.2747049999999973
11
135.6999999999999886
21
-101.269999999999996
0
LINE
8
F.Paste
6
CONTINUOUS
10
135.6999999999999886
20
-101.269999999999996
11
136.2999999999999829
21
-101.269999999999996
0
LINE
8
F.Paste
6
CONTINUOUS
10
136.2999999999999829
20
-101.269999999999996
11
136.3717890000000068
21
-101.2747049999999973
0
LINE
8
F.Paste
6
CONTINUOUS
10
147.7212289999999939
20
-101.1296789999999959
11
147.7731369999999913
21
-101.1643629999999945
0
LINE
8
F.Paste
6
CONTINUOUS
10
147.7731369999999913
20
-101.1643629999999945
11
147.8078209999999899
21
-101.2162709999999919
0
LINE
8
F.Paste
6
CONTINUOUS
10
147.8078209999999899
20
-101.2162709999999919
11
147.8199999999999932
21
-101.2774999999999892
0
LINE
8
F.Paste
6
CONTINUOUS
10
147.8199999999999932
20
-101.2774999999999892
11
147.8199999999999932
21
-101.7224999999999966
0
LINE
8
F.Paste
6
CONTINUOUS
10
147.8199999999999932
20
-101.7224999999999966
11
147.8078209999999899
21
-101.7837289999999939
0
LINE
8
F.Paste
6
CONTINUOUS
10
147.8078209999999899
20
-101.7837289999999939
11
147.7731369999999913
21
-101.8356369999999913
0
LINE
8
F.Paste
6
CONTINUOUS
10
147.7731369999999913
20
-101.8356369999999913
11
147.7212289999999939
21
-101.8703209999999899
0
LINE
8
F.Paste
6
CONTINUOUS
10
147.7212289999999939
20
-101.8703209999999899
11
147.6599999999999966
21
-101.8824999999999932
0
LINE
8
F.Paste
6
CONTINUOUS
10
147.6599999999999966
20
-101.8824999999999932
11
147.3400000000000034
21
-101.8824999999999932
0
LINE
8
F.Paste
6
CONTINUOUS
10
147.3400000000000034
20
-101.8824999999999932
11
147.2787710000000061
21
-101.8703209999999899
0
LINE
8
F.Paste
6
CONTINUOUS
10
147.2787710000000061
20
-101.8703209999999899
11
147.2268629999999803
21
-101.8356369999999913
0
LINE
8
F.Paste
6
CONTINUOUS
10
147.2268629999999803
20
-101.8356369999999913
11
147.1921789999999817
21
-101.7837289999999939
0
LINE
8
F.Paste
6
CONTINUOUS
10
147.1921789999999817
20
-101.7837289999999939
11
147.1800000000000068
21
-101.7224999999999966
0
LINE
8
F.Paste
6
CONTINUOUS
10
147.1800000000000068
20
-101.7224999999999966
11
147.1800000000000068
21
-101.2774999999999892
0
LINE
8
F.Paste
6
CONTINUOUS
10
147.1800000000000068
20
-101.2774999999999892
11
147.1921789999999817
21
-101.2162709999999919
0
LINE
8
F.Paste
6
CONTINUOUS
10
147.1921789999999817
20
-101.2162709999999919
11
147.2268629999999803
21
-101.1643629999999945
0
LINE
8
F.Paste
6
CONTINUOUS
10
147.2268629999999803
20
-101.1643629999999945
11
147.2787710000000061
21
-101.1296789999999959
0
LINE
8
F.Paste
6
CONTINUOUS
10
147.2787710000000061
20
-101.1296789999999959
11
147.3400000000000034
21
-101.1174999999999926
0
LINE
8
F.Paste
6
CONTINUOUS
10
147.3400000000000034
20
-101.1174999999999926
11
147.6599999999999966
21
-101.1174999999999926
0
LINE
8
F.Paste
6
CONTINUOUS
10
147.6599999999999966
20
-101.1174999999999926
11
147.7212289999999939
21
-101.1296789999999959
0
LINE
8
F.Paste
6
CONTINUOUS
10
147.7212289999999939
20
-99.9846789999999999
11
147.7731369999999913
21
-100.0193629999999985
0
LINE
8
F.Paste
6
CONTINUOUS
10
147.7731369999999913
20
-100.0193629999999985
11
147.8078209999999899
21
-100.0712709999999959
0
LINE
8
F.Paste
6
CONTINUOUS
10
147.8078209999999899
20
-100.0712709999999959
11
147.8199999999999932
21
-100.1324999999999932
0
LINE
8
F.Paste
6
CONTINUOUS
10
147.8199999999999932
20
-100.1324999999999932
11
147.8199999999999932
21
-100.5775000000000006
0
LINE
8
F.Paste
6
CONTINUOUS
10
147.8199999999999932
20
-100.5775000000000006
11
147.8078209999999899
21
-100.6387289999999979
0
LINE
8
F.Paste
6
CONTINUOUS
10
147.8078209999999899
20
-100.6387289999999979
11
147.7731369999999913
21
-100.6906369999999953
0
LINE
8
F.Paste
6
CONTINUOUS
10
147.7731369999999913
20
-100.6906369999999953
11
147.7212289999999939
21
-100.7253209999999939
0
LINE
8
F.Paste
6
CONTINUOUS
10
147.7212289999999939
20
-100.7253209999999939
11
147.6599999999999966
21
-100.7374999999999972
0
LINE
8
F.Paste
6
CONTINUOUS
10
147.6599999999999966
20
-100.7374999999999972
11
147.3400000000000034
21
-100.7374999999999972
0
LINE
8
F.Paste
6
CONTINUOUS
10
147.3400000000000034
20
-100.7374999999999972
11
147.2787710000000061
21
-100.7253209999999939
0
LINE
8
F.Paste
6
CONTINUOUS
10
147.2787710000000061
20
-100.7253209999999939
11
147.2268629999999803
21
-100.6906369999999953
0
LINE
8
F.Paste
6
CONTINUOUS
10
147.2268629999999803
20
-100.6906369999999953
11
147.1921789999999817
21
-100.6387289999999979
0
LINE
8
F.Paste
6
CONTINUOUS
10
147.1921789999999817
20
-100.6387289999999979
11
147.1800000000000068
21
-100.5775000000000006
0
LINE
8
F.Paste
6
CONTINUOUS
10
147.1800000000000068
20
-100.5775000000000006
11
147.1800000000000068
21
-100.1324999999999932
0
LINE
8
F.Paste
6
CONTINUOUS
10
147.1800000000000068
20
-100.1324999999999932
11
147.1921789999999817
21
-100.0712709999999959
0
LINE
8
F.Paste
6
CONTINUOUS
10
147.1921789999999817
20
-100.0712709999999959
11
147.2268629999999803
21
-100.0193629999999985
0
LINE
8
F.Paste
6
CONTINUOUS
10
147.2268629999999803
20
-100.0193629999999985
11
147.2787710000000061
21
-99.9846789999999999
0
LINE
8
F.Paste
6
CONTINUOUS
10
147.2787710000000061
20
-99.9846789999999999
11
147.3400000000000034
21
-99.9724999999999966
0
LINE
8
F.Paste
6
CONTINUOUS
10
147.3400000000000034
20
-99.9724999999999966
11
147.6599999999999966
21
-99.9724999999999966
0
LINE
8
F.Paste
6
CONTINUOUS
10
147.6599999999999966
20
-99.9724999999999966
11
147.7212289999999939
21
-99.9846789999999999
0
LINE
8
F.Paste
6
CONTINUOUS
10
136.5565369999999916
20
-99.8652239999999978
11
136.621420999999998
21
-99.9085789999999889
0
LINE
8
F.Paste
6
CONTINUOUS
10
136.621420999999998
20
-99.9085789999999889
11
136.6647759999999892
21
-99.9734629999999953
0
LINE
8
F.Paste
6
CONTINUOUS
10
136.6647759999999892
20
-99.9734629999999953
11
136.6800000000000068
21
-100.0499999999999972
0
LINE
8
F.Paste
6
CONTINUOUS
10
136.6800000000000068
20
-100.0499999999999972
11
136.6800000000000068
21
-100.4499999999999886
0
LINE
8
F.Paste
6
CONTINUOUS
10
136.6800000000000068
20
-100.4499999999999886
11
136.6647759999999892
21
-100.5265369999999905
0
LINE
8
F.Paste
6
CONTINUOUS
10
136.6647759999999892
20
-100.5265369999999905
11
136.621420999999998
21
-100.5914209999999969
0
LINE
8
F.Paste
6
CONTINUOUS
10
136.621420999999998
20
-100.5914209999999969
11
136.5565369999999916
21
-100.6347760000000022
0
LINE
8
F.Paste
6
CONTINUOUS
10
136.5565369999999916
20
-100.6347760000000022
11
136.4799999999999898
21
-100.6499999999999915
0
LINE
8
F.Paste
6
CONTINUOUS
10
136.4799999999999898
20
-100.6499999999999915
11
135.6800000000000068
21
-100.6499999999999915
0
LINE
8
F.Paste
6
CONTINUOUS
10
135.6800000000000068
20
-100.6499999999999915
11
135.603463000000005
21
-100.6347760000000022
0
LINE
8
F.Paste
6
CONTINUOUS
10
135.603463000000005
20
-100.6347760000000022
11
135.5385789999999986
21
-100.5914209999999969
0
LINE
8
F.Paste
6
CONTINUOUS
10
135.5385789999999986
20
-100.5914209999999969
11
135.4952240000000074
21
-100.5265369999999905
0
LINE
8
F.Paste
6
CONTINUOUS
10
135.4952240000000074
20
-100.5265369999999905
11
135.4799999999999898
21
-100.4499999999999886
0
LINE
8
F.Paste
6
CONTINUOUS
10
135.4799999999999898
20
-100.4499999999999886
11
135.4799999999999898
21
-100.0499999999999972
0
LINE
8
F.Paste
6
CONTINUOUS
10
135.4799999999999898
20
-100.0499999999999972
11
135.4952240000000074
21
-99.9734629999999953
0
LINE
8
F.Paste
6
CONTINUOUS
10
135.4952240000000074
20
-99.9734629999999953
11
135.5385789999999986
21
-99.9085789999999889
0
LINE
8
F.Paste
6
CONTINUOUS
10
135.5385789999999986
20
-99.9085789999999889
11
135.603463000000005
21
-99.8652239999999978
0
LINE
8
F.Paste
6
CONTINUOUS
10
135.603463000000005
20
-99.8652239999999978
11
135.6800000000000068
21
-99.8499999999999943
0
LINE
8
F.Paste
6
CONTINUOUS
10
135.6800000000000068
20
-99.8499999999999943
11
136.4799999999999898
21
-99.8499999999999943
0
LINE
8
F.Paste
6
CONTINUOUS
10
136.4799999999999898
20
-99.8499999999999943
11
136.5565369999999916
21
-99.8652239999999978
0
LINE
8
F.Paste
6
CONTINUOUS
10
141.5456709999999987
20
-98.4190299999999922
11
141.6267770000000041
21
-98.4732229999999902
0
LINE
8
F.Paste
6
CONTINUOUS
10
141.6267770000000041
20
-98.4732229999999902
11
141.6809700000000021
21
-98.5543289999999956
0
LINE
8
F.Paste
6
CONTINUOUS
10
141.6809700000000021
20
-98.5543289999999956
11
141.6999999999999886
21
-98.6499999999999915
0
LINE
8
F.Paste
6
CONTINUOUS
10
141.6999999999999886
20
-98.6499999999999915
11
141.6999999999999886
21
-99.3499999999999943
0
LINE
8
F.Paste
6
CONTINUOUS
10
141.6999999999999886
20
-99.3499999999999943
11
141.6809700000000021
21
-99.4456709999999902
0
LINE
8
F.Paste
6
CONTINUOUS
10
141.6809700000000021
20
-99.4456709999999902
11
141.6267770000000041
21
-99.5267769999999956
0
LINE
8
F.Paste
6
CONTINUOUS
10
141.6267770000000041
20
-99.5267769999999956
11
141.5456709999999987
21
-99.5809699999999935
0
LINE
8
F.Paste
6
CONTINUOUS
10
141.5456709999999987
20
-99.5809699999999935
11
141.4499999999999886
21
-99.5999999999999943
0
LINE
8
F.Paste
6
CONTINUOUS
10
141.4499999999999886
20
-99.5999999999999943
11
140.5499999999999829
21
-99.5999999999999943
0
LINE
8
F.Paste
6
CONTINUOUS
10
140.5499999999999829
20
-99.5999999999999943
11
140.4543290000000013
21
-99.5809699999999935
0
LINE
8
F.Paste
6
CONTINUOUS
10
140.4543290000000013
20
-99.5809699999999935
11
140.3732229999999959
21
-99.5267769999999956
0
LINE
8
F.Paste
6
CONTINUOUS
10
140.3732229999999959
20
-99.5267769999999956
11
140.3190299999999979
21
-99.4456709999999902
0
LINE
8
F.Paste
6
CONTINUOUS
10
140.3190299999999979
20
-99.4456709999999902
11
140.2999999999999829
21
-99.3499999999999943
0
LINE
8
F.Paste
6
CONTINUOUS
10
140.2999999999999829
20
-99.3499999999999943
11
140.2999999999999829
21
-98.6499999999999915
0
LINE
8
F.Paste
6
CONTINUOUS
10
140.2999999999999829
20
-98.6499999999999915
11
140.3190299999999979
21
-98.5543289999999956
0
LINE
8
F.Paste
6
CONTINUOUS
10
140.3190299999999979
20
-98.5543289999999956
11
140.3732229999999959
21
-98.4732229999999902
0
LINE
8
F.Paste
6
CONTINUOUS
10
140.3732229999999959
20
-98.4732229999999902
11
140.4543290000000013
21
-98.4190299999999922
0
LINE
8
F.Paste
6
CONTINUOUS
10
140.4543290000000013
20
-98.4190299999999922
11
140.5499999999999829
21
-98.3999999999999915
0
LINE
8
F.Paste
6
CONTINUOUS
10
140.5499999999999829
20
-98.3999999999999915
11
141.4499999999999886
21
-98.3999999999999915
0
LINE
8
F.Paste
6
CONTINUOUS
10
141.4499999999999886
20
-98.3999999999999915
11
141.5456709999999987
21
-98.4190299999999922
0
LINE
8
F.Paste
6
CONTINUOUS
10
146.0456709999999987
20
-98.4190299999999922
11
146.1267770000000041
21
-98.4732229999999902
0
LINE
8
F.Paste
6
CONTINUOUS
10
146.1267770000000041
20
-98.4732229999999902
11
146.1809700000000021
21
-98.5543289999999956
0
LINE
8
F.Paste
6
CONTINUOUS
10
146.1809700000000021
20
-98.5543289999999956
11
146.1999999999999886
21
-98.6499999999999915
0
LINE
8
F.Paste
6
CONTINUOUS
10
146.1999999999999886
20
-98.6499999999999915
11
146.1999999999999886
21
-99.3499999999999943
0
LINE
8
F.Paste
6
CONTINUOUS
10
146.1999999999999886
20
-99.3499999999999943
11
146.1809700000000021
21
-99.4456709999999902
0
LINE
8
F.Paste
6
CONTINUOUS
10
146.1809700000000021
20
-99.4456709999999902
11
146.1267770000000041
21
-99.5267769999999956
0
LINE
8
F.Paste
6
CONTINUOUS
10
146.1267770000000041
20
-99.5267769999999956
11
146.0456709999999987
21
-99.5809699999999935
0
LINE
8
F.Paste
6
CONTINUOUS
10
146.0456709999999987
20
-99.5809699999999935
11
145.9499999999999886
21
-99.5999999999999943
0
LINE
8
F.Paste
6
CONTINUOUS
10
145.9499999999999886
20
-99.5999999999999943
11
145.0499999999999829
21
-99.5999999999999943
0
LINE
8
F.Paste
6
CONTINUOUS
10
145.0499999999999829
20
-99.5999999999999943
11
144.9543290000000013
21
-99.5809699999999935
0
LINE
8
F.Paste
6
CONTINUOUS
10
144.9543290000000013
20
-99.5809699999999935
11
144.8732229999999959
21
-99.5267769999999956
0
LINE
8
F.Paste
6
CONTINUOUS
10
144.8732229999999959
20
-99.5267769999999956
11
144.8190299999999979
21
-99.4456709999999902
0
LINE
8
F.Paste
6
CONTINUOUS
10
144.8190299999999979
20
-99.4456709999999902
11
144.7999999999999829
21
-99.3499999999999943
0
LINE
8
F.Paste
6
CONTINUOUS
10
144.7999999999999829
20
-99.3499999999999943
11
144.7999999999999829
21
-98.6499999999999915
0
LINE
8
F.Paste
6
CONTINUOUS
10
144.7999999999999829
20
-98.6499999999999915
11
144.8190299999999979
21
-98.5543289999999956
0
LINE
8
F.Paste
6
CONTINUOUS
10
144.8190299999999979
20
-98.5543289999999956
11
144.8732229999999959
21
-98.4732229999999902
0
LINE
8
F.Paste
6
CONTINUOUS
10
144.8732229999999959
20
-98.4732229999999902
11
144.9543290000000013
21
-98.4190299999999922
0
LINE
8
F.Paste
6
CONTINUOUS
10
144.9543290000000013
20
-98.4190299999999922
11
145.0499999999999829
21
-98.3999999999999915
0
LINE
8
F.Paste
6
CONTINUOUS
10
145.0499999999999829
20
-98.3999999999999915
11
145.9499999999999886
21
-98.3999999999999915
0
LINE
8
F.Paste
6
CONTINUOUS
10
145.9499999999999886
20
-98.3999999999999915
11
146.0456709999999987
21
-98.4190299999999922
0
LINE
8
F.Paste
6
CONTINUOUS
10
136.5627099999999814
20
-98.6544629999999927
11
136.6243499999999926
21
-98.6956500000000005
0
LINE
8
F.Paste
6
CONTINUOUS
10
136.6243499999999926
20
-98.6956500000000005
11
136.6655370000000005
21
-98.7572899999999976
0
LINE
8
F.Paste
6
CONTINUOUS
10
136.6655370000000005
20
-98.7572899999999976
11
136.6800000000000068
21
-98.8299999999999983
0
LINE
8
F.Paste
6
CONTINUOUS
10
136.6800000000000068
20
-98.8299999999999983
11
136.6800000000000068
21
-99.2099999999999937
0
LINE
8
F.Paste
6
CONTINUOUS
10
136.6800000000000068
20
-99.2099999999999937
11
136.6655370000000005
21
-99.2827099999999945
0
LINE
8
F.Paste
6
CONTINUOUS
10
136.6655370000000005
20
-99.2827099999999945
11
136.6243499999999926
21
-99.3443499999999915
0
LINE
8
F.Paste
6
CONTINUOUS
10
136.6243499999999926
20
-99.3443499999999915
11
136.5627099999999814
21
-99.3855369999999994
0
LINE
8
F.Paste
6
CONTINUOUS
10
136.5627099999999814
20
-99.3855369999999994
11
136.4899999999999807
21
-99.3999999999999915
0
LINE
8
F.Paste
6
CONTINUOUS
10
136.4899999999999807
20
-99.3999999999999915
11
135.6699999999999875
21
-99.3999999999999915
0
LINE
8
F.Paste
6
CONTINUOUS
10
135.6699999999999875
20
-99.3999999999999915
11
135.5972899999999868
21
-99.3855369999999994
0
LINE
8
F.Paste
6
CONTINUOUS
10
135.5972899999999868
20
-99.3855369999999994
11
135.535650000000004
21
-99.3443499999999915
0
LINE
8
F.Paste
6
CONTINUOUS
10
135.535650000000004
20
-99.3443499999999915
11
135.4944629999999961
21
-99.2827099999999945
0
LINE
8
F.Paste
6
CONTINUOUS
10
135.4944629999999961
20
-99.2827099999999945
11
135.4799999999999898
21
-99.2099999999999937
0
LINE
8
F.Paste
6
CONTINUOUS
10
135.4799999999999898
20
-99.2099999999999937
11
135.4799999999999898
21
-98.8299999999999983
0
LINE
8
F.Paste
6
CONTINUOUS
10
135.4799999999999898
20
-98.8299999999999983
11
135.4944629999999961
21
-98.7572899999999976
0
LINE
8
F.Paste
6
CONTINUOUS
10
135.4944629999999961
20
-98.7572899999999976
11
135.535650000000004
21
-98.6956500000000005
0
LINE
8
F.Paste
6
CONTINUOUS
10
135.535650000000004
20
-98.6956500000000005
11
135.5972899999999868
21
-98.6544629999999927
0
LINE
8
F.Paste
6
CONTINUOUS
10
135.5972899999999868
20
-98.6544629999999927
11
135.6699999999999875
21
-98.6400000000000006
0
LINE
8
F.Paste
6
CONTINUOUS
10
135.6699999999999875
20
-98.6400000000000006
11
136.4899999999999807
21
-98.6400000000000006
0
LINE
8
F.Paste
6
CONTINUOUS
10
136.4899999999999807
20
-98.6400000000000006
11
136.5627099999999814
21
-98.6544629999999927
0
LINE
8
F.Paste
6
CONTINUOUS
10
149.0456709999999987
20
-97.4190299999999922
11
149.1267770000000041
21
-97.4732229999999902
0
LINE
8
F.Paste
6
CONTINUOUS
10
149.1267770000000041
20
-97.4732229999999902
11
149.1809700000000021
21
-97.5543289999999956
0
LINE
8
F.Paste
6
CONTINUOUS
10
149.1809700000000021
20
-97.5543289999999956
11
149.1999999999999886
21
-97.6499999999999915
0
LINE
8
F.Paste
6
CONTINUOUS
10
149.1999999999999886
20
-97.6499999999999915
11
149.1999999999999886
21
-98.3499999999999943
0
LINE
8
F.Paste
6
CONTINUOUS
10
149.1999999999999886
20
-98.3499999999999943
11
149.1809700000000021
21
-98.4456709999999902
0
LINE
8
F.Paste
6
CONTINUOUS
10
149.1809700000000021
20
-98.4456709999999902
11
149.1267770000000041
21
-98.5267769999999956
0
LINE
8
F.Paste
6
CONTINUOUS
10
149.1267770000000041
20
-98.5267769999999956
11
149.0456709999999987
21
-98.5809699999999935
0
LINE
8
F.Paste
6
CONTINUOUS
10
149.0456709999999987
20
-98.5809699999999935
11
148.9499999999999886
21
-98.5999999999999943
0
LINE
8
F.Paste
6
CONTINUOUS
10
148.9499999999999886
20
-98.5999999999999943
11
148.0499999999999829
21
-98.5999999999999943
0
LINE
8
F.Paste
6
CONTINUOUS
10
148.0499999999999829
20
-98.5999999999999943
11
147.9543290000000013
21
-98.5809699999999935
0
LINE
8
F.Paste
6
CONTINUOUS
10
147.9543290000000013
20
-98.5809699999999935
11
147.8732229999999959
21
-98.5267769999999956
0
LINE
8
F.Paste
6
CONTINUOUS
10
147.8732229999999959
20
-98.5267769999999956
11
147.8190299999999979
21
-98.4456709999999902
0
LINE
8
F.Paste
6
CONTINUOUS
10
147.8190299999999979
20
-98.4456709999999902
11
147.7999999999999829
21
-98.3499999999999943
0
LINE
8
F.Paste
6
CONTINUOUS
10
147.7999999999999829
20
-98.3499999999999943
11
147.7999999999999829
21
-97.6499999999999915
0
LINE
8
F.Paste
6
CONTINUOUS
10
147.7999999999999829
20
-97.6499999999999915
11
147.8190299999999979
21
-97.5543289999999956
0
LINE
8
F.Paste
6
CONTINUOUS
10
147.8190299999999979
20
-97.5543289999999956
11
147.8732229999999959
21
-97.4732229999999902
0
LINE
8
F.Paste
6
CONTINUOUS
10
147.8732229999999959
20
-97.4732229999999902
11
147.9543290000000013
21
-97.4190299999999922
0
LINE
8
F.Paste
6
CONTINUOUS
10
147.9543290000000013
20
-97.4190299999999922
11
148.0499999999999829
21
-97.3999999999999915
0
LINE
8
F.Paste
6
CONTINUOUS
10
148.0499999999999829
20
-97.3999999999999915
11
148.9499999999999886
21
-97.3999999999999915
0
LINE
8
F.Paste
6
CONTINUOUS
10
148.9499999999999886
20
-97.3999999999999915
11
149.0456709999999987
21
-97.4190299999999922
0
LINE
8
F.Paste
6
CONTINUOUS
10
136.5719699999999932
20
-97.6633209999999963
11
136.6287439999999833
21
-97.7012560000000008
0
LINE
8
F.Paste
6
CONTINUOUS
10
136.6287439999999833
20
-97.7012560000000008
11
136.6666789999999878
21
-97.7580299999999909
0
LINE
8
F.Paste
6
CONTINUOUS
10
136.6666789999999878
20
-97.7580299999999909
11
136.6800000000000068
21
-97.8249999999999886
0
LINE
8
F.Paste
6
CONTINUOUS
10
136.6800000000000068
20
-97.8249999999999886
11
136.6800000000000068
21
-98.1749999999999972
0
LINE
8
F.Paste
6
CONTINUOUS
10
136.6800000000000068
20
-98.1749999999999972
11
136.6666789999999878
21
-98.2419699999999949
0
LINE
8
F.Paste
6
CONTINUOUS
10
136.6666789999999878
20
-98.2419699999999949
11
136.6287439999999833
21
-98.2987439999999992
0
LINE
8
F.Paste
6
CONTINUOUS
10
136.6287439999999833
20
-98.2987439999999992
11
136.5719699999999932
21
-98.3366789999999895
0
LINE
8
F.Paste
6
CONTINUOUS
10
136.5719699999999932
20
-98.3366789999999895
11
136.5049999999999955
21
-98.3499999999999943
0
LINE
8
F.Paste
6
CONTINUOUS
10
136.5049999999999955
20
-98.3499999999999943
11
135.6550000000000011
21
-98.3499999999999943
0
LINE
8
F.Paste
6
CONTINUOUS
10
135.6550000000000011
20
-98.3499999999999943
11
135.5880300000000034
21
-98.3366789999999895
0
LINE
8
F.Paste
6
CONTINUOUS
10
135.5880300000000034
20
-98.3366789999999895
11
135.5312559999999849
21
-98.2987439999999992
0
LINE
8
F.Paste
6
CONTINUOUS
10
135.5312559999999849
20
-98.2987439999999992
11
135.4933209999999804
21
-98.2419699999999949
0
LINE
8
F.Paste
6
CONTINUOUS
10
135.4933209999999804
20
-98.2419699999999949
11
135.4799999999999898
21
-98.1749999999999972
0
LINE
8
F.Paste
6
CONTINUOUS
10
135.4799999999999898
20
-98.1749999999999972
11
135.4799999999999898
21
-97.8249999999999886
0
LINE
8
F.Paste
6
CONTINUOUS
10
135.4799999999999898
20
-97.8249999999999886
11
135.4933209999999804
21
-97.7580299999999909
0
LINE
8
F.Paste
6
CONTINUOUS
10
135.4933209999999804
20
-97.7580299999999909
11
135.5312559999999849
21
-97.7012560000000008
0
LINE
8
F.Paste
6
CONTINUOUS
10
135.5312559999999849
20
-97.7012560000000008
11
135.5880300000000034
21
-97.6633209999999963
0
LINE
8
F.Paste
6
CONTINUOUS
10
135.5880300000000034
20
-97.6633209999999963
11
135.6550000000000011
21
-97.6499999999999915
0
LINE
8
F.Paste
6
CONTINUOUS
10
135.6550000000000011
20
-97.6499999999999915
11
136.5049999999999955
21
-97.6499999999999915
0
LINE
8
F.Paste
6
CONTINUOUS
10
136.5049999999999955
20
-97.6499999999999915
11
136.5719699999999932
21
-97.6633209999999963
0
LINE
8
F.Paste
6
CONTINUOUS
10
141.5456709999999987
20
-96.4190299999999922
11
141.6267770000000041
21
-96.4732229999999902
0
LINE
8
F.Paste
6
CONTINUOUS
10
141.6267770000000041
20
-96.4732229999999902
11
141.6809700000000021
21
-96.5543289999999956
0
LINE
8
F.Paste
6
CONTINUOUS
10
141.6809700000000021
20
-96.5543289999999956
11
141.6999999999999886
21
-96.6499999999999915
0
LINE
8
F.Paste
6
CONTINUOUS
10
141.6999999999999886
20
-96.6499999999999915
11
141.6999999999999886
21
-97.3499999999999943
0
LINE
8
F.Paste
6
CONTINUOUS
10
141.6999999999999886
20
-97.3499999999999943
11
141.6809700000000021
21
-97.4456709999999902
0
LINE
8
F.Paste
6
CONTINUOUS
10
141.6809700000000021
20
-97.4456709999999902
11
141.6267770000000041
21
-97.5267769999999956
0
LINE
8
F.Paste
6
CONTINUOUS
10
141.6267770000000041
20
-97.5267769999999956
11
141.5456709999999987
21
-97.5809699999999935
0
LINE
8
F.Paste
6
CONTINUOUS
10
141.5456709999999987
20
-97.5809699999999935
11
141.4499999999999886
21
-97.5999999999999943
0
LINE
8
F.Paste
6
CONTINUOUS
10
141.4499999999999886
20
-97.5999999999999943
11
140.5499999999999829
21
-97.5999999999999943
0
LINE
8
F.Paste
6
CONTINUOUS
10
140.5499999999999829
20
-97.5999999999999943
11
140.4543290000000013
21
-97.5809699999999935
0
LINE
8
F.Paste
6
CONTINUOUS
10
140.4543290000000013
20
-97.5809699999999935
11
140.3732229999999959
21
-97.5267769999999956
0
LINE
8
F.Paste
6
CONTINUOUS
10
140.3732229999999959
20
-97.5267769999999956
11
140.3190299999999979
21
-97.4456709999999902
0
LINE
8
F.Paste
6
CONTINUOUS
10
140.3190299999999979
20
-97.4456709999999902
11
140.2999999999999829
21
-97.3499999999999943
0
LINE
8
F.Paste
6
CONTINUOUS
10
140.2999999999999829
20
-97.3499999999999943
11
140.2999999999999829
21
-96.6499999999999915
0
LINE
8
F.Paste
6
CONTINUOUS
10
140.2999999999999829
20
-96.6499999999999915
11
140.3190299999999979
21
-96.5543289999999956
0
LINE
8
F.Paste
6
CONTINUOUS
10
140.3190299999999979
20
-96.5543289999999956
11
140.3732229999999959
21
-96.4732229999999902
0
LINE
8
F.Paste
6
CONTINUOUS
10
140.3732229999999959
20
-96.4732229999999902
11
140.4543290000000013
21
-96.4190299999999922
0
LINE
8
F.Paste
6
CONTINUOUS
10
140.4543290000000013
20
-96.4190299999999922
11
140.5499999999999829
21
-96.3999999999999915
0
LINE
8
F.Paste
6
CONTINUOUS
10
140.5499999999999829
20
-96.3999999999999915
11
141.4499999999999886
21
-96.3999999999999915
0
LINE
8
F.Paste
6
CONTINUOUS
10
141.4499999999999886
20
-96.3999999999999915
11
141.5456709999999987
21
-96.4190299999999922
0
LINE
8
F.Paste
6
CONTINUOUS
10
146.0456709999999987
20
-96.4190299999999922
11
146.1267770000000041
21
-96.4732229999999902
0
LINE
8
F.Paste
6
CONTINUOUS
10
146.1267770000000041
20
-96.4732229999999902
11
146.1809700000000021
21
-96.5543289999999956
0
LINE
8
F.Paste
6
CONTINUOUS
10
146.1809700000000021
20
-96.5543289999999956
11
146.1999999999999886
21
-96.6499999999999915
0
LINE
8
F.Paste
6
CONTINUOUS
10
146.1999999999999886
20
-96.6499999999999915
11
146.1999999999999886
21
-97.3499999999999943
0
LINE
8
F.Paste
6
CONTINUOUS
10
146.1999999999999886
20
-97.3499999999999943
11
146.1809700000000021
21
-97.4456709999999902
0
LINE
8
F.Paste
6
CONTINUOUS
10
146.1809700000000021
20
-97.4456709999999902
11
146.1267770000000041
21
-97.5267769999999956
0
LINE
8
F.Paste
6
CONTINUOUS
10
146.1267770000000041
20
-97.5267769999999956
11
146.0456709999999987
21
-97.5809699999999935
0
LINE
8
F.Paste
6
CONTINUOUS
10
146.0456709999999987
20
-97.5809699999999935
11
145.9499999999999886
21
-97.5999999999999943
0
LINE
8
F.Paste
6
CONTINUOUS
10
145.9499999999999886
20
-97.5999999999999943
11
145.0499999999999829
21
-97.5999999999999943
0
LINE
8
F.Paste
6
CONTINUOUS
10
145.0499999999999829
20
-97.5999999999999943
11
144.9543290000000013
21
-97.5809699999999935
0
LINE
8
F.Paste
6
CONTINUOUS
10
144.9543290000000013
20
-97.5809699999999935
11
144.8732229999999959
21
-97.5267769999999956
0
LINE
8
F.Paste
6
CONTINUOUS
10
144.8732229999999959
20
-97.5267769999999956
11
144.8190299999999979
21
-97.4456709999999902
0
LINE
8
F.Paste
6
CONTINUOUS
10
144.8190299999999979
20
-97.4456709999999902
11
144.7999999999999829
21
-97.3499999999999943
0
LINE
8
F.Paste
6
CONTINUOUS
10
144.7999999999999829
20
-97.3499999999999943
11
144.7999999999999829
21
-96.6499999999999915
0
LINE
8
F.Paste
6
CONTINUOUS
10
144.7999999999999829
20
-96.6499999999999915
11
144.8190299999999979
21
-96.5543289999999956
0
LINE
8
F.Paste
6
CONTINUOUS
10
144.8190299999999979
20
-96.5543289999999956
11
144.8732229999999959
21
-96.4732229999999902
0
LINE
8
F.Paste
6
CONTINUOUS
10
144.8732229999999959
20
-96.4732229999999902
11
144.9543290000000013
21
-96.4190299999999922
0
LINE
8
F.Paste
6
CONTINUOUS
10
144.9543290000000013
20
-96.4190299999999922
11
145.0499999999999829
21
-96.3999999999999915
0
LINE
8
F.Paste
6
CONTINUOUS
10
145.0499999999999829
20
-96.3999999999999915
11
145.9499999999999886
21
-96.3999999999999915
0
LINE
8
F.Paste
6
CONTINUOUS
10
145.9499999999999886
20
-96.3999999999999915
11
146.0456709999999987
21
-96.4190299999999922
0
LINE
8
F.Paste
6
CONTINUOUS
10
136.5719699999999932
20
-96.6633209999999963
11
136.6287439999999833
21
-96.7012560000000008
0
LINE
8
F.Paste
6
CONTINUOUS
10
136.6287439999999833
20
-96.7012560000000008
11
136.6666789999999878
21
-96.7580299999999909
0
LINE
8
F.Paste
6
CONTINUOUS
10
136.6666789999999878
20
-96.7580299999999909
11
136.6800000000000068
21
-96.8249999999999886
0
LINE
8
F.Paste
6
CONTINUOUS
10
136.6800000000000068
20
-96.8249999999999886
11
136.6800000000000068
21
-97.1749999999999972
0
LINE
8
F.Paste
6
CONTINUOUS
10
136.6800000000000068
20
-97.1749999999999972
11
136.6666789999999878
21
-97.2419699999999949
0
LINE
8
F.Paste
6
CONTINUOUS
10
136.6666789999999878
20
-97.2419699999999949
11
136.6287439999999833
21
-97.2987439999999992
0
LINE
8
F.Paste
6
CONTINUOUS
10
136.6287439999999833
20
-97.2987439999999992
11
136.5719699999999932
21
-97.3366789999999895
0
LINE
8
F.Paste
6
CONTINUOUS
10
136.5719699999999932
20
-97.3366789999999895
11
136.5049999999999955
21
-97.3499999999999943
0
LINE
8
F.Paste
6
CONTINUOUS
10
136.5049999999999955
20
-97.3499999999999943
11
135.6550000000000011
21
-97.3499999999999943
0
LINE
8
F.Paste
6
CONTINUOUS
10
135.6550000000000011
20
-97.3499999999999943
11
135.5880300000000034
21
-97.3366789999999895
0
LINE
8
F.Paste
6
CONTINUOUS
10
135.5880300000000034
20
-97.3366789999999895
11
135.5312559999999849
21
-97.2987439999999992
0
LINE
8
F.Paste
6
CONTINUOUS
10
135.5312559999999849
20
-97.2987439999999992
11
135.4933209999999804
21
-97.2419699999999949
0
LINE
8
F.Paste
6
CONTINUOUS
10
135.4933209999999804
20
-97.2419699999999949
11
135.4799999999999898
21
-97.1749999999999972
0
LINE
8
F.Paste
6
CONTINUOUS
10
135.4799999999999898
20
-97.1749999999999972
11
135.4799999999999898
21
-96.8249999999999886
0
LINE
8
F.Paste
6
CONTINUOUS
10
135.4799999999999898
20
-96.8249999999999886
11
135.4933209999999804
21
-96.7580299999999909
0
LINE
8
F.Paste
6
CONTINUOUS
10
135.4933209999999804
20
-96.7580299999999909
11
135.5312559999999849
21
-96.7012560000000008
0
LINE
8
F.Paste
6
CONTINUOUS
10
135.5312559999999849
20
-96.7012560000000008
11
135.5880300000000034
21
-96.6633209999999963
0
LINE
8
F.Paste
6
CONTINUOUS
10
135.5880300000000034
20
-96.6633209999999963
11
135.6550000000000011
21
-96.6499999999999915
0
LINE
8
F.Paste
6
CONTINUOUS
10
135.6550000000000011
20
-96.6499999999999915
11
136.5049999999999955
21
-96.6499999999999915
0
LINE
8
F.Paste
6
CONTINUOUS
10
136.5049999999999955
20
-96.6499999999999915
11
136.5719699999999932
21
-96.6633209999999963
0
LINE
8
F.Paste
6
CONTINUOUS
10
149.0456709999999987
20
-95.4190299999999922
11
149.1267770000000041
21
-95.4732229999999902
0
LINE
8
F.Paste
6
CONTINUOUS
10
149.1267770000000041
20
-95.4732229999999902
11
149.1809700000000021
21
-95.5543289999999956
0
LINE
8
F.Paste
6
CONTINUOUS
10
149.1809700000000021
20
-95.5543289999999956
11
149.1999999999999886
21
-95.6499999999999915
0
LINE
8
F.Paste
6
CONTINUOUS
10
149.1999999999999886
20
-95.6499999999999915
11
149.1999999999999886
21
-96.3499999999999943
0
LINE
8
F.Paste
6
CONTINUOUS
10
149.1999999999999886
20
-96.3499999999999943
11
149.1809700000000021
21
-96.4456709999999902
0
LINE
8
F.Paste
6
CONTINUOUS
10
149.1809700000000021
20
-96.4456709999999902
11
149.1267770000000041
21
-96.5267769999999956
0
LINE
8
F.Paste
6
CONTINUOUS
10
149.1267770000000041
20
-96.5267769999999956
11
149.0456709999999987
21
-96.5809699999999935
0
LINE
8
F.Paste
6
CONTINUOUS
10
149.0456709999999987
20
-96.5809699999999935
11
148.9499999999999886
21
-96.5999999999999943
0
LINE
8
F.Paste
6
CONTINUOUS
10
148.9499999999999886
20
-96.5999999999999943
11
148.0499999999999829
21
-96.5999999999999943
0
LINE
8
F.Paste
6
CONTINUOUS
10
148.0499999999999829
20
-96.5999999999999943
11
147.9543290000000013
21
-96.5809699999999935
0
LINE
8
F.Paste
6
CONTINUOUS
10
147.9543290000000013
20
-96.5809699999999935
11
147.8732229999999959
21
-96.5267769999999956
0
LINE
8
F.Paste
6
CONTINUOUS
10
147.8732229999999959
20
-96.5267769999999956
11
147.8190299999999979
21
-96.4456709999999902
0
LINE
8
F.Paste
6
CONTINUOUS
10
147.8190299999999979
20
-96.4456709999999902
11
147.7999999999999829
21
-96.3499999999999943
0
LINE
8
F.Paste
6
CONTINUOUS
10
147.7999999999999829
20
-96.3499999999999943
11
147.7999999999999829
21
-95.6499999999999915
0
LINE
8
F.Paste
6
CONTINUOUS
10
147.7999999999999829
20
-95.6499999999999915
11
147.8190299999999979
21
-95.5543289999999956
0
LINE
8
F.Paste
6
CONTINUOUS
10
147.8190299999999979
20
-95.5543289999999956
11
147.8732229999999959
21
-95.4732229999999902
0
LINE
8
F.Paste
6
CONTINUOUS
10
147.8732229999999959
20
-95.4732229999999902
11
147.9543290000000013
21
-95.4190299999999922
0
LINE
8
F.Paste
6
CONTINUOUS
10
147.9543290000000013
20
-95.4190299999999922
11
148.0499999999999829
21
-95.3999999999999915
0
LINE
8
F.Paste
6
CONTINUOUS
10
148.0499999999999829
20
-95.3999999999999915
11
148.9499999999999886
21
-95.3999999999999915
0
LINE
8
F.Paste
6
CONTINUOUS
10
148.9499999999999886
20
-95.3999999999999915
11
149.0456709999999987
21
-95.4190299999999922
0
LINE
8
F.Paste
6
CONTINUOUS
10
136.5627099999999814
20
-95.6144630000000006
11
136.6243499999999926
21
-95.6556499999999943
0
LINE
8
F.Paste
6
CONTINUOUS
10
136.6243499999999926
20
-95.6556499999999943
11
136.6655370000000005
21
-95.7172899999999913
0
LINE
8
F.Paste
6
CONTINUOUS
10
136.6655370000000005
20
-95.7172899999999913
11
136.6800000000000068
21
-95.789999999999992
0
LINE
8
F.Paste
6
CONTINUOUS
10
136.6800000000000068
20
-95.789999999999992
11
136.6800000000000068
21
-96.1700000000000017
0
LINE
8
F.Paste
6
CONTINUOUS
10
136.6800000000000068
20
-96.1700000000000017
11
136.6655370000000005
21
-96.2427100000000024
0
LINE
8
F.Paste
6
CONTINUOUS
10
136.6655370000000005
20
-96.2427100000000024
11
136.6243499999999926
21
-96.3043499999999995
0
LINE
8
F.Paste
6
CONTINUOUS
10
136.6243499999999926
20
-96.3043499999999995
11
136.5627099999999814
21
-96.3455369999999931
0
LINE
8
F.Paste
6
CONTINUOUS
10
136.5627099999999814
20
-96.3455369999999931
11
136.4899999999999807
21
-96.3599999999999994
0
LINE
8
F.Paste
6
CONTINUOUS
10
136.4899999999999807
20
-96.3599999999999994
11
135.6699999999999875
21
-96.3599999999999994
0
LINE
8
F.Paste
6
CONTINUOUS
10
135.6699999999999875
20
-96.3599999999999994
11
135.5972899999999868
21
-96.3455369999999931
0
LINE
8
F.Paste
6
CONTINUOUS
10
135.5972899999999868
20
-96.3455369999999931
11
135.535650000000004
21
-96.3043499999999995
0
LINE
8
F.Paste
6
CONTINUOUS
10
135.535650000000004
20
-96.3043499999999995
11
135.4944629999999961
21
-96.2427100000000024
0
LINE
8
F.Paste
6
CONTINUOUS
10
135.4944629999999961
20
-96.2427100000000024
11
135.4799999999999898
21
-96.1700000000000017
0
LINE
8
F.Paste
6
CONTINUOUS
10
135.4799999999999898
20
-96.1700000000000017
11
135.4799999999999898
21
-95.789999999999992
0
LINE
8
F.Paste
6
CONTINUOUS
10
135.4799999999999898
20
-95.789999999999992
11
135.4944629999999961
21
-95.7172899999999913
0
LINE
8
F.Paste
6
CONTINUOUS
10
135.4944629999999961
20
-95.7172899999999913
11
135.535650000000004
21
-95.6556499999999943
0
LINE
8
F.Paste
6
CONTINUOUS
10
135.535650000000004
20
-95.6556499999999943
11
135.5972899999999868
21
-95.6144630000000006
0
LINE
8
F.Paste
6
CONTINUOUS
10
135.5972899999999868
20
-95.6144630000000006
11
135.6699999999999875
21
-95.5999999999999943
0
LINE
8
F.Paste
6
CONTINUOUS
10
135.6699999999999875
20
-95.5999999999999943
11
136.4899999999999807
21
-95.5999999999999943
0
LINE
8
F.Paste
6
CONTINUOUS
10
136.4899999999999807
20
-95.5999999999999943
11
136.5627099999999814
21
-95.6144630000000006
0
LINE
8
F.Paste
6
CONTINUOUS
10
136.5565369999999916
20
-94.3652239999999978
11
136.621420999999998
21
-94.4085789999999889
0
LINE
8
F.Paste
6
CONTINUOUS
10
136.621420999999998
20
-94.4085789999999889
11
136.6647759999999892
21
-94.4734629999999953
0
LINE
8
F.Paste
6
CONTINUOUS
10
136.6647759999999892
20
-94.4734629999999953
11
136.6800000000000068
21
-94.5499999999999972
0
LINE
8
F.Paste
6
CONTINUOUS
10
136.6800000000000068
20
-94.5499999999999972
11
136.6800000000000068
21
-94.9499999999999886
0
LINE
8
F.Paste
6
CONTINUOUS
10
136.6800000000000068
20
-94.9499999999999886
11
136.6647759999999892
21
-95.0265369999999905
0
LINE
8
F.Paste
6
CONTINUOUS
10
136.6647759999999892
20
-95.0265369999999905
11
136.621420999999998
21
-95.0914209999999969
0
LINE
8
F.Paste
6
CONTINUOUS
10
136.621420999999998
20
-95.0914209999999969
11
136.5565369999999916
21
-95.1347760000000022
0
LINE
8
F.Paste
6
CONTINUOUS
10
136.5565369999999916
20
-95.1347760000000022
11
136.4799999999999898
21
-95.1499999999999915
0
LINE
8
F.Paste
6
CONTINUOUS
10
136.4799999999999898
20
-95.1499999999999915
11
135.6800000000000068
21
-95.1499999999999915
0
LINE
8
F.Paste
6
CONTINUOUS
10
135.6800000000000068
20
-95.1499999999999915
11
135.603463000000005
21
-95.1347760000000022
0
LINE
8
F.Paste
6
CONTINUOUS
10
135.603463000000005
20
-95.1347760000000022
11
135.5385789999999986
21
-95.0914209999999969
0
LINE
8
F.Paste
6
CONTINUOUS
10
135.5385789999999986
20
-95.0914209999999969
11
135.4952240000000074
21
-95.0265369999999905
0
LINE
8
F.Paste
6
CONTINUOUS
10
135.4952240000000074
20
-95.0265369999999905
11
135.4799999999999898
21
-94.9499999999999886
0
LINE
8
F.Paste
6
CONTINUOUS
10
135.4799999999999898
20
-94.9499999999999886
11
135.4799999999999898
21
-94.5499999999999972
0
LINE
8
F.Paste
6
CONTINUOUS
10
135.4799999999999898
20
-94.5499999999999972
11
135.4952240000000074
21
-94.4734629999999953
0
LINE
8
F.Paste
6
CONTINUOUS
10
135.4952240000000074
20
-94.4734629999999953
11
135.5385789999999986
21
-94.4085789999999889
0
LINE
8
F.Paste
6
CONTINUOUS
10
135.5385789999999986
20
-94.4085789999999889
11
135.603463000000005
21
-94.3652239999999978
0
LINE
8
F.Paste
6
CONTINUOUS
10
135.603463000000005
20
-94.3652239999999978
11
135.6800000000000068
21
-94.3499999999999943
0
LINE
8
F.Paste
6
CONTINUOUS
10
135.6800000000000068
20
-94.3499999999999943
11
136.4799999999999898
21
-94.3499999999999943
0
LINE
8
F.Paste
6
CONTINUOUS
10
136.4799999999999898
20
-94.3499999999999943
11
136.5565369999999916
21
-94.3652239999999978
0
LINE
8
F.Paste
6
CONTINUOUS
10
132.5717889999999954
20
-92.6347049999999967
11
132.7104759999999999
21
-92.6718659999999943
0
LINE
8
F.Paste
6
CONTINUOUS
10
132.7104759999999999
20
-92.6718659999999943
11
132.8348189999999818
21
-92.7436560000000014
0
LINE
8
F.Paste
6
CONTINUOUS
10
132.8348189999999818
20
-92.7436560000000014
11
132.9363439999999912
21
-92.8451809999999966
0
LINE
8
F.Paste
6
CONTINUOUS
10
132.9363439999999912
20
-92.8451809999999966
11
133.0081339999999841
21
-92.9695239999999927
0
LINE
8
F.Paste
6
CONTINUOUS
10
133.0081339999999841
20
-92.9695239999999927
11
133.0452949999999817
21
-93.1082109999999972
0
LINE
8
F.Paste
6
CONTINUOUS
10
133.0452949999999817
20
-93.1082109999999972
11
133.0452949999999817
21
-93.2517890000000023
0
LINE
8
F.Paste
6
CONTINUOUS
10
133.0452949999999817
20
-93.2517890000000023
11
133.0081339999999841
21
-93.3904759999999925
0
LINE
8
F.Paste
6
CONTINUOUS
10
133.0081339999999841
20
-93.3904759999999925
11
132.9363439999999912
21
-93.5148190000000028
0
LINE
8
F.Paste
6
CONTINUOUS
10
132.9363439999999912
20
-93.5148190000000028
11
132.8348189999999818
21
-93.616343999999998
0
LINE
8
F.Paste
6
CONTINUOUS
10
132.8348189999999818
20
-93.616343999999998
11
132.7104759999999999
21
-93.6881339999999909
0
LINE
8
F.Paste
6
CONTINUOUS
10
132.7104759999999999
20
-93.6881339999999909
11
132.5717889999999954
21
-93.7252950000000027
0
LINE
8
F.Paste
6
CONTINUOUS
10
132.5717889999999954
20
-93.7252950000000027
11
132.5
21
-93.7299999999999898
0
LINE
8
F.Paste
6
CONTINUOUS
10
132.5
20
-93.7299999999999898
11
131.9000000000000057
21
-93.7299999999999898
0
LINE
8
F.Paste
6
CONTINUOUS
10
131.9000000000000057
20
-93.7299999999999898
11
131.8282109999999818
21
-93.7252950000000027
0
LINE
8
F.Paste
6
CONTINUOUS
10
131.8282109999999818
20
-93.7252950000000027
11
131.6895240000000058
21
-93.6881339999999909
0
LINE
8
F.Paste
6
CONTINUOUS
10
131.6895240000000058
20
-93.6881339999999909
11
131.5651809999999955
21
-93.616343999999998
0
LINE
8
F.Paste
6
CONTINUOUS
10
131.5651809999999955
20
-93.616343999999998
11
131.4636559999999861
21
-93.5148190000000028
0
LINE
8
F.Paste
6
CONTINUOUS
10
131.4636559999999861
20
-93.5148190000000028
11
131.3918659999999932
21
-93.3904759999999925
0
LINE
8
F.Paste
6
CONTINUOUS
10
131.3918659999999932
20
-93.3904759999999925
11
131.3547049999999956
21
-93.2517890000000023
0
LINE
8
F.Paste
6
CONTINUOUS
10
131.3547049999999956
20
-93.2517890000000023
11
131.3547049999999956
21
-93.1082109999999972
0
LINE
8
F.Paste
6
CONTINUOUS
10
131.3547049999999956
20
-93.1082109999999972
11
131.3918659999999932
21
-92.9695239999999927
0
LINE
8
F.Paste
6
CONTINUOUS
10
131.3918659999999932
20
-92.9695239999999927
11
131.4636559999999861
21
-92.8451809999999966
0
LINE
8
F.Paste
6
CONTINUOUS
10
131.4636559999999861
20
-92.8451809999999966
11
131.5651809999999955
21
-92.7436560000000014
0
LINE
8
F.Paste
6
CONTINUOUS
10
131.5651809999999955
20
-92.7436560000000014
11
131.6895240000000058
21
-92.6718659999999943
0
LINE
8
F.Paste
6
CONTINUOUS
10
131.6895240000000058
20
-92.6718659999999943
11
131.8282109999999818
21
-92.6347049999999967
0
LINE
8
F.Paste
6
CONTINUOUS
10
131.8282109999999818
20
-92.6347049999999967
11
131.9000000000000057
21
-92.6299999999999955
0
LINE
8
F.Paste
6
CONTINUOUS
10
131.9000000000000057
20
-92.6299999999999955
11
132.5
21
-92.6299999999999955
0
LINE
8
F.Paste
6
CONTINUOUS
10
132.5
20
-92.6299999999999955
11
132.5717889999999954
21
-92.6347049999999967
0
LINE
8
F.Paste
6
CONTINUOUS
10
136.3717890000000068
20
-92.6347049999999967
11
136.5104759999999828
21
-92.6718659999999943
0
LINE
8
F.Paste
6
CONTINUOUS
10
136.5104759999999828
20
-92.6718659999999943
11
136.6348189999999931
21
-92.7436560000000014
0
LINE
8
F.Paste
6
CONTINUOUS
10
136.6348189999999931
20
-92.7436560000000014
11
136.7363440000000026
21
-92.8451809999999966
0
LINE
8
F.Paste
6
CONTINUOUS
10
136.7363440000000026
20
-92.8451809999999966
11
136.8081339999999955
21
-92.9695239999999927
0
LINE
8
F.Paste
6
CONTINUOUS
10
136.8081339999999955
20
-92.9695239999999927
11
136.845294999999993
21
-93.1082109999999972
0
LINE
8
F.Paste
6
CONTINUOUS
10
136.845294999999993
20
-93.1082109999999972
11
136.845294999999993
21
-93.2517890000000023
0
LINE
8
F.Paste
6
CONTINUOUS
10
136.845294999999993
20
-93.2517890000000023
11
136.8081339999999955
21
-93.3904759999999925
0
LINE
8
F.Paste
6
CONTINUOUS
10
136.8081339999999955
20
-93.3904759999999925
11
136.7363440000000026
21
-93.5148190000000028
0
LINE
8
F.Paste
6
CONTINUOUS
10
136.7363440000000026
20
-93.5148190000000028
11
136.6348189999999931
21
-93.616343999999998
0
LINE
8
F.Paste
6
CONTINUOUS
10
136.6348189999999931
20
-93.616343999999998
11
136.5104759999999828
21
-93.6881339999999909
0
LINE
8
F.Paste
6
CONTINUOUS
10
136.5104759999999828
20
-93.6881339999999909
11
136.3717890000000068
21
-93.7252950000000027
0
LINE
8
F.Paste
6
CONTINUOUS
10
136.3717890000000068
20
-93.7252950000000027
11
136.2999999999999829
21
-93.7299999999999898
0
LINE
8
F.Paste
6
CONTINUOUS
10
136.2999999999999829
20
-93.7299999999999898
11
135.6999999999999886
21
-93.7299999999999898
0
LINE
8
F.Paste
6
CONTINUOUS
10
135.6999999999999886
20
-93.7299999999999898
11
135.6282109999999932
21
-93.7252950000000027
0
LINE
8
F.Paste
6
CONTINUOUS
10
135.6282109999999932
20
-93.7252950000000027
11
135.4895239999999887
21
-93.6881339999999909
0
LINE
8
F.Paste
6
CONTINUOUS
10
135.4895239999999887
20
-93.6881339999999909
11
135.3651810000000069
21
-93.616343999999998
0
LINE
8
F.Paste
6
CONTINUOUS
10
135.3651810000000069
20
-93.616343999999998
11
135.2636559999999974
21
-93.5148190000000028
0
LINE
8
F.Paste
6
CONTINUOUS
10
135.2636559999999974
20
-93.5148190000000028
11
135.1918660000000045
21
-93.3904759999999925
0
LINE
8
F.Paste
6
CONTINUOUS
10
135.1918660000000045
20
-93.3904759999999925
11
135.154705000000007
21
-93.2517890000000023
0
LINE
8
F.Paste
6
CONTINUOUS
10
135.154705000000007
20
-93.2517890000000023
11
135.154705000000007
21
-93.1082109999999972
0
LINE
8
F.Paste
6
CONTINUOUS
10
135.154705000000007
20
-93.1082109999999972
11
135.1918660000000045
21
-92.9695239999999927
0
LINE
8
F.Paste
6
CONTINUOUS
10
135.1918660000000045
20
-92.9695239999999927
11
135.2636559999999974
21
-92.8451809999999966
0
LINE
8
F.Paste
6
CONTINUOUS
10
135.2636559999999974
20
-92.8451809999999966
11
135.3651810000000069
21
-92.7436560000000014
0
LINE
8
F.Paste
6
CONTINUOUS
10
135.3651810000000069
20
-92.7436560000000014
11
135.4895239999999887
21
-92.6718659999999943
0
LINE
8
F.Paste
6
CONTINUOUS
10
135.4895239999999887
20
-92.6718659999999943
11
135.6282109999999932
21
-92.6347049999999967
0
LINE
8
F.Paste
6
CONTINUOUS
10
135.6282109999999932
20
-92.6347049999999967
11
135.6999999999999886
21
-92.6299999999999955
0
LINE
8
F.Paste
6
CONTINUOUS
10
135.6999999999999886
20
-92.6299999999999955
11
136.2999999999999829
21
-92.6299999999999955
0
LINE
8
F.Paste
6
CONTINUOUS
10
136.2999999999999829
20
-92.6299999999999955
11
136.3717890000000068
21
-92.6347049999999967
0
CIRCLE
8
F.Paste
10
155.4599999999999795
20
-93.9599999999999937
40
0.175
0
CIRCLE
8
F.Paste
10
158.
20
-93.9599999999999937
40
0.175
0
CIRCLE
8
F.Paste
10
155.4599999999999795
20
-96.5
40
0.175
0
CIRCLE
8
F.Paste
10
158.
20
-96.5
40
0.175
0
CIRCLE
8
F.Paste
10
155.4599999999999795
20
-99.039999999999992
40
0.175
0
CIRCLE
8
F.Paste
10
158.
20
-99.039999999999992
40
0.175
0
CIRCLE
8
F.Paste
10
155.4599999999999795
20
-101.5799999999999983
40
0.175
0
CIRCLE
8
F.Paste
10
158.
20
-101.5799999999999983
40
0.175
0
LINE
8
F.Paste
6
CONTINUOUS
10
136.2999999999999829
20
-92.8799999999999955
11
135.6999999999999886
21
-92.8799999999999955
0
ARC
8
F.Paste
10
135.6999999999999886
20
-93.1799999999999926
40
0.3
50
90.00000000
51
270.00000000
0
LINE
8
F.Paste
6
CONTINUOUS
10
135.6999999999999886
20
-93.4799999999999898
11
136.2999999999999829
21
-93.4799999999999898
0
ARC
8
F.Paste
10
136.2999999999999829
20
-93.1799999999999926
40
0.3
50
270.00000000
51
450.00000000
0
LINE
8
F.Paste
6
CONTINUOUS
10
132.5
20
-92.8799999999999955
11
131.9000000000000057
21
-92.8799999999999955
0
ARC
8
F.Paste
10
131.9000000000000057
20
-93.1799999999999926
40
0.3
50
90.00000000
51
270.00000000
0
LINE
8
F.Paste
6
CONTINUOUS
10
131.9000000000000057
20
-93.4799999999999898
11
132.5
21
-93.4799999999999898
0
ARC
8
F.Paste
10
132.5
20
-93.1799999999999926
40
0.3
50
270.00000000
51
450.00000000
0
LINE
8
F.Paste
6
CONTINUOUS
10
136.2999999999999829
20
-101.519999999999996
11
135.6999999999999886
21
-101.519999999999996
0
ARC
8
F.Paste
10
135.6999999999999886
20
-101.8199999999999932
40
0.3
50
90.00000000
51
270.00000000
0
LINE
8
F.Paste
6
CONTINUOUS
10
135.6999999999999886
20
-102.1199999999999903
11
136.2999999999999829
21
-102.1199999999999903
0
ARC
8
F.Paste
10
136.2999999999999829
20
-101.8199999999999932
40
0.3
50
270.00000000
51
450.00000000
0
LINE
8
F.Paste
6
CONTINUOUS
10
132.5
20
-101.519999999999996
11
131.9000000000000057
21
-101.519999999999996
0
ARC
8
F.Paste
10
131.9000000000000057
20
-101.8199999999999932
40
0.3
50
90.00000000
51
270.00000000
0
LINE
8
F.Paste
6
CONTINUOUS
10
131.9000000000000057
20
-102.1199999999999903
11
132.5
21
-102.1199999999999903
0
ARC
8
F.Paste
10
132.5
20
-101.8199999999999932
40
0.3
50
270.00000000
51
450.00000000
  0
ENDSEC
  0
EOF
