  0
SECTION
  2
HEADER
  9
$ANGBASE
  50
0.0
  9
$ANGDIR
  70
1
  9
$MEASUREMENT
  70
1
  9
$INSUNITS
  70
4
  0
ENDSEC
  0
SECTION
  2
TABLES
  0
TABLE
  2
LTYPE
  70
4
  0
LTYPE
  5
40F
  2
CONTINUOUS
  70
0
  3
Solid line
  72
65
  73
0
  40
0.0
  0
LTYPE
  5
410
  2
DASHDOT
 70
0
  3
Dash Dot ____ _ ____ _
 72
65
 73
4
 40
2.0
 49
1.25
 49
-0.25
 49
0.25
 49
-0.25
  0
LTYPE
  5
411
  2
DASHED
 70
0
  3
Dashed __ __ __ __ __
 72
65
 73
2
 40
0.75
 49
0.5
 49
-0.25
  0
LTYPE
  5
43B
  2
DOTTED
 70
0
  3
Dotted .  .  .  .
 72
65
 73
2
 40
0.2
 49
0.0
 49
-0.2
  0
ENDTAB
  0
TABLE
  2
STYLE
  70
4
  0
STYLE
  2
KICAD
  70
0
  40
0
  41
1
  42
1
  50
0
  71
0
  3
isocp.shx
  0
STYLE
  2
KICADB
  70
0
  40
0
  41
1
  42
1
  50
0
  71
0
  3
isocp.shx
  0
STYLE
  2
KICADI
  70
0
  40
0
  41
1
  42
1
  50
15
  71
0
  3
isocp.shx
  0
STYLE
  2
KICADBI
  70
0
  40
0
  41
1
  42
1
  50
15
  71
0
  3
isocp.shx
  0
ENDTAB
  0
TABLE
  2
LAYER
  70
9
  0
LAYER
  2
L1 (Sig, PWR)
  70
0
  62
13
  420
13120564
  6
CONTINUOUS
  0
LAYER
  2
L6 (Sig, PWR)
  70
0
  62
153
  420
5078980
  6
CONTINUOUS
  0
LAYER
  2
F.Paste
  70
0
  62
253
  420
11837594
  6
CONTINUOUS
  0
LAYER
  2
B.Paste
  70
0
  62
132
  420
49858
  6
CONTINUOUS
  0
LAYER
  2
F.Silkscreen
  70
0
  62
41
  420
15920545
  6
CONTINUOUS
  0
LAYER
  2
B.Silkscreen
  70
0
  62
31
  420
15250087
  6
CONTINUOUS
  0
LAYER
  2
F.Mask
  70
0
  62
201
  420
14181631
  6
CONTINUOUS
  0
LAYER
  2
B.Mask
  70
0
  62
4
  420
196590
  6
CONTINUOUS
  0
LAYER
  2
Edge.Cuts
  70
0
  62
254
  420
13685453
  6
CONTINUOUS
  0
ENDTAB
  0
ENDSEC
  0
SECTION
  2
ENTITIES
0
LINE
8
L6 (Sig, PWR)
6
CONTINUOUS
10
155.7067419999999913
20
-100.7666009999999943
11
155.8606869999999844
21
-100.8303669999999954
0
LINE
8
L6 (Sig, PWR)
6
CONTINUOUS
10
155.8606869999999844
20
-100.8303669999999954
11
155.9992340000000013
21
-100.9229409999999945
0
LINE
8
L6 (Sig, PWR)
6
CONTINUOUS
10
155.9992340000000013
20
-100.9229409999999945
11
156.1170589999999834
21
-101.0407659999999908
0
LINE
8
L6 (Sig, PWR)
6
CONTINUOUS
10
156.1170589999999834
20
-101.0407659999999908
11
156.2096329999999966
21
-101.1793129999999934
0
LINE
8
L6 (Sig, PWR)
6
CONTINUOUS
10
156.2096329999999966
20
-101.1793129999999934
11
156.2733989999999835
21
-101.3332580000000007
0
LINE
8
L6 (Sig, PWR)
6
CONTINUOUS
10
156.2733989999999835
20
-101.3332580000000007
11
156.3059069999999906
21
-101.4966849999999994
0
LINE
8
L6 (Sig, PWR)
6
CONTINUOUS
10
156.3059069999999906
20
-101.4966849999999994
11
156.3059069999999906
21
-101.6633149999999972
0
LINE
8
L6 (Sig, PWR)
6
CONTINUOUS
10
156.3059069999999906
20
-101.6633149999999972
11
156.2733989999999835
21
-101.8267419999999959
0
LINE
8
L6 (Sig, PWR)
6
CONTINUOUS
10
156.2733989999999835
20
-101.8267419999999959
11
156.2096329999999966
21
-101.980686999999989
0
LINE
8
L6 (Sig, PWR)
6
CONTINUOUS
10
156.2096329999999966
20
-101.980686999999989
11
156.1170589999999834
21
-102.1192339999999916
0
LINE
8
L6 (Sig, PWR)
6
CONTINUOUS
10
156.1170589999999834
20
-102.1192339999999916
11
155.9992340000000013
21
-102.2370590000000021
0
LINE
8
L6 (Sig, PWR)
6
CONTINUOUS
10
155.9992340000000013
20
-102.2370590000000021
11
155.8606869999999844
21
-102.3296330000000012
0
LINE
8
L6 (Sig, PWR)
6
CONTINUOUS
10
155.8606869999999844
20
-102.3296330000000012
11
155.7067419999999913
21
-102.3933990000000023
0
LINE
8
L6 (Sig, PWR)
6
CONTINUOUS
10
155.7067419999999913
20
-102.3933990000000023
11
155.5433150000000069
21
-102.4259069999999952
0
LINE
8
L6 (Sig, PWR)
6
CONTINUOUS
10
155.5433150000000069
20
-102.4259069999999952
11
155.3766849999999806
21
-102.4259069999999952
0
LINE
8
L6 (Sig, PWR)
6
CONTINUOUS
10
155.3766849999999806
20
-102.4259069999999952
11
155.2132579999999962
21
-102.3933990000000023
0
LINE
8
L6 (Sig, PWR)
6
CONTINUOUS
10
155.2132579999999962
20
-102.3933990000000023
11
155.0593130000000031
21
-102.3296330000000012
0
LINE
8
L6 (Sig, PWR)
6
CONTINUOUS
10
155.0593130000000031
20
-102.3296330000000012
11
154.9207659999999862
21
-102.2370590000000021
0
LINE
8
L6 (Sig, PWR)
6
CONTINUOUS
10
154.9207659999999862
20
-102.2370590000000021
11
154.8029410000000041
21
-102.1192339999999916
0
LINE
8
L6 (Sig, PWR)
6
CONTINUOUS
10
154.8029410000000041
20
-102.1192339999999916
11
154.7103669999999909
21
-101.980686999999989
0
LINE
8
L6 (Sig, PWR)
6
CONTINUOUS
10
154.7103669999999909
20
-101.980686999999989
11
154.646601000000004
21
-101.8267419999999959
0
LINE
8
L6 (Sig, PWR)
6
CONTINUOUS
10
154.646601000000004
20
-101.8267419999999959
11
154.6140929999999969
21
-101.6633149999999972
0
LINE
8
L6 (Sig, PWR)
6
CONTINUOUS
10
154.6140929999999969
20
-101.6633149999999972
11
154.6140929999999969
21
-101.4966849999999994
0
LINE
8
L6 (Sig, PWR)
6
CONTINUOUS
10
154.6140929999999969
20
-101.4966849999999994
11
154.646601000000004
21
-101.3332580000000007
0
LINE
8
L6 (Sig, PWR)
6
CONTINUOUS
10
154.646601000000004
20
-101.3332580000000007
11
154.7103669999999909
21
-101.1793129999999934
0
LINE
8
L6 (Sig, PWR)
6
CONTINUOUS
10
154.7103669999999909
20
-101.1793129999999934
11
154.8029410000000041
21
-101.0407659999999908
0
LINE
8
L6 (Sig, PWR)
6
CONTINUOUS
10
154.8029410000000041
20
-101.0407659999999908
11
154.9207659999999862
21
-100.9229409999999945
0
LINE
8
L6 (Sig, PWR)
6
CONTINUOUS
10
154.9207659999999862
20
-100.9229409999999945
11
155.0593130000000031
21
-100.8303669999999954
0
LINE
8
L6 (Sig, PWR)
6
CONTINUOUS
10
155.0593130000000031
20
-100.8303669999999954
11
155.2132579999999962
21
-100.7666009999999943
0
LINE
8
L6 (Sig, PWR)
6
CONTINUOUS
10
155.2132579999999962
20
-100.7666009999999943
11
155.3766849999999806
21
-100.7340930000000014
0
LINE
8
L6 (Sig, PWR)
6
CONTINUOUS
10
155.3766849999999806
20
-100.7340930000000014
11
155.5433150000000069
21
-100.7340930000000014
0
LINE
8
L6 (Sig, PWR)
6
CONTINUOUS
10
155.5433150000000069
20
-100.7340930000000014
11
155.7067419999999913
21
-100.7666009999999943
0
LINE
8
L6 (Sig, PWR)
6
CONTINUOUS
10
158.2467419999999834
20
-100.7666009999999943
11
158.4006870000000049
21
-100.8303669999999954
0
LINE
8
L6 (Sig, PWR)
6
CONTINUOUS
10
158.4006870000000049
20
-100.8303669999999954
11
158.5392339999999933
21
-100.9229409999999945
0
LINE
8
L6 (Sig, PWR)
6
CONTINUOUS
10
158.5392339999999933
20
-100.9229409999999945
11
158.6570590000000038
21
-101.0407659999999908
0
LINE
8
L6 (Sig, PWR)
6
CONTINUOUS
10
158.6570590000000038
20
-101.0407659999999908
11
158.7496329999999887
21
-101.1793129999999934
0
LINE
8
L6 (Sig, PWR)
6
CONTINUOUS
10
158.7496329999999887
20
-101.1793129999999934
11
158.813399000000004
21
-101.3332580000000007
0
LINE
8
L6 (Sig, PWR)
6
CONTINUOUS
10
158.813399000000004
20
-101.3332580000000007
11
158.8459069999999826
21
-101.4966849999999994
0
LINE
8
L6 (Sig, PWR)
6
CONTINUOUS
10
158.8459069999999826
20
-101.4966849999999994
11
158.8459069999999826
21
-101.6633149999999972
0
LINE
8
L6 (Sig, PWR)
6
CONTINUOUS
10
158.8459069999999826
20
-101.6633149999999972
11
158.813399000000004
21
-101.8267419999999959
0
LINE
8
L6 (Sig, PWR)
6
CONTINUOUS
10
158.813399000000004
20
-101.8267419999999959
11
158.7496329999999887
21
-101.980686999999989
0
LINE
8
L6 (Sig, PWR)
6
CONTINUOUS
10
158.7496329999999887
20
-101.980686999999989
11
158.6570590000000038
21
-102.1192339999999916
0
LINE
8
L6 (Sig, PWR)
6
CONTINUOUS
10
158.6570590000000038
20
-102.1192339999999916
11
158.5392339999999933
21
-102.2370590000000021
0
LINE
8
L6 (Sig, PWR)
6
CONTINUOUS
10
158.5392339999999933
20
-102.2370590000000021
11
158.4006870000000049
21
-102.3296330000000012
0
LINE
8
L6 (Sig, PWR)
6
CONTINUOUS
10
158.4006870000000049
20
-102.3296330000000012
11
158.2467419999999834
21
-102.3933990000000023
0
LINE
8
L6 (Sig, PWR)
6
CONTINUOUS
10
158.2467419999999834
20
-102.3933990000000023
11
158.0833149999999989
21
-102.4259069999999952
0
LINE
8
L6 (Sig, PWR)
6
CONTINUOUS
10
158.0833149999999989
20
-102.4259069999999952
11
157.9166850000000011
21
-102.4259069999999952
0
LINE
8
L6 (Sig, PWR)
6
CONTINUOUS
10
157.9166850000000011
20
-102.4259069999999952
11
157.7532579999999882
21
-102.3933990000000023
0
LINE
8
L6 (Sig, PWR)
6
CONTINUOUS
10
157.7532579999999882
20
-102.3933990000000023
11
157.5993129999999951
21
-102.3296330000000012
0
LINE
8
L6 (Sig, PWR)
6
CONTINUOUS
10
157.5993129999999951
20
-102.3296330000000012
11
157.4607660000000067
21
-102.2370590000000021
0
LINE
8
L6 (Sig, PWR)
6
CONTINUOUS
10
157.4607660000000067
20
-102.2370590000000021
11
157.3429409999999962
21
-102.1192339999999916
0
LINE
8
L6 (Sig, PWR)
6
CONTINUOUS
10
157.3429409999999962
20
-102.1192339999999916
11
157.2503669999999829
21
-101.980686999999989
0
LINE
8
L6 (Sig, PWR)
6
CONTINUOUS
10
157.2503669999999829
20
-101.980686999999989
11
157.186600999999996
21
-101.8267419999999959
0
LINE
8
L6 (Sig, PWR)
6
CONTINUOUS
10
157.186600999999996
20
-101.8267419999999959
11
157.1540929999999889
21
-101.6633149999999972
0
LINE
8
L6 (Sig, PWR)
6
CONTINUOUS
10
157.1540929999999889
20
-101.6633149999999972
11
157.1540929999999889
21
-101.4966849999999994
0
LINE
8
L6 (Sig, PWR)
6
CONTINUOUS
10
157.1540929999999889
20
-101.4966849999999994
11
157.186600999999996
21
-101.3332580000000007
0
LINE
8
L6 (Sig, PWR)
6
CONTINUOUS
10
157.186600999999996
20
-101.3332580000000007
11
157.2503669999999829
21
-101.1793129999999934
0
LINE
8
L6 (Sig, PWR)
6
CONTINUOUS
10
157.2503669999999829
20
-101.1793129999999934
11
157.3429409999999962
21
-101.0407659999999908
0
LINE
8
L6 (Sig, PWR)
6
CONTINUOUS
10
157.3429409999999962
20
-101.0407659999999908
11
157.4607660000000067
21
-100.9229409999999945
0
LINE
8
L6 (Sig, PWR)
6
CONTINUOUS
10
157.4607660000000067
20
-100.9229409999999945
11
157.5993129999999951
21
-100.8303669999999954
0
LINE
8
L6 (Sig, PWR)
6
CONTINUOUS
10
157.5993129999999951
20
-100.8303669999999954
11
157.7532579999999882
21
-100.7666009999999943
0
LINE
8
L6 (Sig, PWR)
6
CONTINUOUS
10
157.7532579999999882
20
-100.7666009999999943
11
157.9166850000000011
21
-100.7340930000000014
0
LINE
8
L6 (Sig, PWR)
6
CONTINUOUS
10
157.9166850000000011
20
-100.7340930000000014
11
158.0833149999999989
21
-100.7340930000000014
0
LINE
8
L6 (Sig, PWR)
6
CONTINUOUS
10
158.0833149999999989
20
-100.7340930000000014
11
158.2467419999999834
21
-100.7666009999999943
0
LINE
8
L6 (Sig, PWR)
6
CONTINUOUS
10
132.5717889999999954
20
-101.2747049999999973
11
132.7104759999999999
21
-101.3118659999999949
0
LINE
8
L6 (Sig, PWR)
6
CONTINUOUS
10
132.7104759999999999
20
-101.3118659999999949
11
132.8348189999999818
21
-101.383656000000002
0
LINE
8
L6 (Sig, PWR)
6
CONTINUOUS
10
132.8348189999999818
20
-101.383656000000002
11
132.9363439999999912
21
-101.4851809999999972
0
LINE
8
L6 (Sig, PWR)
6
CONTINUOUS
10
132.9363439999999912
20
-101.4851809999999972
11
133.0081339999999841
21
-101.6095239999999933
0
LINE
8
L6 (Sig, PWR)
6
CONTINUOUS
10
133.0081339999999841
20
-101.6095239999999933
11
133.0452949999999817
21
-101.7482109999999977
0
LINE
8
L6 (Sig, PWR)
6
CONTINUOUS
10
133.0452949999999817
20
-101.7482109999999977
11
133.0452949999999817
21
-101.8917889999999886
0
LINE
8
L6 (Sig, PWR)
6
CONTINUOUS
10
133.0452949999999817
20
-101.8917889999999886
11
133.0081339999999841
21
-102.0304759999999931
0
LINE
8
L6 (Sig, PWR)
6
CONTINUOUS
10
133.0081339999999841
20
-102.0304759999999931
11
132.9363439999999912
21
-102.1548189999999892
0
LINE
8
L6 (Sig, PWR)
6
CONTINUOUS
10
132.9363439999999912
20
-102.1548189999999892
11
132.8348189999999818
21
-102.2563439999999986
0
LINE
8
L6 (Sig, PWR)
6
CONTINUOUS
10
132.8348189999999818
20
-102.2563439999999986
11
132.7104759999999999
21
-102.3281339999999915
0
LINE
8
L6 (Sig, PWR)
6
CONTINUOUS
10
132.7104759999999999
20
-102.3281339999999915
11
132.5717889999999954
21
-102.365294999999989
0
LINE
8
L6 (Sig, PWR)
6
CONTINUOUS
10
132.5717889999999954
20
-102.365294999999989
11
132.5
21
-102.3699999999999903
0
LINE
8
L6 (Sig, PWR)
6
CONTINUOUS
10
132.5
20
-102.3699999999999903
11
131.9000000000000057
21
-102.3699999999999903
0
LINE
8
L6 (Sig, PWR)
6
CONTINUOUS
10
131.9000000000000057
20
-102.3699999999999903
11
131.8282109999999818
21
-102.365294999999989
0
LINE
8
L6 (Sig, PWR)
6
CONTINUOUS
10
131.8282109999999818
20
-102.365294999999989
11
131.6895240000000058
21
-102.3281339999999915
0
LINE
8
L6 (Sig, PWR)
6
CONTINUOUS
10
131.6895240000000058
20
-102.3281339999999915
11
131.5651809999999955
21
-102.2563439999999986
0
LINE
8
L6 (Sig, PWR)
6
CONTINUOUS
10
131.5651809999999955
20
-102.2563439999999986
11
131.4636559999999861
21
-102.1548189999999892
0
LINE
8
L6 (Sig, PWR)
6
CONTINUOUS
10
131.4636559999999861
20
-102.1548189999999892
11
131.3918659999999932
21
-102.0304759999999931
0
LINE
8
L6 (Sig, PWR)
6
CONTINUOUS
10
131.3918659999999932
20
-102.0304759999999931
11
131.3547049999999956
21
-101.8917889999999886
0
LINE
8
L6 (Sig, PWR)
6
CONTINUOUS
10
131.3547049999999956
20
-101.8917889999999886
11
131.3547049999999956
21
-101.7482109999999977
0
LINE
8
L6 (Sig, PWR)
6
CONTINUOUS
10
131.3547049999999956
20
-101.7482109999999977
11
131.3918659999999932
21
-101.6095239999999933
0
LINE
8
L6 (Sig, PWR)
6
CONTINUOUS
10
131.3918659999999932
20
-101.6095239999999933
11
131.4636559999999861
21
-101.4851809999999972
0
LINE
8
L6 (Sig, PWR)
6
CONTINUOUS
10
131.4636559999999861
20
-101.4851809999999972
11
131.5651809999999955
21
-101.383656000000002
0
LINE
8
L6 (Sig, PWR)
6
CONTINUOUS
10
131.5651809999999955
20
-101.383656000000002
11
131.6895240000000058
21
-101.3118659999999949
0
LINE
8
L6 (Sig, PWR)
6
CONTINUOUS
10
131.6895240000000058
20
-101.3118659999999949
11
131.8282109999999818
21
-101.2747049999999973
0
LINE
8
L6 (Sig, PWR)
6
CONTINUOUS
10
131.8282109999999818
20
-101.2747049999999973
11
131.9000000000000057
21
-101.269999999999996
0
LINE
8
L6 (Sig, PWR)
6
CONTINUOUS
10
131.9000000000000057
20
-101.269999999999996
11
132.5
21
-101.269999999999996
0
LINE
8
L6 (Sig, PWR)
6
CONTINUOUS
10
132.5
20
-101.269999999999996
11
132.5717889999999954
21
-101.2747049999999973
0
LINE
8
L6 (Sig, PWR)
6
CONTINUOUS
10
136.3717890000000068
20
-101.2747049999999973
11
136.5104759999999828
21
-101.3118659999999949
0
LINE
8
L6 (Sig, PWR)
6
CONTINUOUS
10
136.5104759999999828
20
-101.3118659999999949
11
136.6348189999999931
21
-101.383656000000002
0
LINE
8
L6 (Sig, PWR)
6
CONTINUOUS
10
136.6348189999999931
20
-101.383656000000002
11
136.7363440000000026
21
-101.4851809999999972
0
LINE
8
L6 (Sig, PWR)
6
CONTINUOUS
10
136.7363440000000026
20
-101.4851809999999972
11
136.8081339999999955
21
-101.6095239999999933
0
LINE
8
L6 (Sig, PWR)
6
CONTINUOUS
10
136.8081339999999955
20
-101.6095239999999933
11
136.845294999999993
21
-101.7482109999999977
0
LINE
8
L6 (Sig, PWR)
6
CONTINUOUS
10
136.845294999999993
20
-101.7482109999999977
11
136.845294999999993
21
-101.8917889999999886
0
LINE
8
L6 (Sig, PWR)
6
CONTINUOUS
10
136.845294999999993
20
-101.8917889999999886
11
136.8081339999999955
21
-102.0304759999999931
0
LINE
8
L6 (Sig, PWR)
6
CONTINUOUS
10
136.8081339999999955
20
-102.0304759999999931
11
136.7363440000000026
21
-102.1548189999999892
0
LINE
8
L6 (Sig, PWR)
6
CONTINUOUS
10
136.7363440000000026
20
-102.1548189999999892
11
136.6348189999999931
21
-102.2563439999999986
0
LINE
8
L6 (Sig, PWR)
6
CONTINUOUS
10
136.6348189999999931
20
-102.2563439999999986
11
136.5104759999999828
21
-102.3281339999999915
0
LINE
8
L6 (Sig, PWR)
6
CONTINUOUS
10
136.5104759999999828
20
-102.3281339999999915
11
136.3717890000000068
21
-102.365294999999989
0
LINE
8
L6 (Sig, PWR)
6
CONTINUOUS
10
136.3717890000000068
20
-102.365294999999989
11
136.2999999999999829
21
-102.3699999999999903
0
LINE
8
L6 (Sig, PWR)
6
CONTINUOUS
10
136.2999999999999829
20
-102.3699999999999903
11
135.6999999999999886
21
-102.3699999999999903
0
LINE
8
L6 (Sig, PWR)
6
CONTINUOUS
10
135.6999999999999886
20
-102.3699999999999903
11
135.6282109999999932
21
-102.365294999999989
0
LINE
8
L6 (Sig, PWR)
6
CONTINUOUS
10
135.6282109999999932
20
-102.365294999999989
11
135.4895239999999887
21
-102.3281339999999915
0
LINE
8
L6 (Sig, PWR)
6
CONTINUOUS
10
135.4895239999999887
20
-102.3281339999999915
11
135.3651810000000069
21
-102.2563439999999986
0
LINE
8
L6 (Sig, PWR)
6
CONTINUOUS
10
135.3651810000000069
20
-102.2563439999999986
11
135.2636559999999974
21
-102.1548189999999892
0
LINE
8
L6 (Sig, PWR)
6
CONTINUOUS
10
135.2636559999999974
20
-102.1548189999999892
11
135.1918660000000045
21
-102.0304759999999931
0
LINE
8
L6 (Sig, PWR)
6
CONTINUOUS
10
135.1918660000000045
20
-102.0304759999999931
11
135.154705000000007
21
-101.8917889999999886
0
LINE
8
L6 (Sig, PWR)
6
CONTINUOUS
10
135.154705000000007
20
-101.8917889999999886
11
135.154705000000007
21
-101.7482109999999977
0
LINE
8
L6 (Sig, PWR)
6
CONTINUOUS
10
135.154705000000007
20
-101.7482109999999977
11
135.1918660000000045
21
-101.6095239999999933
0
LINE
8
L6 (Sig, PWR)
6
CONTINUOUS
10
135.1918660000000045
20
-101.6095239999999933
11
135.2636559999999974
21
-101.4851809999999972
0
LINE
8
L6 (Sig, PWR)
6
CONTINUOUS
10
135.2636559999999974
20
-101.4851809999999972
11
135.3651810000000069
21
-101.383656000000002
0
LINE
8
L6 (Sig, PWR)
6
CONTINUOUS
10
135.3651810000000069
20
-101.383656000000002
11
135.4895239999999887
21
-101.3118659999999949
0
LINE
8
L6 (Sig, PWR)
6
CONTINUOUS
10
135.4895239999999887
20
-101.3118659999999949
11
135.6282109999999932
21
-101.2747049999999973
0
LINE
8
L6 (Sig, PWR)
6
CONTINUOUS
10
135.6282109999999932
20
-101.2747049999999973
11
135.6999999999999886
21
-101.269999999999996
0
LINE
8
L6 (Sig, PWR)
6
CONTINUOUS
10
135.6999999999999886
20
-101.269999999999996
11
136.2999999999999829
21
-101.269999999999996
0
LINE
8
L6 (Sig, PWR)
6
CONTINUOUS
10
136.2999999999999829
20
-101.269999999999996
11
136.3717890000000068
21
-101.2747049999999973
0
LINE
8
L6 (Sig, PWR)
6
CONTINUOUS
10
155.7067419999999913
20
-98.2266010000000023
11
155.8606869999999844
21
-98.2903669999999892
0
LINE
8
L6 (Sig, PWR)
6
CONTINUOUS
10
155.8606869999999844
20
-98.2903669999999892
11
155.9992340000000013
21
-98.3829410000000024
0
LINE
8
L6 (Sig, PWR)
6
CONTINUOUS
10
155.9992340000000013
20
-98.3829410000000024
11
156.1170589999999834
21
-98.5007659999999987
0
LINE
8
L6 (Sig, PWR)
6
CONTINUOUS
10
156.1170589999999834
20
-98.5007659999999987
11
156.2096329999999966
21
-98.6393130000000014
0
LINE
8
L6 (Sig, PWR)
6
CONTINUOUS
10
156.2096329999999966
20
-98.6393130000000014
11
156.2733989999999835
21
-98.7932579999999945
0
LINE
8
L6 (Sig, PWR)
6
CONTINUOUS
10
156.2733989999999835
20
-98.7932579999999945
11
156.3059069999999906
21
-98.9566849999999931
0
LINE
8
L6 (Sig, PWR)
6
CONTINUOUS
10
156.3059069999999906
20
-98.9566849999999931
11
156.3059069999999906
21
-99.123314999999991
0
LINE
8
L6 (Sig, PWR)
6
CONTINUOUS
10
156.3059069999999906
20
-99.123314999999991
11
156.2733989999999835
21
-99.2867419999999896
0
LINE
8
L6 (Sig, PWR)
6
CONTINUOUS
10
156.2733989999999835
20
-99.2867419999999896
11
156.2096329999999966
21
-99.4406869999999969
0
LINE
8
L6 (Sig, PWR)
6
CONTINUOUS
10
156.2096329999999966
20
-99.4406869999999969
11
156.1170589999999834
21
-99.5792339999999996
0
LINE
8
L6 (Sig, PWR)
6
CONTINUOUS
10
156.1170589999999834
20
-99.5792339999999996
11
155.9992340000000013
21
-99.6970589999999959
0
LINE
8
L6 (Sig, PWR)
6
CONTINUOUS
10
155.9992340000000013
20
-99.6970589999999959
11
155.8606869999999844
21
-99.7896329999999949
0
LINE
8
L6 (Sig, PWR)
6
CONTINUOUS
10
155.8606869999999844
20
-99.7896329999999949
11
155.7067419999999913
21
-99.853398999999996
0
LINE
8
L6 (Sig, PWR)
6
CONTINUOUS
10
155.7067419999999913
20
-99.853398999999996
11
155.5433150000000069
21
-99.8859069999999889
0
LINE
8
L6 (Sig, PWR)
6
CONTINUOUS
10
155.5433150000000069
20
-99.8859069999999889
11
155.3766849999999806
21
-99.8859069999999889
0
LINE
8
L6 (Sig, PWR)
6
CONTINUOUS
10
155.3766849999999806
20
-99.8859069999999889
11
155.2132579999999962
21
-99.853398999999996
0
LINE
8
L6 (Sig, PWR)
6
CONTINUOUS
10
155.2132579999999962
20
-99.853398999999996
11
155.0593130000000031
21
-99.7896329999999949
0
LINE
8
L6 (Sig, PWR)
6
CONTINUOUS
10
155.0593130000000031
20
-99.7896329999999949
11
154.9207659999999862
21
-99.6970589999999959
0
LINE
8
L6 (Sig, PWR)
6
CONTINUOUS
10
154.9207659999999862
20
-99.6970589999999959
11
154.8029410000000041
21
-99.5792339999999996
0
LINE
8
L6 (Sig, PWR)
6
CONTINUOUS
10
154.8029410000000041
20
-99.5792339999999996
11
154.7103669999999909
21
-99.4406869999999969
0
LINE
8
L6 (Sig, PWR)
6
CONTINUOUS
10
154.7103669999999909
20
-99.4406869999999969
11
154.646601000000004
21
-99.2867419999999896
0
LINE
8
L6 (Sig, PWR)
6
CONTINUOUS
10
154.646601000000004
20
-99.2867419999999896
11
154.6140929999999969
21
-99.123314999999991
0
LINE
8
L6 (Sig, PWR)
6
CONTINUOUS
10
154.6140929999999969
20
-99.123314999999991
11
154.6140929999999969
21
-98.9566849999999931
0
LINE
8
L6 (Sig, PWR)
6
CONTINUOUS
10
154.6140929999999969
20
-98.9566849999999931
11
154.646601000000004
21
-98.7932579999999945
0
LINE
8
L6 (Sig, PWR)
6
CONTINUOUS
10
154.646601000000004
20
-98.7932579999999945
11
154.7103669999999909
21
-98.6393130000000014
0
LINE
8
L6 (Sig, PWR)
6
CONTINUOUS
10
154.7103669999999909
20
-98.6393130000000014
11
154.8029410000000041
21
-98.5007659999999987
0
LINE
8
L6 (Sig, PWR)
6
CONTINUOUS
10
154.8029410000000041
20
-98.5007659999999987
11
154.9207659999999862
21
-98.3829410000000024
0
LINE
8
L6 (Sig, PWR)
6
CONTINUOUS
10
154.9207659999999862
20
-98.3829410000000024
11
155.0593130000000031
21
-98.2903669999999892
0
LINE
8
L6 (Sig, PWR)
6
CONTINUOUS
10
155.0593130000000031
20
-98.2903669999999892
11
155.2132579999999962
21
-98.2266010000000023
0
LINE
8
L6 (Sig, PWR)
6
CONTINUOUS
10
155.2132579999999962
20
-98.2266010000000023
11
155.3766849999999806
21
-98.1940929999999952
0
LINE
8
L6 (Sig, PWR)
6
CONTINUOUS
10
155.3766849999999806
20
-98.1940929999999952
11
155.5433150000000069
21
-98.1940929999999952
0
LINE
8
L6 (Sig, PWR)
6
CONTINUOUS
10
155.5433150000000069
20
-98.1940929999999952
11
155.7067419999999913
21
-98.2266010000000023
0
LINE
8
L6 (Sig, PWR)
6
CONTINUOUS
10
158.2467419999999834
20
-98.2266010000000023
11
158.4006870000000049
21
-98.2903669999999892
0
LINE
8
L6 (Sig, PWR)
6
CONTINUOUS
10
158.4006870000000049
20
-98.2903669999999892
11
158.5392339999999933
21
-98.3829410000000024
0
LINE
8
L6 (Sig, PWR)
6
CONTINUOUS
10
158.5392339999999933
20
-98.3829410000000024
11
158.6570590000000038
21
-98.5007659999999987
0
LINE
8
L6 (Sig, PWR)
6
CONTINUOUS
10
158.6570590000000038
20
-98.5007659999999987
11
158.7496329999999887
21
-98.6393130000000014
0
LINE
8
L6 (Sig, PWR)
6
CONTINUOUS
10
158.7496329999999887
20
-98.6393130000000014
11
158.813399000000004
21
-98.7932579999999945
0
LINE
8
L6 (Sig, PWR)
6
CONTINUOUS
10
158.813399000000004
20
-98.7932579999999945
11
158.8459069999999826
21
-98.9566849999999931
0
LINE
8
L6 (Sig, PWR)
6
CONTINUOUS
10
158.8459069999999826
20
-98.9566849999999931
11
158.8459069999999826
21
-99.123314999999991
0
LINE
8
L6 (Sig, PWR)
6
CONTINUOUS
10
158.8459069999999826
20
-99.123314999999991
11
158.813399000000004
21
-99.2867419999999896
0
LINE
8
L6 (Sig, PWR)
6
CONTINUOUS
10
158.813399000000004
20
-99.2867419999999896
11
158.7496329999999887
21
-99.4406869999999969
0
LINE
8
L6 (Sig, PWR)
6
CONTINUOUS
10
158.7496329999999887
20
-99.4406869999999969
11
158.6570590000000038
21
-99.5792339999999996
0
LINE
8
L6 (Sig, PWR)
6
CONTINUOUS
10
158.6570590000000038
20
-99.5792339999999996
11
158.5392339999999933
21
-99.6970589999999959
0
LINE
8
L6 (Sig, PWR)
6
CONTINUOUS
10
158.5392339999999933
20
-99.6970589999999959
11
158.4006870000000049
21
-99.7896329999999949
0
LINE
8
L6 (Sig, PWR)
6
CONTINUOUS
10
158.4006870000000049
20
-99.7896329999999949
11
158.2467419999999834
21
-99.853398999999996
0
LINE
8
L6 (Sig, PWR)
6
CONTINUOUS
10
158.2467419999999834
20
-99.853398999999996
11
158.0833149999999989
21
-99.8859069999999889
0
LINE
8
L6 (Sig, PWR)
6
CONTINUOUS
10
158.0833149999999989
20
-99.8859069999999889
11
157.9166850000000011
21
-99.8859069999999889
0
LINE
8
L6 (Sig, PWR)
6
CONTINUOUS
10
157.9166850000000011
20
-99.8859069999999889
11
157.7532579999999882
21
-99.853398999999996
0
LINE
8
L6 (Sig, PWR)
6
CONTINUOUS
10
157.7532579999999882
20
-99.853398999999996
11
157.5993129999999951
21
-99.7896329999999949
0
LINE
8
L6 (Sig, PWR)
6
CONTINUOUS
10
157.5993129999999951
20
-99.7896329999999949
11
157.4607660000000067
21
-99.6970589999999959
0
LINE
8
L6 (Sig, PWR)
6
CONTINUOUS
10
157.4607660000000067
20
-99.6970589999999959
11
157.3429409999999962
21
-99.5792339999999996
0
LINE
8
L6 (Sig, PWR)
6
CONTINUOUS
10
157.3429409999999962
20
-99.5792339999999996
11
157.2503669999999829
21
-99.4406869999999969
0
LINE
8
L6 (Sig, PWR)
6
CONTINUOUS
10
157.2503669999999829
20
-99.4406869999999969
11
157.186600999999996
21
-99.2867419999999896
0
LINE
8
L6 (Sig, PWR)
6
CONTINUOUS
10
157.186600999999996
20
-99.2867419999999896
11
157.1540929999999889
21
-99.123314999999991
0
LINE
8
L6 (Sig, PWR)
6
CONTINUOUS
10
157.1540929999999889
20
-99.123314999999991
11
157.1540929999999889
21
-98.9566849999999931
0
LINE
8
L6 (Sig, PWR)
6
CONTINUOUS
10
157.1540929999999889
20
-98.9566849999999931
11
157.186600999999996
21
-98.7932579999999945
0
LINE
8
L6 (Sig, PWR)
6
CONTINUOUS
10
157.186600999999996
20
-98.7932579999999945
11
157.2503669999999829
21
-98.6393130000000014
0
LINE
8
L6 (Sig, PWR)
6
CONTINUOUS
10
157.2503669999999829
20
-98.6393130000000014
11
157.3429409999999962
21
-98.5007659999999987
0
LINE
8
L6 (Sig, PWR)
6
CONTINUOUS
10
157.3429409999999962
20
-98.5007659999999987
11
157.4607660000000067
21
-98.3829410000000024
0
LINE
8
L6 (Sig, PWR)
6
CONTINUOUS
10
157.4607660000000067
20
-98.3829410000000024
11
157.5993129999999951
21
-98.2903669999999892
0
LINE
8
L6 (Sig, PWR)
6
CONTINUOUS
10
157.5993129999999951
20
-98.2903669999999892
11
157.7532579999999882
21
-98.2266010000000023
0
LINE
8
L6 (Sig, PWR)
6
CONTINUOUS
10
157.7532579999999882
20
-98.2266010000000023
11
157.9166850000000011
21
-98.1940929999999952
0
LINE
8
L6 (Sig, PWR)
6
CONTINUOUS
10
157.9166850000000011
20
-98.1940929999999952
11
158.0833149999999989
21
-98.1940929999999952
0
LINE
8
L6 (Sig, PWR)
6
CONTINUOUS
10
158.0833149999999989
20
-98.1940929999999952
11
158.2467419999999834
21
-98.2266010000000023
0
LINE
8
L6 (Sig, PWR)
6
CONTINUOUS
10
132.2177140000000009
20
-96.7822949999999906
11
132.3535479999999893
21
-96.8385589999999894
0
LINE
8
L6 (Sig, PWR)
6
CONTINUOUS
10
132.3535479999999893
20
-96.8385589999999894
11
132.4757950000000051
21
-96.9202420000000018
0
LINE
8
L6 (Sig, PWR)
6
CONTINUOUS
10
132.4757950000000051
20
-96.9202420000000018
11
132.5797579999999982
21
-97.0242049999999949
0
LINE
8
L6 (Sig, PWR)
6
CONTINUOUS
10
132.5797579999999982
20
-97.0242049999999949
11
132.6614409999999964
21
-97.1464519999999965
0
LINE
8
L6 (Sig, PWR)
6
CONTINUOUS
10
132.6614409999999964
20
-97.1464519999999965
11
132.7177049999999952
21
-97.2822859999999991
0
LINE
8
L6 (Sig, PWR)
6
CONTINUOUS
10
132.7177049999999952
20
-97.2822859999999991
11
132.7463889999999935
21
-97.4264869999999945
0
LINE
8
L6 (Sig, PWR)
6
CONTINUOUS
10
132.7463889999999935
20
-97.4264869999999945
11
132.7463889999999935
21
-97.5735129999999913
0
LINE
8
L6 (Sig, PWR)
6
CONTINUOUS
10
132.7463889999999935
20
-97.5735129999999913
11
132.7177049999999952
21
-97.7177140000000009
0
LINE
8
L6 (Sig, PWR)
6
CONTINUOUS
10
132.7177049999999952
20
-97.7177140000000009
11
132.6614409999999964
21
-97.8535479999999893
0
LINE
8
L6 (Sig, PWR)
6
CONTINUOUS
10
132.6614409999999964
20
-97.8535479999999893
11
132.5797579999999982
21
-97.9757949999999909
0
LINE
8
L6 (Sig, PWR)
6
CONTINUOUS
10
132.5797579999999982
20
-97.9757949999999909
11
132.4757950000000051
21
-98.0797579999999982
0
LINE
8
L6 (Sig, PWR)
6
CONTINUOUS
10
132.4757950000000051
20
-98.0797579999999982
11
132.3535479999999893
21
-98.1614409999999964
0
LINE
8
L6 (Sig, PWR)
6
CONTINUOUS
10
132.3535479999999893
20
-98.1614409999999964
11
132.2177140000000009
21
-98.2177049999999952
0
LINE
8
L6 (Sig, PWR)
6
CONTINUOUS
10
132.2177140000000009
20
-98.2177049999999952
11
132.0735129999999913
21
-98.2463889999999935
0
LINE
8
L6 (Sig, PWR)
6
CONTINUOUS
10
132.0735129999999913
20
-98.2463889999999935
11
131.9264869999999803
21
-98.2463889999999935
0
LINE
8
L6 (Sig, PWR)
6
CONTINUOUS
10
131.9264869999999803
20
-98.2463889999999935
11
131.7822859999999991
21
-98.2177049999999952
0
LINE
8
L6 (Sig, PWR)
6
CONTINUOUS
10
131.7822859999999991
20
-98.2177049999999952
11
131.6464519999999823
21
-98.1614409999999964
0
LINE
8
L6 (Sig, PWR)
6
CONTINUOUS
10
131.6464519999999823
20
-98.1614409999999964
11
131.5242049999999949
21
-98.0797579999999982
0
LINE
8
L6 (Sig, PWR)
6
CONTINUOUS
10
131.5242049999999949
20
-98.0797579999999982
11
131.4202420000000018
21
-97.9757949999999909
0
LINE
8
L6 (Sig, PWR)
6
CONTINUOUS
10
131.4202420000000018
20
-97.9757949999999909
11
131.3385590000000036
21
-97.8535479999999893
0
LINE
8
L6 (Sig, PWR)
6
CONTINUOUS
10
131.3385590000000036
20
-97.8535479999999893
11
131.2822950000000048
21
-97.7177140000000009
0
LINE
8
L6 (Sig, PWR)
6
CONTINUOUS
10
131.2822950000000048
20
-97.7177140000000009
11
131.2536110000000065
21
-97.5735129999999913
0
LINE
8
L6 (Sig, PWR)
6
CONTINUOUS
10
131.2536110000000065
20
-97.5735129999999913
11
131.2536110000000065
21
-97.4264869999999945
0
LINE
8
L6 (Sig, PWR)
6
CONTINUOUS
10
131.2536110000000065
20
-97.4264869999999945
11
131.2822950000000048
21
-97.2822859999999991
0
LINE
8
L6 (Sig, PWR)
6
CONTINUOUS
10
131.2822950000000048
20
-97.2822859999999991
11
131.3385590000000036
21
-97.1464519999999965
0
LINE
8
L6 (Sig, PWR)
6
CONTINUOUS
10
131.3385590000000036
20
-97.1464519999999965
11
131.4202420000000018
21
-97.0242049999999949
0
LINE
8
L6 (Sig, PWR)
6
CONTINUOUS
10
131.4202420000000018
20
-97.0242049999999949
11
131.5242049999999949
21
-96.9202420000000018
0
LINE
8
L6 (Sig, PWR)
6
CONTINUOUS
10
131.5242049999999949
20
-96.9202420000000018
11
131.6464519999999823
21
-96.8385589999999894
0
LINE
8
L6 (Sig, PWR)
6
CONTINUOUS
10
131.6464519999999823
20
-96.8385589999999894
11
131.7822859999999991
21
-96.7822949999999906
0
LINE
8
L6 (Sig, PWR)
6
CONTINUOUS
10
131.7822859999999991
20
-96.7822949999999906
11
131.9264869999999803
21
-96.7536109999999923
0
LINE
8
L6 (Sig, PWR)
6
CONTINUOUS
10
131.9264869999999803
20
-96.7536109999999923
11
132.0735129999999913
21
-96.7536109999999923
0
LINE
8
L6 (Sig, PWR)
6
CONTINUOUS
10
132.0735129999999913
20
-96.7536109999999923
11
132.2177140000000009
21
-96.7822949999999906
0
LINE
8
L6 (Sig, PWR)
6
CONTINUOUS
10
155.7067419999999913
20
-95.686600999999996
11
155.8606869999999844
21
-95.7503669999999971
0
LINE
8
L6 (Sig, PWR)
6
CONTINUOUS
10
155.8606869999999844
20
-95.7503669999999971
11
155.9992340000000013
21
-95.8429409999999962
0
LINE
8
L6 (Sig, PWR)
6
CONTINUOUS
10
155.9992340000000013
20
-95.8429409999999962
11
156.1170589999999834
21
-95.9607659999999925
0
LINE
8
L6 (Sig, PWR)
6
CONTINUOUS
10
156.1170589999999834
20
-95.9607659999999925
11
156.2096329999999966
21
-96.0993129999999951
0
LINE
8
L6 (Sig, PWR)
6
CONTINUOUS
10
156.2096329999999966
20
-96.0993129999999951
11
156.2733989999999835
21
-96.2532580000000024
0
LINE
8
L6 (Sig, PWR)
6
CONTINUOUS
10
156.2733989999999835
20
-96.2532580000000024
11
156.3059069999999906
21
-96.4166850000000011
0
LINE
8
L6 (Sig, PWR)
6
CONTINUOUS
10
156.3059069999999906
20
-96.4166850000000011
11
156.3059069999999906
21
-96.5833149999999989
0
LINE
8
L6 (Sig, PWR)
6
CONTINUOUS
10
156.3059069999999906
20
-96.5833149999999989
11
156.2733989999999835
21
-96.7467419999999976
0
LINE
8
L6 (Sig, PWR)
6
CONTINUOUS
10
156.2733989999999835
20
-96.7467419999999976
11
156.2096329999999966
21
-96.9006869999999907
0
LINE
8
L6 (Sig, PWR)
6
CONTINUOUS
10
156.2096329999999966
20
-96.9006869999999907
11
156.1170589999999834
21
-97.0392339999999933
0
LINE
8
L6 (Sig, PWR)
6
CONTINUOUS
10
156.1170589999999834
20
-97.0392339999999933
11
155.9992340000000013
21
-97.1570589999999896
0
LINE
8
L6 (Sig, PWR)
6
CONTINUOUS
10
155.9992340000000013
20
-97.1570589999999896
11
155.8606869999999844
21
-97.2496329999999887
0
LINE
8
L6 (Sig, PWR)
6
CONTINUOUS
10
155.8606869999999844
20
-97.2496329999999887
11
155.7067419999999913
21
-97.3133989999999898
0
LINE
8
L6 (Sig, PWR)
6
CONTINUOUS
10
155.7067419999999913
20
-97.3133989999999898
11
155.5433150000000069
21
-97.3459069999999969
0
LINE
8
L6 (Sig, PWR)
6
CONTINUOUS
10
155.5433150000000069
20
-97.3459069999999969
11
155.3766849999999806
21
-97.3459069999999969
0
LINE
8
L6 (Sig, PWR)
6
CONTINUOUS
10
155.3766849999999806
20
-97.3459069999999969
11
155.2132579999999962
21
-97.3133989999999898
0
LINE
8
L6 (Sig, PWR)
6
CONTINUOUS
10
155.2132579999999962
20
-97.3133989999999898
11
155.0593130000000031
21
-97.2496329999999887
0
LINE
8
L6 (Sig, PWR)
6
CONTINUOUS
10
155.0593130000000031
20
-97.2496329999999887
11
154.9207659999999862
21
-97.1570589999999896
0
LINE
8
L6 (Sig, PWR)
6
CONTINUOUS
10
154.9207659999999862
20
-97.1570589999999896
11
154.8029410000000041
21
-97.0392339999999933
0
LINE
8
L6 (Sig, PWR)
6
CONTINUOUS
10
154.8029410000000041
20
-97.0392339999999933
11
154.7103669999999909
21
-96.9006869999999907
0
LINE
8
L6 (Sig, PWR)
6
CONTINUOUS
10
154.7103669999999909
20
-96.9006869999999907
11
154.646601000000004
21
-96.7467419999999976
0
LINE
8
L6 (Sig, PWR)
6
CONTINUOUS
10
154.646601000000004
20
-96.7467419999999976
11
154.6140929999999969
21
-96.5833149999999989
0
LINE
8
L6 (Sig, PWR)
6
CONTINUOUS
10
154.6140929999999969
20
-96.5833149999999989
11
154.6140929999999969
21
-96.4166850000000011
0
LINE
8
L6 (Sig, PWR)
6
CONTINUOUS
10
154.6140929999999969
20
-96.4166850000000011
11
154.646601000000004
21
-96.2532580000000024
0
LINE
8
L6 (Sig, PWR)
6
CONTINUOUS
10
154.646601000000004
20
-96.2532580000000024
11
154.7103669999999909
21
-96.0993129999999951
0
LINE
8
L6 (Sig, PWR)
6
CONTINUOUS
10
154.7103669999999909
20
-96.0993129999999951
11
154.8029410000000041
21
-95.9607659999999925
0
LINE
8
L6 (Sig, PWR)
6
CONTINUOUS
10
154.8029410000000041
20
-95.9607659999999925
11
154.9207659999999862
21
-95.8429409999999962
0
LINE
8
L6 (Sig, PWR)
6
CONTINUOUS
10
154.9207659999999862
20
-95.8429409999999962
11
155.0593130000000031
21
-95.7503669999999971
0
LINE
8
L6 (Sig, PWR)
6
CONTINUOUS
10
155.0593130000000031
20
-95.7503669999999971
11
155.2132579999999962
21
-95.686600999999996
0
LINE
8
L6 (Sig, PWR)
6
CONTINUOUS
10
155.2132579999999962
20
-95.686600999999996
11
155.3766849999999806
21
-95.6540929999999889
0
LINE
8
L6 (Sig, PWR)
6
CONTINUOUS
10
155.3766849999999806
20
-95.6540929999999889
11
155.5433150000000069
21
-95.6540929999999889
0
LINE
8
L6 (Sig, PWR)
6
CONTINUOUS
10
155.5433150000000069
20
-95.6540929999999889
11
155.7067419999999913
21
-95.686600999999996
0
LINE
8
L6 (Sig, PWR)
6
CONTINUOUS
10
158.2467419999999834
20
-95.686600999999996
11
158.4006870000000049
21
-95.7503669999999971
0
LINE
8
L6 (Sig, PWR)
6
CONTINUOUS
10
158.4006870000000049
20
-95.7503669999999971
11
158.5392339999999933
21
-95.8429409999999962
0
LINE
8
L6 (Sig, PWR)
6
CONTINUOUS
10
158.5392339999999933
20
-95.8429409999999962
11
158.6570590000000038
21
-95.9607659999999925
0
LINE
8
L6 (Sig, PWR)
6
CONTINUOUS
10
158.6570590000000038
20
-95.9607659999999925
11
158.7496329999999887
21
-96.0993129999999951
0
LINE
8
L6 (Sig, PWR)
6
CONTINUOUS
10
158.7496329999999887
20
-96.0993129999999951
11
158.813399000000004
21
-96.2532580000000024
0
LINE
8
L6 (Sig, PWR)
6
CONTINUOUS
10
158.813399000000004
20
-96.2532580000000024
11
158.8459069999999826
21
-96.4166850000000011
0
LINE
8
L6 (Sig, PWR)
6
CONTINUOUS
10
158.8459069999999826
20
-96.4166850000000011
11
158.8459069999999826
21
-96.5833149999999989
0
LINE
8
L6 (Sig, PWR)
6
CONTINUOUS
10
158.8459069999999826
20
-96.5833149999999989
11
158.813399000000004
21
-96.7467419999999976
0
LINE
8
L6 (Sig, PWR)
6
CONTINUOUS
10
158.813399000000004
20
-96.7467419999999976
11
158.7496329999999887
21
-96.9006869999999907
0
LINE
8
L6 (Sig, PWR)
6
CONTINUOUS
10
158.7496329999999887
20
-96.9006869999999907
11
158.6570590000000038
21
-97.0392339999999933
0
LINE
8
L6 (Sig, PWR)
6
CONTINUOUS
10
158.6570590000000038
20
-97.0392339999999933
11
158.5392339999999933
21
-97.1570589999999896
0
LINE
8
L6 (Sig, PWR)
6
CONTINUOUS
10
158.5392339999999933
20
-97.1570589999999896
11
158.4006870000000049
21
-97.2496329999999887
0
LINE
8
L6 (Sig, PWR)
6
CONTINUOUS
10
158.4006870000000049
20
-97.2496329999999887
11
158.2467419999999834
21
-97.3133989999999898
0
LINE
8
L6 (Sig, PWR)
6
CONTINUOUS
10
158.2467419999999834
20
-97.3133989999999898
11
158.0833149999999989
21
-97.3459069999999969
0
LINE
8
L6 (Sig, PWR)
6
CONTINUOUS
10
158.0833149999999989
20
-97.3459069999999969
11
157.9166850000000011
21
-97.3459069999999969
0
LINE
8
L6 (Sig, PWR)
6
CONTINUOUS
10
157.9166850000000011
20
-97.3459069999999969
11
157.7532579999999882
21
-97.3133989999999898
0
LINE
8
L6 (Sig, PWR)
6
CONTINUOUS
10
157.7532579999999882
20
-97.3133989999999898
11
157.5993129999999951
21
-97.2496329999999887
0
LINE
8
L6 (Sig, PWR)
6
CONTINUOUS
10
157.5993129999999951
20
-97.2496329999999887
11
157.4607660000000067
21
-97.1570589999999896
0
LINE
8
L6 (Sig, PWR)
6
CONTINUOUS
10
157.4607660000000067
20
-97.1570589999999896
11
157.3429409999999962
21
-97.0392339999999933
0
LINE
8
L6 (Sig, PWR)
6
CONTINUOUS
10
157.3429409999999962
20
-97.0392339999999933
11
157.2503669999999829
21
-96.9006869999999907
0
LINE
8
L6 (Sig, PWR)
6
CONTINUOUS
10
157.2503669999999829
20
-96.9006869999999907
11
157.186600999999996
21
-96.7467419999999976
0
LINE
8
L6 (Sig, PWR)
6
CONTINUOUS
10
157.186600999999996
20
-96.7467419999999976
11
157.1540929999999889
21
-96.5833149999999989
0
LINE
8
L6 (Sig, PWR)
6
CONTINUOUS
10
157.1540929999999889
20
-96.5833149999999989
11
157.1540929999999889
21
-96.4166850000000011
0
LINE
8
L6 (Sig, PWR)
6
CONTINUOUS
10
157.1540929999999889
20
-96.4166850000000011
11
157.186600999999996
21
-96.2532580000000024
0
LINE
8
L6 (Sig, PWR)
6
CONTINUOUS
10
157.186600999999996
20
-96.2532580000000024
11
157.2503669999999829
21
-96.0993129999999951
0
LINE
8
L6 (Sig, PWR)
6
CONTINUOUS
10
157.2503669999999829
20
-96.0993129999999951
11
157.3429409999999962
21
-95.9607659999999925
0
LINE
8
L6 (Sig, PWR)
6
CONTINUOUS
10
157.3429409999999962
20
-95.9607659999999925
11
157.4607660000000067
21
-95.8429409999999962
0
LINE
8
L6 (Sig, PWR)
6
CONTINUOUS
10
157.4607660000000067
20
-95.8429409999999962
11
157.5993129999999951
21
-95.7503669999999971
0
LINE
8
L6 (Sig, PWR)
6
CONTINUOUS
10
157.5993129999999951
20
-95.7503669999999971
11
157.7532579999999882
21
-95.686600999999996
0
LINE
8
L6 (Sig, PWR)
6
CONTINUOUS
10
157.7532579999999882
20
-95.686600999999996
11
157.9166850000000011
21
-95.6540929999999889
0
LINE
8
L6 (Sig, PWR)
6
CONTINUOUS
10
157.9166850000000011
20
-95.6540929999999889
11
158.0833149999999989
21
-95.6540929999999889
0
LINE
8
L6 (Sig, PWR)
6
CONTINUOUS
10
158.0833149999999989
20
-95.6540929999999889
11
158.2467419999999834
21
-95.686600999999996
0
LINE
8
L6 (Sig, PWR)
6
CONTINUOUS
10
156.3100000000000023
20
-94.8100000000000023
11
154.6099999999999852
21
-94.8100000000000023
0
LINE
8
L6 (Sig, PWR)
6
CONTINUOUS
10
154.6099999999999852
20
-94.8100000000000023
11
154.6099999999999852
21
-93.1099999999999994
0
LINE
8
L6 (Sig, PWR)
6
CONTINUOUS
10
154.6099999999999852
20
-93.1099999999999994
11
156.3100000000000023
21
-93.1099999999999994
0
LINE
8
L6 (Sig, PWR)
6
CONTINUOUS
10
156.3100000000000023
20
-93.1099999999999994
11
156.3100000000000023
21
-94.8100000000000023
0
LINE
8
L6 (Sig, PWR)
6
CONTINUOUS
10
158.2467419999999834
20
-93.1466009999999898
11
158.4006870000000049
21
-93.2103669999999909
0
LINE
8
L6 (Sig, PWR)
6
CONTINUOUS
10
158.4006870000000049
20
-93.2103669999999909
11
158.5392339999999933
21
-93.3029409999999899
0
LINE
8
L6 (Sig, PWR)
6
CONTINUOUS
10
158.5392339999999933
20
-93.3029409999999899
11
158.6570590000000038
21
-93.4207660000000004
0
LINE
8
L6 (Sig, PWR)
6
CONTINUOUS
10
158.6570590000000038
20
-93.4207660000000004
11
158.7496329999999887
21
-93.5593129999999888
0
LINE
8
L6 (Sig, PWR)
6
CONTINUOUS
10
158.7496329999999887
20
-93.5593129999999888
11
158.813399000000004
21
-93.7132579999999962
0
LINE
8
L6 (Sig, PWR)
6
CONTINUOUS
10
158.813399000000004
20
-93.7132579999999962
11
158.8459069999999826
21
-93.8766849999999948
0
LINE
8
L6 (Sig, PWR)
6
CONTINUOUS
10
158.8459069999999826
20
-93.8766849999999948
11
158.8459069999999826
21
-94.0433149999999927
0
LINE
8
L6 (Sig, PWR)
6
CONTINUOUS
10
158.8459069999999826
20
-94.0433149999999927
11
158.813399000000004
21
-94.2067419999999913
0
LINE
8
L6 (Sig, PWR)
6
CONTINUOUS
10
158.813399000000004
20
-94.2067419999999913
11
158.7496329999999887
21
-94.3606869999999986
0
LINE
8
L6 (Sig, PWR)
6
CONTINUOUS
10
158.7496329999999887
20
-94.3606869999999986
11
158.6570590000000038
21
-94.4992340000000013
0
LINE
8
L6 (Sig, PWR)
6
CONTINUOUS
10
158.6570590000000038
20
-94.4992340000000013
11
158.5392339999999933
21
-94.6170589999999976
0
LINE
8
L6 (Sig, PWR)
6
CONTINUOUS
10
158.5392339999999933
20
-94.6170589999999976
11
158.4006870000000049
21
-94.7096329999999966
0
LINE
8
L6 (Sig, PWR)
6
CONTINUOUS
10
158.4006870000000049
20
-94.7096329999999966
11
158.2467419999999834
21
-94.7733989999999977
0
LINE
8
L6 (Sig, PWR)
6
CONTINUOUS
10
158.2467419999999834
20
-94.7733989999999977
11
158.0833149999999989
21
-94.8059069999999906
0
LINE
8
L6 (Sig, PWR)
6
CONTINUOUS
10
158.0833149999999989
20
-94.8059069999999906
11
157.9166850000000011
21
-94.8059069999999906
0
LINE
8
L6 (Sig, PWR)
6
CONTINUOUS
10
157.9166850000000011
20
-94.8059069999999906
11
157.7532579999999882
21
-94.7733989999999977
0
LINE
8
L6 (Sig, PWR)
6
CONTINUOUS
10
157.7532579999999882
20
-94.7733989999999977
11
157.5993129999999951
21
-94.7096329999999966
0
LINE
8
L6 (Sig, PWR)
6
CONTINUOUS
10
157.5993129999999951
20
-94.7096329999999966
11
157.4607660000000067
21
-94.6170589999999976
0
LINE
8
L6 (Sig, PWR)
6
CONTINUOUS
10
157.4607660000000067
20
-94.6170589999999976
11
157.3429409999999962
21
-94.4992340000000013
0
LINE
8
L6 (Sig, PWR)
6
CONTINUOUS
10
157.3429409999999962
20
-94.4992340000000013
11
157.2503669999999829
21
-94.3606869999999986
0
LINE
8
L6 (Sig, PWR)
6
CONTINUOUS
10
157.2503669999999829
20
-94.3606869999999986
11
157.186600999999996
21
-94.2067419999999913
0
LINE
8
L6 (Sig, PWR)
6
CONTINUOUS
10
157.186600999999996
20
-94.2067419999999913
11
157.1540929999999889
21
-94.0433149999999927
0
LINE
8
L6 (Sig, PWR)
6
CONTINUOUS
10
157.1540929999999889
20
-94.0433149999999927
11
157.1540929999999889
21
-93.8766849999999948
0
LINE
8
L6 (Sig, PWR)
6
CONTINUOUS
10
157.1540929999999889
20
-93.8766849999999948
11
157.186600999999996
21
-93.7132579999999962
0
LINE
8
L6 (Sig, PWR)
6
CONTINUOUS
10
157.186600999999996
20
-93.7132579999999962
11
157.2503669999999829
21
-93.5593129999999888
0
LINE
8
L6 (Sig, PWR)
6
CONTINUOUS
10
157.2503669999999829
20
-93.5593129999999888
11
157.3429409999999962
21
-93.4207660000000004
0
LINE
8
L6 (Sig, PWR)
6
CONTINUOUS
10
157.3429409999999962
20
-93.4207660000000004
11
157.4607660000000067
21
-93.3029409999999899
0
LINE
8
L6 (Sig, PWR)
6
CONTINUOUS
10
157.4607660000000067
20
-93.3029409999999899
11
157.5993129999999951
21
-93.2103669999999909
0
LINE
8
L6 (Sig, PWR)
6
CONTINUOUS
10
157.5993129999999951
20
-93.2103669999999909
11
157.7532579999999882
21
-93.1466009999999898
0
LINE
8
L6 (Sig, PWR)
6
CONTINUOUS
10
157.7532579999999882
20
-93.1466009999999898
11
157.9166850000000011
21
-93.1140929999999969
0
LINE
8
L6 (Sig, PWR)
6
CONTINUOUS
10
157.9166850000000011
20
-93.1140929999999969
11
158.0833149999999989
21
-93.1140929999999969
0
LINE
8
L6 (Sig, PWR)
6
CONTINUOUS
10
158.0833149999999989
20
-93.1140929999999969
11
158.2467419999999834
21
-93.1466009999999898
0
LINE
8
L6 (Sig, PWR)
6
CONTINUOUS
10
132.5717889999999954
20
-92.6347049999999967
11
132.7104759999999999
21
-92.6718659999999943
0
LINE
8
L6 (Sig, PWR)
6
CONTINUOUS
10
132.7104759999999999
20
-92.6718659999999943
11
132.8348189999999818
21
-92.7436560000000014
0
LINE
8
L6 (Sig, PWR)
6
CONTINUOUS
10
132.8348189999999818
20
-92.7436560000000014
11
132.9363439999999912
21
-92.8451809999999966
0
LINE
8
L6 (Sig, PWR)
6
CONTINUOUS
10
132.9363439999999912
20
-92.8451809999999966
11
133.0081339999999841
21
-92.9695239999999927
0
LINE
8
L6 (Sig, PWR)
6
CONTINUOUS
10
133.0081339999999841
20
-92.9695239999999927
11
133.0452949999999817
21
-93.1082109999999972
0
LINE
8
L6 (Sig, PWR)
6
CONTINUOUS
10
133.0452949999999817
20
-93.1082109999999972
11
133.0452949999999817
21
-93.2517890000000023
0
LINE
8
L6 (Sig, PWR)
6
CONTINUOUS
10
133.0452949999999817
20
-93.2517890000000023
11
133.0081339999999841
21
-93.3904759999999925
0
LINE
8
L6 (Sig, PWR)
6
CONTINUOUS
10
133.0081339999999841
20
-93.3904759999999925
11
132.9363439999999912
21
-93.5148190000000028
0
LINE
8
L6 (Sig, PWR)
6
CONTINUOUS
10
132.9363439999999912
20
-93.5148190000000028
11
132.8348189999999818
21
-93.616343999999998
0
LINE
8
L6 (Sig, PWR)
6
CONTINUOUS
10
132.8348189999999818
20
-93.616343999999998
11
132.7104759999999999
21
-93.6881339999999909
0
LINE
8
L6 (Sig, PWR)
6
CONTINUOUS
10
132.7104759999999999
20
-93.6881339999999909
11
132.5717889999999954
21
-93.7252950000000027
0
LINE
8
L6 (Sig, PWR)
6
CONTINUOUS
10
132.5717889999999954
20
-93.7252950000000027
11
132.5
21
-93.7299999999999898
0
LINE
8
L6 (Sig, PWR)
6
CONTINUOUS
10
132.5
20
-93.7299999999999898
11
131.9000000000000057
21
-93.7299999999999898
0
LINE
8
L6 (Sig, PWR)
6
CONTINUOUS
10
131.9000000000000057
20
-93.7299999999999898
11
131.8282109999999818
21
-93.7252950000000027
0
LINE
8
L6 (Sig, PWR)
6
CONTINUOUS
10
131.8282109999999818
20
-93.7252950000000027
11
131.6895240000000058
21
-93.6881339999999909
0
LINE
8
L6 (Sig, PWR)
6
CONTINUOUS
10
131.6895240000000058
20
-93.6881339999999909
11
131.5651809999999955
21
-93.616343999999998
0
LINE
8
L6 (Sig, PWR)
6
CONTINUOUS
10
131.5651809999999955
20
-93.616343999999998
11
131.4636559999999861
21
-93.5148190000000028
0
LINE
8
L6 (Sig, PWR)
6
CONTINUOUS
10
131.4636559999999861
20
-93.5148190000000028
11
131.3918659999999932
21
-93.3904759999999925
0
LINE
8
L6 (Sig, PWR)
6
CONTINUOUS
10
131.3918659999999932
20
-93.3904759999999925
11
131.3547049999999956
21
-93.2517890000000023
0
LINE
8
L6 (Sig, PWR)
6
CONTINUOUS
10
131.3547049999999956
20
-93.2517890000000023
11
131.3547049999999956
21
-93.1082109999999972
0
LINE
8
L6 (Sig, PWR)
6
CONTINUOUS
10
131.3547049999999956
20
-93.1082109999999972
11
131.3918659999999932
21
-92.9695239999999927
0
LINE
8
L6 (Sig, PWR)
6
CONTINUOUS
10
131.3918659999999932
20
-92.9695239999999927
11
131.4636559999999861
21
-92.8451809999999966
0
LINE
8
L6 (Sig, PWR)
6
CONTINUOUS
10
131.4636559999999861
20
-92.8451809999999966
11
131.5651809999999955
21
-92.7436560000000014
0
LINE
8
L6 (Sig, PWR)
6
CONTINUOUS
10
131.5651809999999955
20
-92.7436560000000014
11
131.6895240000000058
21
-92.6718659999999943
0
LINE
8
L6 (Sig, PWR)
6
CONTINUOUS
10
131.6895240000000058
20
-92.6718659999999943
11
131.8282109999999818
21
-92.6347049999999967
0
LINE
8
L6 (Sig, PWR)
6
CONTINUOUS
10
131.8282109999999818
20
-92.6347049999999967
11
131.9000000000000057
21
-92.6299999999999955
0
LINE
8
L6 (Sig, PWR)
6
CONTINUOUS
10
131.9000000000000057
20
-92.6299999999999955
11
132.5
21
-92.6299999999999955
0
LINE
8
L6 (Sig, PWR)
6
CONTINUOUS
10
132.5
20
-92.6299999999999955
11
132.5717889999999954
21
-92.6347049999999967
0
LINE
8
L6 (Sig, PWR)
6
CONTINUOUS
10
136.3717890000000068
20
-92.6347049999999967
11
136.5104759999999828
21
-92.6718659999999943
0
LINE
8
L6 (Sig, PWR)
6
CONTINUOUS
10
136.5104759999999828
20
-92.6718659999999943
11
136.6348189999999931
21
-92.7436560000000014
0
LINE
8
L6 (Sig, PWR)
6
CONTINUOUS
10
136.6348189999999931
20
-92.7436560000000014
11
136.7363440000000026
21
-92.8451809999999966
0
LINE
8
L6 (Sig, PWR)
6
CONTINUOUS
10
136.7363440000000026
20
-92.8451809999999966
11
136.8081339999999955
21
-92.9695239999999927
0
LINE
8
L6 (Sig, PWR)
6
CONTINUOUS
10
136.8081339999999955
20
-92.9695239999999927
11
136.845294999999993
21
-93.1082109999999972
0
LINE
8
L6 (Sig, PWR)
6
CONTINUOUS
10
136.845294999999993
20
-93.1082109999999972
11
136.845294999999993
21
-93.2517890000000023
0
LINE
8
L6 (Sig, PWR)
6
CONTINUOUS
10
136.845294999999993
20
-93.2517890000000023
11
136.8081339999999955
21
-93.3904759999999925
0
LINE
8
L6 (Sig, PWR)
6
CONTINUOUS
10
136.8081339999999955
20
-93.3904759999999925
11
136.7363440000000026
21
-93.5148190000000028
0
LINE
8
L6 (Sig, PWR)
6
CONTINUOUS
10
136.7363440000000026
20
-93.5148190000000028
11
136.6348189999999931
21
-93.616343999999998
0
LINE
8
L6 (Sig, PWR)
6
CONTINUOUS
10
136.6348189999999931
20
-93.616343999999998
11
136.5104759999999828
21
-93.6881339999999909
0
LINE
8
L6 (Sig, PWR)
6
CONTINUOUS
10
136.5104759999999828
20
-93.6881339999999909
11
136.3717890000000068
21
-93.7252950000000027
0
LINE
8
L6 (Sig, PWR)
6
CONTINUOUS
10
136.3717890000000068
20
-93.7252950000000027
11
136.2999999999999829
21
-93.7299999999999898
0
LINE
8
L6 (Sig, PWR)
6
CONTINUOUS
10
136.2999999999999829
20
-93.7299999999999898
11
135.6999999999999886
21
-93.7299999999999898
0
LINE
8
L6 (Sig, PWR)
6
CONTINUOUS
10
135.6999999999999886
20
-93.7299999999999898
11
135.6282109999999932
21
-93.7252950000000027
0
LINE
8
L6 (Sig, PWR)
6
CONTINUOUS
10
135.6282109999999932
20
-93.7252950000000027
11
135.4895239999999887
21
-93.6881339999999909
0
LINE
8
L6 (Sig, PWR)
6
CONTINUOUS
10
135.4895239999999887
20
-93.6881339999999909
11
135.3651810000000069
21
-93.616343999999998
0
LINE
8
L6 (Sig, PWR)
6
CONTINUOUS
10
135.3651810000000069
20
-93.616343999999998
11
135.2636559999999974
21
-93.5148190000000028
0
LINE
8
L6 (Sig, PWR)
6
CONTINUOUS
10
135.2636559999999974
20
-93.5148190000000028
11
135.1918660000000045
21
-93.3904759999999925
0
LINE
8
L6 (Sig, PWR)
6
CONTINUOUS
10
135.1918660000000045
20
-93.3904759999999925
11
135.154705000000007
21
-93.2517890000000023
0
LINE
8
L6 (Sig, PWR)
6
CONTINUOUS
10
135.154705000000007
20
-93.2517890000000023
11
135.154705000000007
21
-93.1082109999999972
0
LINE
8
L6 (Sig, PWR)
6
CONTINUOUS
10
135.154705000000007
20
-93.1082109999999972
11
135.1918660000000045
21
-92.9695239999999927
0
LINE
8
L6 (Sig, PWR)
6
CONTINUOUS
10
135.1918660000000045
20
-92.9695239999999927
11
135.2636559999999974
21
-92.8451809999999966
0
LINE
8
L6 (Sig, PWR)
6
CONTINUOUS
10
135.2636559999999974
20
-92.8451809999999966
11
135.3651810000000069
21
-92.7436560000000014
0
LINE
8
L6 (Sig, PWR)
6
CONTINUOUS
10
135.3651810000000069
20
-92.7436560000000014
11
135.4895239999999887
21
-92.6718659999999943
0
LINE
8
L6 (Sig, PWR)
6
CONTINUOUS
10
135.4895239999999887
20
-92.6718659999999943
11
135.6282109999999932
21
-92.6347049999999967
0
LINE
8
L6 (Sig, PWR)
6
CONTINUOUS
10
135.6282109999999932
20
-92.6347049999999967
11
135.6999999999999886
21
-92.6299999999999955
0
LINE
8
L6 (Sig, PWR)
6
CONTINUOUS
10
135.6999999999999886
20
-92.6299999999999955
11
136.2999999999999829
21
-92.6299999999999955
0
LINE
8
L6 (Sig, PWR)
6
CONTINUOUS
10
136.2999999999999829
20
-92.6299999999999955
11
136.3717890000000068
21
-92.6347049999999967
0
CIRCLE
8
L6 (Sig, PWR)
10
155.4599999999999795
20
-93.9599999999999937
40
0.175
0
CIRCLE
8
L6 (Sig, PWR)
10
158.
20
-93.9599999999999937
40
0.175
0
CIRCLE
8
L6 (Sig, PWR)
10
155.4599999999999795
20
-96.5
40
0.175
0
CIRCLE
8
L6 (Sig, PWR)
10
158.
20
-96.5
40
0.175
0
CIRCLE
8
L6 (Sig, PWR)
10
155.4599999999999795
20
-99.039999999999992
40
0.175
0
CIRCLE
8
L6 (Sig, PWR)
10
158.
20
-99.039999999999992
40
0.175
0
CIRCLE
8
L6 (Sig, PWR)
10
155.4599999999999795
20
-101.5799999999999983
40
0.175
0
CIRCLE
8
L6 (Sig, PWR)
10
158.
20
-101.5799999999999983
40
0.175
0
LINE
8
L6 (Sig, PWR)
6
CONTINUOUS
10
136.2999999999999829
20
-92.6299999999999955
11
135.6999999999999886
21
-92.6299999999999955
0
ARC
8
L6 (Sig, PWR)
10
135.6999999999999886
20
-93.1799999999999926
40
0.5499999999999999
50
90.00000000
51
270.00000000
0
LINE
8
L6 (Sig, PWR)
6
CONTINUOUS
10
135.6999999999999886
20
-93.7299999999999898
11
136.2999999999999829
21
-93.7299999999999898
0
ARC
8
L6 (Sig, PWR)
10
136.2999999999999829
20
-93.1799999999999926
40
0.5499999999999999
50
270.00000000
51
450.00000000
0
LINE
8
L6 (Sig, PWR)
6
CONTINUOUS
10
132.5
20
-92.6299999999999955
11
131.9000000000000057
21
-92.6299999999999955
0
ARC
8
L6 (Sig, PWR)
10
131.9000000000000057
20
-93.1799999999999926
40
0.5499999999999999
50
90.00000000
51
270.00000000
0
LINE
8
L6 (Sig, PWR)
6
CONTINUOUS
10
131.9000000000000057
20
-93.7299999999999898
11
132.5
21
-93.7299999999999898
0
ARC
8
L6 (Sig, PWR)
10
132.5
20
-93.1799999999999926
40
0.5499999999999999
50
270.00000000
51
450.00000000
0
LINE
8
L6 (Sig, PWR)
6
CONTINUOUS
10
136.2999999999999829
20
-101.269999999999996
11
135.6999999999999886
21
-101.269999999999996
0
ARC
8
L6 (Sig, PWR)
10
135.6999999999999886
20
-101.8199999999999932
40
0.5499999999999999
50
90.00000000
51
270.00000000
0
LINE
8
L6 (Sig, PWR)
6
CONTINUOUS
10
135.6999999999999886
20
-102.3699999999999903
11
136.2999999999999829
21
-102.3699999999999903
0
ARC
8
L6 (Sig, PWR)
10
136.2999999999999829
20
-101.8199999999999932
40
0.5499999999999999
50
270.00000000
51
450.00000000
0
LINE
8
L6 (Sig, PWR)
6
CONTINUOUS
10
132.5
20
-101.269999999999996
11
131.9000000000000057
21
-101.269999999999996
0
ARC
8
L6 (Sig, PWR)
10
131.9000000000000057
20
-101.8199999999999932
40
0.5499999999999999
50
90.00000000
51
270.00000000
0
LINE
8
L6 (Sig, PWR)
6
CONTINUOUS
10
131.9000000000000057
20
-102.3699999999999903
11
132.5
21
-102.3699999999999903
0
ARC
8
L6 (Sig, PWR)
10
132.5
20
-101.8199999999999932
40
0.5499999999999999
50
270.00000000
51
450.00000000
0
CIRCLE
8
L6 (Sig, PWR)
10
155.4599999999999795
20
-93.9599999999999937
40
0.175
0
CIRCLE
8
L6 (Sig, PWR)
10
158.
20
-93.9599999999999937
40
0.175
0
CIRCLE
8
L6 (Sig, PWR)
10
155.4599999999999795
20
-96.5
40
0.175
0
CIRCLE
8
L6 (Sig, PWR)
10
158.
20
-96.5
40
0.175
0
CIRCLE
8
L6 (Sig, PWR)
10
155.4599999999999795
20
-99.039999999999992
40
0.175
0
CIRCLE
8
L6 (Sig, PWR)
10
158.
20
-99.039999999999992
40
0.175
0
CIRCLE
8
L6 (Sig, PWR)
10
155.4599999999999795
20
-101.5799999999999983
40
0.175
0
CIRCLE
8
L6 (Sig, PWR)
10
158.
20
-101.5799999999999983
40
0.175
0
LINE
8
L6 (Sig, PWR)
6
CONTINUOUS
10
136.2999999999999829
20
-92.8799999999999955
11
135.6999999999999886
21
-92.8799999999999955
0
ARC
8
L6 (Sig, PWR)
10
135.6999999999999886
20
-93.1799999999999926
40
0.3
50
90.00000000
51
270.00000000
0
LINE
8
L6 (Sig, PWR)
6
CONTINUOUS
10
135.6999999999999886
20
-93.4799999999999898
11
136.2999999999999829
21
-93.4799999999999898
0
ARC
8
L6 (Sig, PWR)
10
136.2999999999999829
20
-93.1799999999999926
40
0.3
50
270.00000000
51
450.00000000
0
LINE
8
L6 (Sig, PWR)
6
CONTINUOUS
10
132.5
20
-92.8799999999999955
11
131.9000000000000057
21
-92.8799999999999955
0
ARC
8
L6 (Sig, PWR)
10
131.9000000000000057
20
-93.1799999999999926
40
0.3
50
90.00000000
51
270.00000000
0
LINE
8
L6 (Sig, PWR)
6
CONTINUOUS
10
131.9000000000000057
20
-93.4799999999999898
11
132.5
21
-93.4799999999999898
0
ARC
8
L6 (Sig, PWR)
10
132.5
20
-93.1799999999999926
40
0.3
50
270.00000000
51
450.00000000
0
LINE
8
L6 (Sig, PWR)
6
CONTINUOUS
10
136.2999999999999829
20
-101.519999999999996
11
135.6999999999999886
21
-101.519999999999996
0
ARC
8
L6 (Sig, PWR)
10
135.6999999999999886
20
-101.8199999999999932
40
0.3
50
90.00000000
51
270.00000000
0
LINE
8
L6 (Sig, PWR)
6
CONTINUOUS
10
135.6999999999999886
20
-102.1199999999999903
11
136.2999999999999829
21
-102.1199999999999903
0
ARC
8
L6 (Sig, PWR)
10
136.2999999999999829
20
-101.8199999999999932
40
0.3
50
270.00000000
51
450.00000000
0
LINE
8
L6 (Sig, PWR)
6
CONTINUOUS
10
132.5
20
-101.519999999999996
11
131.9000000000000057
21
-101.519999999999996
0
ARC
8
L6 (Sig, PWR)
10
131.9000000000000057
20
-101.8199999999999932
40
0.3
50
90.00000000
51
270.00000000
0
LINE
8
L6 (Sig, PWR)
6
CONTINUOUS
10
131.9000000000000057
20
-102.1199999999999903
11
132.5
21
-102.1199999999999903
0
ARC
8
L6 (Sig, PWR)
10
132.5
20
-101.8199999999999932
40
0.3
50
270.00000000
51
450.00000000
  0
ENDSEC
  0
EOF
