%TF.GenerationSoftware,KiCad,Pcbnew,9.0.7+1*%
%TF.CreationDate,Date%
%TF.ProjectId,SuperSimpleSupply_USBC,53757065-7253-4696-9d70-6c6553757070,+ (Unreleased)*%
%TF.SameCoordinates,Original*%
%TF.FileFunction,Copper,L1,Top*%
%TF.FilePolarity,Positive*%
%FSLAX46Y46*%
G04 Gerber Fmt 4.6, Leading zero omitted, Abs format (unit mm)*
G04 Created by KiCad*
%MOMM*%
%LPD*%
G01*
G04 APERTURE LIST*
G04 Aperture macros list*
%AMRoundRect*
0 Rectangle with rounded corners*
0 $1 Rounding radius*
0 $2 $3 $4 $5 $6 $7 $8 $9 X,Y pos of 4 corners*
0 Add a 4 corners polygon primitive as box body*
4,1,4,$2,$3,$4,$5,$6,$7,$8,$9,$2,$3,0*
0 Add four circle primitives for the rounded corners*
1,1,$1+$1,$2,$3*
1,1,$1+$1,$4,$5*
1,1,$1+$1,$6,$7*
1,1,$1+$1,$8,$9*
0 Add four rect primitives between the rounded corners*
20,1,$1+$1,$2,$3,$4,$5,0*
20,1,$1+$1,$4,$5,$6,$7,0*
20,1,$1+$1,$6,$7,$8,$9,0*
20,1,$1+$1,$8,$9,$2,$3,0*%
G04 Aperture macros list end*
%TA.AperFunction,SMDPad,CuDef*%
%ADD10C,1.500000*%
%TD*%
%TA.AperFunction,ComponentPad*%
%ADD11R,1.700000X1.700000*%
%TD*%
%TA.AperFunction,ComponentPad*%
%ADD12C,1.700000*%
%TD*%
%TA.AperFunction,SMDPad,CuDef*%
%ADD13RoundRect,0.160000X0.160000X-0.222500X0.160000X0.222500X-0.160000X0.222500X-0.160000X-0.222500X0*%
%TD*%
%TA.AperFunction,SMDPad,CuDef*%
%ADD14RoundRect,0.250000X-0.450000X0.350000X-0.450000X-0.350000X0.450000X-0.350000X0.450000X0.350000X0*%
%TD*%
%TA.AperFunction,SMDPad,CuDef*%
%ADD15RoundRect,0.175000X-0.425000X0.175000X-0.425000X-0.175000X0.425000X-0.175000X0.425000X0.175000X0*%
%TD*%
%TA.AperFunction,SMDPad,CuDef*%
%ADD16RoundRect,0.190000X0.410000X-0.190000X0.410000X0.190000X-0.410000X0.190000X-0.410000X-0.190000X0*%
%TD*%
%TA.AperFunction,SMDPad,CuDef*%
%ADD17RoundRect,0.200000X0.400000X-0.200000X0.400000X0.200000X-0.400000X0.200000X-0.400000X-0.200000X0*%
%TD*%
%TA.AperFunction,SMDPad,CuDef*%
%ADD18RoundRect,0.175000X0.425000X-0.175000X0.425000X0.175000X-0.425000X0.175000X-0.425000X-0.175000X0*%
%TD*%
%TA.AperFunction,SMDPad,CuDef*%
%ADD19RoundRect,0.190000X-0.410000X0.190000X-0.410000X-0.190000X0.410000X-0.190000X0.410000X0.190000X0*%
%TD*%
%TA.AperFunction,SMDPad,CuDef*%
%ADD20RoundRect,0.200000X-0.400000X0.200000X-0.400000X-0.200000X0.400000X-0.200000X0.400000X0.200000X0*%
%TD*%
%TA.AperFunction,HeatsinkPad*%
%ADD21O,1.700000X1.100000*%
%TD*%
%TA.AperFunction,Conductor*%
%ADD22C,0.400000*%
%TD*%
G04 APERTURE END LIST*
D10*
%TO.P,FID2,*%
%TO.N,*%
X151500000Y-93000000D03*
%TD*%
%TO.P,TP3,1,1*%
%TO.N,GNDD*%
X151000000Y-102000000D03*
%TD*%
D11*
%TO.P,J2,1,Pin_1*%
%TO.N,VBUS*%
X155460000Y-93960000D03*
D12*
%TO.P,J2,2,Pin_2*%
X158000000Y-93960000D03*
%TO.P,J2,3,Pin_3*%
X155460000Y-96500000D03*
%TO.P,J2,4,Pin_4*%
X158000000Y-96500000D03*
%TO.P,J2,5,Pin_5*%
%TO.N,GNDD*%
X155460000Y-99040000D03*
%TO.P,J2,6,Pin_6*%
X158000000Y-99040000D03*
%TO.P,J2,7,Pin_7*%
X155460000Y-101580000D03*
%TO.P,J2,8,Pin_8*%
X158000000Y-101580000D03*
%TD*%
D13*
%TO.P,D1,1,K*%
%TO.N,GNDD*%
X147500000Y-101500000D03*
%TO.P,D1,2,A*%
%TO.N,/Project Architecture/Power Supply/LED*%
X147500000Y-100355000D03*
%TD*%
D10*
%TO.P,TP2,1,1*%
%TO.N,/Project Architecture/Power Supply/LED*%
X152000000Y-98500000D03*
%TD*%
D14*
%TO.P,R3,1*%
%TO.N,VBUS*%
X148500000Y-96000000D03*
%TO.P,R3,2*%
%TO.N,/Project Architecture/Power Supply/LED*%
X148500000Y-98000000D03*
%TD*%
%TO.P,R1,1*%
%TO.N,Net-(J1-CC1)*%
X141000000Y-97000000D03*
%TO.P,R1,2*%
%TO.N,GNDD*%
X141000000Y-99000000D03*
%TD*%
D10*
%TO.P,TP1,1,1*%
%TO.N,VBUS*%
X139000000Y-94500000D03*
%TD*%
%TO.P,FID3,*%
%TO.N,*%
X139500000Y-102000000D03*
%TD*%
D15*
%TO.P,J1,A5,CC1*%
%TO.N,Net-(J1-CC1)*%
X136080000Y-97000000D03*
D16*
%TO.P,J1,A9,VBUS*%
%TO.N,VBUS*%
X136080000Y-99020000D03*
D17*
%TO.P,J1,A12,GND*%
%TO.N,GNDD*%
X136080000Y-100250000D03*
D18*
%TO.P,J1,B5,CC2*%
%TO.N,Net-(J1-CC2)*%
X136080000Y-98000000D03*
D19*
%TO.P,J1,B9,VBUS*%
%TO.N,VBUS*%
X136080000Y-95980000D03*
D20*
%TO.P,J1,B12,GND*%
%TO.N,GNDD*%
X136080000Y-94750000D03*
D21*
%TO.P,J1,S1,SHIELD*%
X136000000Y-93180000D03*
X132200000Y-93180000D03*
X136000000Y-101820000D03*
X132200000Y-101820000D03*
%TD*%
D14*
%TO.P,R2,1*%
%TO.N,Net-(J1-CC2)*%
X145500000Y-97000000D03*
%TO.P,R2,2*%
%TO.N,GNDD*%
X145500000Y-99000000D03*
%TD*%
D22*
%TO.N,GNDD*%
X136080000Y-100250000D02*
X136080000Y-101740000D01*
X136080000Y-100250000D02*
X137250000Y-100250000D01*
X132200000Y-101820000D02*
X132200000Y-93180000D01*
X136080000Y-93260000D02*
X136000000Y-93180000D01*
X138500000Y-99000000D02*
X141000000Y-99000000D01*
X132200000Y-101820000D02*
X136000000Y-101820000D01*
X136080000Y-94750000D02*
X136080000Y-93260000D01*
X141000000Y-99000000D02*
X145500000Y-99000000D01*
X147180001Y-101500000D02*
X147500000Y-101500000D01*
X132200000Y-93180000D02*
X136000000Y-93180000D01*
X136080000Y-101740000D02*
X136000000Y-101820000D01*
X137250000Y-100250000D02*
X138500000Y-99000000D01*
%TO.N,/Project Architecture/Power Supply/LED*%
X147500000Y-100355000D02*
X147500000Y-99000000D01*
X147500000Y-99000000D02*
X148500000Y-98000000D01*
X149000000Y-98500000D02*
X148500000Y-98000000D01*
X152000000Y-98500000D02*
X149000000Y-98500000D01*
%TO.N,Net-(J1-CC2)*%
X136080000Y-98000000D02*
X142000000Y-98000000D01*
X143000000Y-97000000D02*
X145500000Y-97000000D01*
X142000000Y-98000000D02*
X143000000Y-97000000D01*
%TO.N,VBUS*%
X135480000Y-99020000D02*
X135079000Y-98619000D01*
X155460000Y-96500000D02*
X155460000Y-93960000D01*
X135079000Y-98619000D02*
X135079000Y-96381000D01*
X136080000Y-95980000D02*
X145000000Y-95980000D01*
X148480000Y-95980000D02*
X148500000Y-96000000D01*
X158000000Y-96500000D02*
X158000000Y-93960000D01*
X145000000Y-95980000D02*
X148480000Y-95980000D01*
X155460000Y-96500000D02*
X158000000Y-96500000D01*
X152500000Y-96500000D02*
X155460000Y-96500000D01*
X139000000Y-94500000D02*
X139000000Y-95980000D01*
X152000000Y-96000000D02*
X152500000Y-96500000D01*
X148500000Y-96000000D02*
X152000000Y-96000000D01*
X135480000Y-95980000D02*
X136080000Y-95980000D01*
X155460000Y-93960000D02*
X158000000Y-93960000D01*
X135079000Y-96381000D02*
X135480000Y-95980000D01*
X136080000Y-99020000D02*
X135480000Y-99020000D01*
%TO.N,Net-(J1-CC1)*%
X136080000Y-97000000D02*
X141000000Y-97000000D01*
%TD*%
%TA.AperFunction,Conductor*%
%TO.N,GNDD*%
G36*
X157534075Y-99232993D02*
G01*
X157599901Y-99347007D01*
X157692993Y-99440099D01*
X157807007Y-99505925D01*
X157870590Y-99522962D01*
X157238282Y-100155269D01*
X157238282Y-100155270D01*
X157292452Y-100194626D01*
X157302048Y-100199516D01*
X157352844Y-100247491D01*
X157369638Y-100315312D01*
X157347100Y-100381447D01*
X157302051Y-100420483D01*
X157292440Y-100425380D01*
X157238282Y-100464727D01*
X157238282Y-100464728D01*
X157870591Y-101097037D01*
X157807007Y-101114075D01*
X157692993Y-101179901D01*
X157599901Y-101272993D01*
X157534075Y-101387007D01*
X157517037Y-101450591D01*
X156884728Y-100818282D01*
X156884727Y-100818282D01*
X156845380Y-100872440D01*
X156840483Y-100882051D01*
X156792506Y-100932845D01*
X156724684Y-100949638D01*
X156658550Y-100927098D01*
X156619516Y-100882048D01*
X156614626Y-100872452D01*
X156575270Y-100818282D01*
X156575269Y-100818282D01*
X155942962Y-101450590D01*
X155925925Y-101387007D01*
X155860099Y-101272993D01*
X155767007Y-101179901D01*
X155652993Y-101114075D01*
X155589409Y-101097037D01*
X156221716Y-100464728D01*
X156167550Y-100425375D01*
X156157954Y-100420486D01*
X156107157Y-100372512D01*
X156090361Y-100304692D01*
X156111288Y-100240895D01*
X156190027Y-100123581D01*
X155589408Y-99522962D01*
X155652993Y-99505925D01*
X155767007Y-99440099D01*
X155860099Y-99347007D01*
X155925925Y-99232993D01*
X155942962Y-99169408D01*
X156575270Y-99801717D01*
X156575270Y-99801716D01*
X156614622Y-99747554D01*
X156619514Y-99737954D01*
X156667488Y-99687157D01*
X156735308Y-99670361D01*
X156801444Y-99692897D01*
X156840486Y-99737954D01*
X156845375Y-99747550D01*
X156884728Y-99801716D01*
X157517037Y-99169408D01*
X157534075Y-99232993D01*
G37*
%TD.AperFunction*%
%TA.AperFunction,Conductor*%
G36*
X157013024Y-96920185D02*
G01*
X157058779Y-96972989D01*
X157060544Y-96977043D01*
X157069058Y-96997596D01*
X157069059Y-96997597D01*
X157069062Y-96997604D01*
X157184022Y-97169655D01*
X157330342Y-97315975D01*
X157502405Y-97430943D01*
X157603914Y-97472989D01*
X157667108Y-97499164D01*
X157721511Y-97543005D01*
X157743576Y-97609299D01*
X157726297Y-97676998D01*
X157675160Y-97724609D01*
X157657974Y-97731656D01*
X157481781Y-97788905D01*
X157292439Y-97885380D01*
X157238282Y-97924727D01*
X157238282Y-97924728D01*
X157870591Y-98557037D01*
X157807007Y-98574075D01*
X157692993Y-98639901D01*
X157599901Y-98732993D01*
X157534075Y-98847007D01*
X157517037Y-98910591D01*
X156884728Y-98278282D01*
X156884727Y-98278282D01*
X156845380Y-98332440D01*
X156840483Y-98342051D01*
X156792506Y-98392845D01*
X156724684Y-98409638D01*
X156658550Y-98387098D01*
X156619516Y-98342048D01*
X156614626Y-98332452D01*
X156575270Y-98278282D01*
X156575269Y-98278282D01*
X155942962Y-98910590D01*
X155925925Y-98847007D01*
X155860099Y-98732993D01*
X155767007Y-98639901D01*
X155652993Y-98574075D01*
X155589409Y-98557037D01*
X156221716Y-97924728D01*
X156167550Y-97885375D01*
X155978216Y-97788904D01*
X155802026Y-97731656D01*
X155744350Y-97692218D01*
X155717152Y-97627860D01*
X155729067Y-97559013D01*
X155776311Y-97507538D01*
X155792882Y-97499168D01*
X155957598Y-97430941D01*
X156129655Y-97315977D01*
X156275977Y-97169655D01*
X156390941Y-96997598D01*
X156399454Y-96977045D01*
X156443296Y-96922643D01*
X156509590Y-96900579D01*
X156514015Y-96900500D01*
X156945985Y-96900500D01*
X157013024Y-96920185D01*
G37*
%TD.AperFunction*%
%TA.AperFunction,Conductor*%
G36*
X158004418Y-91250816D02*
G01*
X158240140Y-91267674D01*
X158257641Y-91270191D01*
X158484229Y-91319482D01*
X158501188Y-91324461D01*
X158638672Y-91375740D01*
X158718462Y-91405501D01*
X158734555Y-91412851D01*
X158938068Y-91523977D01*
X158952951Y-91533542D01*
X159138579Y-91672501D01*
X159151950Y-91684087D01*
X159315912Y-91848049D01*
X159327498Y-91861420D01*
X159466457Y-92047048D01*
X159476022Y-92061931D01*
X159587148Y-92265444D01*
X159594498Y-92281537D01*
X159675535Y-92498803D01*
X159680519Y-92515779D01*
X159729807Y-92742352D01*
X159732325Y-92759864D01*
X159749184Y-92995581D01*
X159749500Y-93004427D01*
X159749500Y-101995572D01*
X159749184Y-102004417D01*
X159749184Y-102004418D01*
X159732325Y-102240135D01*
X159729807Y-102257647D01*
X159680519Y-102484220D01*
X159675535Y-102501196D01*
X159594498Y-102718462D01*
X159587148Y-102734555D01*
X159476022Y-102938068D01*
X159466457Y-102952951D01*
X159327498Y-103138579D01*
X159315912Y-103151950D01*
X159151950Y-103315912D01*
X159138579Y-103327498D01*
X158952951Y-103466457D01*
X158938068Y-103476022D01*
X158734555Y-103587148D01*
X158718462Y-103594498D01*
X158501196Y-103675535D01*
X158484220Y-103680519D01*
X158257647Y-103729807D01*
X158240135Y-103732325D01*
X158004418Y-103749184D01*
X157995572Y-103749500D01*
X131504428Y-103749500D01*
X131495582Y-103749184D01*
X131259864Y-103732325D01*
X131242352Y-103729807D01*
X131015779Y-103680519D01*
X130998803Y-103675535D01*
X130781537Y-103594498D01*
X130765444Y-103587148D01*
X130561931Y-103476022D01*
X130547048Y-103466457D01*
X130361420Y-103327498D01*
X130348049Y-103315912D01*
X130184087Y-103151950D01*
X130172501Y-103138579D01*
X130101458Y-103043677D01*
X150309873Y-103043677D01*
X150309873Y-103043678D01*
X150344858Y-103069096D01*
X150520164Y-103158418D01*
X150707294Y-103219221D01*
X150901618Y-103250000D01*
X151098382Y-103250000D01*
X151292705Y-103219221D01*
X151479835Y-103158418D01*
X151655143Y-103069095D01*
X151690125Y-103043678D01*
X151690126Y-103043678D01*
X151000001Y-102353553D01*
X151000000Y-102353553D01*
X150309873Y-103043677D01*
X130101458Y-103043677D01*
X130033542Y-102952951D01*
X130023977Y-102938068D01*
X129912851Y-102734555D01*
X129905501Y-102718462D01*
X129858227Y-102591716D01*
X129824461Y-102501188D01*
X129819482Y-102484229D01*
X129770191Y-102257641D01*
X129767674Y-102240135D01*
X129767156Y-102232897D01*
X129750816Y-102004417D01*
X129750500Y-101995572D01*
X129750500Y-101570000D01*
X130879157Y-101570000D01*
X131733012Y-101570000D01*
X131715795Y-101579940D01*
X131659940Y-101635795D01*
X131620444Y-101704204D01*
X131600000Y-101780504D01*
X131600000Y-101859496D01*
X131620444Y-101935796D01*
X131659940Y-102004205D01*
X131715795Y-102060060D01*
X131733012Y-102070000D01*
X130879157Y-102070000D01*
X130890350Y-102126274D01*
X130890351Y-102126276D01*
X130969500Y-102317358D01*
X130969505Y-102317368D01*
X131084410Y-102489335D01*
X131084413Y-102489339D01*
X131230660Y-102635586D01*
X131230664Y-102635589D01*
X131402631Y-102750494D01*
X131402641Y-102750499D01*
X131593725Y-102829649D01*
X131593733Y-102829651D01*
X131796579Y-102869999D01*
X131796583Y-102870000D01*
X131950000Y-102870000D01*
X131950000Y-102120000D01*
X132450000Y-102120000D01*
X132450000Y-102870000D01*
X132603417Y-102870000D01*
X132603420Y-102869999D01*
X132806266Y-102829651D01*
X132806274Y-102829649D01*
X132997358Y-102750499D01*
X132997368Y-102750494D01*
X133169335Y-102635589D01*
X133169339Y-102635586D01*
X133315586Y-102489339D01*
X133315589Y-102489335D01*
X133430494Y-102317368D01*
X133430499Y-102317358D01*
X133509648Y-102126276D01*
X133509649Y-102126274D01*
X133520843Y-102070000D01*
X132666988Y-102070000D01*
X132684205Y-102060060D01*
X132740060Y-102004205D01*
X132779556Y-101935796D01*
X132800000Y-101859496D01*
X132800000Y-101780504D01*
X132779556Y-101704204D01*
X132740060Y-101635795D01*
X132684205Y-101579940D01*
X132666988Y-101570000D01*
X133520843Y-101570000D01*
X134679157Y-101570000D01*
X135533012Y-101570000D01*
X135515795Y-101579940D01*
X135459940Y-101635795D01*
X135420444Y-101704204D01*
X135400000Y-101780504D01*
X135400000Y-101859496D01*
X135420444Y-101935796D01*
X135459940Y-102004205D01*
X135515795Y-102060060D01*
X135533012Y-102070000D01*
X134679157Y-102070000D01*
X134690350Y-102126274D01*
X134690351Y-102126276D01*
X134769500Y-102317358D01*
X134769505Y-102317368D01*
X134884410Y-102489335D01*
X134884413Y-102489339D01*
X135030660Y-102635586D01*
X135030664Y-102635589D01*
X135202631Y-102750494D01*
X135202641Y-102750499D01*
X135393725Y-102829649D01*
X135393733Y-102829651D01*
X135596579Y-102869999D01*
X135596583Y-102870000D01*
X135750000Y-102870000D01*
X135750000Y-102120000D01*
X136250000Y-102120000D01*
X136250000Y-102870000D01*
X136403417Y-102870000D01*
X136403420Y-102869999D01*
X136606266Y-102829651D01*
X136606274Y-102829649D01*
X136797358Y-102750499D01*
X136797368Y-102750494D01*
X136969335Y-102635589D01*
X136969339Y-102635586D01*
X137115586Y-102489339D01*
X137115589Y-102489335D01*
X137230494Y-102317368D01*
X137230499Y-102317358D01*
X137309648Y-102126276D01*
X137309649Y-102126274D01*
X137320843Y-102070000D01*
X136466988Y-102070000D01*
X136484205Y-102060060D01*
X136540060Y-102004205D01*
X136579556Y-101935796D01*
X136587438Y-101906379D01*
X138549500Y-101906379D01*
X138549500Y-102093620D01*
X138586025Y-102277243D01*
X138586027Y-102277251D01*
X138657676Y-102450228D01*
X138657681Y-102450237D01*
X138761697Y-102605907D01*
X138761700Y-102605911D01*
X138894088Y-102738299D01*
X138894092Y-102738302D01*
X139049762Y-102842318D01*
X139049768Y-102842321D01*
X139049769Y-102842322D01*
X139222749Y-102913973D01*
X139343884Y-102938068D01*
X139406379Y-102950499D01*
X139406383Y-102950500D01*
X139406384Y-102950500D01*
X139593617Y-102950500D01*
X139593618Y-102950499D01*
X139777251Y-102913973D01*
X139950231Y-102842322D01*
X140105908Y-102738302D01*
X140238302Y-102605908D01*
X140342322Y-102450231D01*
X140413973Y-102277251D01*
X140450500Y-102093616D01*
X140450500Y-101906384D01*
X140424533Y-101775837D01*
X146680000Y-101775837D01*
X146686043Y-101842343D01*
X146733724Y-101995359D01*
X146733726Y-101995363D01*
X146816639Y-102132519D01*
X146816642Y-102132523D01*
X146929976Y-102245857D01*
X146929980Y-102245860D01*
X147067136Y-102328773D01*
X147067138Y-102328774D01*
X147220155Y-102376456D01*
X147220161Y-102376458D01*
X147249999Y-102379168D01*
X147250000Y-102379168D01*
X147750000Y-102379168D01*
X147779838Y-102376458D01*
X147779844Y-102376456D01*
X147932861Y-102328774D01*
X147932863Y-102328773D01*
X148070019Y-102245860D01*
X148070023Y-102245857D01*
X148183357Y-102132523D01*
X148183360Y-102132519D01*
X148266273Y-101995363D01*
X148266275Y-101995359D01*
X148295486Y-101901617D01*
X149750000Y-101901617D01*
X149750000Y-102098382D01*
X149780778Y-102292705D01*
X149841581Y-102479835D01*
X149930905Y-102655145D01*
X149956319Y-102690125D01*
X149956320Y-102690125D01*
X150646446Y-102000000D01*
X150646446Y-101999999D01*
X151353553Y-101999999D01*
X151353553Y-102000001D01*
X152043678Y-102690126D01*
X152043678Y-102690125D01*
X152069097Y-102655141D01*
X152101413Y-102591717D01*
X152101413Y-102591716D01*
X152158418Y-102479835D01*
X152219221Y-102292705D01*
X152250000Y-102098382D01*
X152250000Y-101901617D01*
X152219221Y-101707294D01*
X152158418Y-101520164D01*
X152069096Y-101344858D01*
X152043678Y-101309873D01*
X152043677Y-101309873D01*
X151353553Y-101999999D01*
X150646446Y-101999999D01*
X149956320Y-101309872D01*
X149956320Y-101309873D01*
X149930902Y-101344859D01*
X149930899Y-101344863D01*
X149841582Y-101520161D01*
X149780778Y-101707294D01*
X149750000Y-101901617D01*
X148295486Y-101901617D01*
X148308494Y-101859872D01*
X148308497Y-101859861D01*
X148313957Y-101842338D01*
X148320000Y-101775837D01*
X148320000Y-101750000D01*
X147750000Y-101750000D01*
X147750000Y-102379168D01*
X147250000Y-102379168D01*
X147250000Y-101750000D01*
X146680000Y-101750000D01*
X146680000Y-101775837D01*
X140424533Y-101775837D01*
X140413973Y-101722749D01*
X140342322Y-101549769D01*
X140342321Y-101549768D01*
X140342318Y-101549762D01*
X140238302Y-101394092D01*
X140238299Y-101394088D01*
X140105911Y-101261700D01*
X140105907Y-101261697D01*
X140049732Y-101224162D01*
X146680000Y-101224162D01*
X146680000Y-101250000D01*
X148320000Y-101250000D01*
X148320000Y-101224162D01*
X148313957Y-101157661D01*
X148277439Y-101040469D01*
X148277438Y-101040466D01*
X148266274Y-101004638D01*
X148266273Y-101004636D01*
X148237065Y-100956320D01*
X150309872Y-100956320D01*
X151000000Y-101646446D01*
X151000001Y-101646446D01*
X151690125Y-100956320D01*
X151690125Y-100956319D01*
X151655145Y-100930905D01*
X151479835Y-100841581D01*
X151292705Y-100780778D01*
X151098382Y-100750000D01*
X150901618Y-100750000D01*
X150707294Y-100780778D01*
X150520161Y-100841582D01*
X150344863Y-100930899D01*
X150344859Y-100930902D01*
X150309873Y-100956320D01*
X150309872Y-100956320D01*
X148237065Y-100956320D01*
X148183360Y-100867480D01*
X148183357Y-100867476D01*
X148070023Y-100754142D01*
X148064115Y-100749513D01*
X148066076Y-100747009D01*
X148028631Y-100706064D01*
X148016839Y-100637197D01*
X148017300Y-100633676D01*
X148020500Y-100611715D01*
X148020499Y-100098286D01*
X148010291Y-100028214D01*
X148010289Y-100028209D01*
X148010289Y-100028208D01*
X147957451Y-99920127D01*
X147957449Y-99920124D01*
X147936819Y-99899494D01*
X147903334Y-99838171D01*
X147900500Y-99811813D01*
X147900500Y-99217254D01*
X147920185Y-99150215D01*
X147936819Y-99129573D01*
X148229574Y-98836819D01*
X148290897Y-98803334D01*
X148317255Y-98800500D01*
X148686255Y-98800500D01*
X148701743Y-98804649D01*
X148715486Y-98803995D01*
X148748252Y-98817111D01*
X148754086Y-98820479D01*
X148754087Y-98820480D01*
X148797271Y-98845412D01*
X148845412Y-98873207D01*
X148947273Y-98900500D01*
X149052727Y-98900500D01*
X151058169Y-98900500D01*
X151125208Y-98920185D01*
X151161271Y-98955609D01*
X151261697Y-99105907D01*
X151261700Y-99105911D01*
X151394088Y-99238299D01*
X151394092Y-99238302D01*
X151549762Y-99342318D01*
X151549771Y-99342323D01*
X151583097Y-99356127D01*
X151722749Y-99413973D01*
X151864431Y-99442155D01*
X151906379Y-99450499D01*
X151906383Y-99450500D01*
X151906384Y-99450500D01*
X152093617Y-99450500D01*
X152093618Y-99450499D01*
X152277251Y-99413973D01*
X152450231Y-99342322D01*
X152605908Y-99238302D01*
X152738302Y-99105908D01*
X152842322Y-98950231D01*
X152843547Y-98947273D01*
X152870821Y-98881429D01*
X152870821Y-98881428D01*
X152913973Y-98777251D01*
X152950500Y-98593616D01*
X152950500Y-98406384D01*
X152913973Y-98222749D01*
X152842322Y-98049769D01*
X152842321Y-98049768D01*
X152842318Y-98049762D01*
X152738302Y-97894092D01*
X152738299Y-97894088D01*
X152605911Y-97761700D01*
X152605907Y-97761697D01*
X152450237Y-97657681D01*
X152450228Y-97657676D01*
X152277251Y-97586027D01*
X152277243Y-97586025D01*
X152093620Y-97549500D01*
X152093616Y-97549500D01*
X151906384Y-97549500D01*
X151906379Y-97549500D01*
X151722756Y-97586025D01*
X151722748Y-97586027D01*
X151549771Y-97657676D01*
X151549762Y-97657681D01*
X151394092Y-97761697D01*
X151394088Y-97761700D01*
X151261700Y-97894088D01*
X151261697Y-97894092D01*
X151161271Y-98044391D01*
X151107659Y-98089196D01*
X151058169Y-98099500D01*
X149524500Y-98099500D01*
X149457461Y-98079815D01*
X149411706Y-98027011D01*
X149400500Y-97975500D01*
X149400500Y-97595730D01*
X149397646Y-97565300D01*
X149397646Y-97565298D01*
X149352793Y-97437119D01*
X149352792Y-97437117D01*
X149351009Y-97434701D01*
X149272150Y-97327850D01*
X149162882Y-97247207D01*
X149162880Y-97247206D01*
X149034700Y-97202353D01*
X149004270Y-97199500D01*
X149004266Y-97199500D01*
X147995734Y-97199500D01*
X147995730Y-97199500D01*
X147965300Y-97202353D01*
X147965298Y-97202353D01*
X147837119Y-97247206D01*
X147837117Y-97247207D01*
X147727850Y-97327850D01*
X147647207Y-97437117D01*
X147647206Y-97437119D01*
X147602353Y-97565298D01*
X147602353Y-97565300D01*
X147599500Y-97595730D01*
X147599500Y-98282745D01*
X147579815Y-98349784D01*
X147563181Y-98370426D01*
X147179522Y-98754084D01*
X147179518Y-98754090D01*
X147126792Y-98845412D01*
X147126793Y-98845413D01*
X147099500Y-98947273D01*
X147099500Y-99811813D01*
X147079815Y-99878852D01*
X147063181Y-99899494D01*
X147042550Y-99920124D01*
X147042548Y-99920127D01*
X146989710Y-100028210D01*
X146989709Y-100028212D01*
X146989709Y-100028214D01*
X146979500Y-100098285D01*
X146979500Y-100098289D01*
X146979500Y-100098290D01*
X146979500Y-100611716D01*
X146982700Y-100633676D01*
X146972885Y-100702853D01*
X146934316Y-100747530D01*
X146935876Y-100749521D01*
X146929976Y-100754142D01*
X146816639Y-100867480D01*
X146733726Y-101004636D01*
X146733724Y-101004640D01*
X146686043Y-101157656D01*
X146680000Y-101224162D01*
X140049732Y-101224162D01*
X139950237Y-101157681D01*
X139950228Y-101157676D01*
X139777251Y-101086027D01*
X139777243Y-101086025D01*
X139593620Y-101049500D01*
X139593616Y-101049500D01*
X139406384Y-101049500D01*
X139406379Y-101049500D01*
X139222756Y-101086025D01*
X139222748Y-101086027D01*
X139049771Y-101157676D01*
X139049762Y-101157681D01*
X138894092Y-101261697D01*
X138894088Y-101261700D01*
X138761700Y-101394088D01*
X138761697Y-101394092D01*
X138657681Y-101549762D01*
X138657676Y-101549771D01*
X138586027Y-101722748D01*
X138586025Y-101722756D01*
X138549500Y-101906379D01*
X136587438Y-101906379D01*
X136600000Y-101859496D01*
X136600000Y-101780504D01*
X136579556Y-101704204D01*
X136540060Y-101635795D01*
X136484205Y-101579940D01*
X136466988Y-101570000D01*
X137320843Y-101570000D01*
X137309649Y-101513725D01*
X137309648Y-101513723D01*
X137230499Y-101322641D01*
X137230494Y-101322631D01*
X137115589Y-101150664D01*
X137115586Y-101150660D01*
X137030118Y-101065192D01*
X136996633Y-101003869D01*
X137001617Y-100934177D01*
X137030126Y-100889821D01*
X137035075Y-100884872D01*
X137123019Y-100739395D01*
X137173590Y-100577106D01*
X137180000Y-100506572D01*
X137180000Y-100500000D01*
X136330000Y-100500000D01*
X136330000Y-101156000D01*
X136320552Y-101188173D01*
X136311843Y-101220601D01*
X136310583Y-101222124D01*
X136310315Y-101223039D01*
X136308596Y-101224527D01*
X136289355Y-101247804D01*
X136250000Y-101283537D01*
X136250000Y-101520000D01*
X135750000Y-101520000D01*
X135750000Y-100764000D01*
X135769685Y-100696961D01*
X135794809Y-100675190D01*
X135830000Y-100640000D01*
X135830000Y-100500000D01*
X134980001Y-100500000D01*
X134980001Y-100506582D01*
X134986408Y-100577102D01*
X134986409Y-100577107D01*
X135036981Y-100739396D01*
X135087969Y-100823741D01*
X135105805Y-100891296D01*
X135084287Y-100957769D01*
X135050746Y-100990991D01*
X135030665Y-101004409D01*
X135030660Y-101004413D01*
X134884413Y-101150660D01*
X134884410Y-101150664D01*
X134769505Y-101322631D01*
X134769500Y-101322641D01*
X134690351Y-101513723D01*
X134690350Y-101513725D01*
X134679157Y-101570000D01*
X133520843Y-101570000D01*
X133509649Y-101513725D01*
X133509648Y-101513723D01*
X133430499Y-101322641D01*
X133430494Y-101322631D01*
X133315589Y-101150664D01*
X133315586Y-101150660D01*
X133169339Y-101004413D01*
X133169335Y-101004410D01*
X132997368Y-100889505D01*
X132997358Y-100889500D01*
X132806274Y-100810350D01*
X132806266Y-100810348D01*
X132603420Y-100770000D01*
X132450000Y-100770000D01*
X132450000Y-101520000D01*
X131950000Y-101520000D01*
X131950000Y-100770000D01*
X131796579Y-100770000D01*
X131593733Y-100810348D01*
X131593725Y-100810350D01*
X131402641Y-100889500D01*
X131402631Y-100889505D01*
X131230664Y-101004410D01*
X131230660Y-101004413D01*
X131084413Y-101150660D01*
X131084410Y-101150664D01*
X130969505Y-101322631D01*
X130969500Y-101322641D01*
X130890351Y-101513723D01*
X130890350Y-101513725D01*
X130879157Y-101570000D01*
X129750500Y-101570000D01*
X129750500Y-96328271D01*
X134678500Y-96328271D01*
X134678500Y-98671726D01*
X134705793Y-98773589D01*
X134723726Y-98804649D01*
X134758520Y-98864913D01*
X134758522Y-98864915D01*
X135229147Y-99335540D01*
X135262632Y-99396863D01*
X135257648Y-99466555D01*
X135229148Y-99510902D01*
X135124926Y-99615124D01*
X135036980Y-99760604D01*
X134986409Y-99922893D01*
X134980000Y-99993427D01*
X134980000Y-100000000D01*
X137179999Y-100000000D01*
X137179999Y-99993417D01*
X137173591Y-99922897D01*
X137173590Y-99922892D01*
X137123018Y-99760603D01*
X137035072Y-99615122D01*
X136914879Y-99494929D01*
X136912816Y-99493682D01*
X136911619Y-99492375D01*
X136908974Y-99490303D01*
X136909318Y-99489863D01*
X136865627Y-99442155D01*
X136858376Y-99399986D01*
X139800001Y-99399986D01*
X139810494Y-99502697D01*
X139865641Y-99669119D01*
X139865643Y-99669124D01*
X139957684Y-99818345D01*
X140081654Y-99942315D01*
X140230875Y-100034356D01*
X140230880Y-100034358D01*
X140397302Y-100089505D01*
X140397309Y-100089506D01*
X140500019Y-100099999D01*
X140749999Y-100099999D01*
X141250000Y-100099999D01*
X141499972Y-100099999D01*
X141499986Y-100099998D01*
X141602697Y-100089505D01*
X141769119Y-100034358D01*
X141769124Y-100034356D01*
X141918345Y-99942315D01*
X142042315Y-99818345D01*
X142134356Y-99669124D01*
X142134358Y-99669119D01*
X142189505Y-99502697D01*
X142189506Y-99502690D01*
X142199999Y-99399986D01*
X144300001Y-99399986D01*
X144310494Y-99502697D01*
X144365641Y-99669119D01*
X144365643Y-99669124D01*
X144457684Y-99818345D01*
X144581654Y-99942315D01*
X144730875Y-100034356D01*
X144730880Y-100034358D01*
X144897302Y-100089505D01*
X144897309Y-100089506D01*
X145000019Y-100099999D01*
X145249999Y-100099999D01*
X145750000Y-100099999D01*
X145999972Y-100099999D01*
X145999986Y-100099998D01*
X146102697Y-100089505D01*
X146269119Y-100034358D01*
X146269124Y-100034356D01*
X146418345Y-99942315D01*
X146542315Y-99818345D01*
X146634356Y-99669124D01*
X146634358Y-99669119D01*
X146689505Y-99502697D01*
X146689506Y-99502690D01*
X146699999Y-99399986D01*
X146700000Y-99399973D01*
X146700000Y-99250000D01*
X145750000Y-99250000D01*
X145750000Y-100099999D01*
X145249999Y-100099999D01*
X145250000Y-100099998D01*
X145250000Y-99250000D01*
X144300001Y-99250000D01*
X144300001Y-99399986D01*
X142199999Y-99399986D01*
X142200000Y-99399973D01*
X142200000Y-99250000D01*
X141250000Y-99250000D01*
X141250000Y-100099999D01*
X140749999Y-100099999D01*
X140750000Y-100099998D01*
X140750000Y-99250000D01*
X139800001Y-99250000D01*
X139800001Y-99399986D01*
X136858376Y-99399986D01*
X136853786Y-99373296D01*
X136854260Y-99369678D01*
X136857205Y-99349468D01*
X136866017Y-99332175D01*
X136880500Y-99240735D01*
X136880499Y-98799266D01*
X136880499Y-98799260D01*
X136866018Y-98707829D01*
X136866018Y-98707828D01*
X136866017Y-98707826D01*
X136866017Y-98707825D01*
X136809859Y-98597609D01*
X136809857Y-98597607D01*
X136809856Y-98597605D01*
X136809692Y-98597379D01*
X136809577Y-98597057D01*
X136805428Y-98588914D01*
X136806480Y-98588377D01*
X136786217Y-98531571D01*
X136802046Y-98463518D01*
X136852155Y-98414827D01*
X136910015Y-98400500D01*
X139683070Y-98400500D01*
X139750109Y-98420185D01*
X139795864Y-98472989D01*
X139806428Y-98537103D01*
X139800000Y-98600013D01*
X139800000Y-98750000D01*
X142199999Y-98750000D01*
X142199999Y-98600028D01*
X142199998Y-98600013D01*
X142189505Y-98497301D01*
X142181154Y-98472099D01*
X142178751Y-98402270D01*
X142214482Y-98342228D01*
X142236853Y-98325710D01*
X142245913Y-98320480D01*
X143129573Y-97436818D01*
X143190896Y-97403334D01*
X143217254Y-97400500D01*
X144502404Y-97400500D01*
X144569443Y-97420185D01*
X144615198Y-97472989D01*
X144619445Y-97483544D01*
X144627841Y-97507538D01*
X144647207Y-97562882D01*
X144717171Y-97657681D01*
X144727851Y-97672151D01*
X144810601Y-97733223D01*
X144852852Y-97788870D01*
X144858311Y-97858526D01*
X144825244Y-97920076D01*
X144775974Y-97950698D01*
X144730883Y-97965640D01*
X144730875Y-97965643D01*
X144581654Y-98057684D01*
X144457684Y-98181654D01*
X144365643Y-98330875D01*
X144365641Y-98330880D01*
X144310494Y-98497302D01*
X144310493Y-98497309D01*
X144300000Y-98600013D01*
X144300000Y-98750000D01*
X146699999Y-98750000D01*
X146699999Y-98600028D01*
X146699998Y-98600013D01*
X146689505Y-98497302D01*
X146634358Y-98330880D01*
X146634356Y-98330875D01*
X146542315Y-98181654D01*
X146418345Y-98057684D01*
X146269124Y-97965643D01*
X146269121Y-97965642D01*
X146224026Y-97950699D01*
X146166582Y-97910926D01*
X146139759Y-97846410D01*
X146152074Y-97777634D01*
X146189394Y-97733225D01*
X146272150Y-97672150D01*
X146352793Y-97562882D01*
X146380106Y-97484826D01*
X146397646Y-97434701D01*
X146397646Y-97434699D01*
X146400500Y-97404269D01*
X146400500Y-96595730D01*
X146397646Y-96565301D01*
X146390702Y-96545456D01*
X146387139Y-96475678D01*
X146421867Y-96415050D01*
X146483860Y-96382822D01*
X146507743Y-96380500D01*
X147495406Y-96380500D01*
X147562445Y-96400185D01*
X147608200Y-96452989D01*
X147612447Y-96463545D01*
X147621655Y-96489859D01*
X147647207Y-96562882D01*
X147727850Y-96672150D01*
X147837118Y-96752793D01*
X147879845Y-96767744D01*
X147965299Y-96797646D01*
X147995730Y-96800500D01*
X147995734Y-96800500D01*
X149004270Y-96800500D01*
X149034699Y-96797646D01*
X149034701Y-96797646D01*
X149098790Y-96775219D01*
X149162882Y-96752793D01*
X149272150Y-96672150D01*
X149352793Y-96562882D01*
X149378345Y-96489859D01*
X149380555Y-96483544D01*
X149421277Y-96426769D01*
X149486230Y-96401022D01*
X149497596Y-96400500D01*
X151782745Y-96400500D01*
X151849784Y-96420185D01*
X151870426Y-96436819D01*
X152029338Y-96595730D01*
X152179518Y-96745910D01*
X152179520Y-96745913D01*
X152254087Y-96820480D01*
X152297271Y-96845412D01*
X152345412Y-96873207D01*
X152447273Y-96900500D01*
X154405985Y-96900500D01*
X154473024Y-96920185D01*
X154518779Y-96972989D01*
X154520544Y-96977043D01*
X154529058Y-96997596D01*
X154529059Y-96997597D01*
X154529062Y-96997604D01*
X154644022Y-97169655D01*
X154790342Y-97315975D01*
X154962405Y-97430943D01*
X155063914Y-97472989D01*
X155127108Y-97499164D01*
X155181511Y-97543005D01*
X155203576Y-97609299D01*
X155186297Y-97676998D01*
X155135160Y-97724609D01*
X155117974Y-97731656D01*
X154941781Y-97788905D01*
X154752439Y-97885380D01*
X154698282Y-97924727D01*
X154698282Y-97924728D01*
X155330591Y-98557037D01*
X155267007Y-98574075D01*
X155152993Y-98639901D01*
X155059901Y-98732993D01*
X154994075Y-98847007D01*
X154977037Y-98910591D01*
X154344728Y-98278282D01*
X154344727Y-98278282D01*
X154305380Y-98332439D01*
X154208904Y-98521782D01*
X154143242Y-98723869D01*
X154143242Y-98723872D01*
X154110000Y-98933753D01*
X154110000Y-99146246D01*
X154143242Y-99356127D01*
X154143242Y-99356130D01*
X154208904Y-99558217D01*
X154305375Y-99747550D01*
X154344728Y-99801716D01*
X154977037Y-99169408D01*
X154994075Y-99232993D01*
X155059901Y-99347007D01*
X155152993Y-99440099D01*
X155267007Y-99505925D01*
X155330591Y-99522962D01*
X154729971Y-100123581D01*
X154808711Y-100240895D01*
X154809920Y-100244729D01*
X154812844Y-100247491D01*
X154820343Y-100277778D01*
X154829727Y-100307529D01*
X154828671Y-100311408D01*
X154829638Y-100315312D01*
X154819573Y-100344844D01*
X154811383Y-100374947D01*
X154808397Y-100377640D01*
X154807100Y-100381447D01*
X154762051Y-100420483D01*
X154752440Y-100425380D01*
X154698282Y-100464727D01*
X154698282Y-100464728D01*
X155330591Y-101097037D01*
X155267007Y-101114075D01*
X155152993Y-101179901D01*
X155059901Y-101272993D01*
X154994075Y-101387007D01*
X154977037Y-101450591D01*
X154344728Y-100818282D01*
X154344727Y-100818282D01*
X154305380Y-100872439D01*
X154208904Y-101061782D01*
X154143242Y-101263869D01*
X154143242Y-101263872D01*
X154110000Y-101473753D01*
X154110000Y-101686246D01*
X154143242Y-101896127D01*
X154143242Y-101896130D01*
X154208904Y-102098217D01*
X154305375Y-102287550D01*
X154344728Y-102341716D01*
X154977037Y-101709408D01*
X154994075Y-101772993D01*
X155059901Y-101887007D01*
X155152993Y-101980099D01*
X155267007Y-102045925D01*
X155330590Y-102062962D01*
X154698282Y-102695269D01*
X154698282Y-102695270D01*
X154752449Y-102734624D01*
X154941782Y-102831095D01*
X155143870Y-102896757D01*
X155353754Y-102930000D01*
X155566246Y-102930000D01*
X155776127Y-102896757D01*
X155776130Y-102896757D01*
X155978217Y-102831095D01*
X156167554Y-102734622D01*
X156221716Y-102695270D01*
X156221717Y-102695270D01*
X155589408Y-102062962D01*
X155652993Y-102045925D01*
X155767007Y-101980099D01*
X155860099Y-101887007D01*
X155925925Y-101772993D01*
X155942962Y-101709408D01*
X156575270Y-102341717D01*
X156575270Y-102341716D01*
X156614622Y-102287554D01*
X156619514Y-102277954D01*
X156667488Y-102227157D01*
X156735308Y-102210361D01*
X156801444Y-102232897D01*
X156840486Y-102277954D01*
X156845375Y-102287550D01*
X156884728Y-102341716D01*
X157517037Y-101709408D01*
X157534075Y-101772993D01*
X157599901Y-101887007D01*
X157692993Y-101980099D01*
X157807007Y-102045925D01*
X157870590Y-102062962D01*
X157238282Y-102695269D01*
X157238282Y-102695270D01*
X157292449Y-102734624D01*
X157481782Y-102831095D01*
X157683870Y-102896757D01*
X157893754Y-102930000D01*
X158106246Y-102930000D01*
X158316127Y-102896757D01*
X158316130Y-102896757D01*
X158518217Y-102831095D01*
X158707554Y-102734622D01*
X158761716Y-102695270D01*
X158761717Y-102695270D01*
X158129408Y-102062962D01*
X158192993Y-102045925D01*
X158307007Y-101980099D01*
X158400099Y-101887007D01*
X158465925Y-101772993D01*
X158482962Y-101709408D01*
X159115270Y-102341717D01*
X159115270Y-102341716D01*
X159154622Y-102287554D01*
X159251095Y-102098217D01*
X159316757Y-101896130D01*
X159316757Y-101896127D01*
X159350000Y-101686246D01*
X159350000Y-101473753D01*
X159316757Y-101263872D01*
X159316757Y-101263869D01*
X159251095Y-101061782D01*
X159154624Y-100872449D01*
X159115270Y-100818282D01*
X159115269Y-100818282D01*
X158482962Y-101450590D01*
X158465925Y-101387007D01*
X158400099Y-101272993D01*
X158307007Y-101179901D01*
X158192993Y-101114075D01*
X158129409Y-101097037D01*
X158761716Y-100464728D01*
X158707550Y-100425375D01*
X158697954Y-100420486D01*
X158647157Y-100372512D01*
X158630361Y-100304692D01*
X158652897Y-100238556D01*
X158697954Y-100199514D01*
X158707554Y-100194622D01*
X158761716Y-100155270D01*
X158761717Y-100155270D01*
X158129408Y-99522962D01*
X158192993Y-99505925D01*
X158307007Y-99440099D01*
X158400099Y-99347007D01*
X158465925Y-99232993D01*
X158482962Y-99169408D01*
X159115270Y-99801717D01*
X159115270Y-99801716D01*
X159154622Y-99747554D01*
X159251095Y-99558217D01*
X159316757Y-99356130D01*
X159316757Y-99356127D01*
X159350000Y-99146246D01*
X159350000Y-98933753D01*
X159316757Y-98723872D01*
X159316757Y-98723869D01*
X159251095Y-98521782D01*
X159154624Y-98332449D01*
X159115270Y-98278282D01*
X159115269Y-98278282D01*
X158482962Y-98910590D01*
X158465925Y-98847007D01*
X158400099Y-98732993D01*
X158307007Y-98639901D01*
X158192993Y-98574075D01*
X158129409Y-98557037D01*
X158761716Y-97924728D01*
X158707550Y-97885375D01*
X158518216Y-97788904D01*
X158342026Y-97731656D01*
X158284350Y-97692218D01*
X158257152Y-97627860D01*
X158269067Y-97559013D01*
X158316311Y-97507538D01*
X158332882Y-97499168D01*
X158497598Y-97430941D01*
X158669655Y-97315977D01*
X158815977Y-97169655D01*
X158930941Y-96997598D01*
X159010130Y-96806420D01*
X159050500Y-96603465D01*
X159050500Y-96396535D01*
X159010130Y-96193580D01*
X158930941Y-96002402D01*
X158815977Y-95830345D01*
X158815976Y-95830344D01*
X158815975Y-95830342D01*
X158669655Y-95684022D01*
X158497604Y-95569062D01*
X158497599Y-95569060D01*
X158497598Y-95569059D01*
X158477045Y-95560545D01*
X158422643Y-95516704D01*
X158400579Y-95450410D01*
X158400500Y-95445985D01*
X158400500Y-95014014D01*
X158420185Y-94946975D01*
X158472989Y-94901220D01*
X158477048Y-94899453D01*
X158497598Y-94890941D01*
X158669655Y-94775977D01*
X158815977Y-94629655D01*
X158930941Y-94457598D01*
X159010130Y-94266420D01*
X159050500Y-94063465D01*
X159050500Y-93856535D01*
X159010130Y-93653580D01*
X158930941Y-93462402D01*
X158815977Y-93290345D01*
X158815976Y-93290344D01*
X158815975Y-93290342D01*
X158669657Y-93144024D01*
X158583626Y-93086541D01*
X158497598Y-93029059D01*
X158438131Y-93004427D01*
X158306420Y-92949870D01*
X158306412Y-92949868D01*
X158103469Y-92909500D01*
X158103465Y-92909500D01*
X157896535Y-92909500D01*
X157896530Y-92909500D01*
X157693587Y-92949868D01*
X157693579Y-92949870D01*
X157502403Y-93029058D01*
X157330342Y-93144024D01*
X157184022Y-93290344D01*
X157069062Y-93462395D01*
X157069059Y-93462402D01*
X157060546Y-93482954D01*
X157016704Y-93537357D01*
X156950410Y-93559421D01*
X156945985Y-93559500D01*
X156634500Y-93559500D01*
X156567461Y-93539815D01*
X156521706Y-93487011D01*
X156510500Y-93435500D01*
X156510500Y-93090249D01*
X156510499Y-93090247D01*
X156498868Y-93031770D01*
X156498867Y-93031769D01*
X156454552Y-92965447D01*
X156388230Y-92921132D01*
X156388229Y-92921131D01*
X156329752Y-92909500D01*
X156329748Y-92909500D01*
X154590252Y-92909500D01*
X154590247Y-92909500D01*
X154531770Y-92921131D01*
X154531769Y-92921132D01*
X154465447Y-92965447D01*
X154421132Y-93031769D01*
X154421131Y-93031770D01*
X154409500Y-93090247D01*
X154409500Y-94829752D01*
X154421131Y-94888229D01*
X154421132Y-94888230D01*
X154465447Y-94954552D01*
X154531769Y-94998867D01*
X154531770Y-94998868D01*
X154590247Y-95010499D01*
X154590250Y-95010500D01*
X154590252Y-95010500D01*
X154935500Y-95010500D01*
X155002539Y-95030185D01*
X155048294Y-95082989D01*
X155059500Y-95134500D01*
X155059500Y-95445985D01*
X155039815Y-95513024D01*
X154987011Y-95558779D01*
X154982956Y-95560544D01*
X154966748Y-95567259D01*
X154962402Y-95569059D01*
X154962395Y-95569062D01*
X154790344Y-95684022D01*
X154644022Y-95830344D01*
X154529062Y-96002395D01*
X154529059Y-96002402D01*
X154520546Y-96022954D01*
X154476704Y-96077357D01*
X154410410Y-96099421D01*
X154405985Y-96099500D01*
X152717254Y-96099500D01*
X152650215Y-96079815D01*
X152629573Y-96063181D01*
X152245915Y-95679522D01*
X152245914Y-95679521D01*
X152245913Y-95679520D01*
X152200250Y-95653156D01*
X152154589Y-95626793D01*
X152103657Y-95613146D01*
X152052727Y-95599500D01*
X152052726Y-95599500D01*
X149497596Y-95599500D01*
X149430557Y-95579815D01*
X149384802Y-95527011D01*
X149380555Y-95516456D01*
X149357444Y-95450410D01*
X149352793Y-95437118D01*
X149272150Y-95327850D01*
X149162882Y-95247207D01*
X149162880Y-95247206D01*
X149034700Y-95202353D01*
X149004270Y-95199500D01*
X149004266Y-95199500D01*
X147995734Y-95199500D01*
X147995730Y-95199500D01*
X147965300Y-95202353D01*
X147965298Y-95202353D01*
X147837119Y-95247206D01*
X147837117Y-95247207D01*
X147727850Y-95327850D01*
X147647207Y-95437117D01*
X147647206Y-95437119D01*
X147626444Y-95496455D01*
X147585722Y-95553231D01*
X147520770Y-95578978D01*
X147509403Y-95579500D01*
X139524500Y-95579500D01*
X139515814Y-95576949D01*
X139506853Y-95578238D01*
X139482812Y-95567259D01*
X139457461Y-95559815D01*
X139451533Y-95552974D01*
X139443297Y-95549213D01*
X139429007Y-95526978D01*
X139411706Y-95507011D01*
X139409418Y-95496496D01*
X139405523Y-95490435D01*
X139400500Y-95455500D01*
X139400500Y-95441830D01*
X139420185Y-95374791D01*
X139455607Y-95338729D01*
X139605908Y-95238302D01*
X139738302Y-95105908D01*
X139842322Y-94950231D01*
X139913973Y-94777251D01*
X139950500Y-94593616D01*
X139950500Y-94406384D01*
X139913973Y-94222749D01*
X139842322Y-94049769D01*
X139842321Y-94049768D01*
X139842318Y-94049762D01*
X139738302Y-93894092D01*
X139738299Y-93894088D01*
X139605911Y-93761700D01*
X139605907Y-93761697D01*
X139450237Y-93657681D01*
X139450228Y-93657676D01*
X139277251Y-93586027D01*
X139277243Y-93586025D01*
X139093620Y-93549500D01*
X139093616Y-93549500D01*
X138906384Y-93549500D01*
X138906379Y-93549500D01*
X138722756Y-93586025D01*
X138722748Y-93586027D01*
X138549771Y-93657676D01*
X138549762Y-93657681D01*
X138394092Y-93761697D01*
X138394088Y-93761700D01*
X138261700Y-93894088D01*
X138261697Y-93894092D01*
X138157681Y-94049762D01*
X138157676Y-94049771D01*
X138086027Y-94222748D01*
X138086025Y-94222756D01*
X138049500Y-94406379D01*
X138049500Y-94593620D01*
X138086025Y-94777243D01*
X138086027Y-94777251D01*
X138157676Y-94950228D01*
X138157681Y-94950237D01*
X138261697Y-95105907D01*
X138261700Y-95105911D01*
X138394089Y-95238300D01*
X138394092Y-95238302D01*
X138544391Y-95338728D01*
X138549481Y-95344818D01*
X138556703Y-95348117D01*
X138571566Y-95371245D01*
X138589196Y-95392340D01*
X138591147Y-95401714D01*
X138594477Y-95406895D01*
X138599500Y-95441830D01*
X138599500Y-95455500D01*
X138579815Y-95522539D01*
X138527011Y-95568294D01*
X138475500Y-95579500D01*
X137137266Y-95579500D01*
X137070227Y-95559815D01*
X137024472Y-95507011D01*
X137014528Y-95437853D01*
X137033833Y-95392888D01*
X137031194Y-95391293D01*
X137123019Y-95239395D01*
X137173590Y-95077106D01*
X137180000Y-95006572D01*
X137180000Y-95000000D01*
X134980001Y-95000000D01*
X134980001Y-95006582D01*
X134986408Y-95077102D01*
X134986409Y-95077107D01*
X135036981Y-95239396D01*
X135124927Y-95384877D01*
X135229147Y-95489097D01*
X135262632Y-95550420D01*
X135257648Y-95620112D01*
X135229147Y-95664459D01*
X134758522Y-96135084D01*
X134758520Y-96135087D01*
X134705794Y-96226409D01*
X134705793Y-96226411D01*
X134705793Y-96226412D01*
X134691456Y-96279920D01*
X134691456Y-96279921D01*
X134691455Y-96279920D01*
X134678500Y-96328271D01*
X129750500Y-96328271D01*
X129750500Y-93004427D01*
X129750816Y-92995582D01*
X129753755Y-92954486D01*
X129753755Y-92954485D01*
X129755506Y-92930000D01*
X130879157Y-92930000D01*
X131733012Y-92930000D01*
X131715795Y-92939940D01*
X131659940Y-92995795D01*
X131620444Y-93064204D01*
X131600000Y-93140504D01*
X131600000Y-93219496D01*
X131620444Y-93295796D01*
X131659940Y-93364205D01*
X131715795Y-93420060D01*
X131733012Y-93430000D01*
X130879157Y-93430000D01*
X130890350Y-93486274D01*
X130890351Y-93486276D01*
X130969500Y-93677358D01*
X130969505Y-93677368D01*
X131084410Y-93849335D01*
X131084413Y-93849339D01*
X131230660Y-93995586D01*
X131230664Y-93995589D01*
X131402631Y-94110494D01*
X131402641Y-94110499D01*
X131593725Y-94189649D01*
X131593733Y-94189651D01*
X131796579Y-94229999D01*
X131796583Y-94230000D01*
X131950000Y-94230000D01*
X131950000Y-93480000D01*
X132450000Y-93480000D01*
X132450000Y-94230000D01*
X132603417Y-94230000D01*
X132603420Y-94229999D01*
X132806266Y-94189651D01*
X132806274Y-94189649D01*
X132997358Y-94110499D01*
X132997368Y-94110494D01*
X133169335Y-93995589D01*
X133169339Y-93995586D01*
X133315586Y-93849339D01*
X133315589Y-93849335D01*
X133430494Y-93677368D01*
X133430499Y-93677358D01*
X133509648Y-93486276D01*
X133509649Y-93486274D01*
X133520843Y-93430000D01*
X132666988Y-93430000D01*
X132684205Y-93420060D01*
X132740060Y-93364205D01*
X132779556Y-93295796D01*
X132800000Y-93219496D01*
X132800000Y-93140504D01*
X132779556Y-93064204D01*
X132740060Y-92995795D01*
X132684205Y-92939940D01*
X132666988Y-92930000D01*
X133520843Y-92930000D01*
X134679157Y-92930000D01*
X135533012Y-92930000D01*
X135515795Y-92939940D01*
X135459940Y-92995795D01*
X135420444Y-93064204D01*
X135400000Y-93140504D01*
X135400000Y-93219496D01*
X135420444Y-93295796D01*
X135459940Y-93364205D01*
X135515795Y-93420060D01*
X135533012Y-93430000D01*
X134679157Y-93430000D01*
X134690350Y-93486274D01*
X134690351Y-93486276D01*
X134769500Y-93677358D01*
X134769505Y-93677368D01*
X134884410Y-93849335D01*
X134884413Y-93849339D01*
X135030659Y-93995585D01*
X135050741Y-94009003D01*
X135095547Y-94062615D01*
X135104256Y-94131940D01*
X135087969Y-94176256D01*
X135036982Y-94260599D01*
X135036980Y-94260603D01*
X134986409Y-94422893D01*
X134980000Y-94493427D01*
X134980000Y-94500000D01*
X135830000Y-94500000D01*
X135830000Y-94360000D01*
X135811709Y-94341709D01*
X135806961Y-94340315D01*
X135761206Y-94287511D01*
X135750000Y-94236000D01*
X135750000Y-93480000D01*
X136250000Y-93480000D01*
X136250000Y-93720000D01*
X136268290Y-93738290D01*
X136273039Y-93739685D01*
X136318794Y-93792489D01*
X136330000Y-93844000D01*
X136330000Y-94500000D01*
X137179999Y-94500000D01*
X137179999Y-94493417D01*
X137173591Y-94422897D01*
X137173590Y-94422892D01*
X137123018Y-94260603D01*
X137035072Y-94115122D01*
X137030118Y-94110168D01*
X136996633Y-94048845D01*
X137001617Y-93979153D01*
X137030119Y-93934805D01*
X137115586Y-93849339D01*
X137115589Y-93849335D01*
X137230494Y-93677368D01*
X137230499Y-93677358D01*
X137309648Y-93486276D01*
X137309649Y-93486274D01*
X137320843Y-93430000D01*
X136466988Y-93430000D01*
X136484205Y-93420060D01*
X136540060Y-93364205D01*
X136579556Y-93295796D01*
X136600000Y-93219496D01*
X136600000Y-93140504D01*
X136579556Y-93064204D01*
X136540060Y-92995795D01*
X136484205Y-92939940D01*
X136466988Y-92930000D01*
X137320843Y-92930000D01*
X137319747Y-92924488D01*
X137319745Y-92924482D01*
X137316144Y-92906379D01*
X150549500Y-92906379D01*
X150549500Y-93093620D01*
X150586025Y-93277243D01*
X150586027Y-93277251D01*
X150657676Y-93450228D01*
X150657681Y-93450237D01*
X150761697Y-93605907D01*
X150761700Y-93605911D01*
X150894088Y-93738299D01*
X150894092Y-93738302D01*
X151049762Y-93842318D01*
X151049768Y-93842321D01*
X151049769Y-93842322D01*
X151222749Y-93913973D01*
X151406379Y-93950499D01*
X151406383Y-93950500D01*
X151406384Y-93950500D01*
X151593617Y-93950500D01*
X151593618Y-93950499D01*
X151777251Y-93913973D01*
X151950231Y-93842322D01*
X152105908Y-93738302D01*
X152238302Y-93605908D01*
X152342322Y-93450231D01*
X152413973Y-93277251D01*
X152450500Y-93093616D01*
X152450500Y-92906384D01*
X152413973Y-92722749D01*
X152342322Y-92549769D01*
X152342321Y-92549768D01*
X152342318Y-92549762D01*
X152238302Y-92394092D01*
X152238299Y-92394088D01*
X152105911Y-92261700D01*
X152105907Y-92261697D01*
X151950237Y-92157681D01*
X151950228Y-92157676D01*
X151777251Y-92086027D01*
X151777243Y-92086025D01*
X151593620Y-92049500D01*
X151593616Y-92049500D01*
X151406384Y-92049500D01*
X151406379Y-92049500D01*
X151222756Y-92086025D01*
X151222748Y-92086027D01*
X151049771Y-92157676D01*
X151049762Y-92157681D01*
X150894092Y-92261697D01*
X150894088Y-92261700D01*
X150761700Y-92394088D01*
X150761697Y-92394092D01*
X150657681Y-92549762D01*
X150657676Y-92549771D01*
X150586027Y-92722748D01*
X150586025Y-92722756D01*
X150549500Y-92906379D01*
X137316144Y-92906379D01*
X137309649Y-92873725D01*
X137309648Y-92873723D01*
X137230499Y-92682641D01*
X137230494Y-92682631D01*
X137115589Y-92510664D01*
X137115586Y-92510660D01*
X136969339Y-92364413D01*
X136969335Y-92364410D01*
X136797368Y-92249505D01*
X136797358Y-92249500D01*
X136606274Y-92170350D01*
X136606266Y-92170348D01*
X136403420Y-92130000D01*
X136250000Y-92130000D01*
X136250000Y-92880000D01*
X135750000Y-92880000D01*
X135750000Y-92130000D01*
X135596579Y-92130000D01*
X135393733Y-92170348D01*
X135393725Y-92170350D01*
X135202641Y-92249500D01*
X135202631Y-92249505D01*
X135030664Y-92364410D01*
X135030660Y-92364413D01*
X134884413Y-92510660D01*
X134884410Y-92510664D01*
X134769505Y-92682631D01*
X134769500Y-92682641D01*
X134690351Y-92873723D01*
X134690350Y-92873725D01*
X134679157Y-92930000D01*
X133520843Y-92930000D01*
X133509649Y-92873725D01*
X133509648Y-92873723D01*
X133430499Y-92682641D01*
X133430494Y-92682631D01*
X133315589Y-92510664D01*
X133315586Y-92510660D01*
X133169339Y-92364413D01*
X133169335Y-92364410D01*
X132997368Y-92249505D01*
X132997358Y-92249500D01*
X132806274Y-92170350D01*
X132806266Y-92170348D01*
X132603420Y-92130000D01*
X132450000Y-92130000D01*
X132450000Y-92880000D01*
X131950000Y-92880000D01*
X131950000Y-92130000D01*
X131796579Y-92130000D01*
X131593733Y-92170348D01*
X131593725Y-92170350D01*
X131402641Y-92249500D01*
X131402631Y-92249505D01*
X131230664Y-92364410D01*
X131230660Y-92364413D01*
X131084413Y-92510660D01*
X131084410Y-92510664D01*
X130969505Y-92682631D01*
X130969500Y-92682641D01*
X130890351Y-92873723D01*
X130890350Y-92873725D01*
X130879157Y-92930000D01*
X129755506Y-92930000D01*
X129767674Y-92759857D01*
X129770190Y-92742360D01*
X129819483Y-92515766D01*
X129824460Y-92498815D01*
X129905501Y-92281536D01*
X129912851Y-92265444D01*
X129914895Y-92261700D01*
X130023981Y-92061923D01*
X130033537Y-92047054D01*
X130172506Y-91861413D01*
X130184080Y-91848056D01*
X130348056Y-91684080D01*
X130361413Y-91672506D01*
X130547054Y-91533537D01*
X130561923Y-91523981D01*
X130765444Y-91412850D01*
X130781537Y-91405501D01*
X130998815Y-91324460D01*
X131015766Y-91319483D01*
X131242360Y-91270190D01*
X131259857Y-91267674D01*
X131495582Y-91250816D01*
X131504428Y-91250500D01*
X131544170Y-91250500D01*
X157955830Y-91250500D01*
X157995572Y-91250500D01*
X158004418Y-91250816D01*
G37*
%TD.AperFunction*%
%TD*%
M02*
