  0
SECTION
  2
HEADER
  9
$ANGBASE
  50
0.0
  9
$ANGDIR
  70
1
  9
$MEASUREMENT
  70
1
  9
$INSUNITS
  70
4
  0
ENDSEC
  0
SECTION
  2
TABLES
  0
TABLE
  2
LTYPE
  70
4
  0
LTYPE
  5
40F
  2
CONTINUOUS
  70
0
  3
Solid line
  72
65
  73
0
  40
0.0
  0
LTYPE
  5
410
  2
DASHDOT
 70
0
  3
Dash Dot ____ _ ____ _
 72
65
 73
4
 40
2.0
 49
1.25
 49
-0.25
 49
0.25
 49
-0.25
  0
LTYPE
  5
411
  2
DASHED
 70
0
  3
Dashed __ __ __ __ __
 72
65
 73
2
 40
0.75
 49
0.5
 49
-0.25
  0
LTYPE
  5
43B
  2
DOTTED
 70
0
  3
Dotted .  .  .  .
 72
65
 73
2
 40
0.2
 49
0.0
 49
-0.2
  0
ENDTAB
  0
TABLE
  2
STYLE
  70
4
  0
STYLE
  2
KICAD
  70
0
  40
0
  41
1
  42
1
  50
0
  71
0
  3
isocp.shx
  0
STYLE
  2
KICADB
  70
0
  40
0
  41
1
  42
1
  50
0
  71
0
  3
isocp.shx
  0
STYLE
  2
KICADI
  70
0
  40
0
  41
1
  42
1
  50
15
  71
0
  3
isocp.shx
  0
STYLE
  2
KICADBI
  70
0
  40
0
  41
1
  42
1
  50
15
  71
0
  3
isocp.shx
  0
ENDTAB
  0
TABLE
  2
LAYER
  70
9
  0
LAYER
  2
L1 (Sig, PWR)
  70
0
  62
13
  420
13120564
  6
CONTINUOUS
  0
LAYER
  2
L6 (Sig, PWR)
  70
0
  62
153
  420
5078980
  6
CONTINUOUS
  0
LAYER
  2
F.Paste
  70
0
  62
253
  420
11837594
  6
CONTINUOUS
  0
LAYER
  2
B.Paste
  70
0
  62
132
  420
49858
  6
CONTINUOUS
  0
LAYER
  2
F.Silkscreen
  70
0
  62
41
  420
15920545
  6
CONTINUOUS
  0
LAYER
  2
B.Silkscreen
  70
0
  62
31
  420
15250087
  6
CONTINUOUS
  0
LAYER
  2
F.Mask
  70
0
  62
201
  420
14181631
  6
CONTINUOUS
  0
LAYER
  2
B.Mask
  70
0
  62
4
  420
196590
  6
CONTINUOUS
  0
LAYER
  2
Edge.Cuts
  70
0
  62
254
  420
13685453
  6
CONTINUOUS
  0
ENDTAB
  0
ENDSEC
  0
SECTION
  2
ENTITIES
0
LINE
8
B.Mask
6
CONTINUOUS
10
155.7212559999999826
20
-100.7187539999999899
11
155.884256999999991
21
-100.7862709999999993
0
LINE
8
B.Mask
6
CONTINUOUS
10
155.884256999999991
20
-100.7862709999999993
11
156.0309539999999799
21
-100.8842909999999904
0
LINE
8
B.Mask
6
CONTINUOUS
10
156.0309539999999799
20
-100.8842909999999904
11
156.1557090000000017
21
-101.0090459999999979
0
LINE
8
B.Mask
6
CONTINUOUS
10
156.1557090000000017
20
-101.0090459999999979
11
156.2537289999999928
21
-101.1557430000000011
0
LINE
8
B.Mask
6
CONTINUOUS
10
156.2537289999999928
20
-101.1557430000000011
11
156.3212460000000021
21
-101.3187439999999953
0
LINE
8
B.Mask
6
CONTINUOUS
10
156.3212460000000021
20
-101.3187439999999953
11
156.3556659999999852
21
-101.491784999999993
0
LINE
8
B.Mask
6
CONTINUOUS
10
156.3556659999999852
20
-101.491784999999993
11
156.3556659999999852
21
-101.6682149999999893
0
LINE
8
B.Mask
6
CONTINUOUS
10
156.3556659999999852
20
-101.6682149999999893
11
156.3212460000000021
21
-101.8412560000000013
0
LINE
8
B.Mask
6
CONTINUOUS
10
156.3212460000000021
20
-101.8412560000000013
11
156.2537289999999928
21
-102.0042569999999955
0
LINE
8
B.Mask
6
CONTINUOUS
10
156.2537289999999928
20
-102.0042569999999955
11
156.1557090000000017
21
-102.1509539999999987
0
LINE
8
B.Mask
6
CONTINUOUS
10
156.1557090000000017
20
-102.1509539999999987
11
156.0309539999999799
21
-102.275708999999992
0
LINE
8
B.Mask
6
CONTINUOUS
10
156.0309539999999799
20
-102.275708999999992
11
155.884256999999991
21
-102.3737289999999973
0
LINE
8
B.Mask
6
CONTINUOUS
10
155.884256999999991
20
-102.3737289999999973
11
155.7212559999999826
21
-102.4412459999999925
0
LINE
8
B.Mask
6
CONTINUOUS
10
155.7212559999999826
20
-102.4412459999999925
11
155.548214999999999
21
-102.4756659999999897
0
LINE
8
B.Mask
6
CONTINUOUS
10
155.548214999999999
20
-102.4756659999999897
11
155.3717849999999885
21
-102.4756659999999897
0
LINE
8
B.Mask
6
CONTINUOUS
10
155.3717849999999885
20
-102.4756659999999897
11
155.1987440000000049
21
-102.4412459999999925
0
LINE
8
B.Mask
6
CONTINUOUS
10
155.1987440000000049
20
-102.4412459999999925
11
155.0357429999999965
21
-102.3737289999999973
0
LINE
8
B.Mask
6
CONTINUOUS
10
155.0357429999999965
20
-102.3737289999999973
11
154.8890459999999791
21
-102.275708999999992
0
LINE
8
B.Mask
6
CONTINUOUS
10
154.8890459999999791
20
-102.275708999999992
11
154.7642909999999858
21
-102.1509539999999987
0
LINE
8
B.Mask
6
CONTINUOUS
10
154.7642909999999858
20
-102.1509539999999987
11
154.6662709999999947
21
-102.0042569999999955
0
LINE
8
B.Mask
6
CONTINUOUS
10
154.6662709999999947
20
-102.0042569999999955
11
154.5987539999999854
21
-101.8412560000000013
0
LINE
8
B.Mask
6
CONTINUOUS
10
154.5987539999999854
20
-101.8412560000000013
11
154.5643340000000023
21
-101.6682149999999893
0
LINE
8
B.Mask
6
CONTINUOUS
10
154.5643340000000023
20
-101.6682149999999893
11
154.5643340000000023
21
-101.491784999999993
0
LINE
8
B.Mask
6
CONTINUOUS
10
154.5643340000000023
20
-101.491784999999993
11
154.5987539999999854
21
-101.3187439999999953
0
LINE
8
B.Mask
6
CONTINUOUS
10
154.5987539999999854
20
-101.3187439999999953
11
154.6662709999999947
21
-101.1557430000000011
0
LINE
8
B.Mask
6
CONTINUOUS
10
154.6662709999999947
20
-101.1557430000000011
11
154.7642909999999858
21
-101.0090459999999979
0
LINE
8
B.Mask
6
CONTINUOUS
10
154.7642909999999858
20
-101.0090459999999979
11
154.8890459999999791
21
-100.8842909999999904
0
LINE
8
B.Mask
6
CONTINUOUS
10
154.8890459999999791
20
-100.8842909999999904
11
155.0357429999999965
21
-100.7862709999999993
0
LINE
8
B.Mask
6
CONTINUOUS
10
155.0357429999999965
20
-100.7862709999999993
11
155.1987440000000049
21
-100.7187539999999899
0
LINE
8
B.Mask
6
CONTINUOUS
10
155.1987440000000049
20
-100.7187539999999899
11
155.3717849999999885
21
-100.6843339999999927
0
LINE
8
B.Mask
6
CONTINUOUS
10
155.3717849999999885
20
-100.6843339999999927
11
155.548214999999999
21
-100.6843339999999927
0
LINE
8
B.Mask
6
CONTINUOUS
10
155.548214999999999
20
-100.6843339999999927
11
155.7212559999999826
21
-100.7187539999999899
0
LINE
8
B.Mask
6
CONTINUOUS
10
158.261256000000003
20
-100.7187539999999899
11
158.424256999999983
21
-100.7862709999999993
0
LINE
8
B.Mask
6
CONTINUOUS
10
158.424256999999983
20
-100.7862709999999993
11
158.5709540000000004
21
-100.8842909999999904
0
LINE
8
B.Mask
6
CONTINUOUS
10
158.5709540000000004
20
-100.8842909999999904
11
158.6957089999999937
21
-101.0090459999999979
0
LINE
8
B.Mask
6
CONTINUOUS
10
158.6957089999999937
20
-101.0090459999999979
11
158.7937289999999848
21
-101.1557430000000011
0
LINE
8
B.Mask
6
CONTINUOUS
10
158.7937289999999848
20
-101.1557430000000011
11
158.8612459999999942
21
-101.3187439999999953
0
LINE
8
B.Mask
6
CONTINUOUS
10
158.8612459999999942
20
-101.3187439999999953
11
158.8956660000000056
21
-101.491784999999993
0
LINE
8
B.Mask
6
CONTINUOUS
10
158.8956660000000056
20
-101.491784999999993
11
158.8956660000000056
21
-101.6682149999999893
0
LINE
8
B.Mask
6
CONTINUOUS
10
158.8956660000000056
20
-101.6682149999999893
11
158.8612459999999942
21
-101.8412560000000013
0
LINE
8
B.Mask
6
CONTINUOUS
10
158.8612459999999942
20
-101.8412560000000013
11
158.7937289999999848
21
-102.0042569999999955
0
LINE
8
B.Mask
6
CONTINUOUS
10
158.7937289999999848
20
-102.0042569999999955
11
158.6957089999999937
21
-102.1509539999999987
0
LINE
8
B.Mask
6
CONTINUOUS
10
158.6957089999999937
20
-102.1509539999999987
11
158.5709540000000004
21
-102.275708999999992
0
LINE
8
B.Mask
6
CONTINUOUS
10
158.5709540000000004
20
-102.275708999999992
11
158.424256999999983
21
-102.3737289999999973
0
LINE
8
B.Mask
6
CONTINUOUS
10
158.424256999999983
20
-102.3737289999999973
11
158.261256000000003
21
-102.4412459999999925
0
LINE
8
B.Mask
6
CONTINUOUS
10
158.261256000000003
20
-102.4412459999999925
11
158.0882149999999911
21
-102.4756659999999897
0
LINE
8
B.Mask
6
CONTINUOUS
10
158.0882149999999911
20
-102.4756659999999897
11
157.9117849999999805
21
-102.4756659999999897
0
LINE
8
B.Mask
6
CONTINUOUS
10
157.9117849999999805
20
-102.4756659999999897
11
157.738743999999997
21
-102.4412459999999925
0
LINE
8
B.Mask
6
CONTINUOUS
10
157.738743999999997
20
-102.4412459999999925
11
157.5757429999999886
21
-102.3737289999999973
0
LINE
8
B.Mask
6
CONTINUOUS
10
157.5757429999999886
20
-102.3737289999999973
11
157.4290459999999996
21
-102.275708999999992
0
LINE
8
B.Mask
6
CONTINUOUS
10
157.4290459999999996
20
-102.275708999999992
11
157.3042910000000063
21
-102.1509539999999987
0
LINE
8
B.Mask
6
CONTINUOUS
10
157.3042910000000063
20
-102.1509539999999987
11
157.2062709999999868
21
-102.0042569999999955
0
LINE
8
B.Mask
6
CONTINUOUS
10
157.2062709999999868
20
-102.0042569999999955
11
157.1387540000000058
21
-101.8412560000000013
0
LINE
8
B.Mask
6
CONTINUOUS
10
157.1387540000000058
20
-101.8412560000000013
11
157.1043339999999944
21
-101.6682149999999893
0
LINE
8
B.Mask
6
CONTINUOUS
10
157.1043339999999944
20
-101.6682149999999893
11
157.1043339999999944
21
-101.491784999999993
0
LINE
8
B.Mask
6
CONTINUOUS
10
157.1043339999999944
20
-101.491784999999993
11
157.1387540000000058
21
-101.3187439999999953
0
LINE
8
B.Mask
6
CONTINUOUS
10
157.1387540000000058
20
-101.3187439999999953
11
157.2062709999999868
21
-101.1557430000000011
0
LINE
8
B.Mask
6
CONTINUOUS
10
157.2062709999999868
20
-101.1557430000000011
11
157.3042910000000063
21
-101.0090459999999979
0
LINE
8
B.Mask
6
CONTINUOUS
10
157.3042910000000063
20
-101.0090459999999979
11
157.4290459999999996
21
-100.8842909999999904
0
LINE
8
B.Mask
6
CONTINUOUS
10
157.4290459999999996
20
-100.8842909999999904
11
157.5757429999999886
21
-100.7862709999999993
0
LINE
8
B.Mask
6
CONTINUOUS
10
157.5757429999999886
20
-100.7862709999999993
11
157.738743999999997
21
-100.7187539999999899
0
LINE
8
B.Mask
6
CONTINUOUS
10
157.738743999999997
20
-100.7187539999999899
11
157.9117849999999805
21
-100.6843339999999927
0
LINE
8
B.Mask
6
CONTINUOUS
10
157.9117849999999805
20
-100.6843339999999927
11
158.0882149999999911
21
-100.6843339999999927
0
LINE
8
B.Mask
6
CONTINUOUS
10
158.0882149999999911
20
-100.6843339999999927
11
158.261256000000003
21
-100.7187539999999899
0
LINE
8
B.Mask
6
CONTINUOUS
10
132.5783160000000009
20
-101.2251329999999996
11
132.7296100000000081
21
-101.265671999999995
0
LINE
8
B.Mask
6
CONTINUOUS
10
132.7296100000000081
20
-101.265671999999995
11
132.8652569999999855
21
-101.343987999999996
0
LINE
8
B.Mask
6
CONTINUOUS
10
132.8652569999999855
20
-101.343987999999996
11
132.9760119999999972
21
-101.4547429999999935
0
LINE
8
B.Mask
6
CONTINUOUS
10
132.9760119999999972
20
-101.4547429999999935
11
133.0543279999999982
21
-101.5903899999999993
0
LINE
8
B.Mask
6
CONTINUOUS
10
133.0543279999999982
20
-101.5903899999999993
11
133.0948669999999936
21
-101.7416839999999922
0
LINE
8
B.Mask
6
CONTINUOUS
10
133.0948669999999936
20
-101.7416839999999922
11
133.0948669999999936
21
-101.8983159999999941
0
LINE
8
B.Mask
6
CONTINUOUS
10
133.0948669999999936
20
-101.8983159999999941
11
133.0543279999999982
21
-102.0496100000000013
0
LINE
8
B.Mask
6
CONTINUOUS
10
133.0543279999999982
20
-102.0496100000000013
11
132.9760119999999972
21
-102.1852569999999929
0
LINE
8
B.Mask
6
CONTINUOUS
10
132.9760119999999972
20
-102.1852569999999929
11
132.8652569999999855
21
-102.2960119999999904
0
LINE
8
B.Mask
6
CONTINUOUS
10
132.8652569999999855
20
-102.2960119999999904
11
132.7296100000000081
21
-102.3743279999999913
0
LINE
8
B.Mask
6
CONTINUOUS
10
132.7296100000000081
20
-102.3743279999999913
11
132.5783160000000009
21
-102.414867000000001
0
LINE
8
B.Mask
6
CONTINUOUS
10
132.5783160000000009
20
-102.414867000000001
11
132.5
21
-102.4200000000000017
0
LINE
8
B.Mask
6
CONTINUOUS
10
132.5
20
-102.4200000000000017
11
131.9000000000000057
21
-102.4200000000000017
0
LINE
8
B.Mask
6
CONTINUOUS
10
131.9000000000000057
20
-102.4200000000000017
11
131.8216840000000047
21
-102.414867000000001
0
LINE
8
B.Mask
6
CONTINUOUS
10
131.8216840000000047
20
-102.414867000000001
11
131.6703899999999976
21
-102.3743279999999913
0
LINE
8
B.Mask
6
CONTINUOUS
10
131.6703899999999976
20
-102.3743279999999913
11
131.5347429999999918
21
-102.2960119999999904
0
LINE
8
B.Mask
6
CONTINUOUS
10
131.5347429999999918
20
-102.2960119999999904
11
131.42398799999998
21
-102.1852569999999929
0
LINE
8
B.Mask
6
CONTINUOUS
10
131.42398799999998
20
-102.1852569999999929
11
131.3456720000000075
21
-102.0496100000000013
0
LINE
8
B.Mask
6
CONTINUOUS
10
131.3456720000000075
20
-102.0496100000000013
11
131.3051329999999837
21
-101.8983159999999941
0
LINE
8
B.Mask
6
CONTINUOUS
10
131.3051329999999837
20
-101.8983159999999941
11
131.3051329999999837
21
-101.7416839999999922
0
LINE
8
B.Mask
6
CONTINUOUS
10
131.3051329999999837
20
-101.7416839999999922
11
131.3456720000000075
21
-101.5903899999999993
0
LINE
8
B.Mask
6
CONTINUOUS
10
131.3456720000000075
20
-101.5903899999999993
11
131.42398799999998
21
-101.4547429999999935
0
LINE
8
B.Mask
6
CONTINUOUS
10
131.42398799999998
20
-101.4547429999999935
11
131.5347429999999918
21
-101.343987999999996
0
LINE
8
B.Mask
6
CONTINUOUS
10
131.5347429999999918
20
-101.343987999999996
11
131.6703899999999976
21
-101.265671999999995
0
LINE
8
B.Mask
6
CONTINUOUS
10
131.6703899999999976
20
-101.265671999999995
11
131.8216840000000047
21
-101.2251329999999996
0
LINE
8
B.Mask
6
CONTINUOUS
10
131.8216840000000047
20
-101.2251329999999996
11
131.9000000000000057
21
-101.2199999999999989
0
LINE
8
B.Mask
6
CONTINUOUS
10
131.9000000000000057
20
-101.2199999999999989
11
132.5
21
-101.2199999999999989
0
LINE
8
B.Mask
6
CONTINUOUS
10
132.5
20
-101.2199999999999989
11
132.5783160000000009
21
-101.2251329999999996
0
LINE
8
B.Mask
6
CONTINUOUS
10
136.3783159999999839
20
-101.2251329999999996
11
136.529609999999991
21
-101.265671999999995
0
LINE
8
B.Mask
6
CONTINUOUS
10
136.529609999999991
20
-101.265671999999995
11
136.6652569999999969
21
-101.343987999999996
0
LINE
8
B.Mask
6
CONTINUOUS
10
136.6652569999999969
20
-101.343987999999996
11
136.7760119999999802
21
-101.4547429999999935
0
LINE
8
B.Mask
6
CONTINUOUS
10
136.7760119999999802
20
-101.4547429999999935
11
136.8543279999999811
21
-101.5903899999999993
0
LINE
8
B.Mask
6
CONTINUOUS
10
136.8543279999999811
20
-101.5903899999999993
11
136.894867000000005
21
-101.7416839999999922
0
LINE
8
B.Mask
6
CONTINUOUS
10
136.894867000000005
20
-101.7416839999999922
11
136.894867000000005
21
-101.8983159999999941
0
LINE
8
B.Mask
6
CONTINUOUS
10
136.894867000000005
20
-101.8983159999999941
11
136.8543279999999811
21
-102.0496100000000013
0
LINE
8
B.Mask
6
CONTINUOUS
10
136.8543279999999811
20
-102.0496100000000013
11
136.7760119999999802
21
-102.1852569999999929
0
LINE
8
B.Mask
6
CONTINUOUS
10
136.7760119999999802
20
-102.1852569999999929
11
136.6652569999999969
21
-102.2960119999999904
0
LINE
8
B.Mask
6
CONTINUOUS
10
136.6652569999999969
20
-102.2960119999999904
11
136.529609999999991
21
-102.3743279999999913
0
LINE
8
B.Mask
6
CONTINUOUS
10
136.529609999999991
20
-102.3743279999999913
11
136.3783159999999839
21
-102.414867000000001
0
LINE
8
B.Mask
6
CONTINUOUS
10
136.3783159999999839
20
-102.414867000000001
11
136.2999999999999829
21
-102.4200000000000017
0
LINE
8
B.Mask
6
CONTINUOUS
10
136.2999999999999829
20
-102.4200000000000017
11
135.6999999999999886
21
-102.4200000000000017
0
LINE
8
B.Mask
6
CONTINUOUS
10
135.6999999999999886
20
-102.4200000000000017
11
135.6216839999999877
21
-102.414867000000001
0
LINE
8
B.Mask
6
CONTINUOUS
10
135.6216839999999877
20
-102.414867000000001
11
135.4703899999999805
21
-102.3743279999999913
0
LINE
8
B.Mask
6
CONTINUOUS
10
135.4703899999999805
20
-102.3743279999999913
11
135.3347430000000031
21
-102.2960119999999904
0
LINE
8
B.Mask
6
CONTINUOUS
10
135.3347430000000031
20
-102.2960119999999904
11
135.2239879999999914
21
-102.1852569999999929
0
LINE
8
B.Mask
6
CONTINUOUS
10
135.2239879999999914
20
-102.1852569999999929
11
135.1456719999999905
21
-102.0496100000000013
0
LINE
8
B.Mask
6
CONTINUOUS
10
135.1456719999999905
20
-102.0496100000000013
11
135.105132999999995
21
-101.8983159999999941
0
LINE
8
B.Mask
6
CONTINUOUS
10
135.105132999999995
20
-101.8983159999999941
11
135.105132999999995
21
-101.7416839999999922
0
LINE
8
B.Mask
6
CONTINUOUS
10
135.105132999999995
20
-101.7416839999999922
11
135.1456719999999905
21
-101.5903899999999993
0
LINE
8
B.Mask
6
CONTINUOUS
10
135.1456719999999905
20
-101.5903899999999993
11
135.2239879999999914
21
-101.4547429999999935
0
LINE
8
B.Mask
6
CONTINUOUS
10
135.2239879999999914
20
-101.4547429999999935
11
135.3347430000000031
21
-101.343987999999996
0
LINE
8
B.Mask
6
CONTINUOUS
10
135.3347430000000031
20
-101.343987999999996
11
135.4703899999999805
21
-101.265671999999995
0
LINE
8
B.Mask
6
CONTINUOUS
10
135.4703899999999805
20
-101.265671999999995
11
135.6216839999999877
21
-101.2251329999999996
0
LINE
8
B.Mask
6
CONTINUOUS
10
135.6216839999999877
20
-101.2251329999999996
11
135.6999999999999886
21
-101.2199999999999989
0
LINE
8
B.Mask
6
CONTINUOUS
10
135.6999999999999886
20
-101.2199999999999989
11
136.2999999999999829
21
-101.2199999999999989
0
LINE
8
B.Mask
6
CONTINUOUS
10
136.2999999999999829
20
-101.2199999999999989
11
136.3783159999999839
21
-101.2251329999999996
0
LINE
8
B.Mask
6
CONTINUOUS
10
155.7212559999999826
20
-98.1787539999999979
11
155.884256999999991
21
-98.246270999999993
0
LINE
8
B.Mask
6
CONTINUOUS
10
155.884256999999991
20
-98.246270999999993
11
156.0309539999999799
21
-98.3442909999999983
0
LINE
8
B.Mask
6
CONTINUOUS
10
156.0309539999999799
20
-98.3442909999999983
11
156.1557090000000017
21
-98.4690459999999916
0
LINE
8
B.Mask
6
CONTINUOUS
10
156.1557090000000017
20
-98.4690459999999916
11
156.2537289999999928
21
-98.6157429999999948
0
LINE
8
B.Mask
6
CONTINUOUS
10
156.2537289999999928
20
-98.6157429999999948
11
156.3212460000000021
21
-98.778743999999989
0
LINE
8
B.Mask
6
CONTINUOUS
10
156.3212460000000021
20
-98.778743999999989
11
156.3556659999999852
21
-98.951785000000001
0
LINE
8
B.Mask
6
CONTINUOUS
10
156.3556659999999852
20
-98.951785000000001
11
156.3556659999999852
21
-99.1282149999999973
0
LINE
8
B.Mask
6
CONTINUOUS
10
156.3556659999999852
20
-99.1282149999999973
11
156.3212460000000021
21
-99.3012559999999951
0
LINE
8
B.Mask
6
CONTINUOUS
10
156.3212460000000021
20
-99.3012559999999951
11
156.2537289999999928
21
-99.4642569999999893
0
LINE
8
B.Mask
6
CONTINUOUS
10
156.2537289999999928
20
-99.4642569999999893
11
156.1557090000000017
21
-99.6109539999999924
0
LINE
8
B.Mask
6
CONTINUOUS
10
156.1557090000000017
20
-99.6109539999999924
11
156.0309539999999799
21
-99.7357089999999999
0
LINE
8
B.Mask
6
CONTINUOUS
10
156.0309539999999799
20
-99.7357089999999999
11
155.884256999999991
21
-99.8337289999999911
0
LINE
8
B.Mask
6
CONTINUOUS
10
155.884256999999991
20
-99.8337289999999911
11
155.7212559999999826
21
-99.9012460000000004
0
LINE
8
B.Mask
6
CONTINUOUS
10
155.7212559999999826
20
-99.9012460000000004
11
155.548214999999999
21
-99.9356659999999977
0
LINE
8
B.Mask
6
CONTINUOUS
10
155.548214999999999
20
-99.9356659999999977
11
155.3717849999999885
21
-99.9356659999999977
0
LINE
8
B.Mask
6
CONTINUOUS
10
155.3717849999999885
20
-99.9356659999999977
11
155.1987440000000049
21
-99.9012460000000004
0
LINE
8
B.Mask
6
CONTINUOUS
10
155.1987440000000049
20
-99.9012460000000004
11
155.0357429999999965
21
-99.8337289999999911
0
LINE
8
B.Mask
6
CONTINUOUS
10
155.0357429999999965
20
-99.8337289999999911
11
154.8890459999999791
21
-99.7357089999999999
0
LINE
8
B.Mask
6
CONTINUOUS
10
154.8890459999999791
20
-99.7357089999999999
11
154.7642909999999858
21
-99.6109539999999924
0
LINE
8
B.Mask
6
CONTINUOUS
10
154.7642909999999858
20
-99.6109539999999924
11
154.6662709999999947
21
-99.4642569999999893
0
LINE
8
B.Mask
6
CONTINUOUS
10
154.6662709999999947
20
-99.4642569999999893
11
154.5987539999999854
21
-99.3012559999999951
0
LINE
8
B.Mask
6
CONTINUOUS
10
154.5987539999999854
20
-99.3012559999999951
11
154.5643340000000023
21
-99.1282149999999973
0
LINE
8
B.Mask
6
CONTINUOUS
10
154.5643340000000023
20
-99.1282149999999973
11
154.5643340000000023
21
-98.951785000000001
0
LINE
8
B.Mask
6
CONTINUOUS
10
154.5643340000000023
20
-98.951785000000001
11
154.5987539999999854
21
-98.778743999999989
0
LINE
8
B.Mask
6
CONTINUOUS
10
154.5987539999999854
20
-98.778743999999989
11
154.6662709999999947
21
-98.6157429999999948
0
LINE
8
B.Mask
6
CONTINUOUS
10
154.6662709999999947
20
-98.6157429999999948
11
154.7642909999999858
21
-98.4690459999999916
0
LINE
8
B.Mask
6
CONTINUOUS
10
154.7642909999999858
20
-98.4690459999999916
11
154.8890459999999791
21
-98.3442909999999983
0
LINE
8
B.Mask
6
CONTINUOUS
10
154.8890459999999791
20
-98.3442909999999983
11
155.0357429999999965
21
-98.246270999999993
0
LINE
8
B.Mask
6
CONTINUOUS
10
155.0357429999999965
20
-98.246270999999993
11
155.1987440000000049
21
-98.1787539999999979
0
LINE
8
B.Mask
6
CONTINUOUS
10
155.1987440000000049
20
-98.1787539999999979
11
155.3717849999999885
21
-98.1443340000000006
0
LINE
8
B.Mask
6
CONTINUOUS
10
155.3717849999999885
20
-98.1443340000000006
11
155.548214999999999
21
-98.1443340000000006
0
LINE
8
B.Mask
6
CONTINUOUS
10
155.548214999999999
20
-98.1443340000000006
11
155.7212559999999826
21
-98.1787539999999979
0
LINE
8
B.Mask
6
CONTINUOUS
10
158.261256000000003
20
-98.1787539999999979
11
158.424256999999983
21
-98.246270999999993
0
LINE
8
B.Mask
6
CONTINUOUS
10
158.424256999999983
20
-98.246270999999993
11
158.5709540000000004
21
-98.3442909999999983
0
LINE
8
B.Mask
6
CONTINUOUS
10
158.5709540000000004
20
-98.3442909999999983
11
158.6957089999999937
21
-98.4690459999999916
0
LINE
8
B.Mask
6
CONTINUOUS
10
158.6957089999999937
20
-98.4690459999999916
11
158.7937289999999848
21
-98.6157429999999948
0
LINE
8
B.Mask
6
CONTINUOUS
10
158.7937289999999848
20
-98.6157429999999948
11
158.8612459999999942
21
-98.778743999999989
0
LINE
8
B.Mask
6
CONTINUOUS
10
158.8612459999999942
20
-98.778743999999989
11
158.8956660000000056
21
-98.951785000000001
0
LINE
8
B.Mask
6
CONTINUOUS
10
158.8956660000000056
20
-98.951785000000001
11
158.8956660000000056
21
-99.1282149999999973
0
LINE
8
B.Mask
6
CONTINUOUS
10
158.8956660000000056
20
-99.1282149999999973
11
158.8612459999999942
21
-99.3012559999999951
0
LINE
8
B.Mask
6
CONTINUOUS
10
158.8612459999999942
20
-99.3012559999999951
11
158.7937289999999848
21
-99.4642569999999893
0
LINE
8
B.Mask
6
CONTINUOUS
10
158.7937289999999848
20
-99.4642569999999893
11
158.6957089999999937
21
-99.6109539999999924
0
LINE
8
B.Mask
6
CONTINUOUS
10
158.6957089999999937
20
-99.6109539999999924
11
158.5709540000000004
21
-99.7357089999999999
0
LINE
8
B.Mask
6
CONTINUOUS
10
158.5709540000000004
20
-99.7357089999999999
11
158.424256999999983
21
-99.8337289999999911
0
LINE
8
B.Mask
6
CONTINUOUS
10
158.424256999999983
20
-99.8337289999999911
11
158.261256000000003
21
-99.9012460000000004
0
LINE
8
B.Mask
6
CONTINUOUS
10
158.261256000000003
20
-99.9012460000000004
11
158.0882149999999911
21
-99.9356659999999977
0
LINE
8
B.Mask
6
CONTINUOUS
10
158.0882149999999911
20
-99.9356659999999977
11
157.9117849999999805
21
-99.9356659999999977
0
LINE
8
B.Mask
6
CONTINUOUS
10
157.9117849999999805
20
-99.9356659999999977
11
157.738743999999997
21
-99.9012460000000004
0
LINE
8
B.Mask
6
CONTINUOUS
10
157.738743999999997
20
-99.9012460000000004
11
157.5757429999999886
21
-99.8337289999999911
0
LINE
8
B.Mask
6
CONTINUOUS
10
157.5757429999999886
20
-99.8337289999999911
11
157.4290459999999996
21
-99.7357089999999999
0
LINE
8
B.Mask
6
CONTINUOUS
10
157.4290459999999996
20
-99.7357089999999999
11
157.3042910000000063
21
-99.6109539999999924
0
LINE
8
B.Mask
6
CONTINUOUS
10
157.3042910000000063
20
-99.6109539999999924
11
157.2062709999999868
21
-99.4642569999999893
0
LINE
8
B.Mask
6
CONTINUOUS
10
157.2062709999999868
20
-99.4642569999999893
11
157.1387540000000058
21
-99.3012559999999951
0
LINE
8
B.Mask
6
CONTINUOUS
10
157.1387540000000058
20
-99.3012559999999951
11
157.1043339999999944
21
-99.1282149999999973
0
LINE
8
B.Mask
6
CONTINUOUS
10
157.1043339999999944
20
-99.1282149999999973
11
157.1043339999999944
21
-98.951785000000001
0
LINE
8
B.Mask
6
CONTINUOUS
10
157.1043339999999944
20
-98.951785000000001
11
157.1387540000000058
21
-98.778743999999989
0
LINE
8
B.Mask
6
CONTINUOUS
10
157.1387540000000058
20
-98.778743999999989
11
157.2062709999999868
21
-98.6157429999999948
0
LINE
8
B.Mask
6
CONTINUOUS
10
157.2062709999999868
20
-98.6157429999999948
11
157.3042910000000063
21
-98.4690459999999916
0
LINE
8
B.Mask
6
CONTINUOUS
10
157.3042910000000063
20
-98.4690459999999916
11
157.4290459999999996
21
-98.3442909999999983
0
LINE
8
B.Mask
6
CONTINUOUS
10
157.4290459999999996
20
-98.3442909999999983
11
157.5757429999999886
21
-98.246270999999993
0
LINE
8
B.Mask
6
CONTINUOUS
10
157.5757429999999886
20
-98.246270999999993
11
157.738743999999997
21
-98.1787539999999979
0
LINE
8
B.Mask
6
CONTINUOUS
10
157.738743999999997
20
-98.1787539999999979
11
157.9117849999999805
21
-98.1443340000000006
0
LINE
8
B.Mask
6
CONTINUOUS
10
157.9117849999999805
20
-98.1443340000000006
11
158.0882149999999911
21
-98.1443340000000006
0
LINE
8
B.Mask
6
CONTINUOUS
10
158.0882149999999911
20
-98.1443340000000006
11
158.261256000000003
21
-98.1787539999999979
0
LINE
8
B.Mask
6
CONTINUOUS
10
132.3501679999999965
20
-96.041444999999996
11
132.574025000000006
21
-96.1141810000000021
0
LINE
8
B.Mask
6
CONTINUOUS
10
132.574025000000006
20
-96.1141810000000021
11
132.7837480000000028
21
-96.2210400000000021
0
LINE
8
B.Mask
6
CONTINUOUS
10
132.7837480000000028
20
-96.2210400000000021
11
132.9741719999999816
21
-96.3593910000000022
0
LINE
8
B.Mask
6
CONTINUOUS
10
132.9741719999999816
20
-96.3593910000000022
11
133.1406089999999836
21
-96.52582799999999
0
LINE
8
B.Mask
6
CONTINUOUS
10
133.1406089999999836
20
-96.52582799999999
11
133.2789599999999837
21
-96.7162519999999972
0
LINE
8
B.Mask
6
CONTINUOUS
10
133.2789599999999837
20
-96.7162519999999972
11
133.3858189999999979
21
-96.925974999999994
0
LINE
8
B.Mask
6
CONTINUOUS
10
133.3858189999999979
20
-96.925974999999994
11
133.4585549999999898
21
-97.1498319999999893
0
LINE
8
B.Mask
6
CONTINUOUS
10
133.4585549999999898
20
-97.1498319999999893
11
133.4953759999999932
21
-97.3823110000000014
0
LINE
8
B.Mask
6
CONTINUOUS
10
133.4953759999999932
20
-97.3823110000000014
11
133.4953759999999932
21
-97.6176889999999986
0
LINE
8
B.Mask
6
CONTINUOUS
10
133.4953759999999932
20
-97.6176889999999986
11
133.4585549999999898
21
-97.8501679999999965
0
LINE
8
B.Mask
6
CONTINUOUS
10
133.4585549999999898
20
-97.8501679999999965
11
133.3858189999999979
21
-98.0740249999999918
0
LINE
8
B.Mask
6
CONTINUOUS
10
133.3858189999999979
20
-98.0740249999999918
11
133.2789599999999837
21
-98.2837479999999886
0
LINE
8
B.Mask
6
CONTINUOUS
10
133.2789599999999837
20
-98.2837479999999886
11
133.1406089999999836
21
-98.4741719999999958
0
LINE
8
B.Mask
6
CONTINUOUS
10
133.1406089999999836
20
-98.4741719999999958
11
132.9741719999999816
21
-98.6406089999999978
0
LINE
8
B.Mask
6
CONTINUOUS
10
132.9741719999999816
20
-98.6406089999999978
11
132.7837480000000028
21
-98.7789599999999979
0
LINE
8
B.Mask
6
CONTINUOUS
10
132.7837480000000028
20
-98.7789599999999979
11
132.574025000000006
21
-98.8858189999999979
0
LINE
8
B.Mask
6
CONTINUOUS
10
132.574025000000006
20
-98.8858189999999979
11
132.3501679999999965
21
-98.9585549999999898
0
LINE
8
B.Mask
6
CONTINUOUS
10
132.3501679999999965
20
-98.9585549999999898
11
132.1176889999999844
21
-98.9953759999999932
0
LINE
8
B.Mask
6
CONTINUOUS
10
132.1176889999999844
20
-98.9953759999999932
11
131.8823109999999872
21
-98.9953759999999932
0
LINE
8
B.Mask
6
CONTINUOUS
10
131.8823109999999872
20
-98.9953759999999932
11
131.6498320000000035
21
-98.9585549999999898
0
LINE
8
B.Mask
6
CONTINUOUS
10
131.6498320000000035
20
-98.9585549999999898
11
131.425974999999994
21
-98.8858189999999979
0
LINE
8
B.Mask
6
CONTINUOUS
10
131.425974999999994
20
-98.8858189999999979
11
131.2162519999999972
21
-98.7789599999999979
0
LINE
8
B.Mask
6
CONTINUOUS
10
131.2162519999999972
20
-98.7789599999999979
11
131.02582799999999
21
-98.6406089999999978
0
LINE
8
B.Mask
6
CONTINUOUS
10
131.02582799999999
20
-98.6406089999999978
11
130.859390999999988
21
-98.4741719999999958
0
LINE
8
B.Mask
6
CONTINUOUS
10
130.859390999999988
20
-98.4741719999999958
11
130.7210399999999879
21
-98.2837479999999886
0
LINE
8
B.Mask
6
CONTINUOUS
10
130.7210399999999879
20
-98.2837479999999886
11
130.6141810000000021
21
-98.0740249999999918
0
LINE
8
B.Mask
6
CONTINUOUS
10
130.6141810000000021
20
-98.0740249999999918
11
130.5414449999999817
21
-97.8501679999999965
0
LINE
8
B.Mask
6
CONTINUOUS
10
130.5414449999999817
20
-97.8501679999999965
11
130.5046240000000068
21
-97.6176889999999986
0
LINE
8
B.Mask
6
CONTINUOUS
10
130.5046240000000068
20
-97.6176889999999986
11
130.5046240000000068
21
-97.3823110000000014
0
LINE
8
B.Mask
6
CONTINUOUS
10
130.5046240000000068
20
-97.3823110000000014
11
130.5414449999999817
21
-97.1498319999999893
0
LINE
8
B.Mask
6
CONTINUOUS
10
130.5414449999999817
20
-97.1498319999999893
11
130.6141810000000021
21
-96.925974999999994
0
LINE
8
B.Mask
6
CONTINUOUS
10
130.6141810000000021
20
-96.925974999999994
11
130.7210399999999879
21
-96.7162519999999972
0
LINE
8
B.Mask
6
CONTINUOUS
10
130.7210399999999879
20
-96.7162519999999972
11
130.859390999999988
21
-96.52582799999999
0
LINE
8
B.Mask
6
CONTINUOUS
10
130.859390999999988
20
-96.52582799999999
11
131.02582799999999
21
-96.3593910000000022
0
LINE
8
B.Mask
6
CONTINUOUS
10
131.02582799999999
20
-96.3593910000000022
11
131.2162519999999972
21
-96.2210400000000021
0
LINE
8
B.Mask
6
CONTINUOUS
10
131.2162519999999972
20
-96.2210400000000021
11
131.425974999999994
21
-96.1141810000000021
0
LINE
8
B.Mask
6
CONTINUOUS
10
131.425974999999994
20
-96.1141810000000021
11
131.6498320000000035
21
-96.041444999999996
0
LINE
8
B.Mask
6
CONTINUOUS
10
131.6498320000000035
20
-96.041444999999996
11
131.8823109999999872
21
-96.0046239999999926
0
LINE
8
B.Mask
6
CONTINUOUS
10
131.8823109999999872
20
-96.0046239999999926
11
132.1176889999999844
21
-96.0046239999999926
0
LINE
8
B.Mask
6
CONTINUOUS
10
132.1176889999999844
20
-96.0046239999999926
11
132.3501679999999965
21
-96.041444999999996
0
LINE
8
B.Mask
6
CONTINUOUS
10
155.7212559999999826
20
-95.6387539999999916
11
155.884256999999991
21
-95.706271000000001
0
LINE
8
B.Mask
6
CONTINUOUS
10
155.884256999999991
20
-95.706271000000001
11
156.0309539999999799
21
-95.8042909999999921
0
LINE
8
B.Mask
6
CONTINUOUS
10
156.0309539999999799
20
-95.8042909999999921
11
156.1557090000000017
21
-95.9290459999999996
0
LINE
8
B.Mask
6
CONTINUOUS
10
156.1557090000000017
20
-95.9290459999999996
11
156.2537289999999928
21
-96.0757429999999886
0
LINE
8
B.Mask
6
CONTINUOUS
10
156.2537289999999928
20
-96.0757429999999886
11
156.3212460000000021
21
-96.238743999999997
0
LINE
8
B.Mask
6
CONTINUOUS
10
156.3212460000000021
20
-96.238743999999997
11
156.3556659999999852
21
-96.4117849999999947
0
LINE
8
B.Mask
6
CONTINUOUS
10
156.3556659999999852
20
-96.4117849999999947
11
156.3556659999999852
21
-96.5882149999999911
0
LINE
8
B.Mask
6
CONTINUOUS
10
156.3556659999999852
20
-96.5882149999999911
11
156.3212460000000021
21
-96.7612559999999888
0
LINE
8
B.Mask
6
CONTINUOUS
10
156.3212460000000021
20
-96.7612559999999888
11
156.2537289999999928
21
-96.9242569999999972
0
LINE
8
B.Mask
6
CONTINUOUS
10
156.2537289999999928
20
-96.9242569999999972
11
156.1557090000000017
21
-97.0709540000000004
0
LINE
8
B.Mask
6
CONTINUOUS
10
156.1557090000000017
20
-97.0709540000000004
11
156.0309539999999799
21
-97.1957089999999937
0
LINE
8
B.Mask
6
CONTINUOUS
10
156.0309539999999799
20
-97.1957089999999937
11
155.884256999999991
21
-97.293728999999999
0
LINE
8
B.Mask
6
CONTINUOUS
10
155.884256999999991
20
-97.293728999999999
11
155.7212559999999826
21
-97.3612459999999942
0
LINE
8
B.Mask
6
CONTINUOUS
10
155.7212559999999826
20
-97.3612459999999942
11
155.548214999999999
21
-97.3956659999999914
0
LINE
8
B.Mask
6
CONTINUOUS
10
155.548214999999999
20
-97.3956659999999914
11
155.3717849999999885
21
-97.3956659999999914
0
LINE
8
B.Mask
6
CONTINUOUS
10
155.3717849999999885
20
-97.3956659999999914
11
155.1987440000000049
21
-97.3612459999999942
0
LINE
8
B.Mask
6
CONTINUOUS
10
155.1987440000000049
20
-97.3612459999999942
11
155.0357429999999965
21
-97.293728999999999
0
LINE
8
B.Mask
6
CONTINUOUS
10
155.0357429999999965
20
-97.293728999999999
11
154.8890459999999791
21
-97.1957089999999937
0
LINE
8
B.Mask
6
CONTINUOUS
10
154.8890459999999791
20
-97.1957089999999937
11
154.7642909999999858
21
-97.0709540000000004
0
LINE
8
B.Mask
6
CONTINUOUS
10
154.7642909999999858
20
-97.0709540000000004
11
154.6662709999999947
21
-96.9242569999999972
0
LINE
8
B.Mask
6
CONTINUOUS
10
154.6662709999999947
20
-96.9242569999999972
11
154.5987539999999854
21
-96.7612559999999888
0
LINE
8
B.Mask
6
CONTINUOUS
10
154.5987539999999854
20
-96.7612559999999888
11
154.5643340000000023
21
-96.5882149999999911
0
LINE
8
B.Mask
6
CONTINUOUS
10
154.5643340000000023
20
-96.5882149999999911
11
154.5643340000000023
21
-96.4117849999999947
0
LINE
8
B.Mask
6
CONTINUOUS
10
154.5643340000000023
20
-96.4117849999999947
11
154.5987539999999854
21
-96.238743999999997
0
LINE
8
B.Mask
6
CONTINUOUS
10
154.5987539999999854
20
-96.238743999999997
11
154.6662709999999947
21
-96.0757429999999886
0
LINE
8
B.Mask
6
CONTINUOUS
10
154.6662709999999947
20
-96.0757429999999886
11
154.7642909999999858
21
-95.9290459999999996
0
LINE
8
B.Mask
6
CONTINUOUS
10
154.7642909999999858
20
-95.9290459999999996
11
154.8890459999999791
21
-95.8042909999999921
0
LINE
8
B.Mask
6
CONTINUOUS
10
154.8890459999999791
20
-95.8042909999999921
11
155.0357429999999965
21
-95.706271000000001
0
LINE
8
B.Mask
6
CONTINUOUS
10
155.0357429999999965
20
-95.706271000000001
11
155.1987440000000049
21
-95.6387539999999916
0
LINE
8
B.Mask
6
CONTINUOUS
10
155.1987440000000049
20
-95.6387539999999916
11
155.3717849999999885
21
-95.6043339999999944
0
LINE
8
B.Mask
6
CONTINUOUS
10
155.3717849999999885
20
-95.6043339999999944
11
155.548214999999999
21
-95.6043339999999944
0
LINE
8
B.Mask
6
CONTINUOUS
10
155.548214999999999
20
-95.6043339999999944
11
155.7212559999999826
21
-95.6387539999999916
0
LINE
8
B.Mask
6
CONTINUOUS
10
158.261256000000003
20
-95.6387539999999916
11
158.424256999999983
21
-95.706271000000001
0
LINE
8
B.Mask
6
CONTINUOUS
10
158.424256999999983
20
-95.706271000000001
11
158.5709540000000004
21
-95.8042909999999921
0
LINE
8
B.Mask
6
CONTINUOUS
10
158.5709540000000004
20
-95.8042909999999921
11
158.6957089999999937
21
-95.9290459999999996
0
LINE
8
B.Mask
6
CONTINUOUS
10
158.6957089999999937
20
-95.9290459999999996
11
158.7937289999999848
21
-96.0757429999999886
0
LINE
8
B.Mask
6
CONTINUOUS
10
158.7937289999999848
20
-96.0757429999999886
11
158.8612459999999942
21
-96.238743999999997
0
LINE
8
B.Mask
6
CONTINUOUS
10
158.8612459999999942
20
-96.238743999999997
11
158.8956660000000056
21
-96.4117849999999947
0
LINE
8
B.Mask
6
CONTINUOUS
10
158.8956660000000056
20
-96.4117849999999947
11
158.8956660000000056
21
-96.5882149999999911
0
LINE
8
B.Mask
6
CONTINUOUS
10
158.8956660000000056
20
-96.5882149999999911
11
158.8612459999999942
21
-96.7612559999999888
0
LINE
8
B.Mask
6
CONTINUOUS
10
158.8612459999999942
20
-96.7612559999999888
11
158.7937289999999848
21
-96.9242569999999972
0
LINE
8
B.Mask
6
CONTINUOUS
10
158.7937289999999848
20
-96.9242569999999972
11
158.6957089999999937
21
-97.0709540000000004
0
LINE
8
B.Mask
6
CONTINUOUS
10
158.6957089999999937
20
-97.0709540000000004
11
158.5709540000000004
21
-97.1957089999999937
0
LINE
8
B.Mask
6
CONTINUOUS
10
158.5709540000000004
20
-97.1957089999999937
11
158.424256999999983
21
-97.293728999999999
0
LINE
8
B.Mask
6
CONTINUOUS
10
158.424256999999983
20
-97.293728999999999
11
158.261256000000003
21
-97.3612459999999942
0
LINE
8
B.Mask
6
CONTINUOUS
10
158.261256000000003
20
-97.3612459999999942
11
158.0882149999999911
21
-97.3956659999999914
0
LINE
8
B.Mask
6
CONTINUOUS
10
158.0882149999999911
20
-97.3956659999999914
11
157.9117849999999805
21
-97.3956659999999914
0
LINE
8
B.Mask
6
CONTINUOUS
10
157.9117849999999805
20
-97.3956659999999914
11
157.738743999999997
21
-97.3612459999999942
0
LINE
8
B.Mask
6
CONTINUOUS
10
157.738743999999997
20
-97.3612459999999942
11
157.5757429999999886
21
-97.293728999999999
0
LINE
8
B.Mask
6
CONTINUOUS
10
157.5757429999999886
20
-97.293728999999999
11
157.4290459999999996
21
-97.1957089999999937
0
LINE
8
B.Mask
6
CONTINUOUS
10
157.4290459999999996
20
-97.1957089999999937
11
157.3042910000000063
21
-97.0709540000000004
0
LINE
8
B.Mask
6
CONTINUOUS
10
157.3042910000000063
20
-97.0709540000000004
11
157.2062709999999868
21
-96.9242569999999972
0
LINE
8
B.Mask
6
CONTINUOUS
10
157.2062709999999868
20
-96.9242569999999972
11
157.1387540000000058
21
-96.7612559999999888
0
LINE
8
B.Mask
6
CONTINUOUS
10
157.1387540000000058
20
-96.7612559999999888
11
157.1043339999999944
21
-96.5882149999999911
0
LINE
8
B.Mask
6
CONTINUOUS
10
157.1043339999999944
20
-96.5882149999999911
11
157.1043339999999944
21
-96.4117849999999947
0
LINE
8
B.Mask
6
CONTINUOUS
10
157.1043339999999944
20
-96.4117849999999947
11
157.1387540000000058
21
-96.238743999999997
0
LINE
8
B.Mask
6
CONTINUOUS
10
157.1387540000000058
20
-96.238743999999997
11
157.2062709999999868
21
-96.0757429999999886
0
LINE
8
B.Mask
6
CONTINUOUS
10
157.2062709999999868
20
-96.0757429999999886
11
157.3042910000000063
21
-95.9290459999999996
0
LINE
8
B.Mask
6
CONTINUOUS
10
157.3042910000000063
20
-95.9290459999999996
11
157.4290459999999996
21
-95.8042909999999921
0
LINE
8
B.Mask
6
CONTINUOUS
10
157.4290459999999996
20
-95.8042909999999921
11
157.5757429999999886
21
-95.706271000000001
0
LINE
8
B.Mask
6
CONTINUOUS
10
157.5757429999999886
20
-95.706271000000001
11
157.738743999999997
21
-95.6387539999999916
0
LINE
8
B.Mask
6
CONTINUOUS
10
157.738743999999997
20
-95.6387539999999916
11
157.9117849999999805
21
-95.6043339999999944
0
LINE
8
B.Mask
6
CONTINUOUS
10
157.9117849999999805
20
-95.6043339999999944
11
158.0882149999999911
21
-95.6043339999999944
0
LINE
8
B.Mask
6
CONTINUOUS
10
158.0882149999999911
20
-95.6043339999999944
11
158.261256000000003
21
-95.6387539999999916
0
LINE
8
B.Mask
6
CONTINUOUS
10
156.3291339999999821
20
-93.0638059999999996
11
156.3453549999999836
21
-93.0746449999999896
0
LINE
8
B.Mask
6
CONTINUOUS
10
156.3453549999999836
20
-93.0746449999999896
11
156.3561939999999879
21
-93.0908659999999912
0
LINE
8
B.Mask
6
CONTINUOUS
10
156.3561939999999879
20
-93.0908659999999912
11
156.3599999999999852
21
-93.1099999999999994
0
LINE
8
B.Mask
6
CONTINUOUS
10
156.3599999999999852
20
-93.1099999999999994
11
156.3599999999999852
21
-94.8100000000000023
0
LINE
8
B.Mask
6
CONTINUOUS
10
156.3599999999999852
20
-94.8100000000000023
11
156.3561939999999879
21
-94.8291339999999963
0
LINE
8
B.Mask
6
CONTINUOUS
10
156.3561939999999879
20
-94.8291339999999963
11
156.3453549999999836
21
-94.8453549999999979
0
LINE
8
B.Mask
6
CONTINUOUS
10
156.3453549999999836
20
-94.8453549999999979
11
156.3291339999999821
21
-94.8561940000000021
0
LINE
8
B.Mask
6
CONTINUOUS
10
156.3291339999999821
20
-94.8561940000000021
11
156.3100000000000023
21
-94.8599999999999994
0
LINE
8
B.Mask
6
CONTINUOUS
10
156.3100000000000023
20
-94.8599999999999994
11
154.6099999999999852
21
-94.8599999999999994
0
LINE
8
B.Mask
6
CONTINUOUS
10
154.6099999999999852
20
-94.8599999999999994
11
154.5908660000000054
21
-94.8561940000000021
0
LINE
8
B.Mask
6
CONTINUOUS
10
154.5908660000000054
20
-94.8561940000000021
11
154.5746450000000038
21
-94.8453549999999979
0
LINE
8
B.Mask
6
CONTINUOUS
10
154.5746450000000038
20
-94.8453549999999979
11
154.5638059999999996
21
-94.8291339999999963
0
LINE
8
B.Mask
6
CONTINUOUS
10
154.5638059999999996
20
-94.8291339999999963
11
154.5600000000000023
21
-94.8100000000000023
0
LINE
8
B.Mask
6
CONTINUOUS
10
154.5600000000000023
20
-94.8100000000000023
11
154.5600000000000023
21
-93.1099999999999994
0
LINE
8
B.Mask
6
CONTINUOUS
10
154.5600000000000023
20
-93.1099999999999994
11
154.5638059999999996
21
-93.0908659999999912
0
LINE
8
B.Mask
6
CONTINUOUS
10
154.5638059999999996
20
-93.0908659999999912
11
154.5746450000000038
21
-93.0746449999999896
0
LINE
8
B.Mask
6
CONTINUOUS
10
154.5746450000000038
20
-93.0746449999999896
11
154.5908660000000054
21
-93.0638059999999996
0
LINE
8
B.Mask
6
CONTINUOUS
10
154.5908660000000054
20
-93.0638059999999996
11
154.6099999999999852
21
-93.0600000000000023
0
LINE
8
B.Mask
6
CONTINUOUS
10
154.6099999999999852
20
-93.0600000000000023
11
156.3100000000000023
21
-93.0600000000000023
0
LINE
8
B.Mask
6
CONTINUOUS
10
156.3100000000000023
20
-93.0600000000000023
11
156.3291339999999821
21
-93.0638059999999996
0
LINE
8
B.Mask
6
CONTINUOUS
10
158.261256000000003
20
-93.0987539999999996
11
158.424256999999983
21
-93.1662709999999947
0
LINE
8
B.Mask
6
CONTINUOUS
10
158.424256999999983
20
-93.1662709999999947
11
158.5709540000000004
21
-93.2642910000000001
0
LINE
8
B.Mask
6
CONTINUOUS
10
158.5709540000000004
20
-93.2642910000000001
11
158.6957089999999937
21
-93.3890459999999933
0
LINE
8
B.Mask
6
CONTINUOUS
10
158.6957089999999937
20
-93.3890459999999933
11
158.7937289999999848
21
-93.5357429999999965
0
LINE
8
B.Mask
6
CONTINUOUS
10
158.7937289999999848
20
-93.5357429999999965
11
158.8612459999999942
21
-93.6987439999999907
0
LINE
8
B.Mask
6
CONTINUOUS
10
158.8612459999999942
20
-93.6987439999999907
11
158.8956660000000056
21
-93.8717850000000027
0
LINE
8
B.Mask
6
CONTINUOUS
10
158.8956660000000056
20
-93.8717850000000027
11
158.8956660000000056
21
-94.048214999999999
0
LINE
8
B.Mask
6
CONTINUOUS
10
158.8956660000000056
20
-94.048214999999999
11
158.8612459999999942
21
-94.2212559999999968
0
LINE
8
B.Mask
6
CONTINUOUS
10
158.8612459999999942
20
-94.2212559999999968
11
158.7937289999999848
21
-94.384256999999991
0
LINE
8
B.Mask
6
CONTINUOUS
10
158.7937289999999848
20
-94.384256999999991
11
158.6957089999999937
21
-94.5309539999999942
0
LINE
8
B.Mask
6
CONTINUOUS
10
158.6957089999999937
20
-94.5309539999999942
11
158.5709540000000004
21
-94.6557090000000017
0
LINE
8
B.Mask
6
CONTINUOUS
10
158.5709540000000004
20
-94.6557090000000017
11
158.424256999999983
21
-94.7537289999999928
0
LINE
8
B.Mask
6
CONTINUOUS
10
158.424256999999983
20
-94.7537289999999928
11
158.261256000000003
21
-94.8212460000000021
0
LINE
8
B.Mask
6
CONTINUOUS
10
158.261256000000003
20
-94.8212460000000021
11
158.0882149999999911
21
-94.8556659999999994
0
LINE
8
B.Mask
6
CONTINUOUS
10
158.0882149999999911
20
-94.8556659999999994
11
157.9117849999999805
21
-94.8556659999999994
0
LINE
8
B.Mask
6
CONTINUOUS
10
157.9117849999999805
20
-94.8556659999999994
11
157.738743999999997
21
-94.8212460000000021
0
LINE
8
B.Mask
6
CONTINUOUS
10
157.738743999999997
20
-94.8212460000000021
11
157.5757429999999886
21
-94.7537289999999928
0
LINE
8
B.Mask
6
CONTINUOUS
10
157.5757429999999886
20
-94.7537289999999928
11
157.4290459999999996
21
-94.6557090000000017
0
LINE
8
B.Mask
6
CONTINUOUS
10
157.4290459999999996
20
-94.6557090000000017
11
157.3042910000000063
21
-94.5309539999999942
0
LINE
8
B.Mask
6
CONTINUOUS
10
157.3042910000000063
20
-94.5309539999999942
11
157.2062709999999868
21
-94.384256999999991
0
LINE
8
B.Mask
6
CONTINUOUS
10
157.2062709999999868
20
-94.384256999999991
11
157.1387540000000058
21
-94.2212559999999968
0
LINE
8
B.Mask
6
CONTINUOUS
10
157.1387540000000058
20
-94.2212559999999968
11
157.1043339999999944
21
-94.048214999999999
0
LINE
8
B.Mask
6
CONTINUOUS
10
157.1043339999999944
20
-94.048214999999999
11
157.1043339999999944
21
-93.8717850000000027
0
LINE
8
B.Mask
6
CONTINUOUS
10
157.1043339999999944
20
-93.8717850000000027
11
157.1387540000000058
21
-93.6987439999999907
0
LINE
8
B.Mask
6
CONTINUOUS
10
157.1387540000000058
20
-93.6987439999999907
11
157.2062709999999868
21
-93.5357429999999965
0
LINE
8
B.Mask
6
CONTINUOUS
10
157.2062709999999868
20
-93.5357429999999965
11
157.3042910000000063
21
-93.3890459999999933
0
LINE
8
B.Mask
6
CONTINUOUS
10
157.3042910000000063
20
-93.3890459999999933
11
157.4290459999999996
21
-93.2642910000000001
0
LINE
8
B.Mask
6
CONTINUOUS
10
157.4290459999999996
20
-93.2642910000000001
11
157.5757429999999886
21
-93.1662709999999947
0
LINE
8
B.Mask
6
CONTINUOUS
10
157.5757429999999886
20
-93.1662709999999947
11
157.738743999999997
21
-93.0987539999999996
0
LINE
8
B.Mask
6
CONTINUOUS
10
157.738743999999997
20
-93.0987539999999996
11
157.9117849999999805
21
-93.0643340000000023
0
LINE
8
B.Mask
6
CONTINUOUS
10
157.9117849999999805
20
-93.0643340000000023
11
158.0882149999999911
21
-93.0643340000000023
0
LINE
8
B.Mask
6
CONTINUOUS
10
158.0882149999999911
20
-93.0643340000000023
11
158.261256000000003
21
-93.0987539999999996
0
LINE
8
B.Mask
6
CONTINUOUS
10
132.5783160000000009
20
-92.585132999999999
11
132.7296100000000081
21
-92.6256719999999945
0
LINE
8
B.Mask
6
CONTINUOUS
10
132.7296100000000081
20
-92.6256719999999945
11
132.8652569999999855
21
-92.7039879999999954
0
LINE
8
B.Mask
6
CONTINUOUS
10
132.8652569999999855
20
-92.7039879999999954
11
132.9760119999999972
21
-92.8147429999999929
0
LINE
8
B.Mask
6
CONTINUOUS
10
132.9760119999999972
20
-92.8147429999999929
11
133.0543279999999982
21
-92.9503899999999987
0
LINE
8
B.Mask
6
CONTINUOUS
10
133.0543279999999982
20
-92.9503899999999987
11
133.0948669999999936
21
-93.1016839999999917
0
LINE
8
B.Mask
6
CONTINUOUS
10
133.0948669999999936
20
-93.1016839999999917
11
133.0948669999999936
21
-93.2583159999999936
0
LINE
8
B.Mask
6
CONTINUOUS
10
133.0948669999999936
20
-93.2583159999999936
11
133.0543279999999982
21
-93.4096100000000007
0
LINE
8
B.Mask
6
CONTINUOUS
10
133.0543279999999982
20
-93.4096100000000007
11
132.9760119999999972
21
-93.5452569999999923
0
LINE
8
B.Mask
6
CONTINUOUS
10
132.9760119999999972
20
-93.5452569999999923
11
132.8652569999999855
21
-93.6560119999999898
0
LINE
8
B.Mask
6
CONTINUOUS
10
132.8652569999999855
20
-93.6560119999999898
11
132.7296100000000081
21
-93.7343279999999908
0
LINE
8
B.Mask
6
CONTINUOUS
10
132.7296100000000081
20
-93.7343279999999908
11
132.5783160000000009
21
-93.7748670000000004
0
LINE
8
B.Mask
6
CONTINUOUS
10
132.5783160000000009
20
-93.7748670000000004
11
132.5
21
-93.7800000000000011
0
LINE
8
B.Mask
6
CONTINUOUS
10
132.5
20
-93.7800000000000011
11
131.9000000000000057
21
-93.7800000000000011
0
LINE
8
B.Mask
6
CONTINUOUS
10
131.9000000000000057
20
-93.7800000000000011
11
131.8216840000000047
21
-93.7748670000000004
0
LINE
8
B.Mask
6
CONTINUOUS
10
131.8216840000000047
20
-93.7748670000000004
11
131.6703899999999976
21
-93.7343279999999908
0
LINE
8
B.Mask
6
CONTINUOUS
10
131.6703899999999976
20
-93.7343279999999908
11
131.5347429999999918
21
-93.6560119999999898
0
LINE
8
B.Mask
6
CONTINUOUS
10
131.5347429999999918
20
-93.6560119999999898
11
131.42398799999998
21
-93.5452569999999923
0
LINE
8
B.Mask
6
CONTINUOUS
10
131.42398799999998
20
-93.5452569999999923
11
131.3456720000000075
21
-93.4096100000000007
0
LINE
8
B.Mask
6
CONTINUOUS
10
131.3456720000000075
20
-93.4096100000000007
11
131.3051329999999837
21
-93.2583159999999936
0
LINE
8
B.Mask
6
CONTINUOUS
10
131.3051329999999837
20
-93.2583159999999936
11
131.3051329999999837
21
-93.1016839999999917
0
LINE
8
B.Mask
6
CONTINUOUS
10
131.3051329999999837
20
-93.1016839999999917
11
131.3456720000000075
21
-92.9503899999999987
0
LINE
8
B.Mask
6
CONTINUOUS
10
131.3456720000000075
20
-92.9503899999999987
11
131.42398799999998
21
-92.8147429999999929
0
LINE
8
B.Mask
6
CONTINUOUS
10
131.42398799999998
20
-92.8147429999999929
11
131.5347429999999918
21
-92.7039879999999954
0
LINE
8
B.Mask
6
CONTINUOUS
10
131.5347429999999918
20
-92.7039879999999954
11
131.6703899999999976
21
-92.6256719999999945
0
LINE
8
B.Mask
6
CONTINUOUS
10
131.6703899999999976
20
-92.6256719999999945
11
131.8216840000000047
21
-92.585132999999999
0
LINE
8
B.Mask
6
CONTINUOUS
10
131.8216840000000047
20
-92.585132999999999
11
131.9000000000000057
21
-92.5799999999999983
0
LINE
8
B.Mask
6
CONTINUOUS
10
131.9000000000000057
20
-92.5799999999999983
11
132.5
21
-92.5799999999999983
0
LINE
8
B.Mask
6
CONTINUOUS
10
132.5
20
-92.5799999999999983
11
132.5783160000000009
21
-92.585132999999999
0
LINE
8
B.Mask
6
CONTINUOUS
10
136.3783159999999839
20
-92.585132999999999
11
136.529609999999991
21
-92.6256719999999945
0
LINE
8
B.Mask
6
CONTINUOUS
10
136.529609999999991
20
-92.6256719999999945
11
136.6652569999999969
21
-92.7039879999999954
0
LINE
8
B.Mask
6
CONTINUOUS
10
136.6652569999999969
20
-92.7039879999999954
11
136.7760119999999802
21
-92.8147429999999929
0
LINE
8
B.Mask
6
CONTINUOUS
10
136.7760119999999802
20
-92.8147429999999929
11
136.8543279999999811
21
-92.9503899999999987
0
LINE
8
B.Mask
6
CONTINUOUS
10
136.8543279999999811
20
-92.9503899999999987
11
136.894867000000005
21
-93.1016839999999917
0
LINE
8
B.Mask
6
CONTINUOUS
10
136.894867000000005
20
-93.1016839999999917
11
136.894867000000005
21
-93.2583159999999936
0
LINE
8
B.Mask
6
CONTINUOUS
10
136.894867000000005
20
-93.2583159999999936
11
136.8543279999999811
21
-93.4096100000000007
0
LINE
8
B.Mask
6
CONTINUOUS
10
136.8543279999999811
20
-93.4096100000000007
11
136.7760119999999802
21
-93.5452569999999923
0
LINE
8
B.Mask
6
CONTINUOUS
10
136.7760119999999802
20
-93.5452569999999923
11
136.6652569999999969
21
-93.6560119999999898
0
LINE
8
B.Mask
6
CONTINUOUS
10
136.6652569999999969
20
-93.6560119999999898
11
136.529609999999991
21
-93.7343279999999908
0
LINE
8
B.Mask
6
CONTINUOUS
10
136.529609999999991
20
-93.7343279999999908
11
136.3783159999999839
21
-93.7748670000000004
0
LINE
8
B.Mask
6
CONTINUOUS
10
136.3783159999999839
20
-93.7748670000000004
11
136.2999999999999829
21
-93.7800000000000011
0
LINE
8
B.Mask
6
CONTINUOUS
10
136.2999999999999829
20
-93.7800000000000011
11
135.6999999999999886
21
-93.7800000000000011
0
LINE
8
B.Mask
6
CONTINUOUS
10
135.6999999999999886
20
-93.7800000000000011
11
135.6216839999999877
21
-93.7748670000000004
0
LINE
8
B.Mask
6
CONTINUOUS
10
135.6216839999999877
20
-93.7748670000000004
11
135.4703899999999805
21
-93.7343279999999908
0
LINE
8
B.Mask
6
CONTINUOUS
10
135.4703899999999805
20
-93.7343279999999908
11
135.3347430000000031
21
-93.6560119999999898
0
LINE
8
B.Mask
6
CONTINUOUS
10
135.3347430000000031
20
-93.6560119999999898
11
135.2239879999999914
21
-93.5452569999999923
0
LINE
8
B.Mask
6
CONTINUOUS
10
135.2239879999999914
20
-93.5452569999999923
11
135.1456719999999905
21
-93.4096100000000007
0
LINE
8
B.Mask
6
CONTINUOUS
10
135.1456719999999905
20
-93.4096100000000007
11
135.105132999999995
21
-93.2583159999999936
0
LINE
8
B.Mask
6
CONTINUOUS
10
135.105132999999995
20
-93.2583159999999936
11
135.105132999999995
21
-93.1016839999999917
0
LINE
8
B.Mask
6
CONTINUOUS
10
135.105132999999995
20
-93.1016839999999917
11
135.1456719999999905
21
-92.9503899999999987
0
LINE
8
B.Mask
6
CONTINUOUS
10
135.1456719999999905
20
-92.9503899999999987
11
135.2239879999999914
21
-92.8147429999999929
0
LINE
8
B.Mask
6
CONTINUOUS
10
135.2239879999999914
20
-92.8147429999999929
11
135.3347430000000031
21
-92.7039879999999954
0
LINE
8
B.Mask
6
CONTINUOUS
10
135.3347430000000031
20
-92.7039879999999954
11
135.4703899999999805
21
-92.6256719999999945
0
LINE
8
B.Mask
6
CONTINUOUS
10
135.4703899999999805
20
-92.6256719999999945
11
135.6216839999999877
21
-92.585132999999999
0
LINE
8
B.Mask
6
CONTINUOUS
10
135.6216839999999877
20
-92.585132999999999
11
135.6999999999999886
21
-92.5799999999999983
0
LINE
8
B.Mask
6
CONTINUOUS
10
135.6999999999999886
20
-92.5799999999999983
11
136.2999999999999829
21
-92.5799999999999983
0
LINE
8
B.Mask
6
CONTINUOUS
10
136.2999999999999829
20
-92.5799999999999983
11
136.3783159999999839
21
-92.585132999999999
0
CIRCLE
8
B.Mask
10
155.4599999999999795
20
-93.9599999999999937
40
0.175
0
CIRCLE
8
B.Mask
10
158.
20
-93.9599999999999937
40
0.175
0
CIRCLE
8
B.Mask
10
155.4599999999999795
20
-96.5
40
0.175
0
CIRCLE
8
B.Mask
10
158.
20
-96.5
40
0.175
0
CIRCLE
8
B.Mask
10
155.4599999999999795
20
-99.039999999999992
40
0.175
0
CIRCLE
8
B.Mask
10
158.
20
-99.039999999999992
40
0.175
0
CIRCLE
8
B.Mask
10
155.4599999999999795
20
-101.5799999999999983
40
0.175
0
CIRCLE
8
B.Mask
10
158.
20
-101.5799999999999983
40
0.175
0
LINE
8
B.Mask
6
CONTINUOUS
10
136.2999999999999829
20
-92.6299999999999955
11
135.6999999999999886
21
-92.6299999999999955
0
ARC
8
B.Mask
10
135.6999999999999886
20
-93.1799999999999926
40
0.5499999999999999
50
90.00000000
51
270.00000000
0
LINE
8
B.Mask
6
CONTINUOUS
10
135.6999999999999886
20
-93.7299999999999898
11
136.2999999999999829
21
-93.7299999999999898
0
ARC
8
B.Mask
10
136.2999999999999829
20
-93.1799999999999926
40
0.5499999999999999
50
270.00000000
51
450.00000000
0
LINE
8
B.Mask
6
CONTINUOUS
10
132.5
20
-92.6299999999999955
11
131.9000000000000057
21
-92.6299999999999955
0
ARC
8
B.Mask
10
131.9000000000000057
20
-93.1799999999999926
40
0.5499999999999999
50
90.00000000
51
270.00000000
0
LINE
8
B.Mask
6
CONTINUOUS
10
131.9000000000000057
20
-93.7299999999999898
11
132.5
21
-93.7299999999999898
0
ARC
8
B.Mask
10
132.5
20
-93.1799999999999926
40
0.5499999999999999
50
270.00000000
51
450.00000000
0
LINE
8
B.Mask
6
CONTINUOUS
10
136.2999999999999829
20
-101.269999999999996
11
135.6999999999999886
21
-101.269999999999996
0
ARC
8
B.Mask
10
135.6999999999999886
20
-101.8199999999999932
40
0.5499999999999999
50
90.00000000
51
270.00000000
0
LINE
8
B.Mask
6
CONTINUOUS
10
135.6999999999999886
20
-102.3699999999999903
11
136.2999999999999829
21
-102.3699999999999903
0
ARC
8
B.Mask
10
136.2999999999999829
20
-101.8199999999999932
40
0.5499999999999999
50
270.00000000
51
450.00000000
0
LINE
8
B.Mask
6
CONTINUOUS
10
132.5
20
-101.269999999999996
11
131.9000000000000057
21
-101.269999999999996
0
ARC
8
B.Mask
10
131.9000000000000057
20
-101.8199999999999932
40
0.5499999999999999
50
90.00000000
51
270.00000000
0
LINE
8
B.Mask
6
CONTINUOUS
10
131.9000000000000057
20
-102.3699999999999903
11
132.5
21
-102.3699999999999903
0
ARC
8
B.Mask
10
132.5
20
-101.8199999999999932
40
0.5499999999999999
50
270.00000000
51
450.00000000
0
CIRCLE
8
B.Mask
10
155.4599999999999795
20
-93.9599999999999937
40
0.175
0
CIRCLE
8
B.Mask
10
158.
20
-93.9599999999999937
40
0.175
0
CIRCLE
8
B.Mask
10
155.4599999999999795
20
-96.5
40
0.175
0
CIRCLE
8
B.Mask
10
158.
20
-96.5
40
0.175
0
CIRCLE
8
B.Mask
10
155.4599999999999795
20
-99.039999999999992
40
0.175
0
CIRCLE
8
B.Mask
10
158.
20
-99.039999999999992
40
0.175
0
CIRCLE
8
B.Mask
10
155.4599999999999795
20
-101.5799999999999983
40
0.175
0
CIRCLE
8
B.Mask
10
158.
20
-101.5799999999999983
40
0.175
0
LINE
8
B.Mask
6
CONTINUOUS
10
136.2999999999999829
20
-92.8799999999999955
11
135.6999999999999886
21
-92.8799999999999955
0
ARC
8
B.Mask
10
135.6999999999999886
20
-93.1799999999999926
40
0.3
50
90.00000000
51
270.00000000
0
LINE
8
B.Mask
6
CONTINUOUS
10
135.6999999999999886
20
-93.4799999999999898
11
136.2999999999999829
21
-93.4799999999999898
0
ARC
8
B.Mask
10
136.2999999999999829
20
-93.1799999999999926
40
0.3
50
270.00000000
51
450.00000000
0
LINE
8
B.Mask
6
CONTINUOUS
10
132.5
20
-92.8799999999999955
11
131.9000000000000057
21
-92.8799999999999955
0
ARC
8
B.Mask
10
131.9000000000000057
20
-93.1799999999999926
40
0.3
50
90.00000000
51
270.00000000
0
LINE
8
B.Mask
6
CONTINUOUS
10
131.9000000000000057
20
-93.4799999999999898
11
132.5
21
-93.4799999999999898
0
ARC
8
B.Mask
10
132.5
20
-93.1799999999999926
40
0.3
50
270.00000000
51
450.00000000
0
LINE
8
B.Mask
6
CONTINUOUS
10
136.2999999999999829
20
-101.519999999999996
11
135.6999999999999886
21
-101.519999999999996
0
ARC
8
B.Mask
10
135.6999999999999886
20
-101.8199999999999932
40
0.3
50
90.00000000
51
270.00000000
0
LINE
8
B.Mask
6
CONTINUOUS
10
135.6999999999999886
20
-102.1199999999999903
11
136.2999999999999829
21
-102.1199999999999903
0
ARC
8
B.Mask
10
136.2999999999999829
20
-101.8199999999999932
40
0.3
50
270.00000000
51
450.00000000
0
LINE
8
B.Mask
6
CONTINUOUS
10
132.5
20
-101.519999999999996
11
131.9000000000000057
21
-101.519999999999996
0
ARC
8
B.Mask
10
131.9000000000000057
20
-101.8199999999999932
40
0.3
50
90.00000000
51
270.00000000
0
LINE
8
B.Mask
6
CONTINUOUS
10
131.9000000000000057
20
-102.1199999999999903
11
132.5
21
-102.1199999999999903
0
ARC
8
B.Mask
10
132.5
20
-101.8199999999999932
40
0.3
50
270.00000000
51
450.00000000
  0
ENDSEC
  0
EOF
