%TF.GenerationSoftware,KiCad,Pcbnew,9.0.7+1*%
%TF.CreationDate,Date%
%TF.ProjectId,SuperSimpleSupply_USBC,53757065-7253-4696-9d70-6c6553757070,+ (Unreleased)*%
%TF.SameCoordinates,Original*%
%TF.FileFunction,Legend,Top*%
%TF.FilePolarity,Positive*%
%FSLAX46Y46*%
G04 Gerber Fmt 4.6, Leading zero omitted, Abs format (unit mm)*
G04 Created by KiCad*
%MOMM*%
%LPD*%
G01*
G04 APERTURE LIST*
G04 Aperture macros list*
%AMRoundRect*
0 Rectangle with rounded corners*
0 $1 Rounding radius*
0 $2 $3 $4 $5 $6 $7 $8 $9 X,Y pos of 4 corners*
0 Add a 4 corners polygon primitive as box body*
4,1,4,$2,$3,$4,$5,$6,$7,$8,$9,$2,$3,0*
0 Add four circle primitives for the rounded corners*
1,1,$1+$1,$2,$3*
1,1,$1+$1,$4,$5*
1,1,$1+$1,$6,$7*
1,1,$1+$1,$8,$9*
0 Add four rect primitives between the rounded corners*
20,1,$1+$1,$2,$3,$4,$5,0*
20,1,$1+$1,$4,$5,$6,$7,0*
20,1,$1+$1,$6,$7,$8,$9,0*
20,1,$1+$1,$8,$9,$2,$3,0*%
G04 Aperture macros list end*
%ADD10C,0.150000*%
%ADD11C,0.120000*%
%ADD12C,0.100000*%
%ADD13C,3.000000*%
%ADD14C,1.600000*%
%ADD15RoundRect,0.050000X-0.850000X-0.850000X0.850000X-0.850000X0.850000X0.850000X-0.850000X0.850000X0*%
%ADD16C,1.800000*%
%ADD17RoundRect,0.185000X0.185000X-0.247500X0.185000X0.247500X-0.185000X0.247500X-0.185000X-0.247500X0*%
%ADD18RoundRect,0.270833X-0.479167X0.379167X-0.479167X-0.379167X0.479167X-0.379167X0.479167X0.379167X0*%
%ADD19RoundRect,0.200000X-0.450000X0.200000X-0.450000X-0.200000X0.450000X-0.200000X0.450000X0.200000X0*%
%ADD20RoundRect,0.215000X0.435000X-0.215000X0.435000X0.215000X-0.435000X0.215000X-0.435000X-0.215000X0*%
%ADD21RoundRect,0.225000X0.425000X-0.225000X0.425000X0.225000X-0.425000X0.225000X-0.425000X-0.225000X0*%
%ADD22RoundRect,0.200000X0.450000X-0.200000X0.450000X0.200000X-0.450000X0.200000X-0.450000X-0.200000X0*%
%ADD23RoundRect,0.215000X-0.435000X0.215000X-0.435000X-0.215000X0.435000X-0.215000X0.435000X0.215000X0*%
%ADD24RoundRect,0.225000X-0.425000X0.225000X-0.425000X-0.225000X0.425000X-0.225000X0.425000X0.225000X0*%
%ADD25O,1.800000X1.200000*%
G04 APERTURE END LIST*
D10*
X146928571Y-91931009D02*
X146595238Y-91931009D01*
X146595238Y-92454819D02*
X146595238Y-91454819D01*
X146595238Y-91454819D02*
X147071428Y-91454819D01*
X147452381Y-92454819D02*
X147452381Y-91454819D01*
X147928571Y-92454819D02*
X147928571Y-91454819D01*
X147928571Y-91454819D02*
X148166666Y-91454819D01*
X148166666Y-91454819D02*
X148309523Y-91502438D01*
X148309523Y-91502438D02*
X148404761Y-91597676D01*
X148404761Y-91597676D02*
X148452380Y-91692914D01*
X148452380Y-91692914D02*
X148499999Y-91883390D01*
X148499999Y-91883390D02*
X148499999Y-92026247D01*
X148499999Y-92026247D02*
X148452380Y-92216723D01*
X148452380Y-92216723D02*
X148404761Y-92311961D01*
X148404761Y-92311961D02*
X148309523Y-92407200D01*
X148309523Y-92407200D02*
X148166666Y-92454819D01*
X148166666Y-92454819D02*
X147928571Y-92454819D01*
X148880952Y-91550057D02*
X148928571Y-91502438D01*
X148928571Y-91502438D02*
X149023809Y-91454819D01*
X149023809Y-91454819D02*
X149261904Y-91454819D01*
X149261904Y-91454819D02*
X149357142Y-91502438D01*
X149357142Y-91502438D02*
X149404761Y-91550057D01*
X149404761Y-91550057D02*
X149452380Y-91645295D01*
X149452380Y-91645295D02*
X149452380Y-91740533D01*
X149452380Y-91740533D02*
X149404761Y-91883390D01*
X149404761Y-91883390D02*
X148833333Y-92454819D01*
X148833333Y-92454819D02*
X149452380Y-92454819D01*
X149738095Y-99806819D02*
X150309523Y-99806819D01*
X150023809Y-100806819D02*
X150023809Y-99806819D01*
X150642857Y-100806819D02*
X150642857Y-99806819D01*
X150642857Y-99806819D02*
X151023809Y-99806819D01*
X151023809Y-99806819D02*
X151119047Y-99854438D01*
X151119047Y-99854438D02*
X151166666Y-99902057D01*
X151166666Y-99902057D02*
X151214285Y-99997295D01*
X151214285Y-99997295D02*
X151214285Y-100140152D01*
X151214285Y-100140152D02*
X151166666Y-100235390D01*
X151166666Y-100235390D02*
X151119047Y-100283009D01*
X151119047Y-100283009D02*
X151023809Y-100330628D01*
X151023809Y-100330628D02*
X150642857Y-100330628D01*
X151547619Y-99806819D02*
X152166666Y-99806819D01*
X152166666Y-99806819D02*
X151833333Y-100187771D01*
X151833333Y-100187771D02*
X151976190Y-100187771D01*
X151976190Y-100187771D02*
X152071428Y-100235390D01*
X152071428Y-100235390D02*
X152119047Y-100283009D01*
X152119047Y-100283009D02*
X152166666Y-100378247D01*
X152166666Y-100378247D02*
X152166666Y-100616342D01*
X152166666Y-100616342D02*
X152119047Y-100711580D01*
X152119047Y-100711580D02*
X152071428Y-100759200D01*
X152071428Y-100759200D02*
X151976190Y-100806819D01*
X151976190Y-100806819D02*
X151690476Y-100806819D01*
X151690476Y-100806819D02*
X151595238Y-100759200D01*
X151595238Y-100759200D02*
X151547619Y-100711580D01*
X156396666Y-91454819D02*
X156396666Y-92169104D01*
X156396666Y-92169104D02*
X156349047Y-92311961D01*
X156349047Y-92311961D02*
X156253809Y-92407200D01*
X156253809Y-92407200D02*
X156110952Y-92454819D01*
X156110952Y-92454819D02*
X156015714Y-92454819D01*
X156825238Y-91550057D02*
X156872857Y-91502438D01*
X156872857Y-91502438D02*
X156968095Y-91454819D01*
X156968095Y-91454819D02*
X157206190Y-91454819D01*
X157206190Y-91454819D02*
X157301428Y-91502438D01*
X157301428Y-91502438D02*
X157349047Y-91550057D01*
X157349047Y-91550057D02*
X157396666Y-91645295D01*
X157396666Y-91645295D02*
X157396666Y-91740533D01*
X157396666Y-91740533D02*
X157349047Y-91883390D01*
X157349047Y-91883390D02*
X156777619Y-92454819D01*
X156777619Y-92454819D02*
X157396666Y-92454819D01*
X146784819Y-101665594D02*
X145784819Y-101665594D01*
X145784819Y-101665594D02*
X145784819Y-101427499D01*
X145784819Y-101427499D02*
X145832438Y-101284642D01*
X145832438Y-101284642D02*
X145927676Y-101189404D01*
X145927676Y-101189404D02*
X146022914Y-101141785D01*
X146022914Y-101141785D02*
X146213390Y-101094166D01*
X146213390Y-101094166D02*
X146356247Y-101094166D01*
X146356247Y-101094166D02*
X146546723Y-101141785D01*
X146546723Y-101141785D02*
X146641961Y-101189404D01*
X146641961Y-101189404D02*
X146737200Y-101284642D01*
X146737200Y-101284642D02*
X146784819Y-101427499D01*
X146784819Y-101427499D02*
X146784819Y-101665594D01*
X146784819Y-100141785D02*
X146784819Y-100713213D01*
X146784819Y-100427499D02*
X145784819Y-100427499D01*
X145784819Y-100427499D02*
X145927676Y-100522737D01*
X145927676Y-100522737D02*
X146022914Y-100617975D01*
X146022914Y-100617975D02*
X146070533Y-100713213D01*
X150738095Y-96306819D02*
X151309523Y-96306819D01*
X151023809Y-97306819D02*
X151023809Y-96306819D01*
X151642857Y-97306819D02*
X151642857Y-96306819D01*
X151642857Y-96306819D02*
X152023809Y-96306819D01*
X152023809Y-96306819D02*
X152119047Y-96354438D01*
X152119047Y-96354438D02*
X152166666Y-96402057D01*
X152166666Y-96402057D02*
X152214285Y-96497295D01*
X152214285Y-96497295D02*
X152214285Y-96640152D01*
X152214285Y-96640152D02*
X152166666Y-96735390D01*
X152166666Y-96735390D02*
X152119047Y-96783009D01*
X152119047Y-96783009D02*
X152023809Y-96830628D01*
X152023809Y-96830628D02*
X151642857Y-96830628D01*
X152595238Y-96402057D02*
X152642857Y-96354438D01*
X152642857Y-96354438D02*
X152738095Y-96306819D01*
X152738095Y-96306819D02*
X152976190Y-96306819D01*
X152976190Y-96306819D02*
X153071428Y-96354438D01*
X153071428Y-96354438D02*
X153119047Y-96402057D01*
X153119047Y-96402057D02*
X153166666Y-96497295D01*
X153166666Y-96497295D02*
X153166666Y-96592533D01*
X153166666Y-96592533D02*
X153119047Y-96735390D01*
X153119047Y-96735390D02*
X152547619Y-97306819D01*
X152547619Y-97306819D02*
X153166666Y-97306819D01*
X150604819Y-97166666D02*
X150128628Y-97499999D01*
X150604819Y-97738094D02*
X149604819Y-97738094D01*
X149604819Y-97738094D02*
X149604819Y-97357142D01*
X149604819Y-97357142D02*
X149652438Y-97261904D01*
X149652438Y-97261904D02*
X149700057Y-97214285D01*
X149700057Y-97214285D02*
X149795295Y-97166666D01*
X149795295Y-97166666D02*
X149938152Y-97166666D01*
X149938152Y-97166666D02*
X150033390Y-97214285D01*
X150033390Y-97214285D02*
X150081009Y-97261904D01*
X150081009Y-97261904D02*
X150128628Y-97357142D01*
X150128628Y-97357142D02*
X150128628Y-97738094D01*
X149604819Y-96833332D02*
X149604819Y-96214285D01*
X149604819Y-96214285D02*
X149985771Y-96547618D01*
X149985771Y-96547618D02*
X149985771Y-96404761D01*
X149985771Y-96404761D02*
X150033390Y-96309523D01*
X150033390Y-96309523D02*
X150081009Y-96261904D01*
X150081009Y-96261904D02*
X150176247Y-96214285D01*
X150176247Y-96214285D02*
X150414342Y-96214285D01*
X150414342Y-96214285D02*
X150509580Y-96261904D01*
X150509580Y-96261904D02*
X150557200Y-96309523D01*
X150557200Y-96309523D02*
X150604819Y-96404761D01*
X150604819Y-96404761D02*
X150604819Y-96690475D01*
X150604819Y-96690475D02*
X150557200Y-96785713D01*
X150557200Y-96785713D02*
X150509580Y-96833332D01*
X143104819Y-98166666D02*
X142628628Y-98499999D01*
X143104819Y-98738094D02*
X142104819Y-98738094D01*
X142104819Y-98738094D02*
X142104819Y-98357142D01*
X142104819Y-98357142D02*
X142152438Y-98261904D01*
X142152438Y-98261904D02*
X142200057Y-98214285D01*
X142200057Y-98214285D02*
X142295295Y-98166666D01*
X142295295Y-98166666D02*
X142438152Y-98166666D01*
X142438152Y-98166666D02*
X142533390Y-98214285D01*
X142533390Y-98214285D02*
X142581009Y-98261904D01*
X142581009Y-98261904D02*
X142628628Y-98357142D01*
X142628628Y-98357142D02*
X142628628Y-98738094D01*
X143104819Y-97214285D02*
X143104819Y-97785713D01*
X143104819Y-97499999D02*
X142104819Y-97499999D01*
X142104819Y-97499999D02*
X142247676Y-97595237D01*
X142247676Y-97595237D02*
X142342914Y-97690475D01*
X142342914Y-97690475D02*
X142390533Y-97785713D01*
X137738095Y-92306819D02*
X138309523Y-92306819D01*
X138023809Y-93306819D02*
X138023809Y-92306819D01*
X138642857Y-93306819D02*
X138642857Y-92306819D01*
X138642857Y-92306819D02*
X139023809Y-92306819D01*
X139023809Y-92306819D02*
X139119047Y-92354438D01*
X139119047Y-92354438D02*
X139166666Y-92402057D01*
X139166666Y-92402057D02*
X139214285Y-92497295D01*
X139214285Y-92497295D02*
X139214285Y-92640152D01*
X139214285Y-92640152D02*
X139166666Y-92735390D01*
X139166666Y-92735390D02*
X139119047Y-92783009D01*
X139119047Y-92783009D02*
X139023809Y-92830628D01*
X139023809Y-92830628D02*
X138642857Y-92830628D01*
X140166666Y-93306819D02*
X139595238Y-93306819D01*
X139880952Y-93306819D02*
X139880952Y-92306819D01*
X139880952Y-92306819D02*
X139785714Y-92449676D01*
X139785714Y-92449676D02*
X139690476Y-92544914D01*
X139690476Y-92544914D02*
X139595238Y-92592533D01*
X141928571Y-101931009D02*
X141595238Y-101931009D01*
X141595238Y-102454819D02*
X141595238Y-101454819D01*
X141595238Y-101454819D02*
X142071428Y-101454819D01*
X142452381Y-102454819D02*
X142452381Y-101454819D01*
X142928571Y-102454819D02*
X142928571Y-101454819D01*
X142928571Y-101454819D02*
X143166666Y-101454819D01*
X143166666Y-101454819D02*
X143309523Y-101502438D01*
X143309523Y-101502438D02*
X143404761Y-101597676D01*
X143404761Y-101597676D02*
X143452380Y-101692914D01*
X143452380Y-101692914D02*
X143499999Y-101883390D01*
X143499999Y-101883390D02*
X143499999Y-102026247D01*
X143499999Y-102026247D02*
X143452380Y-102216723D01*
X143452380Y-102216723D02*
X143404761Y-102311961D01*
X143404761Y-102311961D02*
X143309523Y-102407200D01*
X143309523Y-102407200D02*
X143166666Y-102454819D01*
X143166666Y-102454819D02*
X142928571Y-102454819D01*
X143833333Y-101454819D02*
X144452380Y-101454819D01*
X144452380Y-101454819D02*
X144119047Y-101835771D01*
X144119047Y-101835771D02*
X144261904Y-101835771D01*
X144261904Y-101835771D02*
X144357142Y-101883390D01*
X144357142Y-101883390D02*
X144404761Y-101931009D01*
X144404761Y-101931009D02*
X144452380Y-102026247D01*
X144452380Y-102026247D02*
X144452380Y-102264342D01*
X144452380Y-102264342D02*
X144404761Y-102359580D01*
X144404761Y-102359580D02*
X144357142Y-102407200D01*
X144357142Y-102407200D02*
X144261904Y-102454819D01*
X144261904Y-102454819D02*
X143976190Y-102454819D01*
X143976190Y-102454819D02*
X143880952Y-102407200D01*
X143880952Y-102407200D02*
X143833333Y-102359580D01*
X138645180Y-97166666D02*
X137930895Y-97166666D01*
X137930895Y-97166666D02*
X137788038Y-97119047D01*
X137788038Y-97119047D02*
X137692800Y-97023809D01*
X137692800Y-97023809D02*
X137645180Y-96880952D01*
X137645180Y-96880952D02*
X137645180Y-96785714D01*
X137645180Y-98166666D02*
X137645180Y-97595238D01*
X137645180Y-97880952D02*
X138645180Y-97880952D01*
X138645180Y-97880952D02*
X138502323Y-97785714D01*
X138502323Y-97785714D02*
X138407085Y-97690476D01*
X138407085Y-97690476D02*
X138359466Y-97595238D01*
X147604819Y-98166666D02*
X147128628Y-98499999D01*
X147604819Y-98738094D02*
X146604819Y-98738094D01*
X146604819Y-98738094D02*
X146604819Y-98357142D01*
X146604819Y-98357142D02*
X146652438Y-98261904D01*
X146652438Y-98261904D02*
X146700057Y-98214285D01*
X146700057Y-98214285D02*
X146795295Y-98166666D01*
X146795295Y-98166666D02*
X146938152Y-98166666D01*
X146938152Y-98166666D02*
X147033390Y-98214285D01*
X147033390Y-98214285D02*
X147081009Y-98261904D01*
X147081009Y-98261904D02*
X147128628Y-98357142D01*
X147128628Y-98357142D02*
X147128628Y-98738094D01*
X146700057Y-97785713D02*
X146652438Y-97738094D01*
X146652438Y-97738094D02*
X146604819Y-97642856D01*
X146604819Y-97642856D02*
X146604819Y-97404761D01*
X146604819Y-97404761D02*
X146652438Y-97309523D01*
X146652438Y-97309523D02*
X146700057Y-97261904D01*
X146700057Y-97261904D02*
X146795295Y-97214285D01*
X146795295Y-97214285D02*
X146890533Y-97214285D01*
X146890533Y-97214285D02*
X147033390Y-97261904D01*
X147033390Y-97261904D02*
X147604819Y-97833332D01*
X147604819Y-97833332D02*
X147604819Y-97214285D01*
D11*
%TO.C,TP3*%
X151950000Y-102000000D02*
G75*
G02*
X150050000Y-102000000I-950000J0D01*
G01*
X150050000Y-102000000D02*
G75*
G02*
X151950000Y-102000000I950000J0D01*
G01*
%TO.C,J2*%
X154080000Y-92580000D02*
X155460000Y-92580000D01*
X154080000Y-93960000D02*
X154080000Y-92580000D01*
X154080000Y-95230000D02*
X154080000Y-102960000D01*
X154080000Y-95230000D02*
X156730000Y-95230000D01*
X154080000Y-102960000D02*
X159380000Y-102960000D01*
X156730000Y-92580000D02*
X159380000Y-92580000D01*
X156730000Y-95230000D02*
X156730000Y-92580000D01*
X159380000Y-92580000D02*
X159380000Y-102960000D01*
D12*
%TO.C,D1*%
X147550000Y-102192500D02*
G75*
G02*
X147450000Y-102192500I-50000J0D01*
G01*
X147450000Y-102192500D02*
G75*
G02*
X147550000Y-102192500I50000J0D01*
G01*
D11*
%TO.C,TP2*%
X152950000Y-98500000D02*
G75*
G02*
X151050000Y-98500000I-950000J0D01*
G01*
X151050000Y-98500000D02*
G75*
G02*
X152950000Y-98500000I950000J0D01*
G01*
%TO.C,R3*%
X147765000Y-96772936D02*
X147765000Y-97227064D01*
X149235000Y-96772936D02*
X149235000Y-97227064D01*
%TO.C,R1*%
X140265000Y-97772936D02*
X140265000Y-98227064D01*
X141735000Y-97772936D02*
X141735000Y-98227064D01*
%TO.C,TP1*%
X139950000Y-94500000D02*
G75*
G02*
X138050000Y-94500000I-950000J0D01*
G01*
X138050000Y-94500000D02*
G75*
G02*
X139950000Y-94500000I950000J0D01*
G01*
%TO.C,J1*%
X133250000Y-92830000D02*
X134950000Y-92830000D01*
X133250000Y-102170000D02*
X134950000Y-102170000D01*
%TO.C,R2*%
X144765000Y-97772936D02*
X144765000Y-98227064D01*
X146235000Y-97772936D02*
X146235000Y-98227064D01*
%TD*%
%LPC*%
D13*
%TO.C,FID2*%
X151500000Y-93000000D03*
%TD*%
D14*
%TO.C,TP3*%
X151000000Y-102000000D03*
%TD*%
D15*
%TO.C,J2*%
X155460000Y-93960000D03*
D16*
X158000000Y-93960000D03*
X155460000Y-96500000D03*
X158000000Y-96500000D03*
X155460000Y-99040000D03*
X158000000Y-99040000D03*
X155460000Y-101580000D03*
X158000000Y-101580000D03*
%TD*%
D17*
%TO.C,D1*%
X147500000Y-101500000D03*
X147500000Y-100355000D03*
%TD*%
D14*
%TO.C,TP2*%
X152000000Y-98500000D03*
%TD*%
D18*
%TO.C,R3*%
X148500000Y-96000000D03*
X148500000Y-98000000D03*
%TD*%
%TO.C,R1*%
X141000000Y-97000000D03*
X141000000Y-99000000D03*
%TD*%
D14*
%TO.C,TP1*%
X139000000Y-94500000D03*
%TD*%
D13*
%TO.C,FID3*%
X139500000Y-102000000D03*
%TD*%
D19*
%TO.C,J1*%
X136080000Y-97000000D03*
D20*
X136080000Y-99020000D03*
D21*
X136080000Y-100250000D03*
D22*
X136080000Y-98000000D03*
D23*
X136080000Y-95980000D03*
D24*
X136080000Y-94750000D03*
D25*
X136000000Y-93180000D03*
X132200000Y-93180000D03*
X136000000Y-101820000D03*
X132200000Y-101820000D03*
%TD*%
D18*
%TO.C,R2*%
X145500000Y-97000000D03*
X145500000Y-99000000D03*
%TD*%
%LPD*%
M02*
