  0
SECTION
  2
HEADER
  9
$ANGBASE
  50
0.0
  9
$ANGDIR
  70
1
  9
$MEASUREMENT
  70
1
  9
$INSUNITS
  70
4
  0
ENDSEC
  0
SECTION
  2
TABLES
  0
TABLE
  2
LTYPE
  70
4
  0
LTYPE
  5
40F
  2
CONTINUOUS
  70
0
  3
Solid line
  72
65
  73
0
  40
0.0
  0
LTYPE
  5
410
  2
DASHDOT
 70
0
  3
Dash Dot ____ _ ____ _
 72
65
 73
4
 40
2.0
 49
1.25
 49
-0.25
 49
0.25
 49
-0.25
  0
LTYPE
  5
411
  2
DASHED
 70
0
  3
Dashed __ __ __ __ __
 72
65
 73
2
 40
0.75
 49
0.5
 49
-0.25
  0
LTYPE
  5
43B
  2
DOTTED
 70
0
  3
Dotted .  .  .  .
 72
65
 73
2
 40
0.2
 49
0.0
 49
-0.2
  0
ENDTAB
  0
TABLE
  2
STYLE
  70
4
  0
STYLE
  2
KICAD
  70
0
  40
0
  41
1
  42
1
  50
0
  71
0
  3
isocp.shx
  0
STYLE
  2
KICADB
  70
0
  40
0
  41
1
  42
1
  50
0
  71
0
  3
isocp.shx
  0
STYLE
  2
KICADI
  70
0
  40
0
  41
1
  42
1
  50
15
  71
0
  3
isocp.shx
  0
STYLE
  2
KICADBI
  70
0
  40
0
  41
1
  42
1
  50
15
  71
0
  3
isocp.shx
  0
ENDTAB
  0
TABLE
  2
LAYER
  70
9
  0
LAYER
  2
L1 (Sig, PWR)
  70
0
  62
13
  420
13120564
  6
CONTINUOUS
  0
LAYER
  2
L6 (Sig, PWR)
  70
0
  62
153
  420
5078980
  6
CONTINUOUS
  0
LAYER
  2
F.Paste
  70
0
  62
253
  420
11837594
  6
CONTINUOUS
  0
LAYER
  2
B.Paste
  70
0
  62
132
  420
49858
  6
CONTINUOUS
  0
LAYER
  2
F.Silkscreen
  70
0
  62
41
  420
15920545
  6
CONTINUOUS
  0
LAYER
  2
B.Silkscreen
  70
0
  62
31
  420
15250087
  6
CONTINUOUS
  0
LAYER
  2
F.Mask
  70
0
  62
201
  420
14181631
  6
CONTINUOUS
  0
LAYER
  2
B.Mask
  70
0
  62
4
  420
196590
  6
CONTINUOUS
  0
LAYER
  2
Edge.Cuts
  70
0
  62
254
  420
13685453
  6
CONTINUOUS
  0
ENDTAB
  0
ENDSEC
  0
SECTION
  2
ENTITIES
0
LINE
8
Edge.Cuts
6
CONTINUOUS
10
158.
20
-90.9500000000000028
11
158.2675789999999836
21
-90.9675379999999905
0
LINE
8
Edge.Cuts
6
CONTINUOUS
10
158.2675789999999836
20
-90.9675379999999905
11
158.5305789999999888
21
-91.0198520000000002
0
LINE
8
Edge.Cuts
6
CONTINUOUS
10
158.5305789999999888
20
-91.0198520000000002
11
158.7845010000000059
21
-91.1060469999999896
0
LINE
8
Edge.Cuts
6
CONTINUOUS
10
158.7845010000000059
20
-91.1060469999999896
11
159.0250000000000057
21
-91.2246469999999903
0
LINE
8
Edge.Cuts
6
CONTINUOUS
10
159.0250000000000057
20
-91.2246469999999903
11
159.2479610000000037
21
-91.3736249999999899
0
LINE
8
Edge.Cuts
6
CONTINUOUS
10
159.2479610000000037
20
-91.3736249999999899
11
159.4495689999999968
21
-91.550430999999989
0
LINE
8
Edge.Cuts
6
CONTINUOUS
10
159.4495689999999968
20
-91.550430999999989
11
159.6263749999999959
21
-91.7520389999999963
0
LINE
8
Edge.Cuts
6
CONTINUOUS
10
159.6263749999999959
20
-91.7520389999999963
11
159.7753529999999955
21
-91.9749999999999943
0
LINE
8
Edge.Cuts
6
CONTINUOUS
10
159.7753529999999955
20
-91.9749999999999943
11
159.893952999999982
21
-92.2154989999999941
0
LINE
8
Edge.Cuts
6
CONTINUOUS
10
159.893952999999982
20
-92.2154989999999941
11
159.9801479999999856
21
-92.469420999999997
0
LINE
8
Edge.Cuts
6
CONTINUOUS
10
159.9801479999999856
20
-92.469420999999997
11
160.0324619999999811
21
-92.7324210000000022
0
LINE
8
Edge.Cuts
6
CONTINUOUS
10
160.0324619999999811
20
-92.7324210000000022
11
160.0499999999999829
21
-93.
0
LINE
8
Edge.Cuts
6
CONTINUOUS
10
160.0499999999999829
20
-93.
11
160.0499999999999829
21
-102.
0
LINE
8
Edge.Cuts
6
CONTINUOUS
10
160.0499999999999829
20
-102.
11
160.0324619999999811
21
-102.2675789999999978
0
LINE
8
Edge.Cuts
6
CONTINUOUS
10
160.0324619999999811
20
-102.2675789999999978
11
159.9801479999999856
21
-102.5305789999999888
0
LINE
8
Edge.Cuts
6
CONTINUOUS
10
159.9801479999999856
20
-102.5305789999999888
11
159.893952999999982
21
-102.7845009999999917
0
LINE
8
Edge.Cuts
6
CONTINUOUS
10
159.893952999999982
20
-102.7845009999999917
11
159.7753529999999955
21
-103.0249999999999915
0
LINE
8
Edge.Cuts
6
CONTINUOUS
10
159.7753529999999955
20
-103.0249999999999915
11
159.6263749999999959
21
-103.2479609999999894
0
LINE
8
Edge.Cuts
6
CONTINUOUS
10
159.6263749999999959
20
-103.2479609999999894
11
159.4495689999999968
21
-103.4495689999999968
0
LINE
8
Edge.Cuts
6
CONTINUOUS
10
159.4495689999999968
20
-103.4495689999999968
11
159.2479610000000037
21
-103.6263749999999959
0
LINE
8
Edge.Cuts
6
CONTINUOUS
10
159.2479610000000037
20
-103.6263749999999959
11
159.0250000000000057
21
-103.7753529999999955
0
LINE
8
Edge.Cuts
6
CONTINUOUS
10
159.0250000000000057
20
-103.7753529999999955
11
158.7845010000000059
21
-103.8939529999999962
0
LINE
8
Edge.Cuts
6
CONTINUOUS
10
158.7845010000000059
20
-103.8939529999999962
11
158.5305789999999888
21
-103.9801479999999998
0
LINE
8
Edge.Cuts
6
CONTINUOUS
10
158.5305789999999888
20
-103.9801479999999998
11
158.2675789999999836
21
-104.0324619999999953
0
LINE
8
Edge.Cuts
6
CONTINUOUS
10
158.2675789999999836
20
-104.0324619999999953
11
158.
21
-104.0499999999999972
0
LINE
8
Edge.Cuts
6
CONTINUOUS
10
158.
20
-104.0499999999999972
11
131.5
21
-104.0499999999999972
0
LINE
8
Edge.Cuts
6
CONTINUOUS
10
131.5
20
-104.0499999999999972
11
131.232420999999988
21
-104.0324619999999953
0
LINE
8
Edge.Cuts
6
CONTINUOUS
10
131.232420999999988
20
-104.0324619999999953
11
130.9694209999999828
21
-103.9801479999999998
0
LINE
8
Edge.Cuts
6
CONTINUOUS
10
130.9694209999999828
20
-103.9801479999999998
11
130.7154989999999941
21
-103.8939529999999962
0
LINE
8
Edge.Cuts
6
CONTINUOUS
10
130.7154989999999941
20
-103.8939529999999962
11
130.4749999999999943
21
-103.7753529999999955
0
LINE
8
Edge.Cuts
6
CONTINUOUS
10
130.4749999999999943
20
-103.7753529999999955
11
130.2520389999999963
21
-103.6263749999999959
0
LINE
8
Edge.Cuts
6
CONTINUOUS
10
130.2520389999999963
20
-103.6263749999999959
11
130.0504310000000032
21
-103.4495689999999968
0
LINE
8
Edge.Cuts
6
CONTINUOUS
10
130.0504310000000032
20
-103.4495689999999968
11
129.8736250000000041
21
-103.2479609999999894
0
LINE
8
Edge.Cuts
6
CONTINUOUS
10
129.8736250000000041
20
-103.2479609999999894
11
129.7246470000000045
21
-103.0249999999999915
0
LINE
8
Edge.Cuts
6
CONTINUOUS
10
129.7246470000000045
20
-103.0249999999999915
11
129.6060469999999896
21
-102.7845009999999917
0
LINE
8
Edge.Cuts
6
CONTINUOUS
10
129.6060469999999896
20
-102.7845009999999917
11
129.519851999999986
21
-102.5305789999999888
0
LINE
8
Edge.Cuts
6
CONTINUOUS
10
129.519851999999986
20
-102.5305789999999888
11
129.4675379999999905
21
-102.2675789999999978
0
LINE
8
Edge.Cuts
6
CONTINUOUS
10
129.4675379999999905
20
-102.2675789999999978
11
129.4499999999999886
21
-102.
0
LINE
8
Edge.Cuts
6
CONTINUOUS
10
129.4499999999999886
20
-102.
11
129.4499999999999886
21
-93.
0
LINE
8
Edge.Cuts
6
CONTINUOUS
10
129.4499999999999886
20
-93.
11
129.4675379999999905
21
-92.7324210000000022
0
LINE
8
Edge.Cuts
6
CONTINUOUS
10
129.4675379999999905
20
-92.7324210000000022
11
129.519851999999986
21
-92.469420999999997
0
LINE
8
Edge.Cuts
6
CONTINUOUS
10
129.519851999999986
20
-92.469420999999997
11
129.6060469999999896
21
-92.2154989999999941
0
LINE
8
Edge.Cuts
6
CONTINUOUS
10
129.6060469999999896
20
-92.2154989999999941
11
129.7246470000000045
21
-91.9749999999999943
0
LINE
8
Edge.Cuts
6
CONTINUOUS
10
129.7246470000000045
20
-91.9749999999999943
11
129.8736250000000041
21
-91.7520389999999963
0
LINE
8
Edge.Cuts
6
CONTINUOUS
10
129.8736250000000041
20
-91.7520389999999963
11
130.0504310000000032
21
-91.550430999999989
0
LINE
8
Edge.Cuts
6
CONTINUOUS
10
130.0504310000000032
20
-91.550430999999989
11
130.2520389999999963
21
-91.3736249999999899
0
LINE
8
Edge.Cuts
6
CONTINUOUS
10
130.2520389999999963
20
-91.3736249999999899
11
130.4749999999999943
21
-91.2246469999999903
0
LINE
8
Edge.Cuts
6
CONTINUOUS
10
130.4749999999999943
20
-91.2246469999999903
11
130.7154989999999941
21
-91.1060469999999896
0
LINE
8
Edge.Cuts
6
CONTINUOUS
10
130.7154989999999941
20
-91.1060469999999896
11
130.9694209999999828
21
-91.0198520000000002
0
LINE
8
Edge.Cuts
6
CONTINUOUS
10
130.9694209999999828
20
-91.0198520000000002
11
131.232420999999988
21
-90.9675379999999905
0
LINE
8
Edge.Cuts
6
CONTINUOUS
10
131.232420999999988
20
-90.9675379999999905
11
131.5
21
-90.9500000000000028
0
LINE
8
Edge.Cuts
6
CONTINUOUS
10
131.5
20
-90.9500000000000028
11
158.
21
-90.9500000000000028
0
LINE
8
Edge.Cuts
6
CONTINUOUS
10
131.5
20
-91.0499999999999972
11
131.3721899999999891
21
-91.0499999999999972
0
LINE
8
Edge.Cuts
6
CONTINUOUS
10
131.3721899999999891
20
-91.0499999999999972
11
131.118756999999988
21
-91.0833650000000006
0
LINE
8
Edge.Cuts
6
CONTINUOUS
10
131.118756999999988
20
-91.0833650000000006
11
130.871848
21
-91.1495239999999995
0
LINE
8
Edge.Cuts
6
CONTINUOUS
10
130.871848
20
-91.1495239999999995
11
130.6356859999999926
21
-91.2473449999999957
0
LINE
8
Edge.Cuts
6
CONTINUOUS
10
130.6356859999999926
20
-91.2473449999999957
11
130.4143129999999928
21
-91.3751549999999924
0
LINE
8
Edge.Cuts
6
CONTINUOUS
10
130.4143129999999928
20
-91.3751549999999924
11
130.2115169999999864
21
-91.5307659999999998
0
LINE
8
Edge.Cuts
6
CONTINUOUS
10
130.2115169999999864
20
-91.5307659999999998
11
130.0307659999999998
21
-91.7115170000000006
0
LINE
8
Edge.Cuts
6
CONTINUOUS
10
130.0307659999999998
20
-91.7115170000000006
11
129.8751550000000066
21
-91.9143129999999928
0
LINE
8
Edge.Cuts
6
CONTINUOUS
10
129.8751550000000066
20
-91.9143129999999928
11
129.7473449999999957
21
-92.1356859999999926
0
LINE
8
Edge.Cuts
6
CONTINUOUS
10
129.7473449999999957
20
-92.1356859999999926
11
129.6495239999999853
21
-92.371848
0
LINE
8
Edge.Cuts
6
CONTINUOUS
10
129.6495239999999853
20
-92.371848
11
129.5833649999999864
21
-92.6187570000000022
0
LINE
8
Edge.Cuts
6
CONTINUOUS
10
129.5833649999999864
20
-92.6187570000000022
11
129.5499999999999829
21
-92.8721899999999891
0
LINE
8
Edge.Cuts
6
CONTINUOUS
10
129.5499999999999829
20
-92.8721899999999891
11
129.5499999999999829
21
-93.
0
LINE
8
Edge.Cuts
6
CONTINUOUS
10
129.5499999999999829
20
-93.
11
129.5499999999999829
21
-102.
0
LINE
8
Edge.Cuts
6
CONTINUOUS
10
129.5499999999999829
20
-102.
11
129.5499999999999829
21
-102.1278099999999966
0
LINE
8
Edge.Cuts
6
CONTINUOUS
10
129.5499999999999829
20
-102.1278099999999966
11
129.5833649999999864
21
-102.3812429999999978
0
LINE
8
Edge.Cuts
6
CONTINUOUS
10
129.5833649999999864
20
-102.3812429999999978
11
129.6495239999999853
21
-102.628152
0
LINE
8
Edge.Cuts
6
CONTINUOUS
10
129.6495239999999853
20
-102.628152
11
129.7473449999999957
21
-102.8643139999999931
0
LINE
8
Edge.Cuts
6
CONTINUOUS
10
129.7473449999999957
20
-102.8643139999999931
11
129.8751550000000066
21
-103.085686999999993
0
LINE
8
Edge.Cuts
6
CONTINUOUS
10
129.8751550000000066
20
-103.085686999999993
11
130.0307659999999998
21
-103.2884829999999994
0
LINE
8
Edge.Cuts
6
CONTINUOUS
10
130.0307659999999998
20
-103.2884829999999994
11
130.2115169999999864
21
-103.4692340000000002
0
LINE
8
Edge.Cuts
6
CONTINUOUS
10
130.2115169999999864
20
-103.4692340000000002
11
130.4143129999999928
21
-103.6248449999999934
0
LINE
8
Edge.Cuts
6
CONTINUOUS
10
130.4143129999999928
20
-103.6248449999999934
11
130.6356859999999926
21
-103.7526549999999901
0
LINE
8
Edge.Cuts
6
CONTINUOUS
10
130.6356859999999926
20
-103.7526549999999901
11
130.871848
21
-103.8504760000000005
0
LINE
8
Edge.Cuts
6
CONTINUOUS
10
130.871848
20
-103.8504760000000005
11
131.118756999999988
21
-103.9166349999999994
0
LINE
8
Edge.Cuts
6
CONTINUOUS
10
131.118756999999988
20
-103.9166349999999994
11
131.3721899999999891
21
-103.9499999999999886
0
LINE
8
Edge.Cuts
6
CONTINUOUS
10
131.3721899999999891
20
-103.9499999999999886
11
131.5
21
-103.9499999999999886
0
LINE
8
Edge.Cuts
6
CONTINUOUS
10
131.5
20
-103.9499999999999886
11
158.
21
-103.9499999999999886
0
LINE
8
Edge.Cuts
6
CONTINUOUS
10
158.
20
-103.9499999999999886
11
158.1278099999999824
21
-103.9499999999999886
0
LINE
8
Edge.Cuts
6
CONTINUOUS
10
158.1278099999999824
20
-103.9499999999999886
11
158.3812429999999836
21
-103.9166349999999994
0
LINE
8
Edge.Cuts
6
CONTINUOUS
10
158.3812429999999836
20
-103.9166349999999994
11
158.628152
21
-103.8504760000000005
0
LINE
8
Edge.Cuts
6
CONTINUOUS
10
158.628152
20
-103.8504760000000005
11
158.8643139999999789
21
-103.7526549999999901
0
LINE
8
Edge.Cuts
6
CONTINUOUS
10
158.8643139999999789
20
-103.7526549999999901
11
159.0856869999999788
21
-103.6248449999999934
0
LINE
8
Edge.Cuts
6
CONTINUOUS
10
159.0856869999999788
20
-103.6248449999999934
11
159.2884829999999852
21
-103.4692340000000002
0
LINE
8
Edge.Cuts
6
CONTINUOUS
10
159.2884829999999852
20
-103.4692340000000002
11
159.4692340000000002
21
-103.2884829999999994
0
LINE
8
Edge.Cuts
6
CONTINUOUS
10
159.4692340000000002
20
-103.2884829999999994
11
159.6248449999999934
21
-103.085686999999993
0
LINE
8
Edge.Cuts
6
CONTINUOUS
10
159.6248449999999934
20
-103.085686999999993
11
159.7526550000000043
21
-102.8643139999999931
0
LINE
8
Edge.Cuts
6
CONTINUOUS
10
159.7526550000000043
20
-102.8643139999999931
11
159.8504759999999862
21
-102.628152
0
LINE
8
Edge.Cuts
6
CONTINUOUS
10
159.8504759999999862
20
-102.628152
11
159.9166349999999852
21
-102.3812429999999978
0
LINE
8
Edge.Cuts
6
CONTINUOUS
10
159.9166349999999852
20
-102.3812429999999978
11
159.9499999999999886
21
-102.1278099999999966
0
LINE
8
Edge.Cuts
6
CONTINUOUS
10
159.9499999999999886
20
-102.1278099999999966
11
159.9499999999999886
21
-102.
0
LINE
8
Edge.Cuts
6
CONTINUOUS
10
159.9499999999999886
20
-102.
11
159.9499999999999886
21
-93.
0
LINE
8
Edge.Cuts
6
CONTINUOUS
10
159.9499999999999886
20
-93.
11
159.9499999999999886
21
-92.8721899999999891
0
LINE
8
Edge.Cuts
6
CONTINUOUS
10
159.9499999999999886
20
-92.8721899999999891
11
159.9166349999999852
21
-92.6187570000000022
0
LINE
8
Edge.Cuts
6
CONTINUOUS
10
159.9166349999999852
20
-92.6187570000000022
11
159.8504759999999862
21
-92.371848
0
LINE
8
Edge.Cuts
6
CONTINUOUS
10
159.8504759999999862
20
-92.371848
11
159.7526550000000043
21
-92.1356859999999926
0
LINE
8
Edge.Cuts
6
CONTINUOUS
10
159.7526550000000043
20
-92.1356859999999926
11
159.6248449999999934
21
-91.9143129999999928
0
LINE
8
Edge.Cuts
6
CONTINUOUS
10
159.6248449999999934
20
-91.9143129999999928
11
159.4692340000000002
21
-91.7115170000000006
0
LINE
8
Edge.Cuts
6
CONTINUOUS
10
159.4692340000000002
20
-91.7115170000000006
11
159.2884829999999852
21
-91.5307659999999998
0
LINE
8
Edge.Cuts
6
CONTINUOUS
10
159.2884829999999852
20
-91.5307659999999998
11
159.0856869999999788
21
-91.3751549999999924
0
LINE
8
Edge.Cuts
6
CONTINUOUS
10
159.0856869999999788
20
-91.3751549999999924
11
158.8643139999999789
21
-91.2473449999999957
0
LINE
8
Edge.Cuts
6
CONTINUOUS
10
158.8643139999999789
20
-91.2473449999999957
11
158.628152
21
-91.1495239999999995
0
LINE
8
Edge.Cuts
6
CONTINUOUS
10
158.628152
20
-91.1495239999999995
11
158.3812429999999836
21
-91.0833650000000006
0
LINE
8
Edge.Cuts
6
CONTINUOUS
10
158.3812429999999836
20
-91.0833650000000006
11
158.1278099999999824
21
-91.0499999999999972
0
LINE
8
Edge.Cuts
6
CONTINUOUS
10
158.1278099999999824
20
-91.0499999999999972
11
158.
21
-91.0499999999999972
0
LINE
8
Edge.Cuts
6
CONTINUOUS
10
158.
20
-91.0499999999999972
11
131.5
21
-91.0499999999999972
0
CIRCLE
8
Edge.Cuts
10
155.4599999999999795
20
-93.9599999999999937
40
0.175
0
CIRCLE
8
Edge.Cuts
10
158.
20
-93.9599999999999937
40
0.175
0
CIRCLE
8
Edge.Cuts
10
155.4599999999999795
20
-96.5
40
0.175
0
CIRCLE
8
Edge.Cuts
10
158.
20
-96.5
40
0.175
0
CIRCLE
8
Edge.Cuts
10
155.4599999999999795
20
-99.039999999999992
40
0.175
0
CIRCLE
8
Edge.Cuts
10
158.
20
-99.039999999999992
40
0.175
0
CIRCLE
8
Edge.Cuts
10
155.4599999999999795
20
-101.5799999999999983
40
0.175
0
CIRCLE
8
Edge.Cuts
10
158.
20
-101.5799999999999983
40
0.175
0
LINE
8
Edge.Cuts
6
CONTINUOUS
10
136.2999999999999829
20
-92.6299999999999955
11
135.6999999999999886
21
-92.6299999999999955
0
ARC
8
Edge.Cuts
10
135.6999999999999886
20
-93.1799999999999926
40
0.5499999999999999
50
90.00000000
51
270.00000000
0
LINE
8
Edge.Cuts
6
CONTINUOUS
10
135.6999999999999886
20
-93.7299999999999898
11
136.2999999999999829
21
-93.7299999999999898
0
ARC
8
Edge.Cuts
10
136.2999999999999829
20
-93.1799999999999926
40
0.5499999999999999
50
270.00000000
51
450.00000000
0
LINE
8
Edge.Cuts
6
CONTINUOUS
10
132.5
20
-92.6299999999999955
11
131.9000000000000057
21
-92.6299999999999955
0
ARC
8
Edge.Cuts
10
131.9000000000000057
20
-93.1799999999999926
40
0.5499999999999999
50
90.00000000
51
270.00000000
0
LINE
8
Edge.Cuts
6
CONTINUOUS
10
131.9000000000000057
20
-93.7299999999999898
11
132.5
21
-93.7299999999999898
0
ARC
8
Edge.Cuts
10
132.5
20
-93.1799999999999926
40
0.5499999999999999
50
270.00000000
51
450.00000000
0
LINE
8
Edge.Cuts
6
CONTINUOUS
10
136.2999999999999829
20
-101.269999999999996
11
135.6999999999999886
21
-101.269999999999996
0
ARC
8
Edge.Cuts
10
135.6999999999999886
20
-101.8199999999999932
40
0.5499999999999999
50
90.00000000
51
270.00000000
0
LINE
8
Edge.Cuts
6
CONTINUOUS
10
135.6999999999999886
20
-102.3699999999999903
11
136.2999999999999829
21
-102.3699999999999903
0
ARC
8
Edge.Cuts
10
136.2999999999999829
20
-101.8199999999999932
40
0.5499999999999999
50
270.00000000
51
450.00000000
0
LINE
8
Edge.Cuts
6
CONTINUOUS
10
132.5
20
-101.269999999999996
11
131.9000000000000057
21
-101.269999999999996
0
ARC
8
Edge.Cuts
10
131.9000000000000057
20
-101.8199999999999932
40
0.5499999999999999
50
90.00000000
51
270.00000000
0
LINE
8
Edge.Cuts
6
CONTINUOUS
10
131.9000000000000057
20
-102.3699999999999903
11
132.5
21
-102.3699999999999903
0
ARC
8
Edge.Cuts
10
132.5
20
-101.8199999999999932
40
0.5499999999999999
50
270.00000000
51
450.00000000
0
CIRCLE
8
Edge.Cuts
10
155.4599999999999795
20
-93.9599999999999937
40
0.175
0
CIRCLE
8
Edge.Cuts
10
158.
20
-93.9599999999999937
40
0.175
0
CIRCLE
8
Edge.Cuts
10
155.4599999999999795
20
-96.5
40
0.175
0
CIRCLE
8
Edge.Cuts
10
158.
20
-96.5
40
0.175
0
CIRCLE
8
Edge.Cuts
10
155.4599999999999795
20
-99.039999999999992
40
0.175
0
CIRCLE
8
Edge.Cuts
10
158.
20
-99.039999999999992
40
0.175
0
CIRCLE
8
Edge.Cuts
10
155.4599999999999795
20
-101.5799999999999983
40
0.175
0
CIRCLE
8
Edge.Cuts
10
158.
20
-101.5799999999999983
40
0.175
0
LINE
8
Edge.Cuts
6
CONTINUOUS
10
136.2999999999999829
20
-92.8799999999999955
11
135.6999999999999886
21
-92.8799999999999955
0
ARC
8
Edge.Cuts
10
135.6999999999999886
20
-93.1799999999999926
40
0.3
50
90.00000000
51
270.00000000
0
LINE
8
Edge.Cuts
6
CONTINUOUS
10
135.6999999999999886
20
-93.4799999999999898
11
136.2999999999999829
21
-93.4799999999999898
0
ARC
8
Edge.Cuts
10
136.2999999999999829
20
-93.1799999999999926
40
0.3
50
270.00000000
51
450.00000000
0
LINE
8
Edge.Cuts
6
CONTINUOUS
10
132.5
20
-92.8799999999999955
11
131.9000000000000057
21
-92.8799999999999955
0
ARC
8
Edge.Cuts
10
131.9000000000000057
20
-93.1799999999999926
40
0.3
50
90.00000000
51
270.00000000
0
LINE
8
Edge.Cuts
6
CONTINUOUS
10
131.9000000000000057
20
-93.4799999999999898
11
132.5
21
-93.4799999999999898
0
ARC
8
Edge.Cuts
10
132.5
20
-93.1799999999999926
40
0.3
50
270.00000000
51
450.00000000
0
LINE
8
Edge.Cuts
6
CONTINUOUS
10
136.2999999999999829
20
-101.519999999999996
11
135.6999999999999886
21
-101.519999999999996
0
ARC
8
Edge.Cuts
10
135.6999999999999886
20
-101.8199999999999932
40
0.3
50
90.00000000
51
270.00000000
0
LINE
8
Edge.Cuts
6
CONTINUOUS
10
135.6999999999999886
20
-102.1199999999999903
11
136.2999999999999829
21
-102.1199999999999903
0
ARC
8
Edge.Cuts
10
136.2999999999999829
20
-101.8199999999999932
40
0.3
50
270.00000000
51
450.00000000
0
LINE
8
Edge.Cuts
6
CONTINUOUS
10
132.5
20
-101.519999999999996
11
131.9000000000000057
21
-101.519999999999996
0
ARC
8
Edge.Cuts
10
131.9000000000000057
20
-101.8199999999999932
40
0.3
50
90.00000000
51
270.00000000
0
LINE
8
Edge.Cuts
6
CONTINUOUS
10
131.9000000000000057
20
-102.1199999999999903
11
132.5
21
-102.1199999999999903
0
ARC
8
Edge.Cuts
10
132.5
20
-101.8199999999999932
40
0.3
50
270.00000000
51
450.00000000
  0
ENDSEC
  0
EOF
